<svg width="100%" height="100%" viewBox="0 0 26 24" fill="none" xmlns="http://www.w3.org/2000/svg" preserveAspectRatio="none">
<path fill-rule="evenodd" clip-rule="evenodd" d="M22.8064 12.0983L22.0932 12.2133C22.136 12.3032 22.1568 12.4 22.1542 12.4974C22.1687 12.6327 22.122 12.7676 22.0242 12.8725C21.9264 12.9775 21.7855 13.0441 21.6323 13.0577C21.4847 13.035 21.3524 12.9637 21.262 12.8583C21.1716 12.7529 21.13 12.6212 21.1454 12.4897C21.1454 12.4437 21.1454 12.4052 21.1454 12.3668L20.2148 12.528C20.2148 13.4566 20.9454 14.1935 21.789 14.1014C22.133 14.0292 22.4414 13.8611 22.6686 13.6219C22.8958 13.3827 23.0296 13.0852 23.0499 12.7736C23.0848 12.565 23.0848 12.3529 23.0499 12.1442C22.9787 12.1014 22.8913 12.085 22.8064 12.0983Z" fill="white"/>
<path fill-rule="evenodd" clip-rule="evenodd" d="M5.13426 12.4974C5.14969 12.6289 5.1081 12.7606 5.0177 12.866C4.9273 12.9714 4.79501 13.0428 4.64742 13.0654C4.496 13.0481 4.35773 12.9804 4.26078 12.8763C4.16384 12.7722 4.11543 12.6396 4.12554 12.5051C4.12736 12.4081 4.148 12.312 4.18647 12.2211L3.47329 12.106H3.42106C3.35301 12.1086 3.28699 12.127 3.22977 12.1596C3.1949 12.3683 3.1949 12.5804 3.22977 12.789C3.25201 13.1012 3.38755 13.3989 3.61619 13.638C3.84482 13.8771 4.1544 14.0449 4.49943 14.1168C5.36909 14.2089 6.05617 13.472 6.07356 12.5434L5.13426 12.3822C5.1383 12.4205 5.1383 12.4592 5.13426 12.4974Z" fill="white"/>
<path fill-rule="evenodd" clip-rule="evenodd" d="M4.11668 20.8402L1.29027 19.0672C1.1111 18.9566 0.95261 18.8219 0.820618 18.6681V22.0837C0.820618 22.7975 1.86415 23.0047 2.4903 23.0047H3.71667C3.90517 22.9799 4.07559 22.8919 4.19226 22.7589C4.30894 22.6258 4.36282 22.4582 4.3428 22.291V21.5234H5.52542C5.66822 21.5149 5.80662 21.4753 5.92798 21.4084C6.04935 21.3414 6.14996 21.2492 6.2212 21.1397H5.16023C4.78564 21.1377 4.42103 21.033 4.11668 20.8402Z" fill="white"/>
<path fill-rule="evenodd" clip-rule="evenodd" d="M22.1186 20.8402C21.82 21.038 21.4572 21.1457 21.0838 21.1474H20.0228C20.0933 21.2559 20.1927 21.3475 20.3124 21.4144C20.4322 21.4813 20.5686 21.5214 20.7099 21.5311H21.936V22.2986C21.916 22.4659 21.9699 22.6335 22.0866 22.7665C22.2033 22.8995 22.3737 22.9876 22.5622 23.0124H23.7798C24.406 23.0124 25.4495 22.8052 25.4495 22.0914V18.6758C25.3206 18.8294 25.165 18.9641 24.9886 19.0749L22.1186 20.8402Z" fill="white"/>
<path fill-rule="evenodd" clip-rule="evenodd" d="M23.6758 14.3087L19.6232 14.6004C19.1449 14.6388 18.8056 14.0785 19.0056 13.5873L19.3188 12.8197C19.3531 12.7205 19.416 12.6308 19.5014 12.5595C19.5868 12.4882 19.6917 12.4377 19.8058 12.4129L23.2845 11.845C23.4489 11.832 23.6125 11.876 23.7408 11.9677C23.869 12.0594 23.9519 12.1915 23.9716 12.3361L24.2584 13.3723C24.2942 13.4655 24.3079 13.5642 24.2985 13.6622C24.2891 13.7602 24.2569 13.8553 24.2038 13.9418C24.1508 14.0283 24.0779 14.1041 23.99 14.1646C23.9022 14.2251 23.8012 14.2689 23.6932 14.2933L23.6758 14.3087ZM21.2668 19.7351H16.6227V19.2822C16.6351 19.1786 16.6012 19.075 16.528 18.9932C16.4549 18.9115 16.3484 18.8583 16.2314 18.8448H13.7704V18.4611C13.7704 18.3735 13.8097 18.2895 13.8798 18.2276C13.9499 18.1657 14.0452 18.1309 14.1443 18.1309L21.4755 17.9544C21.5637 17.953 21.6498 17.9792 21.7182 18.0284C21.7866 18.0776 21.833 18.1466 21.8494 18.2231L22.0061 18.9291C22.0294 19.0263 22.0278 19.1269 22.0014 19.2235C21.9751 19.3201 21.9247 19.4103 21.8539 19.4875C21.7831 19.5648 21.6936 19.627 21.5921 19.6699C21.4905 19.7127 21.3794 19.7349 21.2668 19.7351ZM16.0488 20.6561V19.6275C16.0565 19.5516 16.031 19.4762 15.9777 19.4163C15.9244 19.3564 15.8471 19.3166 15.7618 19.3052H10.4135C10.3281 19.3166 10.2508 19.3564 10.1975 19.4163C10.1442 19.4762 10.1188 19.5516 10.1264 19.6275V20.6561C10.1188 20.7319 10.1442 20.8075 10.1975 20.8674C10.2508 20.9273 10.3281 20.9669 10.4135 20.9784H15.7618C15.8471 20.9669 15.9244 20.9273 15.9777 20.8674C16.031 20.8075 16.0565 20.7319 16.0488 20.6561ZM9.58732 19.2822V19.7351H4.94325C4.83047 19.7347 4.71918 19.7123 4.61734 19.6695C4.5155 19.6267 4.42574 19.5645 4.35428 19.4875C4.28281 19.4105 4.23141 19.3206 4.20395 19.2241C4.1765 19.1275 4.17367 19.0268 4.19546 18.9291L4.36064 18.2231C4.37678 18.1479 4.42204 18.0798 4.48867 18.0308C4.55531 17.9818 4.6391 17.9548 4.72583 17.9544L12.057 18.1309C12.1562 18.1309 12.2514 18.1657 12.3216 18.2276C12.3917 18.2895 12.4311 18.3735 12.4311 18.4611V18.8448H9.96121C9.84579 18.8601 9.74144 18.9141 9.67012 18.9957C9.59881 19.0772 9.5661 19.1798 9.57861 19.2822H9.58732ZM1.96908 13.3877L2.24743 12.3515C2.26919 12.2062 2.35366 12.0741 2.48331 11.9825C2.61297 11.891 2.77761 11.8472 2.94299 11.8603L6.42163 12.4283C6.53456 12.4535 6.63818 12.5042 6.72206 12.5756C6.80595 12.6469 6.86724 12.7364 6.89999 12.8351L7.21316 13.6026C7.41318 14.0938 7.08275 14.6542 6.60444 14.6235L2.54298 14.324C2.4358 14.2988 2.33559 14.2545 2.2487 14.1936C2.16181 14.1328 2.09007 14.0566 2.03787 13.9703C1.98566 13.8839 1.95415 13.789 1.9453 13.6914C1.93644 13.5939 1.95053 13.4957 1.98649 13.4031L1.96908 13.3877ZM17.9534 13.3032L17.3795 15.1146C17.3607 15.1906 17.3182 15.2604 17.2567 15.316C17.1952 15.3717 17.1173 15.4108 17.0317 15.4292L16.0401 15.5829C14.0864 15.8822 12.0888 15.8822 10.1351 15.5829L9.13508 15.4292C9.04966 15.4122 8.97186 15.3734 8.91151 15.3174C8.85115 15.2614 8.81081 15.1908 8.79579 15.1146L8.21319 13.3032C8.11752 12.9885 8.32621 12.6586 8.6132 12.6586H17.5882C17.8838 12.6586 18.0925 12.9885 17.9882 13.3032H17.9534ZM4.37806 7.731L6.1609 4.66094C6.29544 4.30168 6.54868 3.98629 6.8881 3.75513C7.22752 3.52397 7.63753 3.38766 8.06541 3.36388H18.11C18.5376 3.38867 18.9471 3.52524 19.2863 3.75626C19.6255 3.98727 19.879 4.30222 20.0146 4.66094L21.7974 7.731C21.8931 7.93056 21.7974 8.17622 21.5539 8.17622H4.61288C4.41286 8.17622 4.28239 7.93056 4.37806 7.731ZM23.4149 9.22013L23.5019 9.07416C23.5413 8.98184 23.6187 8.90616 23.7187 8.86204C23.8187 8.81793 23.9337 8.80877 24.041 8.83637H24.1629H25.0932C25.2398 8.83296 25.3797 8.78074 25.4848 8.6904L25.6238 8.58303C25.7148 8.49939 25.7861 8.40076 25.8338 8.29278C25.8816 8.18479 25.9049 8.06951 25.9022 7.95361C25.9042 7.74317 25.8209 7.53901 25.6674 7.37798C25.5608 7.264 25.4284 7.17105 25.2786 7.10496C25.1288 7.03887 24.965 7.0011 24.7977 6.99422H24.3977C24.1751 7.00587 23.9611 7.0745 23.782 7.19172C23.6028 7.30894 23.4661 7.46975 23.3887 7.65437C23.358 7.7274 23.3054 7.79158 23.2365 7.84025C23.1676 7.88892 23.0849 7.92014 22.9974 7.93057H22.8061L21.2407 5.00647C21.0194 4.32806 20.5668 3.72608 19.9445 3.28255C19.3221 2.83903 18.5601 2.57548 17.7621 2.5274H8.46542C7.66739 2.57924 6.90648 2.84517 6.28469 3.28968C5.66289 3.73418 5.20995 4.33597 4.98678 5.01415L3.43005 7.93825H3.23004C3.14412 7.92653 3.06335 7.89483 2.99607 7.84624C2.92878 7.79766 2.87747 7.73406 2.84744 7.66205C2.76825 7.4785 2.63109 7.31881 2.45231 7.20184C2.27354 7.08487 2.06051 7.01543 1.8385 7.0019H1.43849C1.27165 7.0106 1.10856 7.04912 0.95907 7.11508C0.809585 7.18104 0.676817 7.27309 0.568827 7.38566C0.417752 7.54744 0.337505 7.75171 0.342706 7.9613C0.339993 8.07719 0.363324 8.19247 0.411073 8.30046C0.458823 8.40845 0.530115 8.50708 0.621057 8.59071L0.751422 8.69808C0.860889 8.78712 1.00289 8.83896 1.15164 8.84405H2.08203H2.1952C2.3025 8.81646 2.41753 8.82561 2.5175 8.86973C2.61747 8.91384 2.69491 8.98952 2.73428 9.08184L2.82133 9.22781L0.847178 11.7835C0.632058 12.0671 0.519724 12.4017 0.525301 12.7429V17.1256C0.512023 17.4741 0.59094 17.8204 0.755456 18.1375C0.919971 18.4545 1.16565 18.7334 1.47331 18.9522L4.29971 20.7252C4.55326 20.8874 4.85634 20.9782 5.16937 20.986H9.63085C9.61834 21.0884 9.65104 21.1912 9.72235 21.2727C9.79367 21.3543 9.89802 21.4083 10.0134 21.4236H16.2401C16.3572 21.4101 16.4636 21.3569 16.5368 21.2752C16.6099 21.1934 16.6438 21.0896 16.6314 20.986H21.0668C21.3796 20.9773 21.6824 20.8866 21.9365 20.7252L24.7629 18.9445C25.0714 18.7281 25.318 18.4508 25.4826 18.1348C25.6473 17.8188 25.7255 17.4732 25.7109 17.1256V12.7429C25.7165 12.4017 25.6041 12.0671 25.389 11.7835L23.4149 9.22013Z" fill="white"/>
<path fill-rule="evenodd" clip-rule="evenodd" d="M7.09107 1.18425C7.08379 1.07473 7.12519 0.966975 7.20636 0.88388C7.28752 0.800785 7.40208 0.748819 7.5259 0.739034H11.5003C11.4192 0.917124 11.3779 1.10736 11.3786 1.2993V1.87494H7.54331C7.41949 1.86515 7.30493 1.81319 7.22377 1.73009C7.1426 1.647 7.1012 1.53924 7.10848 1.42972V1.18425H7.09107ZM18.7098 0.739034C18.7716 0.742919 18.8318 0.757439 18.8871 0.781944C18.9424 0.806449 18.9917 0.84045 19.0321 0.881818C19.0725 0.923187 19.1033 0.971213 19.1226 1.0231C19.1419 1.07499 19.1494 1.12979 19.1447 1.18425V1.42972C19.1518 1.54047 19.1092 1.64941 19.0262 1.73272C18.9432 1.81602 18.8265 1.86705 18.7011 1.87494H14.8745V1.2993C14.8766 1.10649 14.8322 0.915509 14.7441 0.739034H18.7098ZM7.26496 2.20492H11.3612V2.30479C11.3588 2.32195 11.3602 2.3393 11.3655 2.35595C11.3707 2.3726 11.3797 2.3881 11.3918 2.40167C11.4039 2.41524 11.4191 2.42664 11.4362 2.43502C11.4533 2.44341 11.4721 2.44868 11.4916 2.45058H14.7528C14.7912 2.44493 14.826 2.42695 14.8501 2.39998C14.8742 2.37302 14.8859 2.33906 14.8832 2.30479V2.20492H18.9795C19.1405 2.18579 19.2863 2.11137 19.3856 1.99786C19.485 1.88436 19.5296 1.74089 19.5099 1.59855V1.01523C19.525 0.872473 19.4775 0.730217 19.3772 0.617423C19.2769 0.504629 19.1315 0.430039 18.9708 0.409055H14.518C14.4332 0.318021 14.3272 0.244091 14.2072 0.192442C14.0871 0.140792 13.9557 0.112528 13.8222 0.109619H12.4048C12.2713 0.112528 12.1399 0.140792 12.0199 0.192442C11.8998 0.244091 11.7939 0.318021 11.709 0.409055H7.25646C7.09575 0.430039 6.95017 0.504629 6.84987 0.617423C6.74957 0.730217 6.70207 0.872473 6.71717 1.01523V1.59855C6.70001 1.74286 6.74779 1.88741 6.8503 2.00086C6.95281 2.11431 7.10172 2.18757 7.26496 2.20492Z" fill="white"/>
</svg>
