<svg width="100%" height="100%" preserveAspectRatio="none" viewBox="0 0 28 25" fill="none" xmlns="http://www.w3.org/2000/svg">
<path fill-rule="evenodd" clip-rule="evenodd" d="M4.38267 0.00822627L1.60901 5.97468L16.767 21.0881L27.5844 15.5655L12.8007 0.0822627L4.38267 0V0.00822627ZM8.73733 3.36956C9.24074 3.40861 9.69833 3.56296 10.012 3.79953C10.3257 4.0361 10.4705 4.33611 10.4154 4.6352C10.4707 4.93521 10.3263 5.23619 10.0129 5.47408C9.69955 5.71197 9.24188 5.86804 8.73733 5.90907C8.23531 5.86611 7.78112 5.70914 7.47061 5.47147C7.1601 5.23379 7.01755 4.93397 7.07312 4.6352C7.0178 4.33736 7.16075 4.03849 7.47154 3.80214C7.78233 3.56579 8.23645 3.41056 8.73733 3.36956Z" fill="#5AA832"/>
<path fill-rule="evenodd" clip-rule="evenodd" d="M0.762485 8.43201L16.3365 23.9974L27.4589 18.072L28 18.6719L16.1287 25L0 8.8758L0.762485 8.43201Z" fill="#5AA832"/>
</svg>
