<svg width="100%" height="100%" preserveAspectRatio="none" viewBox="0 0 29 22" fill="none" xmlns="http://www.w3.org/2000/svg">
<path fill-rule="evenodd" clip-rule="evenodd" d="M22.1499 17.8616C20.8456 17.8616 21.0058 17.395 21.0058 15.4612C21.0058 14.159 21.4634 14.3535 23.4084 14.3535C24.3237 14.3535 24.5525 14.538 24.5525 15.4612C24.5525 17.0743 23.9919 17.8616 22.1613 17.8616H22.1499ZM10.5372 15.4612C10.4805 14.9313 10.5426 14.3972 10.7203 13.887C11.6359 13.765 12.5653 13.7356 13.489 13.7995C14.4386 13.7995 14.0153 17.5213 13.8551 17.6865C13.6949 17.8517 10.5372 18.8818 10.5372 15.4709V15.4612ZM21.0401 12.2351C20.9636 11.4317 21.0252 10.6231 21.2232 9.83483C22.107 9.70494 23.0068 9.67219 23.9004 9.73756C24.7928 9.73756 24.5411 11.0106 24.5411 12.2351C24.5411 13.4595 23.7745 13.2068 21.6007 13.2068C21.2232 13.2068 21.0401 12.6918 21.0401 12.2351ZM10.5372 11.4965C10.5372 8.8533 10.2969 9.09627 12.9284 9.09627C14.2327 9.09627 14.0725 9.55298 14.0725 11.4965C14.0725 12.8278 13.4432 12.6042 11.6813 12.6042C10.7774 12.6042 10.5372 12.4003 10.5372 11.4965ZM19.8617 17.502V10.1164C19.8617 8.1146 19.8617 8.45476 21.8868 8.45476C23.9118 8.45476 24.5525 8.74634 24.5525 7.54135C24.5525 6.48212 24.7127 4.96613 23.9691 4.3442C23.7628 4.13829 23.4805 3.99792 23.1682 3.94586C22.8389 3.87665 22.5005 3.84389 22.1613 3.84859C20.9257 3.84859 16.0633 3.68333 15.2967 4.03317C15.0564 5.00493 15.2052 15.3933 15.2052 17.3174C15.2052 18.1531 17.7909 17.8711 18.8892 17.8711C19.4613 17.8711 19.4956 17.7158 19.8159 17.502H19.8617ZM10.5486 6.98738C10.5486 5.04384 10.5487 3.84859 12.9398 3.84859C13.8666 3.84859 14.084 4.03336 14.084 4.95653C14.084 8.42575 14.4729 7.87184 11.1321 7.87184C10.7546 7.87184 10.583 7.35661 10.583 6.94847L10.5486 6.98738ZM0.0457391 6.61822V19.4455C0.100672 19.8744 0.292855 20.2822 0.601452 20.6249C0.910049 20.9675 1.3233 21.2318 1.79626 21.389H26.303C26.7149 21.389 26.303 21.3889 26.5661 21.282L26.8865 21.1364L27.7674 20.2716C27.8891 20.0692 27.9887 19.8576 28.0649 19.6398V2.14799C28.0649 1.78844 27.1725 0.389038 26.1199 0.389038H6.34978C5.84637 0.389038 5.13702 1.29297 4.62217 1.79829L3.05475 3.3627L2.05938 4.39283V4.44147L1.16694 5.30624C0.915238 5.44229 0 6.32668 0 6.60849L0.0457391 6.61822Z" fill="#5AA832"/>
</svg>
