<svg width="100%" height="100%" preserveAspectRatio="none" viewBox="0 0 29 20" fill="none" xmlns="http://www.w3.org/2000/svg">
<path fill-rule="evenodd" clip-rule="evenodd" d="M1.49013 0H26.5576C26.7654 0.00682539 26.9686 0.051527 27.1525 0.131171C27.3363 0.210814 27.496 0.323337 27.6199 0.460196C27.9096 0.781501 28.0639 1.17116 28.0594 1.57063V18.3592C28.0656 18.7589 27.9112 19.1493 27.6199 19.4699C27.4979 19.6084 27.3387 19.7218 27.1544 19.8016C26.9702 19.8815 26.7659 19.9255 26.5576 19.9301H1.49013C1.2818 19.9255 1.07765 19.8815 0.893412 19.8016C0.709173 19.7218 0.549818 19.6084 0.427855 19.4699C0.140076 19.1484 -0.0101162 18.7579 0.000529294 18.3592V1.57063C-0.00741804 1.1723 0.142509 0.782745 0.427855 0.460196C0.551723 0.323337 0.711447 0.210814 0.895275 0.131171C1.0791 0.051527 1.28236 0.00682539 1.49013 0ZM26.5576 0.880333H1.49013C1.40123 0.883398 1.31435 0.903065 1.23608 0.937735C1.1578 0.972406 1.09019 1.02112 1.03836 1.08039C0.91075 1.21859 0.84214 1.38731 0.843033 1.56061V18.3492C0.838301 18.523 0.907321 18.6927 1.03836 18.8295C1.08808 18.8904 1.15525 18.9407 1.23399 18.9755C1.31273 19.0104 1.40063 19.0288 1.49013 19.0295H26.5576C26.6488 19.0288 26.7384 19.0103 26.8191 18.9755C26.8998 18.9407 26.9692 18.8906 27.0216 18.8295C27.1433 18.6893 27.2075 18.5212 27.2048 18.3492V1.56061C27.2043 1.38906 27.1404 1.22167 27.0216 1.08039C26.9673 1.02089 26.8974 0.972104 26.8172 0.937491C26.7369 0.902878 26.6482 0.883352 26.5576 0.880333Z" fill="#5AA832"/>
<path d="M9.29238 2.61121H8.44995V17.3387H9.29238V2.61121Z" fill="#5AA832"/>
<path d="M19.085 2.61121H18.2426V17.3387H19.085V2.61121Z" fill="#5AA832"/>
</svg>
