<svg width="29" height="29" viewBox="0 0 29 29" fill="none" xmlns="http://www.w3.org/2000/svg">
<path fill-rule="evenodd" clip-rule="evenodd" d="M4.63182 28.2585C3.11955 26.6601 1.95767 24.8278 1.20545 22.8555C0.401849 20.7666 -0.00427374 18.5753 0.00347932 16.3698C-0.0810399 12.2742 1.37637 8.26906 4.14822 4.97983C5.30293 3.56187 6.81395 2.39807 8.56338 1.57909C10.3128 0.760113 12.2533 0.308251 14.2337 0.258545C16.2122 0.308258 18.1508 0.760037 19.898 1.57909C21.6452 2.39814 23.1537 3.56213 24.3055 4.97983C27.0773 8.26906 28.5347 12.2742 28.4502 16.3698C28.459 18.5754 28.0528 20.7668 27.2483 22.8555C26.4992 24.8254 25.337 26.6542 23.8219 28.2464L23.0206 27.2606C24.4071 25.7962 25.4707 24.1164 26.1568 22.3079C26.8912 20.395 27.2646 18.3891 27.262 16.3698C27.3284 12.6131 25.983 8.94233 23.4351 5.92901C22.3776 4.63232 20.9947 3.56806 19.394 2.81883C17.7933 2.06959 16.0181 1.6555 14.2062 1.6091C12.3923 1.65549 10.615 2.06937 9.01208 2.81853C7.40917 3.56769 6.02379 4.63205 4.96338 5.92901C2.41549 8.94233 1.07 12.6131 1.13638 16.3698C1.1313 18.3893 1.50472 20.3955 2.24163 22.3079C2.92947 24.1183 3.99811 25.7985 5.39167 27.2606L4.63182 28.2585Z" fill="#5AA832"/>
<path fill-rule="evenodd" clip-rule="evenodd" d="M19.4424 6.20892C17.4437 9.38089 15.4312 12.5529 13.4049 15.7249C13.6536 16.7957 14.1924 17.1851 15.0352 16.9418L19.4424 6.20892Z" fill="#5AA832"/>
</svg>
