<svg width="100%" height="100%" preserveAspectRatio="none" viewBox="0 0 26 28" fill="none" xmlns="http://www.w3.org/2000/svg">
<path fill-rule="evenodd" clip-rule="evenodd" d="M13.0245 0.124845L25.6063 6.99765V21.0023L12.8031 28L0 21.0023V6.99765L12.8031 0L13.0245 0.124845ZM18.7554 4.23886L12.8031 0.980455L0.898776 7.48788V20.5124L12.8031 27.0195L24.7075 20.5124V7.48788L18.7554 4.23886Z" fill="#5AA832"/>
<path fill-rule="evenodd" clip-rule="evenodd" d="M9.29907 19.3587V7.59342H13.8185C14.5451 7.55599 15.2714 7.66927 15.9155 7.92032C16.4173 8.19895 16.7977 8.57976 17.0097 9.016C17.3144 9.58146 17.4648 10.1859 17.4524 10.7943C17.5001 11.5536 17.2416 12.3062 16.71 12.9571C16.4696 13.229 16.158 13.4626 15.7934 13.6442C15.4288 13.8258 15.0187 13.9517 14.5871 14.0145C14.9213 14.1914 15.2119 14.4092 15.4466 14.6584C15.8651 15.1311 16.2186 15.6334 16.5017 16.158L18.286 19.3587H16.5928L15.2903 16.9171C14.9492 16.2574 14.549 15.6152 14.0922 14.9947C13.91 14.7296 13.6468 14.4993 13.3236 14.3219C13.0086 14.186 12.6459 14.1225 12.2817 14.1393H10.6015V19.3683L9.29907 19.3587ZM10.6015 12.7841H13.506C14.0004 12.8071 14.4942 12.7342 14.9386 12.5727C15.286 12.4082 15.5584 12.1702 15.7202 11.89C15.9212 11.5476 16.019 11.1771 16.0067 10.804C16.0461 10.3039 15.8531 9.80885 15.4597 9.40062C15.261 9.22522 15.0084 9.0875 14.7229 8.99887C14.4374 8.91024 14.1273 8.87326 13.8185 8.89115H10.6015V12.7841Z" fill="#5AA832"/>
</svg>
