<svg width="100%" height="100%" preserveAspectRatio="none" viewBox="0 0 28 28" fill="none" xmlns="http://www.w3.org/2000/svg" >
<path fill-rule="evenodd" clip-rule="evenodd" d="M20.4133 0.0410205C22.8319 1.41284 24.7517 3.30456 25.9654 5.51201C27.3241 7.92416 28.0182 10.5556 27.9978 13.2164C28.0643 16.9786 26.6316 20.6543 23.9205 23.6766C22.7841 24.9813 21.2976 26.0505 19.5774 26.8007C17.8573 27.5508 15.9504 27.9613 14.0062 28C12.0617 27.9628 10.1541 27.5529 8.43367 26.8027C6.71326 26.0524 5.227 24.9824 4.09192 23.6766C1.37228 20.6574 -0.0653422 16.9803 0.00228102 13.2164C0.0167621 10.531 0.753311 7.88181 2.15863 5.46073C3.3811 3.2545 5.30945 1.36623 7.73543 0L8.21877 1.02451C5.98117 2.28618 4.20281 4.02925 3.07569 6.06528C1.81152 8.31055 1.16802 10.7604 1.19195 13.2369C1.11085 16.7046 2.41787 20.0973 4.90982 22.8877C5.914 24.0379 7.21141 24.9919 8.71036 25.6823C10.2093 26.3727 11.8733 26.7826 13.5848 26.8832V17.007C12.8398 16.8861 12.1766 16.5389 11.7259 16.0338C11.096 15.3321 10.7609 14.4793 10.7717 13.6056C10.7563 12.7312 11.0919 11.8775 11.7259 11.1776C11.9862 10.8719 12.3288 10.6202 12.7266 10.4425C13.1244 10.2647 13.5667 10.1657 14.0186 10.1531C14.4689 10.1657 14.9093 10.2649 15.3051 10.4427C15.7009 10.6206 16.0412 10.8721 16.2989 11.1776C16.9381 11.8753 17.2743 12.7305 17.2532 13.6056C17.2704 14.4801 16.9346 15.3346 16.2989 16.0338C15.8525 16.5427 15.1873 16.891 14.44 17.007V26.8729C16.1507 26.7742 17.8144 26.3662 19.3134 25.6776C20.8124 24.9889 22.1102 24.0365 23.115 22.8877C25.6069 20.0973 26.9139 16.7046 26.8328 13.2369C26.8495 10.7808 26.2061 8.35207 24.9492 6.12656C23.8308 4.08932 22.0611 2.34305 19.8309 1.07579L20.3142 0.0512756L20.4133 0.0410205ZM15.7908 11.8024C15.6017 11.5786 15.352 11.3945 15.0615 11.2646C14.771 11.1348 14.4479 11.0628 14.1178 11.0545C13.7862 11.0636 13.4616 11.1359 13.1693 11.2656C12.8769 11.3954 12.6247 11.579 12.4323 11.8024C11.9671 12.3161 11.7229 12.9435 11.7383 13.585C11.7248 14.2264 11.9688 14.8533 12.4323 15.3677C12.6254 15.5898 12.878 15.772 13.1704 15.9C13.4628 16.0279 13.7871 16.0982 14.1178 16.1053C14.4472 16.0998 14.7703 16.0301 15.061 15.902C15.3517 15.7738 15.6018 15.5908 15.7908 15.3677C16.2579 14.8542 16.5063 14.2274 16.4972 13.585C16.5091 12.9423 16.2604 12.3148 15.7908 11.8024Z" fill="#5AA832"/>
<path d="M10.8339 20.3674C9.55872 19.5876 8.53318 18.5621 7.84637 17.3802C7.15957 16.1982 6.83228 14.8953 6.893 13.585C6.85105 12.3883 7.12284 11.1983 7.68972 10.0965C8.25661 8.99479 9.10511 8.0074 10.1771 7.20233M17.9226 7.20233C18.9956 8.00896 19.8446 8.99801 20.4115 10.1015C20.9784 11.205 21.2497 12.3969 21.2068 13.5953C21.2707 14.906 20.9449 16.2097 20.2579 17.3922C19.5708 18.5746 18.5434 19.5997 17.2658 20.3777" stroke="#5AA832" stroke-width="1.1339" stroke-miterlimit="22.9256"/>
</svg>
