<svg width="100%" height="100%" preserveAspectRatio="none" viewBox="0 0 29 31" fill="none" xmlns="http://www.w3.org/2000/svg">
<path fill-rule="evenodd" clip-rule="evenodd" d="M26.2522 2.32219C27.2884 3.45506 31.833 8.68699 23.7061 20.2319C19.4279 26.4112 15.7419 28.7798 13.0477 29.614C12.3671 29.8643 11.6136 30.0038 10.8442 30.0216C10.0749 30.0394 9.30979 29.9353 8.60676 29.7171L4.59505 27.7604C4.15005 27.493 3.85869 27.1228 3.77439 26.718C3.69009 26.3131 3.81852 25.9006 4.13615 25.5564L7.70369 20.0363C7.74756 19.9069 7.83433 19.7861 7.95695 19.6841C8.07957 19.582 8.2347 19.5015 8.41006 19.4485C8.58542 19.3955 8.77618 19.3715 8.96708 19.3788C9.15799 19.3861 9.34378 19.4244 9.50973 19.4905C10.1632 19.776 10.7911 20.0888 11.3898 20.4276C11.8043 20.6335 12.2484 20.8808 12.6036 21.0662L13.1661 21.3853C13.2404 21.4218 13.325 21.4473 13.4142 21.4597C13.5034 21.4721 13.5954 21.4713 13.6843 21.4574C13.9951 21.406 14.4096 21.2103 14.8981 20.6953C16.1763 19.2979 17.3091 17.8386 18.288 16.3287C19.2182 15.0361 19.9811 13.6886 20.5677 12.3019C20.8026 11.6947 20.9611 11.0744 21.0414 10.4481C20.8517 10.209 20.5628 10.0151 20.2124 9.89191L17.2518 8.40894C16.8171 8.1368 16.5332 7.76735 16.4494 7.36473C16.3655 6.96211 16.4871 6.55162 16.7929 6.20486L20.3013 0.622985C20.3609 0.501434 20.458 0.390503 20.5855 0.297627C20.713 0.204752 20.8681 0.132192 21.0399 0.085164C21.2117 0.0381358 21.3961 0.0175568 21.5805 0.0250709C21.7648 0.032585 21.9446 0.0679952 22.1073 0.128662C22.8084 0.411097 23.4766 0.731271 24.1057 1.08638L25.364 1.77657C25.6785 1.93572 25.9664 2.11858 26.2225 2.32219H26.2522ZM22.8178 19.7376C30.5599 8.7385 26.3854 3.93917 25.438 2.90929L25.364 2.85775L23.6024 1.88972C23.0249 1.56143 22.4111 1.26543 21.7668 1.00416C21.3671 0.859978 21.2635 1.00416 21.2635 1.00416C21.2635 1.00416 18.4361 5.50467 17.7551 6.59634C17.311 7.26576 17.7551 7.52313 17.7551 7.52313L21.2339 9.24321C21.5036 9.36888 21.7246 9.53883 21.877 9.73828C22.0294 9.93773 22.1085 10.1604 22.1073 10.3862C22.0454 11.1002 21.8766 11.8079 21.6039 12.4975C20.9875 13.9572 20.19 15.3768 19.2206 16.7405C18.2045 18.3047 17.0271 19.8159 15.6975 21.2618C15.3001 21.7533 14.6493 22.1214 13.8767 22.2917C13.5933 22.3577 13.2867 22.3577 13.0033 22.2917L12.5 22.0755L10.8272 21.1794C10.1463 20.8086 9.43574 20.4483 9.06565 20.2938C8.69557 20.1393 8.59194 20.2938 8.59194 20.2938L4.99477 25.8654C4.55067 26.5451 4.99477 26.7922 4.99477 26.7922L8.11823 28.337L8.54749 28.5638C9.16381 28.8175 9.86679 28.9512 10.5829 28.9512C11.2991 28.9512 12.0021 28.8175 12.6184 28.5638C15.2682 27.9252 18.7322 25.6491 22.8623 19.7376H22.8178Z" fill="#5AA832"/>
<path fill-rule="evenodd" clip-rule="evenodd" d="M0.198622 13.8569L0.361436 14.0113H2.10821C2.21183 14.0113 2.28584 13.9187 2.28584 13.826V13.4654C2.2988 13.3833 2.2988 13.3004 2.28584 13.2183V13.1051C2.27846 13.0263 2.27846 12.9469 2.28584 12.868C2.29297 12.827 2.29297 12.7856 2.28584 12.7446C2.29319 12.6967 2.29319 12.6484 2.28584 12.6005V12.2297V12.1369C2.2787 12.0717 2.2787 12.0064 2.28584 11.9413V11.8485V11.7972L2.38947 11.4676C2.39666 11.4369 2.39666 11.4055 2.38947 11.3748C2.38947 11.3748 2.38947 11.375 2.38947 11.3132L2.5671 10.9114L2.7151 10.6127V10.4789L2.80391 10.3037L3.04082 9.92274V9.85058V9.77842V9.68589V9.61373C3.04082 9.55194 3.04082 9.61387 3.04082 9.50058V9.41811C3.04082 9.35632 3.04083 9.34589 3.14445 9.2841V9.23281C3.14445 9.23281 3.14445 9.23275 3.14445 9.17095C3.18517 9.13116 3.22963 9.0932 3.27763 9.05756C3.27763 9.05756 3.27763 9.05775 3.27763 8.99596C3.31724 8.95236 3.36183 8.91091 3.4109 8.87225C3.4109 8.87225 3.4109 8.87219 3.4109 8.8104C3.4109 8.74861 3.4109 8.8104 3.4109 8.8104C3.4109 8.8104 3.75135 8.53245 3.85498 8.41917C3.9586 8.30588 3.85499 8.41905 3.95861 8.29546C4.06223 8.17188 3.95864 8.29563 4.07706 8.21324C4.19627 8.08626 4.33523 7.96874 4.4915 7.86299C4.56552 7.86299 4.49154 7.86291 4.62477 7.78052L4.74313 7.6983C4.79538 7.66535 4.84032 7.62706 4.8764 7.58491C4.95042 7.53341 4.87639 7.58491 4.9504 7.58491C5.02442 7.58491 5.03926 7.50241 5.08367 7.47151C5.12808 7.44061 5.08367 7.47151 5.08367 7.47151C5.08367 7.47151 5.08365 7.47151 5.15767 7.47151C5.23168 7.47151 5.15771 7.4717 5.29094 7.40991C5.42417 7.34812 5.29094 7.40986 5.29094 7.35837L5.49811 7.23466C5.58693 7.23466 5.49817 7.23484 5.6462 7.16275L5.83865 7.06997L6.11991 6.95657L6.41591 6.84343L6.86008 6.6888L7.23016 6.56534C7.31898 6.56534 7.23011 6.56534 7.36334 6.56534L8.1035 6.40065H8.25158C8.34032 6.40439 8.42929 6.40439 8.51803 6.40065H8.65121H8.75484H8.90293C8.98172 6.39565 9.06095 6.39565 9.13974 6.40065H9.28774C9.37484 6.41783 9.46708 6.41783 9.55418 6.40065H10.0279C10.0725 6.39055 10.1118 6.37126 10.1408 6.34559C10.1698 6.31992 10.1872 6.28888 10.1908 6.25633V6.10195V5.07208V4.8043L10.0132 4.64967H9.61345C9.54017 4.6394 9.46465 4.6394 9.39137 4.64967H9.00647H8.91766H8.75484C8.75484 4.64967 8.62162 4.64967 8.57721 4.64967H8.44394H8.19231C8.05249 4.66883 7.9142 4.69296 7.77787 4.72183L7.45215 4.78368C7.30412 4.78368 7.45217 4.78368 7.28934 4.78368L7.00807 4.85584H6.81562L6.25309 5.01022L5.23167 5.38109C5.15483 5.42594 5.07033 5.46385 4.98004 5.49423C4.98004 5.49423 4.98 5.49429 4.84677 5.55609L4.66914 5.62825H4.59514H4.46196L4.29906 5.72078L4.16588 5.78263C4.08826 5.82428 4.01409 5.86886 3.94379 5.91639L3.85498 5.97824C3.85498 5.97824 3.76621 6.07103 3.7218 6.08133C3.65819 6.10871 3.60685 6.14782 3.57371 6.19448C3.48489 6.25627 3.5737 6.19461 3.38126 6.32849C3.29244 6.39028 3.21845 6.49322 3.12963 6.53442L2.99636 6.6272C2.68548 6.88428 2.39401 7.15244 2.12302 7.43053L2.01939 7.53336C1.9352 7.60166 1.86539 7.67792 1.81212 7.75991C1.77141 7.7997 1.72695 7.83766 1.67895 7.8733C1.67895 7.8733 1.67895 7.87336 1.67895 7.93516V7.98645C1.67895 7.98645 1.67895 8.04836 1.67895 8.11015C1.67895 8.17195 1.67888 8.21305 1.51604 8.27484C1.35321 8.33664 1.38283 8.47049 1.35323 8.50139L1.19041 8.73849C1.10159 8.85177 1.0128 8.95458 0.938784 9.06787L0.761152 9.37688L0.672246 9.51089C0.672246 9.51089 0.672264 9.58285 0.598248 9.63435L0.435434 9.92274C0.427424 9.98441 0.427424 10.0464 0.435434 10.108L0.302165 10.3964C0.297914 10.4169 0.297914 10.4378 0.302165 10.4583L0.0949886 11.0145C0.0949886 11.1381 0.0949886 11.1174 0.0949886 11.2307C0.0949886 11.2307 0.0949886 11.2308 0.0949886 11.2822C0.0949886 11.3337 0.0949886 11.282 0.0949886 11.3335C0.0949886 11.385 0.0949886 11.5292 0.0949886 11.6116C0.101714 11.6527 0.101714 11.6943 0.0949886 11.7353L0.00617287 12.1678V12.343V12.4356C0.00617287 12.4871 0.00617287 12.4975 0.00617287 12.549V12.6005V12.8271C-0.00205762 12.8473 -0.00205762 12.8685 0.00617287 12.8887V13.3214C0.00617287 13.3935 0.00617287 13.4346 0.00617287 13.5067V13.6201V13.7745C0.0773274 13.7931 0.142671 13.8211 0.198622 13.8569Z" fill="#5AA832"/>
<path fill-rule="evenodd" clip-rule="evenodd" d="M3.33594 13.9085L3.4543 14.0115H5.08271C5.30476 14.0115 5.21591 14.0632 5.42315 13.8778V13.7953V13.5275C5.41644 13.4452 5.41644 13.3627 5.42315 13.2804V12.9404V12.7654C5.41738 12.69 5.41738 12.6144 5.42315 12.5389L5.52679 12.2196C5.53519 12.189 5.53519 12.1574 5.52679 12.1268V12.024L5.66006 11.7356V11.6737V11.5709V11.4781C5.66006 11.4163 5.66005 11.3546 5.74887 11.3134L5.85241 11.1691L6.01532 10.9528C6.11894 10.8705 6.01527 10.9529 6.1485 10.7882C6.28173 10.6234 6.14857 10.7159 6.3114 10.6026V10.5511C6.3114 10.5511 6.3114 10.5512 6.3114 10.4895L6.97747 9.90235C6.97747 9.90235 6.97747 9.90223 7.15511 9.77865C7.33274 9.65506 7.15515 9.77882 7.28837 9.69643V9.62427C7.37719 9.56247 7.2884 9.62427 7.40683 9.62427V9.57272L7.65846 9.42865C7.7282 9.4038 7.79292 9.37254 7.8509 9.33587L7.98408 9.27402L8.25062 9.17118C8.42385 9.1096 8.60173 9.05443 8.78352 9.00624H8.90197L9.16841 8.93433H9.33123C9.40509 8.92967 9.47936 8.92967 9.55322 8.93433L10.101 8.86217H10.2638H10.6487C10.8264 8.70769 10.8115 8.76956 10.7967 8.4297V8.25445V8.0176V7.91476V7.3689C10.789 7.29347 10.789 7.21779 10.7967 7.14236L10.6783 7.03927C10.6783 7.03927 10.6783 7.03927 10.5895 7.03927C10.5008 7.03411 10.4117 7.03411 10.323 7.03927H10.2342C10.1158 7.03927 10.0122 7.03927 9.90858 7.03927C9.80495 7.03927 9.90858 7.03927 9.90858 7.03927C9.90858 7.03927 9.7901 7.03927 9.67167 7.03927H9.56804H9.37559H9.12396C9.12396 7.03927 9.12396 7.03927 9.03515 7.03927L8.44298 7.16297C8.3691 7.16737 8.29487 7.16737 8.22099 7.16297L7.96936 7.23489H7.88054H7.79172L7.54 7.33797C7.54 7.33797 7.45124 7.33797 7.40683 7.33797L7.03675 7.49235L6.82948 7.58513C6.82948 7.58513 6.82948 7.58513 6.74066 7.58513L6.3114 7.80137C6.27574 7.83136 6.23607 7.85903 6.19295 7.88384L5.9265 8.03822C5.83768 8.11031 5.92651 8.03822 5.83769 8.03822L5.7636 8.11038C5.69363 8.14747 5.63352 8.19266 5.58597 8.24414C5.49715 8.30594 5.58596 8.24434 5.3047 8.45032L5.21589 8.53254C5.21589 8.53254 5.21589 8.53254 5.12707 8.53254L4.59418 9.01655C4.59418 9.01655 4.59418 9.01662 4.59418 9.08871C4.59418 9.1608 4.35732 9.26381 4.31291 9.3668C4.27718 9.40639 4.23759 9.44435 4.19446 9.48019C4.14569 9.53336 4.10126 9.58828 4.06128 9.64488C4.06128 9.64488 4.06128 9.69646 4.06128 9.72735C4.06128 9.75825 4.06128 9.72718 4.06128 9.80957C4.06128 9.86107 4.06128 9.80965 4.06128 9.89204V9.94359L3.92801 10.1495C3.92315 10.1734 3.92315 10.1978 3.92801 10.2217V10.3348C3.9059 10.3667 3.88121 10.3977 3.85401 10.4276V10.4895C3.85401 10.5512 3.85401 10.5408 3.85401 10.6026L3.60238 11.1278L3.48393 11.4472V11.509C3.48393 11.6017 3.48393 11.6635 3.48393 11.7459L3.39512 12.0652C3.39512 12.0652 3.39512 12.065 3.39512 12.1474C3.39512 12.2298 3.39512 12.1474 3.39512 12.1474V12.2814C3.40178 12.319 3.40178 12.357 3.39512 12.3946V12.477C3.39512 12.5285 3.39512 12.549 3.39512 12.6417V12.8376C3.39512 12.8376 3.39512 12.9095 3.39512 12.9507C3.38734 13.0193 3.38734 13.0881 3.39512 13.1567C3.40649 13.2148 3.40649 13.2738 3.39512 13.3319C3.36568 13.4443 3.36568 13.5592 3.39512 13.6716C3.39512 13.6716 3.36554 13.857 3.33594 13.9085Z" fill="#5AA832"/>
<path fill-rule="evenodd" clip-rule="evenodd" d="M6.4314 13.8675L6.54985 13.9807C6.56785 13.9879 6.58824 13.9917 6.60903 13.9917C6.62982 13.9917 6.6503 13.9879 6.6683 13.9807H8.40025L8.5187 13.8778C8.5187 13.8778 8.5187 13.8777 8.5187 13.7541V13.6407C8.5187 13.6407 8.5187 13.5688 8.5187 13.5276V13.2598V13.1361V12.992L8.71115 12.5802C8.71115 12.5802 8.71115 12.5286 8.71115 12.4874C8.74176 12.423 8.78136 12.361 8.82951 12.3021L8.91833 12.1887L9.06641 12.0652C9.06641 12.0034 9.06641 12.0651 9.06641 11.9931L9.31804 11.7768L9.39204 11.7253C9.51047 11.612 9.39202 11.6634 9.55486 11.6119L9.64376 11.54L9.82139 11.4575L10.1915 11.3235C10.2724 11.311 10.3515 11.2939 10.4283 11.2722H10.7392H11.1684L11.2869 11.1691C11.2792 11.0971 11.2792 11.0248 11.2869 10.9529V10.5717V9.67581C11.2869 9.52133 11.2868 9.54193 11.1388 9.42865C10.9908 9.31536 11.1388 9.42865 11.1388 9.42865H11.4497C11.3313 9.42865 11.4497 9.42865 11.3017 9.42865C11.213 9.43376 11.1238 9.43376 11.0352 9.42865L10.5763 9.50081L10.3395 9.56241C10.2378 9.58447 10.1388 9.61209 10.0434 9.64488C9.94563 9.66952 9.85145 9.70064 9.76212 9.73766H9.68813C9.62741 9.7561 9.56813 9.77654 9.51049 9.79926L9.31804 9.88174C9.24403 9.88174 9.09598 10.0155 9.02196 10.0567C8.94584 10.0918 8.87621 10.1335 8.81469 10.1804C8.72588 10.2628 8.81476 10.1803 8.60752 10.3142C8.40027 10.4481 8.51869 10.3143 8.50389 10.3761L7.73409 11.0559C7.73409 11.0559 7.73409 11.0558 7.73409 11.1485C7.73409 11.2412 7.73414 11.2205 7.60091 11.3235L7.43801 11.54C7.37765 11.6203 7.32332 11.7028 7.27519 11.7871V11.9312L7.1272 12.2505C7.12026 12.2812 7.12026 12.3126 7.1272 12.3433V12.4255C7.1272 12.4255 7.1272 12.4771 7.1272 12.508C7.12127 12.5697 7.12127 12.6316 7.1272 12.6933C7.11862 12.7274 7.11862 12.7623 7.1272 12.7964L6.4314 13.8675Z" fill="#5AA832"/>
</svg>
