<svg width="100%" height="100%" preserveAspectRatio="none" viewBox="0 0 28 26" fill="none" xmlns="http://www.w3.org/2000/svg">
<path fill-rule="evenodd" clip-rule="evenodd" d="M13.8122 0C14.6587 0.0198347 15.4878 0.188949 16.2354 0.494213C16.9829 0.799477 17.6286 1.23283 18.1226 1.76041C19.3137 2.98318 19.9436 4.47386 19.914 6C19.9436 7.52614 19.3137 9.01682 18.1226 10.2396C17.6286 10.7672 16.9829 11.2005 16.2354 11.5058C15.4878 11.8111 14.6587 11.9802 13.8122 12C12.9657 11.9802 12.1365 11.8111 11.389 11.5058C10.6415 11.2005 9.99557 10.7672 9.50159 10.2396C8.31051 9.01682 7.68076 7.52614 7.71035 6C7.68076 4.47386 8.31051 2.98318 9.50159 1.76041C9.99557 1.23283 10.6415 0.799477 11.389 0.494213C12.1365 0.188949 12.9657 0.0198347 13.8122 0ZM17.6889 2.14666C17.2441 1.67296 16.663 1.28433 15.9907 1.0107C15.3184 0.737074 14.573 0.585843 13.8122 0.568895C13.0514 0.585843 12.306 0.737074 11.6337 1.0107C10.9614 1.28433 10.3803 1.67296 9.93552 2.14666C8.8644 3.24941 8.29854 4.59283 8.32605 5.96777C8.29854 7.34271 8.8644 8.68612 9.93552 9.78888C10.3803 10.2626 10.9614 10.6512 11.6337 10.9248C12.306 11.1985 13.0514 11.3497 13.8122 11.3666C14.573 11.3497 15.3184 11.1985 15.9907 10.9248C16.663 10.6512 17.2441 10.2626 17.6889 9.78888C18.76 8.68612 19.3257 7.34271 19.2982 5.96777C19.3164 4.60381 18.7512 3.27285 17.6889 2.17889V2.14666Z" fill="#5AA832"/>
<path fill-rule="evenodd" clip-rule="evenodd" d="M10.9512 9L13.43 3H14.3595L17.054 9H16.084L15.3297 7.18934H12.6352L11.9346 9H10.9512ZM12.8104 6.54317H15.0064L14.3327 4.87924C14.1307 4.37026 13.9689 3.94934 13.8746 3.62633C13.7804 4.01558 13.6592 4.40102 13.5109 4.78127L12.8104 6.54317Z" fill="#5AA832"/>
<path fill-rule="evenodd" clip-rule="evenodd" d="M6.10985 13.9689C6.95606 13.9853 7.78559 14.1522 8.53222 14.4565C9.27886 14.7607 9.92206 15.1938 10.4105 15.7212C11.6027 16.9386 12.233 18.4226 12.2034 19.942C12.2486 21.4796 11.6175 22.9844 10.4105 24.2163C9.91973 24.7419 9.27596 25.1736 8.52983 25.4776C7.7837 25.7817 6.9554 25.9499 6.10985 25.9689C5.2619 25.9516 4.4309 25.7841 3.68217 25.48C2.93345 25.1759 2.28753 24.7433 1.79537 24.2163C0.588339 22.9844 -0.0429713 21.4796 0.00227306 19.942C-0.0273402 18.4226 0.603171 16.9386 1.79537 15.7212C2.28598 15.193 2.9314 14.7597 3.68046 14.4554C4.42953 14.1512 5.26146 13.9845 6.10985 13.9689ZM9.99016 16.106C9.54573 15.633 8.96465 15.2444 8.2918 14.9701C7.61894 14.6959 6.87232 14.5435 6.10985 14.5245C5.34498 14.5418 4.59565 14.6935 3.9202 14.9678C3.24476 15.2421 2.66137 15.6316 2.21551 16.106C1.14339 17.2039 0.577168 18.5411 0.604703 19.9099C0.577168 21.2788 1.14339 22.6162 2.21551 23.7141C2.66209 24.1871 3.24605 24.5751 3.92157 24.8476C4.5971 25.1201 5.34596 25.2696 6.10985 25.2848C6.87135 25.268 7.6175 25.1177 8.29043 24.8453C8.96336 24.5728 9.54501 24.1857 9.99016 23.7141C11.0623 22.6162 11.6287 21.2788 11.6011 19.9099C11.6194 18.552 11.0535 17.2272 9.99016 16.1381V16.106Z" fill="#5AA832"/>
<path fill-rule="evenodd" clip-rule="evenodd" d="M2.81396 22.9989V17.0023H5.82256C6.34098 16.9867 6.85727 17.0508 7.31835 17.1881C7.70703 17.3162 8.01619 17.511 8.20225 17.7455C8.40389 17.9936 8.50823 18.2641 8.50809 18.538C8.51314 18.788 8.42033 19.0354 8.23628 19.2619C8.04868 19.4871 7.75399 19.6771 7.3864 19.8098C7.86492 19.9065 8.2643 20.1017 8.50809 20.3576C8.78745 20.6298 8.92875 20.9415 8.91601 21.2576C8.91714 21.5276 8.8368 21.7958 8.67823 22.05C8.53814 22.2545 8.33661 22.4433 8.08315 22.6077C7.82265 22.7413 7.51565 22.8412 7.18244 22.901C6.75804 22.9736 6.31614 23.0067 5.8736 22.9989H2.81396ZM3.88482 19.526H5.58457C5.92886 19.5378 6.27403 19.5146 6.60438 19.4575C6.86429 19.4013 7.08109 19.294 7.21626 19.1544C7.36278 18.9915 7.43307 18.8094 7.42022 18.6261C7.43249 18.4471 7.36832 18.269 7.23327 18.1076C7.18266 18.0359 7.1068 17.9709 7.01022 17.917C6.91365 17.8631 6.79856 17.8214 6.67243 17.7945C6.27723 17.7224 5.86252 17.6928 5.44866 17.7066H3.74891V19.526H3.88482ZM3.88482 22.2946H5.90763C6.15055 22.3097 6.39548 22.3097 6.6384 22.2946C6.8672 22.2729 7.0832 22.2193 7.2673 22.1381C7.45196 22.046 7.59241 21.928 7.67523 21.7956C7.78127 21.6365 7.83336 21.4671 7.82835 21.2967C7.83991 21.0936 7.76399 20.8919 7.60738 20.7097C7.46899 20.553 7.24082 20.4287 6.96146 20.3576C6.57947 20.2813 6.17536 20.248 5.77151 20.2597H3.88482V22.2946Z" fill="#5AA832"/>
<path fill-rule="evenodd" clip-rule="evenodd" d="M21.5582 13.9688C22.4066 13.9844 23.2385 14.151 23.9876 14.4553C24.7367 14.7595 25.3823 15.1929 25.8729 15.7211C27.0651 16.9384 27.6954 18.4225 27.6658 19.9419C27.711 21.4794 27.0799 22.9843 25.8729 24.2162C25.3807 24.7432 24.7348 25.1757 23.9861 25.4799C23.2373 25.784 22.4062 25.9514 21.5582 25.9688C20.7127 25.9498 19.8844 25.7816 19.1382 25.4775C18.3921 25.1735 17.7485 24.7417 17.2578 24.2162C16.0507 22.9843 15.4194 21.4794 15.4647 19.9419C15.4495 18.439 16.0738 16.9731 17.2438 15.7639C17.7367 15.2375 18.3827 14.8053 19.1312 14.5012C19.8798 14.1972 20.7105 14.0297 21.5582 14.0115V13.9688ZM25.4526 16.1059C25.0067 15.6315 24.4233 15.242 23.7479 14.9677C23.0724 14.6934 22.3231 14.5417 21.5582 14.5244C20.7958 14.5433 20.0493 14.6958 19.3765 14.97C18.7036 15.2442 18.1225 15.6329 17.6781 16.1059C16.606 17.2038 16.0396 18.541 16.0671 19.9098C16.0396 21.2786 16.606 22.6161 17.6781 23.714C18.1232 24.1856 18.7047 24.5727 19.3776 24.8451C20.0506 25.1175 20.7967 25.2678 21.5582 25.2847C22.3221 25.2695 23.0711 25.12 23.7467 24.8475C24.4222 24.575 25.006 24.187 25.4526 23.714C26.5247 22.6161 27.0911 21.2786 27.0635 19.9098C27.0818 18.5519 26.5159 17.2271 25.4526 16.138V16.1059Z" fill="#5AA832"/>
<path fill-rule="evenodd" clip-rule="evenodd" d="M23.999 20.8274L24.912 21.0261C24.7919 21.5608 24.4341 22.0608 23.883 22.4642C23.6489 22.6262 23.3656 22.7543 23.0512 22.8407C22.7367 22.927 22.398 22.9697 22.057 22.9656C21.3973 22.9811 20.7504 22.8435 20.231 22.5776C19.725 22.2853 19.3579 21.9045 19.1731 21.4802C18.9241 20.976 18.8018 20.4489 18.8108 19.9192C18.7927 19.3806 18.9304 18.8444 19.2166 18.3391C19.4486 17.9317 19.8564 17.577 20.3905 17.3175C20.8815 17.0896 21.469 16.9671 22.0715 16.9673C22.3921 16.962 22.7111 16.9986 23.0098 17.0749C23.3084 17.1513 23.5808 17.2659 23.8106 17.4119C24.3291 17.7516 24.6733 18.188 24.796 18.6608L23.8975 18.8311C23.8069 18.4792 23.5658 18.1512 23.2019 17.885C23.0503 17.789 22.8711 17.7138 22.6746 17.6635C22.478 17.6131 22.268 17.5886 22.057 17.5916C21.5658 17.5831 21.0885 17.6984 20.7238 17.9134C20.3487 18.1459 20.0867 18.4452 19.9702 18.7743C19.825 19.1388 19.7519 19.5142 19.7528 19.8908C19.7401 20.3258 19.8281 20.7595 20.0137 21.1774C20.1427 21.5016 20.4208 21.7923 20.8107 22.0101C21.1454 22.1818 21.5589 22.2751 21.9846 22.275C22.2276 22.2774 22.4685 22.2456 22.691 22.1819C22.9135 22.1183 23.1125 22.0241 23.2744 21.9059C23.6707 21.5997 23.9224 21.2251 23.999 20.8274Z" fill="#5AA832"/>
</svg>
