<svg width="100%" height="100%" preserveAspectRatio="none" viewBox="0 0 29 20" fill="none" xmlns="http://www.w3.org/2000/svg">
<path fill-rule="evenodd" clip-rule="evenodd" d="M5.16082 5.35981C5.57607 5.32064 5.95223 5.17424 6.20967 4.9519C6.46711 4.72956 6.58558 4.44879 6.53989 4.16879C6.58537 3.88972 6.46645 3.60972 6.20876 3.3887C5.95107 3.16769 5.57505 3.02304 5.16082 2.98584C4.74793 3.02502 4.3736 3.1702 4.11648 3.39072C3.85937 3.61125 3.73945 3.89012 3.78175 4.16879C3.73921 4.44839 3.85871 4.72823 4.11558 4.95008C4.37246 5.17194 4.74692 5.31869 5.16082 5.35981Z" fill="#5AA832"/>
<path fill-rule="evenodd" clip-rule="evenodd" d="M24.1475 5.35981C24.5628 5.32064 24.9391 5.17424 25.1965 4.9519C25.454 4.72956 25.5723 4.44879 25.5266 4.16879C25.5721 3.88972 25.4533 3.60972 25.1956 3.3887C24.9379 3.16769 24.5618 3.02304 24.1475 2.98584C23.7356 3.025 23.3626 3.17033 23.1074 3.39113C22.8523 3.61192 22.7351 3.89097 22.7808 4.16879C22.7349 4.44754 22.8516 4.72735 23.1065 4.94948C23.3614 5.1716 23.7345 5.3187 24.1475 5.35981Z" fill="#5AA832"/>
<path fill-rule="evenodd" clip-rule="evenodd" d="M5.16082 17.56C5.57505 17.5228 5.95107 17.3781 6.20876 17.1571C6.46645 16.9361 6.58537 16.6561 6.53989 16.3771C6.58558 16.0971 6.46711 15.8163 6.20967 15.5939C5.95223 15.3716 5.57607 15.2252 5.16082 15.186C4.74692 15.2272 4.37246 15.3739 4.11558 15.5958C3.85871 15.8176 3.73921 16.0974 3.78175 16.3771C3.73945 16.6557 3.85937 16.9346 4.11648 17.1551C4.3736 17.3756 4.74793 17.5208 5.16082 17.56Z" fill="#5AA832"/>
<path fill-rule="evenodd" clip-rule="evenodd" d="M24.1475 17.56C24.5618 17.5228 24.9379 17.3781 25.1956 17.1571C25.4533 16.9361 25.5721 16.6561 25.5266 16.3771C25.5723 16.0971 25.454 15.8163 25.1965 15.5939C24.9391 15.3716 24.5628 15.2252 24.1475 15.186C23.7345 15.2272 23.3614 15.3742 23.1065 15.5964C22.8516 15.8185 22.7349 16.0983 22.7808 16.3771C22.7351 16.6549 22.8523 16.9339 23.1074 17.1547C23.3626 17.3755 23.7356 17.5208 24.1475 17.56Z" fill="#5AA832"/>
<path fill-rule="evenodd" clip-rule="evenodd" d="M2.4138 0H26.129C26.4623 0.00605662 26.7891 0.0636887 27.0838 0.168415C27.3785 0.273142 27.6332 0.422122 27.8282 0.60379C28.2926 1.02766 28.5391 1.54158 28.5302 2.06783V17.9239C28.5418 18.4504 28.2951 18.9649 27.8282 19.3879C27.6359 19.5721 27.382 19.7233 27.0869 19.8296C26.7918 19.9359 26.4638 19.9943 26.129 20H2.4138C2.07907 19.9943 1.75098 19.9359 1.45589 19.8296C1.1608 19.7233 0.906903 19.5721 0.714574 19.3879C0.239144 18.9674 -0.0122945 18.4519 0.000462566 17.9239V2.10095C-0.0103972 1.57318 0.240844 1.05801 0.714574 0.636908C0.909575 0.455239 1.16448 0.306259 1.4592 0.201533C1.75392 0.0968063 2.08051 0.0391742 2.4138 0.0331176V0ZM26.129 0.736059H2.4138C2.19865 0.73893 1.98753 0.775582 1.79724 0.843085C1.60695 0.910589 1.44291 1.00705 1.31806 1.12479C1.0163 1.39701 0.856219 1.72846 0.862476 2.06783V17.9239C0.854422 18.266 1.01455 18.6002 1.31806 18.875C1.44291 18.9928 1.60695 19.0894 1.79724 19.1569C1.98753 19.2244 2.19865 19.2611 2.4138 19.2639H26.129C26.3438 19.2598 26.5544 19.2225 26.7444 19.1551C26.9344 19.0877 27.0987 18.9918 27.2249 18.875C27.5284 18.6002 27.6886 18.266 27.6805 17.9239V2.10095C27.6868 1.76157 27.5267 1.43012 27.2249 1.1579C27.104 1.03496 26.9419 0.932699 26.7516 0.859442C26.5613 0.786185 26.348 0.743968 26.129 0.736059Z" fill="#5AA832"/>
<path d="M11.1202 10.1985H6.42822V11.5384H11.1202V10.1985Z" fill="#5AA832"/>
<path d="M23.5935 10.1985H13.4099V11.5384H23.5935V10.1985Z" fill="#5AA832"/>
</svg>
