<svg width="100%" height="100%" preserveAspectRatio="none" viewBox="0 0 29 29" fill="none" xmlns="http://www.w3.org/2000/svg">
<path fill-rule="evenodd" clip-rule="evenodd" d="M14.2987 0.501465C16.2822 0.546837 18.2254 0.939693 19.9779 1.64989C21.7305 2.36009 23.2454 3.36844 24.4055 4.59693C27.1952 7.45359 28.6681 10.9343 28.5947 14.4965C28.6701 18.0588 27.197 21.5398 24.4055 24.3958C23.2482 25.6272 21.7342 26.6383 19.9813 27.3504C18.2284 28.0624 16.2837 28.4564 14.2987 28.5015C12.3131 28.4587 10.3674 28.0658 8.61399 27.3535C6.86059 26.6413 5.34716 25.6289 4.19207 24.3958C1.40052 21.5398 -0.0726415 18.0588 0.00275663 14.4965C-0.0706672 10.9343 1.4023 7.45359 4.19207 4.59693C5.34996 3.36679 6.86434 2.35735 8.61735 1.64696C10.3704 0.93658 12.3146 0.544574 14.2987 0.501465ZM7.94935 2.94879C8.63328 3.66856 9.49081 4.28227 10.476 4.75691C11.4906 5.24247 12.646 5.53044 13.8406 5.59585V1.4004C11.7243 1.48066 9.68145 2.01763 7.94935 2.94879ZM14.7439 5.59585C15.9444 5.53026 17.1049 5.23867 18.1214 4.74691C19.0988 4.27232 19.9514 3.66244 20.6351 2.94879C18.904 2.01614 16.8605 1.47902 14.7439 1.4004V5.59585ZM21.4336 3.40826C20.6534 4.25986 19.6615 4.98633 18.5143 5.5461C17.3817 6.09723 16.0845 6.42023 14.7439 6.48504V22.3979C16.0833 22.4674 17.379 22.79 18.5143 23.3368C19.6938 23.9161 20.7088 24.6702 21.4991 25.5544C22.338 25.0239 23.0976 24.4244 23.7639 23.7666C26.3782 21.092 27.7591 17.8326 27.6914 14.4965C27.7552 11.1608 26.3746 7.9023 23.7639 5.22638C23.082 4.55359 22.3 3.94342 21.4336 3.40826ZM13.8406 6.48504C12.5022 6.41901 11.2064 6.09956 10.0702 5.55586C8.92295 4.99193 7.93117 4.26245 7.1507 3.40826C6.2914 3.94606 5.51416 4.55598 4.83355 5.22638C2.22282 7.9023 0.842287 11.1608 0.906078 14.4965C0.838353 17.8326 2.21929 21.092 4.83355 23.7666C5.49565 24.421 6.25081 25.0171 7.08526 25.5444C7.87246 24.6609 8.88829 23.9097 10.0702 23.3368C11.2028 22.7857 12.5 22.4627 13.8406 22.3979V6.48504ZM20.7005 26.0141C19.9912 25.2674 19.1028 24.6301 18.0822 24.136C17.0657 23.6443 15.9051 23.3524 14.7046 23.2868V27.6023C16.8489 27.5208 18.917 26.9695 20.6612 26.0141H20.7005ZM13.8406 23.2868C12.6437 23.3512 11.4871 23.6432 10.476 24.136C9.45059 24.6211 8.56081 25.256 7.8577 26.0041C9.59794 26.9666 11.6676 27.5218 13.8143 27.6023L13.8406 23.2868Z" fill="#5AA832"/>
</svg>
