<svg width="100%" height="100%" preserveAspectRatio="none" viewBox="0 0 29 29" fill="none" xmlns="http://www.w3.org/2000/svg">
<path fill-rule="evenodd" clip-rule="evenodd" d="M0.0347156 14.3731H3.31304C3.35734 11.7295 4.48035 9.16416 6.5218 7.04366C7.37589 6.12736 8.47917 5.367 9.75403 4.81591C11.0289 4.26483 12.4444 3.93636 13.901 3.85385V0.762695H14.6655V3.85385C16.1222 3.93576 17.538 4.26391 18.813 4.81504C20.0879 5.36617 21.191 6.12692 22.0446 7.04366C24.0902 9.16307 25.2173 11.7285 25.265 14.3731H28.2189V15.1704H25.265C25.2149 17.812 24.0878 20.3738 22.0446 22.4907C21.191 23.4074 20.0879 24.1682 18.813 24.7193C17.538 25.2705 16.1222 25.5986 14.6655 25.6805V28.7627H13.8662V25.6805C12.4096 25.598 10.9942 25.2697 9.71931 24.7187C8.44446 24.1676 7.34117 23.407 6.48708 22.4907C4.44794 20.3727 3.32499 17.811 3.27826 15.1704H0V14.3731H0.0347156ZM14.6655 4.63348V8.65651H13.8662V4.63348C12.521 4.71313 11.2145 5.01899 10.038 5.5297C8.86155 6.0404 7.84337 6.74369 7.0547 7.59032C5.17047 9.54829 4.12907 11.9147 4.07757 14.3552H7.96982V15.1525H4.07757C4.13148 17.5899 5.17277 19.9529 7.0547 21.9084C7.84337 22.755 8.86155 23.4583 10.038 23.969C11.2145 24.4797 12.521 24.7856 13.8662 24.8652V20.8332H14.6655V24.8652C16.0107 24.7856 17.3171 24.4797 18.4936 23.969C19.6701 23.4583 20.6883 22.755 21.477 21.9084C23.3672 19.9557 24.4131 17.5916 24.4657 15.1525H20.249V14.3552H24.4657C24.4108 11.9137 23.3653 9.5472 21.477 7.59032C20.6883 6.74369 19.6701 6.0404 18.4936 5.5297C17.3171 5.01899 16.0107 4.71313 14.6655 4.63348Z" fill="#5AA832"/>
<path fill-rule="evenodd" clip-rule="evenodd" d="M14.3062 16.6398C14.873 16.5773 15.3864 16.3474 15.7386 15.9982C16.0907 15.649 16.2541 15.2077 16.1944 14.7673C16.2541 14.3268 16.0907 13.8856 15.7386 13.5364C15.3864 13.1871 14.873 12.957 14.3062 12.8945C13.7393 12.957 13.2259 13.1871 12.8738 13.5364C12.5217 13.8856 12.3583 14.3268 12.4179 14.7673C12.3583 15.2077 12.5217 15.649 12.8738 15.9982C13.2259 16.3474 13.7393 16.5773 14.3062 16.6398Z" fill="#5AA832"/>
</svg>
