<svg width="100%" height="100%" preserveAspectRatio="none" viewBox="0 0 29 29" fill="none" xmlns="http://www.w3.org/2000/svg">
<path fill-rule="evenodd" clip-rule="evenodd" d="M14.0811 0.473633C16.0353 0.51884 17.9497 0.913429 19.6754 1.62676C21.401 2.34008 22.8913 3.35307 24.0302 4.58649C26.7807 7.44519 28.233 10.9307 28.1597 14.4982C28.2189 18.0489 26.7674 21.5155 24.0302 24.3608C22.8913 25.5942 21.401 26.6072 19.6754 27.3205C17.9497 28.0338 16.0353 28.4284 14.0811 28.4736C12.1248 28.4299 10.2078 28.0361 8.47989 27.3227C6.75193 26.6093 5.25962 25.5955 4.11939 24.3608C1.39099 21.5126 -0.0555202 18.0472 0.00256944 14.4982C-0.0695346 10.9324 1.37769 7.44816 4.11939 4.58649C5.25962 3.35177 6.75193 2.33798 8.47989 1.62459C10.2078 0.9112 12.1248 0.517337 14.0811 0.473633ZM23.4076 5.19785C22.3397 4.04248 20.9423 3.09432 19.3246 2.42713C17.7068 1.75993 15.9124 1.39183 14.0811 1.35154C12.2482 1.39182 10.4519 1.75975 8.83205 2.42689C7.21224 3.09402 5.81263 4.04227 4.74206 5.19785C2.19468 7.89076 0.8556 11.1578 0.930181 14.4982C0.8556 17.8386 2.19468 21.1059 4.74206 23.7988C5.81263 24.9544 7.21224 25.9026 8.83205 26.5697C10.4519 27.2369 12.2482 27.6048 14.0811 27.6451C15.9124 27.6048 17.7068 27.2367 19.3246 26.5695C20.9423 25.9023 22.3397 24.9541 23.4076 23.7988C25.9601 21.1079 27.2997 17.8392 27.2195 14.4982C27.2997 11.1572 25.9601 7.88874 23.4076 5.19785Z" fill="#5AA832"/>
<path d="M14.691 7.83118H13.8143V17.3486H14.691V7.83118Z" fill="#5AA832"/>
<path d="M14.691 19.7353H13.8143V20.7314H14.691V19.7353Z" fill="#5AA832"/>
</svg>