<svg width="26" height="28" viewBox="0 0 26 28" fill="none" xmlns="http://www.w3.org/2000/svg">
<path fill-rule="evenodd" clip-rule="evenodd" d="M0.723581 3.56469C0.138217 4.9591 -2.34162 11.3105 7.21578 21.0263C12.2606 26.1991 15.9111 27.7554 18.359 27.9623C19.0245 28.0409 19.7024 27.9963 20.3456 27.8316C20.9887 27.667 21.5818 27.3861 22.084 27.0087L24.9364 24.0939C25.2232 23.7452 25.3634 23.3252 25.3345 22.9011C25.3055 22.4771 25.1091 22.0734 24.7767 21.7549L20.5195 17.0409C20.4436 16.9183 20.3325 16.8139 20.1964 16.7369C20.0603 16.66 19.9037 16.6131 19.7407 16.6005C19.5776 16.588 19.4135 16.6101 19.2632 16.6651C19.1129 16.7201 18.9813 16.806 18.8805 16.915C18.5825 17.1759 18.0503 17.7427 17.5394 18.3005L16.6987 19.2001L16.3049 19.6499C16.2551 19.7049 16.1927 19.7507 16.1214 19.7848C16.05 19.8188 15.9713 19.8402 15.8898 19.8478C15.6616 19.8436 15.437 19.7981 15.2314 19.7143C15.0258 19.6305 14.8439 19.5103 14.6978 19.362C13.2918 18.2517 11.9928 17.0484 10.8131 15.7635C9.72474 14.6679 8.76256 13.4872 7.93956 12.2371C7.58739 11.6632 7.30561 11.0603 7.09872 10.4379C7.19451 10.1513 7.38241 9.89281 7.64152 9.69112L9.77012 7.48711C10.0579 7.14032 10.1987 6.72158 10.1698 6.29868C10.1408 5.87578 9.9437 5.47342 9.61045 5.15703C8.73773 4.14946 5.5129 0.560141 5.35326 0.35323C5.2589 0.248921 5.1387 0.163262 5.00104 0.10241C4.86339 0.0415581 4.71164 0.00694105 4.55646 0.000939803C4.40128 -0.00506145 4.24644 0.0177352 4.10278 0.067708C3.95913 0.117681 3.83008 0.193605 3.72485 0.290196C3.21356 0.73808 2.74058 1.21594 2.30938 1.72044L1.42605 2.7101C1.21267 2.94966 1.02053 3.20232 0.851292 3.46586L0.723581 3.56469ZM7.83303 20.3156C-1.27737 11.0496 1.01096 5.22015 1.54311 3.96069V3.89766C1.75597 3.65476 2.25609 3.06997 2.76695 2.50321C3.16609 2.03953 3.59988 1.59785 4.0655 1.1808C4.35286 0.946905 4.49111 1.11777 4.49111 1.11777C4.49111 1.11777 7.95008 4.98619 8.74831 5.92179C9.26981 6.49754 8.92929 6.86643 8.92929 6.86643L6.44952 9.43019C6.26064 9.61451 6.12251 9.83198 6.04521 10.0669C5.9679 10.3018 5.9533 10.5483 6.00246 10.7886C6.2382 11.4853 6.55553 12.1603 6.9497 12.8037C7.80761 14.1225 8.81638 15.367 9.96162 16.5193C11.1791 17.8522 12.5247 19.0978 13.9847 20.2436C14.2083 20.4533 14.4829 20.6198 14.7897 20.7316C15.0964 20.8434 15.4282 20.8978 15.7621 20.8913C16.0258 20.8679 16.2745 20.7768 16.4751 20.6303L16.8371 20.2886L17.9971 18.9932C18.4867 18.4624 18.987 17.9315 19.2531 17.6886C19.5191 17.4457 19.6574 17.6258 19.6574 17.6258L24.0104 22.3848C24.532 22.9605 24.1913 23.3292 24.1913 23.3292L21.9776 25.6322L21.6689 25.9652C21.2479 26.3535 20.7188 26.6466 20.1295 26.8178C19.5402 26.9891 18.9097 27.033 18.2952 26.9457C16.1453 26.8017 12.6969 25.3085 7.83303 20.3156Z" fill="#5AA832"/>
</svg>
