<svg width="100%" height="100%" preserveAspectRatio="none" viewBox="0 0 29 29" fill="none" xmlns="http://www.w3.org/2000/svg">
<path fill-rule="evenodd" clip-rule="evenodd" d="M14.3003 0.744141C16.2862 0.782647 18.2334 1.17268 19.9895 1.88394C21.7457 2.5952 23.263 3.60836 24.4226 4.84383C27.2019 7.70267 28.6698 11.1849 28.598 14.749C28.6718 18.3103 27.2035 21.7899 24.4226 24.6445C23.265 25.8815 21.7482 26.8957 19.9916 27.6072C18.2351 28.3186 16.2868 28.7079 14.3003 28.7441C12.3139 28.7079 10.3656 28.3186 8.60903 27.6072C6.85245 26.8957 5.33561 25.8815 4.17807 24.6445C1.39711 21.7899 -0.0711503 18.3103 0.00265228 14.749C-0.0691882 11.1849 1.39873 7.70267 4.17807 4.84383C5.33768 3.60836 6.85499 2.5952 8.61111 1.88394C10.3672 1.17268 12.3145 0.782647 14.3003 0.744141ZM23.7519 5.45431C23.1711 4.87438 22.5139 4.34186 21.7908 3.86493C21.1052 4.89025 20.1228 5.78194 18.9186 6.47201C17.6916 7.18649 16.1957 7.57765 14.6546 7.58673C13.0497 7.57089 11.4969 7.14828 10.2387 6.38493C8.99222 5.62321 7.992 4.65125 7.31594 3.54502C6.39573 4.11363 5.56742 4.76437 4.84863 5.48341C2.23707 8.16167 0.853733 11.4258 0.913618 14.7684C0.845487 18.1088 2.21998 21.373 4.82337 24.0534C5.53426 24.7745 6.35872 25.4255 7.27802 25.9918C7.93813 24.8564 8.94483 23.8591 10.2134 23.0842C11.4687 22.3169 13.0234 21.8938 14.6293 21.8824C16.1705 21.8915 17.6664 22.2824 18.8933 22.9969C20.1051 23.698 21.0953 24.599 21.7908 25.6331C22.5024 25.1566 23.1509 24.6275 23.7267 24.0534C26.3346 21.3742 27.7135 18.1099 27.649 14.7684C27.7154 11.4236 26.3364 8.15584 23.7267 5.47371L23.7519 5.45431ZM21.0442 3.39973C19.1123 2.25386 16.7436 1.624 14.3003 1.60662C12.0734 1.61666 9.90271 2.1439 8.07508 3.11863C8.68617 4.10317 9.58185 4.96833 10.6942 5.64833C11.8221 6.33338 13.2152 6.71169 14.6546 6.72401C16.0219 6.71717 17.3511 6.37779 18.4504 5.75481C19.5141 5.1371 20.3796 4.34163 20.981 3.42884L21.0442 3.39973ZM14.3003 27.8817C16.7535 27.8643 19.1314 27.2309 21.0696 26.0788C20.4703 25.1568 19.605 24.3515 18.539 23.7238C17.4397 23.1008 16.1105 22.7614 14.7431 22.7546C13.3038 22.7669 11.9107 23.1454 10.7828 23.8305C9.6496 24.5127 8.74698 25.3935 8.151 26.3988C9.96197 27.3515 12.1034 27.8679 14.3003 27.8817Z" fill="#5AA832"/>
<path fill-rule="evenodd" clip-rule="evenodd" d="M14.3001 11.4344C17.4757 11.4026 20.646 11.6431 23.7517 12.1516C26.3709 12.6265 27.9905 13.3825 27.9905 14.2838C27.9905 15.1852 26.3709 15.9411 23.7517 16.416C20.646 16.9245 17.4757 17.1651 14.3001 17.1332C11.1245 17.1651 7.95415 16.9245 4.84841 16.416C2.22927 15.9411 0.609741 15.1852 0.609741 14.2838C0.609741 13.3825 2.22927 12.6265 4.84841 12.1516C7.95415 11.6431 11.1245 11.4026 14.3001 11.4344ZM23.5999 12.9947C20.5426 12.5021 17.424 12.2682 14.3001 12.2969C11.1803 12.2681 8.06588 12.5021 5.0129 12.9947C2.83661 13.3921 1.48279 13.8574 1.48279 14.2838C1.48279 14.7103 2.83661 15.1756 5.0129 15.5729C8.06588 16.0656 11.1803 16.2995 14.3001 16.2707C17.424 16.2995 20.5426 16.0655 23.5999 15.5729C25.7762 15.1756 27.1174 14.7103 27.1174 14.2838C27.1174 13.8574 25.7762 13.3921 23.5999 12.9947Z" fill="#5AA832"/>
</svg>
