<svg width="21" height="29" viewBox="0 0 21 29" fill="none" xmlns="http://www.w3.org/2000/svg">
<path fill-rule="evenodd" clip-rule="evenodd" d="M10.3214 5.88489C12.6856 5.88489 14.5888 7.78013 14.5888 10.1241C14.5888 12.4681 12.6856 14.3636 10.3214 14.3636C7.95721 14.3636 6.0658 12.4681 6.0658 10.1241C6.0658 7.78013 7.96903 5.88489 10.3214 5.88489ZM10.3214 7.44141C8.83197 7.44141 7.62619 8.64081 7.62619 10.1241C7.62619 11.6074 8.80833 12.8068 10.3214 12.8068C11.8345 12.8068 13.0284 11.6074 13.0284 10.1241C13.0284 8.64081 11.8227 7.44141 10.3214 7.44141Z" fill="#5AA832"/>
<path fill-rule="evenodd" clip-rule="evenodd" d="M10.3213 0.986216H10.475C11.8488 1.0317 13.1937 1.3065 14.4178 1.79164C15.6419 2.27678 16.7163 2.96088 17.5677 3.79726C19.5479 5.70561 20.6094 8.08798 20.5702 10.5362V10.6461C20.5702 13.5121 17.473 18.1359 14.7778 22.2379C13.4184 24.2889 12.1654 26.2027 11.4325 27.6586L10.7705 28.9771L10.1086 27.6586C8.91601 25.5418 7.5129 23.4997 5.91203 21.5512C3.02769 17.7788 0.00150142 13.8234 0.00150142 10.637V10.527C-0.0453992 8.08094 1.00778 5.69855 2.98043 3.78809C3.83781 2.94344 4.92323 2.25418 6.16066 1.76861C7.39809 1.28305 8.7576 1.01285 10.144 0.977051L10.3213 0.986216ZM10.4514 2.40549C10.3568 2.40549 10.4514 2.40549 10.3213 2.40549C10.1913 2.40549 10.3213 2.40549 10.2031 2.40549C9.01033 2.43985 7.84129 2.67362 6.77617 3.09087C5.71106 3.50811 4.77513 4.09886 4.03252 4.82265C2.36049 6.44631 1.46652 8.4686 1.5028 10.5453V10.6645C1.5028 13.4114 4.38715 17.1471 7.12964 20.7364C8.48906 22.5676 9.82481 24.2706 10.7941 25.8729C11.5507 24.5911 12.5319 23.126 13.584 21.5054C16.1846 17.559 19.1044 13.1184 19.1516 10.6553V10.5453C19.1852 8.46587 18.2823 6.44233 16.5983 4.82265C15.8583 4.10115 14.9261 3.51182 13.8653 3.09467C12.8045 2.67752 11.6401 2.44245 10.4514 2.40549Z" fill="#5AA832"/>
</svg>
