<svg width="100%" height="100%" preserveAspectRatio="none" viewBox="0 0 39 44" fill="none" xmlns="http://www.w3.org/2000/svg">
<path d="M35.6364 18.6129C35.6364 18.0606 35.1886 17.6129 34.6364 17.6129C34.0841 17.6129 33.6364 18.0606 33.6364 18.6129H35.6364ZM25.6667 10.129C26.219 10.129 26.6667 9.68129 26.6667 9.12901C26.6667 8.57672 26.219 8.12901 25.6667 8.12901V10.129ZM35.3959 1.84962L34.6871 2.55509L34.6871 2.55509L35.3959 1.84962ZM37.4185 3.88161L36.7097 4.58708L36.7097 4.58709L37.4185 3.88161ZM16.4986 27.4686L15.5348 27.2021L15.5348 27.2021L16.4986 27.4686ZM15.6724 30.457L16.6362 30.7235L16.6362 30.7235L15.6724 30.457ZM37.5375 5.14816L38.3653 5.70923L38.3653 5.70923L37.5375 5.14816ZM35.7576 7.77416L36.5692 8.35838L36.5774 8.34692L36.5853 8.33523L35.7576 7.77416ZM21.1666 28.0434L20.355 27.4592L21.1666 28.0434ZM17.212 25.9477L18.0332 26.5184L18.0332 26.5184L17.212 25.9477ZM32.1414 4.46583L31.3203 3.89514L31.3203 3.89514L32.1414 4.46583ZM33.866 1.9844L34.6871 2.55509L34.6871 2.55509L33.866 1.9844ZM15.9228 30.7018L16.2114 31.6593L16.2114 31.6593L15.9228 30.7018ZM18.5515 29.9096L18.8401 30.867L18.8401 30.867L18.5515 29.9096ZM0 13.129V39H2V13.129H0ZM5 44H30.6364V42H5V44ZM35.6364 39V18.6129H33.6364V39H35.6364ZM5 10.129H25.6667V8.12901H5V10.129ZM30.6364 44C33.3978 44 35.6364 41.7615 35.6364 39H33.6364C33.6364 40.6569 32.2932 42 30.6364 42V44ZM0 39C0 41.7614 2.23858 44 5 44V42C3.34315 42 2 40.6568 2 39H0ZM2 13.129C2 11.4722 3.34315 10.129 5 10.129V8.12901C2.23858 8.12901 0 10.3676 0 13.129H2ZM34.6871 2.55509L36.7097 4.58708L38.1272 3.17614L36.1046 1.14415L34.6871 2.55509ZM15.5348 27.2021L14.7085 30.1905L16.6362 30.7235L17.4625 27.7351L15.5348 27.2021ZM36.7097 4.58709L34.9298 7.21308L36.5853 8.33523L38.3653 5.70923L36.7097 4.58709ZM34.946 7.18993L20.355 27.4592L21.9782 28.6276L36.5692 8.35838L34.946 7.18993ZM18.0332 26.5184L32.9626 5.03652L31.3203 3.89514L16.3908 25.377L18.0332 26.5184ZM32.9626 5.03652L34.6871 2.55509L33.0448 1.41371L31.3203 3.89514L32.9626 5.03652ZM36.4326 7.03634L32.8164 3.72802L31.4664 5.20364L35.0826 8.51197L36.4326 7.03634ZM14.7085 30.1905C14.4568 31.101 15.307 31.9319 16.2114 31.6593L15.6343 29.7443C16.2372 29.5626 16.804 30.1165 16.6362 30.7235L14.7085 30.1905ZM20.355 27.4592C19.8409 28.1734 19.1055 28.6981 18.2629 28.9521L18.8401 30.867C20.104 30.4861 21.207 29.699 21.9782 28.6276L20.355 27.4592ZM36.7097 4.58709L36.7097 4.58709L38.3653 5.70923C38.9025 4.91672 38.8026 3.85468 38.1272 3.17614L36.7097 4.58709ZM36.1046 1.14415C35.224 0.259486 33.7571 0.388713 33.0448 1.41371L34.6871 2.55509L34.6871 2.55509L36.1046 1.14415ZM17.4625 27.7351C17.5827 27.3003 17.7757 26.8889 18.0332 26.5184L16.3908 25.377C16.0046 25.9327 15.7152 26.5498 15.5348 27.2021L17.4625 27.7351ZM16.2114 31.6593L18.8401 30.867L18.2629 28.9521L15.6343 29.7443L16.2114 31.6593Z" fill="currentColor"/>
</svg>
