<svg width="93" height="141" viewBox="0 0 93 141" fill="none" xmlns="http://www.w3.org/2000/svg">
<path fill-rule="evenodd" clip-rule="evenodd" d="M46.5004 0.0483677H47.1725C53.4195 0.250152 59.5425 1.62086 65.1163 4.06524C70.6902 6.50962 75.5823 9.97026 79.4567 14.2071C88.3618 23.7912 93.1462 35.7439 92.9966 48.0314V48.6107C92.9966 63.1068 79.009 86.3494 66.7556 107.031C60.6568 117.371 54.9487 127.035 51.6475 134.38L48.6833 141L45.719 134.38C40.2853 123.729 33.9446 113.441 26.7506 103.6C13.6579 84.5617 0.00416804 64.653 0.00416804 48.5623V47.9831C-0.161298 35.7015 4.60438 23.7494 13.4894 14.1587C17.3569 9.90361 22.2565 6.43087 27.8434 3.98502C33.4303 1.53917 39.5707 0.17866 45.831 0L46.5004 0.0483677ZM47.0604 7.1997H45.943C40.533 7.34086 35.223 8.50526 30.3897 10.609C25.5563 12.7128 21.3169 15.7049 17.9672 19.3766C10.4465 27.6227 6.48941 37.875 6.77684 48.3688V48.9493C6.77684 62.5661 19.6103 81.3212 31.8894 99.2663C31.9851 99.4062 32.0808 99.546 32.1764 99.6858C38.387 108.722 44.4298 117.515 48.9619 125.633C52.337 119.23 56.7515 111.742 61.3941 103.866C61.4464 103.778 61.4987 103.689 61.5511 103.6C61.6415 103.447 61.732 103.293 61.8226 103.14C73.5043 83.3482 86.5628 61.2237 86.7293 48.9009V48.3688C86.9406 37.8368 82.8635 27.5753 75.2057 19.3766C71.838 15.6865 67.5682 12.6829 62.704 10.5784C57.8398 8.47381 52.4991 7.31982 47.0604 7.1997Z" fill="#FA4C76"/>
<path d="M47.0604 7.1997H45.943C40.533 7.34086 35.223 8.50526 30.3897 10.609C25.5563 12.7128 21.3169 15.7049 17.9672 19.3766C10.4465 27.6227 6.48941 37.875 6.77684 48.3688V48.9493C6.77684 62.5661 19.6103 81.3212 31.8894 99.2663L32.1764 99.6858C38.387 108.722 44.4298 117.515 48.9619 125.633C52.337 119.23 56.7515 111.742 61.3941 103.866L61.5511 103.6L61.8226 103.14C73.5043 83.3482 86.5628 61.2237 86.7293 48.9009V48.3688C86.9406 37.8368 82.8635 27.5753 75.2057 19.3766C71.838 15.6865 67.5682 12.6829 62.704 10.5784C57.8398 8.47381 52.4991 7.31982 47.0604 7.1997Z" fill="#FA4C76"/>
<circle cx="46.5" cy="48.5" r="36.5" fill="white"/>
<path d="M36.5391 47.6719V50.3203H29.6016V54.1172H37.4531V57H26.3438V41.2969H37.4531V44.1094H29.6016V47.6719H36.5391ZM44.1328 45.1641V46.8516C44.4922 46.3672 44.9766 45.9141 45.5859 45.4922C46.2109 45.0703 46.9219 44.8594 47.7188 44.8594C48.9219 44.8594 49.9297 45.2656 50.7422 46.0781C51.5547 46.8906 51.9609 48.1094 51.9609 49.7344V57H48.9844L48.9609 50.1328C48.9609 49.3359 48.7656 48.7422 48.375 48.3516C48 47.9609 47.4766 47.7656 46.8047 47.7656C46.2734 47.7656 45.7734 47.9375 45.3047 48.2812C44.8516 48.625 44.4609 49.0312 44.1328 49.5V57H41.1562V45.1641H44.1328ZM66.6328 40.125V57H63.6562V55.0078C63.3125 55.6484 62.8125 56.2031 62.1562 56.6719C61.5 57.125 60.7344 57.3516 59.8594 57.3516C58.9062 57.3516 58.0234 57.1094 57.2109 56.625C56.4141 56.1406 55.7734 55.4375 55.2891 54.5156C54.8047 53.5938 54.5625 52.4766 54.5625 51.1641C54.5625 49.8516 54.8047 48.7266 55.2891 47.7891C55.7891 46.8516 56.4531 46.1328 57.2812 45.6328C58.125 45.1172 59.0547 44.8594 60.0703 44.8594C60.7109 44.8594 61.3594 45.0078 62.0156 45.3047C62.6719 45.6016 63.2188 46 63.6562 46.5V40.125H66.6328ZM60.6797 47.7891C60.0547 47.7891 59.5156 47.9531 59.0625 48.2812C58.625 48.5938 58.2812 49.0078 58.0312 49.5234C57.7812 50.0234 57.6562 50.5703 57.6562 51.1641C57.6562 52.0547 57.9219 52.8125 58.4531 53.4375C59 54.0625 59.7188 54.375 60.6094 54.375C61.1406 54.375 61.6328 54.2344 62.0859 53.9531C62.5547 53.6719 62.9297 53.2812 63.2109 52.7812C63.5078 52.2656 63.6562 51.6484 63.6562 50.9297V49.2422C63.2344 48.7891 62.7734 48.4375 62.2734 48.1875C61.7891 47.9219 61.2578 47.7891 60.6797 47.7891Z" fill="#FA4C76"/>
</svg>
