<svg width="100%" height="100%" preserveAspectRatio="none" viewBox="0 0 29 21" fill="none" xmlns="http://www.w3.org/2000/svg">
<path fill-rule="evenodd" clip-rule="evenodd" d="M0 16.7432H1.5648L1.55712 13.1722H2.89012V15.3962H4.58215L9.33686 21H23.1067V17.8368H24.7314V20.9629H27.1276C27.7977 19.9021 28.1492 18.7242 28.1532 17.5279V10.5278C28.215 9.43458 27.8562 8.35322 27.1276 7.43868H24.7238V10.2251H22.9645L19.2952 4.0097H13.9943V1.76087H17.8204V0H7.86931V1.76087H11.7404V3.94183H7.00831L4.60481 6.84559H2.85246V10.1385H1.49752V6.07331H0V16.7432ZM15.9639 6.5737L11.6884 12.023L13.6877 12.3998L11.9205 16.9409L16.4806 11.1395L14.5412 10.7811L15.9639 6.5737Z" fill="#5AA832"/>
</svg>
