<svg width="25" height="36" viewBox="0 0 25 36" fill="none" xmlns="http://www.w3.org/2000/svg">
<path fill-rule="evenodd" clip-rule="evenodd" d="M12.3619 0.54541H12.5244C14.178 0.595806 15.7986 0.932013 17.274 1.53076C18.7493 2.12952 20.0444 2.97655 21.0705 4.01367C23.4442 6.37046 24.7144 9.31505 24.6617 12.3396V12.4795C24.6617 16.0177 20.9705 21.715 17.7298 26.7725C16.1157 29.3012 14.6014 31.66 13.7255 33.4691L12.9374 35.0884L12.1615 33.4591C10.7302 30.851 9.05723 28.3319 7.15647 25.9228C3.70303 21.2751 0.0870406 16.3975 0.0870406 12.4695V12.3296C0.0266572 9.31214 1.28286 6.37188 3.64039 4.01367C4.66801 2.97303 5.96711 2.12362 7.44729 1.52466C8.92746 0.925708 10.5533 0.591614 12.2116 0.54541H12.3619ZM12.5122 2.29455H12.1993C10.7718 2.33621 9.37264 2.62611 8.09979 3.14398C6.82694 3.66186 5.71091 4.39525 4.82932 5.29307C2.83237 7.2957 1.76645 9.78962 1.81362 12.3496V12.4895C1.81362 15.8478 5.24218 20.4857 8.53297 24.9035C10.1596 27.1124 11.7615 29.2712 12.9252 31.2402C13.8135 29.661 15.0021 27.802 16.2409 25.853C19.3565 20.9854 22.86 15.508 22.9101 12.4695V12.3496C22.9569 9.7816 21.8768 7.28142 19.8571 5.28306C18.9777 4.38826 17.8652 3.65682 16.597 3.1391C15.3289 2.62138 13.9352 2.32974 12.5122 2.28454V2.29455Z" fill="#8E8A88"/>
</svg>
