<svg width="100%" height="100%" preserveAspectRatio="none" viewBox="0 0 57 56" fill="none" xmlns="http://www.w3.org/2000/svg">
<g filter="url(#filter0_d)">
<circle cx="28.5" cy="12.5" r="12.5" fill="url(#paint0_linear)"/>
</g>
<path d="M0 28.6787C0 20.7761 7.50616 15.0311 15.1344 17.0953L24.5943 19.6551C26.5885 20.1947 28.6883 20.2104 30.6903 19.7005L42.0384 16.8104C49.6249 14.8783 57 20.6105 57 28.4392V44C57 50.6274 51.6274 56 45 56H12C5.37258 56 0 50.6274 0 44V28.6787Z" fill="url(#paint1_linear)"/>
<path d="M0 28.6787C0 20.7761 7.50616 15.0311 15.1344 17.0953L24.5943 19.6551C26.5885 20.1947 28.6883 20.2104 30.6903 19.7005L42.0384 16.8104C49.6249 14.8783 57 20.6105 57 28.4392V44C57 50.6274 51.6274 56 45 56H12C5.37258 56 0 50.6274 0 44V28.6787Z" stroke="none"/>
<g filter="url(#filter1_d)">
<circle cx="28" cy="33" r="3" fill="white"/>
<circle cx="28" cy="33" r="2.95" stroke="#F3F8FF" stroke-width="0.1"/>
</g>
<path d="M24.4316 42.3H32.1846C34.1186 42.3 35.6864 40.7322 35.6864 38.7982C35.6864 36.6238 33.7254 34.9752 31.5833 35.3485L28.9732 35.8035C28.3935 35.9046 27.8004 35.9014 27.2218 35.7943L25.0656 35.3949C22.9252 34.9985 20.95 36.6415 20.95 38.8183C20.95 40.7412 22.5088 42.3 24.4316 42.3Z" fill="white" stroke="#F3F8FF" stroke-width="0.1"/>
<path d="M38 44.2037C35.6293 46.2981 32.7461 48 29.6364 48C21.5529 48 15 42.8513 15 36.5C15 30.1487 21.5529 25 29.6364 25C32.6539 25 35.4582 26.6025 37.7879 28.6112" stroke="#F3F8FF" stroke-width="2"/>
<defs>
<filter id="filter0_d" x="12" y="0" width="33" height="33" filterUnits="userSpaceOnUse" color-interpolation-filters="sRGB">
<feFlood flood-opacity="0" result="BackgroundImageFix"/>
<feColorMatrix in="SourceAlpha" type="matrix" values="0 0 0 0 0 0 0 0 0 0 0 0 0 0 0 0 0 0 127 0" result="hardAlpha"/>
<feOffset dy="4"/>
<feGaussianBlur stdDeviation="2"/>
<feColorMatrix type="matrix" values="0 0 0 0 0 0 0 0 0 0 0 0 0 0 0 0 0 0 0.25 0"/>
<feBlend mode="normal" in2="BackgroundImageFix" result="effect1_dropShadow"/>
<feBlend mode="normal" in="SourceGraphic" in2="effect1_dropShadow" result="shape"/>
</filter>
<filter id="filter1_d" x="21" y="30" width="14" height="14" filterUnits="userSpaceOnUse" color-interpolation-filters="sRGB">
<feFlood flood-opacity="0" result="BackgroundImageFix"/>
<feColorMatrix in="SourceAlpha" type="matrix" values="0 0 0 0 0 0 0 0 0 0 0 0 0 0 0 0 0 0 127 0" result="hardAlpha"/>
<feOffset dy="4"/>
<feGaussianBlur stdDeviation="2"/>
<feColorMatrix type="matrix" values="0 0 0 0 0 0 0 0 0 0 0 0 0 0 0 0 0 0 0.25 0"/>
<feBlend mode="normal" in2="BackgroundImageFix" result="effect1_dropShadow"/>
<feBlend mode="normal" in="SourceGraphic" in2="effect1_dropShadow" result="shape"/>
</filter>
<linearGradient id="paint0_linear" x1="28.5" y1="0" x2="28.5" y2="25" gradientUnits="userSpaceOnUse">
<stop stop-color="#D1F0FA"/>
<stop offset="1" stop-color="#E7E7E7"/>
</linearGradient>
<linearGradient id="paint1_linear" x1="28.5" y1="13" x2="28.5" y2="56" gradientUnits="userSpaceOnUse">
<stop stop-color="#D1F0FA"/>
<stop offset="1" stop-color="#E7E7E7"/>
</linearGradient>
</defs>
</svg>
