<svg width="100%" height="100%" viewBox="0 0 520 111" fill="none" xmlns="http://www.w3.org/2000/svg"  preserveAspectRatio="none">
<path fill-rule="evenodd" clip-rule="evenodd" d="M130.935 45.2824H113.189V73.6633H104.006V45.2824H86.259V36.6559H130.935V45.2824Z" fill="#5AA832"/>
<path fill-rule="evenodd" clip-rule="evenodd" d="M180.421 73.6633H167.877L148.19 52.9H171.885C173.558 52.9 174.402 51.6339 174.402 49.0912C174.402 46.5486 173.558 45.2824 171.885 45.2824H143.394V73.6633H134.226V36.6559H172.391C175.907 36.6559 178.682 37.9495 180.716 40.5368C182.583 43.1812 183.557 46.1145 183.557 49.0912C183.557 52.0679 182.583 55.0012 180.716 57.6456C178.682 60.2329 175.907 61.5231 172.391 61.5162H168.861L180.421 73.6633Z" fill="#5AA832"/>
<path fill-rule="evenodd" clip-rule="evenodd" d="M235.644 73.6633H226.461V61.8765H202.288V53.2603H226.461V48.1133C226.461 46.25 225.8 45.3133 224.478 45.3133H198.463C197.197 45.3133 196.55 46.25 196.55 48.1133V73.6633H187.354V48.0824C187.249 45.2318 188.328 42.425 190.447 40.0324C191.263 39.0102 192.429 38.1612 193.83 37.5691C195.23 36.977 196.817 36.6623 198.435 36.6559H224.45C226.078 36.6585 227.677 36.9711 229.09 37.5631C230.503 38.1551 231.681 39.0061 232.508 40.0324C234.631 42.4242 235.715 45.2308 235.616 48.0824L235.644 73.6633Z" fill="#5AA832"/>
<path fill-rule="evenodd" clip-rule="evenodd" d="M282.753 73.6633H252.308C250.54 73.6621 248.798 73.359 247.218 72.7782C245.639 72.1975 244.266 71.3549 243.21 70.3177C240.641 67.9432 239.314 64.9754 239.469 61.9486V48.3706C239.314 45.3438 240.641 42.3759 243.21 40.0015C244.268 38.966 245.641 38.1248 247.22 37.5442C248.799 36.9636 250.541 36.6595 252.308 36.6559H282.753V45.2824H252.308C249.861 45.2824 248.638 46.3118 248.638 48.3706V61.9486C248.638 64.0074 249.861 65.0368 252.308 65.0368H282.753V73.6633Z" fill="#5AA832"/>
<path fill-rule="evenodd" clip-rule="evenodd" d="M329.328 73.6633H316.784L301.639 59.5089H295.761V73.6633H286.578V36.6559H295.761V50.8103H301.414L315.715 36.6559H328.259L309.443 55.1956L329.328 73.6633Z" fill="#5AA832"/>
<path fill-rule="evenodd" clip-rule="evenodd" d="M375.228 73.6633H344.853C343.085 73.6629 341.342 73.3602 339.762 72.7793C338.183 72.1985 336.81 71.3555 335.754 70.3177C333.181 67.9442 331.85 64.9765 332 61.9486V48.3706C331.85 45.3426 333.181 42.375 335.754 40.0015C336.812 38.9654 338.185 38.1238 339.764 37.5431C341.344 36.9625 343.086 36.6587 344.853 36.6559H375.228V45.2824H344.853C342.406 45.2824 341.182 46.3118 341.182 48.3706V61.9486C341.182 64.0074 342.406 65.0368 344.853 65.0368H366.115V59.4368H353.571V50.8103H375.228V73.6633Z" fill="#007735"/>
<path fill-rule="evenodd" clip-rule="evenodd" d="M425.247 73.6633H412.704L393.016 52.9H416.641C418.329 52.9 419.172 51.6339 419.172 49.0912C419.172 46.5486 418.329 45.2824 416.641 45.2824H388.221V73.6633H379.038V36.6559H417.204C420.733 36.6559 423.504 37.953 425.543 40.5368C427.41 43.1812 428.384 46.1145 428.384 49.0912C428.384 52.0679 427.41 55.0012 425.543 57.6456C423.504 60.2294 420.733 61.5162 417.204 61.5162H413.758L425.247 73.6633Z" fill="#007735"/>
<path fill-rule="evenodd" clip-rule="evenodd" d="M474.199 45.2824H441.377V50.8103H472.047V59.4368H441.377V65.0368H474.115V73.6633H432.208V36.6559H474.199V45.2824Z" fill="#007735"/>
<path fill-rule="evenodd" clip-rule="evenodd" d="M520 45.2824H487.193V50.8103H517.863V59.4368H487.193V65.0368H519.93V73.6633H478.01V36.6559H520V45.2824Z" fill="#007735"/>
<path fill-rule="evenodd" clip-rule="evenodd" d="M54.7029 35.4823C64.195 35.4823 71.8872 42.6882 71.8872 51.6235C71.9743 55.728 70.2042 59.7382 66.8528 63.0294L54.7029 74.8368L42.5108 63.0294C39.1594 59.7382 37.3894 55.728 37.4765 51.6235C37.4765 42.7088 45.1686 35.4823 54.6467 35.4823H54.7029ZM54.7029 42.3485C49.2608 42.3485 44.8592 46.4662 44.8592 51.6132C44.8592 56.7603 49.2889 60.8779 54.7029 60.8779C60.1169 60.8779 64.5466 56.7603 64.5466 51.6132C64.5466 46.4662 60.1591 42.3485 54.7029 42.3485Z" fill="#007735"/>
<path fill-rule="evenodd" clip-rule="evenodd" d="M50.0342 82.8559C37.2937 82.8559 26.9719 70.3794 26.9719 54.9897C26.9719 39.6 37.2937 27.1235 50.0342 27.1235C51.8026 27.1277 53.5556 27.3648 55.2092 27.8235C52.4149 26.7382 49.3022 26.1659 46.139 26.1559C31.2469 26.1559 19.1672 39.0647 19.1672 54.9794C19.1672 70.8941 31.2469 83.8029 46.139 83.8029C49.2798 83.8102 52.3767 83.2628 55.167 82.2074C53.524 82.6497 51.7847 82.8695 50.0342 82.8559Z" fill="#BCD49B"/>
<path fill-rule="evenodd" clip-rule="evenodd" d="M45.9842 85.0794C30.2906 85.0794 17.5641 71.6044 17.5641 54.9897C17.5641 38.375 30.2906 24.9103 45.9842 24.9103C51.495 24.9863 56.7714 26.5563 60.7919 29.3162C55.5045 25.2912 48.9514 22.903 41.8358 22.903C24.3843 22.903 10.2375 37.3147 10.2375 54.9897C10.2375 72.6647 24.3843 87.0765 41.8358 87.0765C48.9514 87.0765 55.5045 84.6882 60.7919 80.6632C56.772 83.4253 51.4964 84.9986 45.9842 85.0794Z" fill="#5AA832"/>
<path fill-rule="evenodd" clip-rule="evenodd" d="M41.3716 88.3838C23.2452 88.3838 8.56401 73.4162 8.56401 54.9691C8.56401 36.5221 23.2452 21.5647 41.3716 21.5647C45.944 21.5824 50.4226 22.5151 54.3231 24.2618C49.2095 21.5256 43.0508 20.0348 36.717 20C16.439 20 0 35.6574 0 55C0 74.3427 16.439 90 36.717 90C43.0522 89.9615 49.2108 88.4671 54.3231 85.7279C50.4166 87.4597 45.9385 88.378 41.3716 88.3838Z" fill="#007735"/>
</svg>
