<svg width="100%" height="100%" viewBox="0 0 512 512" fill="none" xmlns="http://www.w3.org/2000/svg"  preserveAspectRatio="none">
<g filter="url(#filter0_d)">
<path fill-rule="evenodd" clip-rule="evenodd" d="M348.103 158C394.437 158 431.985 194.254 431.985 239.209C432.41 259.86 423.77 280.036 407.411 296.595L348.103 356L288.589 296.595C272.23 280.036 263.59 259.86 264.015 239.209C264.015 194.358 301.563 158 347.828 158H348.103ZM348.103 192.545C321.538 192.545 300.053 213.262 300.053 239.158C300.053 265.054 321.675 285.77 348.103 285.77C374.531 285.77 396.153 265.054 396.153 239.158C396.153 213.262 374.737 192.545 348.103 192.545Z" fill="#007735"/>
</g>
<path fill-rule="evenodd" clip-rule="evenodd" d="M324.73 396.235C262.515 396.235 212.112 333.471 212.112 256.052C212.112 178.632 262.515 115.868 324.73 115.868C333.365 115.889 341.925 117.082 350 119.389C336.355 113.929 321.155 111.05 305.708 111C232.987 111 174 175.939 174 256C174 336.06 232.987 401 305.708 401C321.045 401.036 336.168 398.283 349.794 392.973C341.771 395.198 333.278 396.304 324.73 396.235Z" fill="#BCD49B"/>
<path fill-rule="evenodd" clip-rule="evenodd" d="M305.066 405.979C227.769 405.979 165.086 338.367 165.086 255C165.086 171.633 227.769 104.072 305.066 104.072C332.209 104.454 358.197 112.331 378 126.179C351.957 105.983 319.681 94 284.634 94C198.678 94 129 166.313 129 255C129 343.687 198.678 416 284.634 416C319.681 416 351.957 404.017 378 383.821C358.2 397.68 332.216 405.574 305.066 405.979Z" fill="#5AA832"/>
<path fill-rule="evenodd" clip-rule="evenodd" d="M281.82 423.873C193.395 423.873 121.777 348.607 121.777 255.845C121.777 163.082 193.395 87.8682 281.82 87.8682C304.125 87.9574 325.973 92.6473 345 101.431C320.055 87.6717 290.011 80.1751 259.113 80C160.193 80 80 158.734 80 256C80 353.266 160.193 432 259.113 432C290.018 431.806 320.061 424.292 345 410.518C325.943 419.226 304.098 423.844 281.82 423.873Z" fill="#007735"/>
<defs>
<filter id="filter0_d" x="226" y="121" width="208" height="238" filterUnits="userSpaceOnUse" color-interpolation-filters="sRGB">
<feFlood flood-opacity="0" result="BackgroundImageFix"/>
<feColorMatrix in="SourceAlpha" type="matrix" values="0 0 0 0 0 0 0 0 0 0 0 0 0 0 0 0 0 0 127 0" result="hardAlpha"/>
<feOffset dx="-18" dy="-17"/>
<feGaussianBlur stdDeviation="10"/>
<feColorMatrix type="matrix" values="0 0 0 0 0.247059 0 0 0 0 0.447059 0 0 0 0 0.34902 0 0 0 0.13 0"/>
<feBlend mode="normal" in2="BackgroundImageFix" result="effect1_dropShadow"/>
<feBlend mode="normal" in="SourceGraphic" in2="effect1_dropShadow" result="shape"/>
</filter>
</defs>
</svg>
