<svg width="100%" height="100%" viewBox="0 0 100 100" fill="none" xmlns="http://www.w3.org/2000/svg" preserveAspectRatio="none">
<path fill-rule="evenodd" clip-rule="evenodd" d="M68.6484 30.6403C78.1311 30.6403 85.8156 37.9197 85.8156 46.9461C85.9025 51.0924 84.1343 55.1436 80.7862 58.4683L68.6484 70.3961L56.4684 58.4683C53.1204 55.1436 51.3521 51.0924 51.4391 46.9461C51.4391 37.9405 59.1236 30.6403 68.5922 30.6403H68.6484ZM68.6484 37.5765C63.2117 37.5765 58.8145 41.7362 58.8145 46.9357C58.8145 52.1353 63.2398 56.2949 68.6484 56.2949C74.057 56.2949 78.4823 52.1353 78.4823 46.9357C78.4823 41.7362 74.0992 37.5765 68.6484 37.5765Z" fill="#007735"/>
<path fill-rule="evenodd" clip-rule="evenodd" d="M63.9845 78.4971C51.2566 78.4971 40.9451 65.8933 40.9451 50.3466C40.9451 34.7999 51.2566 22.1962 63.9845 22.1962C65.7511 22.2004 67.5023 22.4399 69.1543 22.9033C66.3627 21.8069 63.2532 21.2288 60.0931 21.2187C45.2158 21.2187 33.1482 34.2592 33.1482 50.3362C33.1482 66.4133 45.2158 79.4538 60.0931 79.4538C63.2308 79.4611 66.3246 78.9082 69.1121 77.8419C67.4708 78.2888 65.7332 78.5108 63.9845 78.4971Z" fill="#BCD49B"/>
<path fill-rule="evenodd" clip-rule="evenodd" d="M59.9384 80.7433C44.2603 80.7433 31.5465 67.1308 31.5465 50.3466C31.5465 33.5624 44.2603 19.9604 59.9384 19.9604C65.4437 20.0372 70.7148 21.6231 74.7313 24.4112C69.4491 20.3452 62.9026 17.9326 55.7941 17.9326C38.36 17.9326 24.2273 32.4913 24.2273 50.3466C24.2273 68.2019 38.36 82.7607 55.7941 82.7607C62.9026 82.7607 69.4491 80.3481 74.7313 76.282C70.7154 79.0722 65.445 80.6617 59.9384 80.7433Z" fill="#5AA832"/>
<path fill-rule="evenodd" clip-rule="evenodd" d="M55.3304 84.0814C37.222 84.0814 22.5555 68.961 22.5555 50.3258C22.5555 31.6906 37.222 16.5807 55.3304 16.5807C59.8982 16.5986 64.3724 17.5407 68.269 19.3052C63.1605 16.5412 57.0079 15.0352 50.6804 15C30.4226 15 14 30.8171 14 50.357C14 69.897 30.4226 85.714 50.6804 85.714C57.0093 85.6751 63.1618 84.1655 68.269 81.3984C64.3664 83.1478 59.8928 84.0755 55.3304 84.0814Z" fill="#007735"/>
</svg>
