<svg width="100%" height="100%" viewBox="0 0 33 33" fill="none" xmlns="http://www.w3.org/2000/svg"  preserveAspectRatio="none">
<path fill-rule="evenodd" clip-rule="evenodd" d="M14.0563 0C16.0097 0.0431222 17.9239 0.439915 19.65 1.1594C21.376 1.87888 22.8674 2.90142 24.0073 4.14774C26.7451 7.04247 28.1916 10.5651 28.1229 14.1704C28.1889 17.7724 26.7425 21.2911 24.0073 24.1832C22.8674 25.4295 21.376 26.4523 19.65 27.1718C17.9239 27.8912 16.0097 28.288 14.0563 28.3312C12.1046 28.288 10.1921 27.8913 8.46808 27.1718C6.74403 26.4522 5.25531 25.4293 4.11794 24.1832C1.38274 21.2911 -0.0636792 17.7724 0.00234066 14.1704C-0.0663888 10.5651 1.38017 7.04247 4.11794 4.14774C5.25531 2.90163 6.74403 1.87894 8.46808 1.1594C10.1921 0.439854 12.1046 0.0431284 14.0563 0ZM22.5209 5.64296C21.5474 4.58648 20.2777 3.71959 18.8102 3.10915C17.3427 2.49871 15.7163 2.16111 14.0563 2.12215C12.3981 2.16112 10.7734 2.49889 9.30788 3.10939C7.84235 3.71989 6.57531 4.58669 5.60438 5.64296C3.27399 8.10542 2.04319 11.1029 2.10303 14.1704C2.04498 17.2348 3.27574 20.2287 5.60438 22.6882C6.57333 23.7461 7.84012 24.6139 9.30608 25.2246C10.772 25.8353 12.3975 26.1722 14.0563 26.209C15.7169 26.1722 17.3446 25.8355 18.8126 25.2248C20.2805 24.6142 21.5493 23.7463 22.5209 22.6882C24.8495 20.2287 26.0803 17.2348 26.0222 14.1704C26.0821 11.1029 24.8513 8.10542 22.5209 5.64296Z" fill="white"/>
<path fill-rule="evenodd" clip-rule="evenodd" d="M24.1302 22.5627L33 31.4952L31.5135 33L22.6438 24.0675L24.1302 22.5627Z" fill="white"/>
</svg>
