<svg width="24" height="24" viewBox="0 0 24 24" fill="none" xmlns="http://www.w3.org/2000/svg">
<path fill-rule="evenodd" clip-rule="evenodd" d="M3.30868 3.97733C2.42933 4.96117 1.76237 6.06769 1.33837 7.24622C0.873017 8.48092 0.640772 9.76958 0.650012 11.065C0.606064 13.6505 1.57366 16.1762 3.40358 18.2524C4.16213 19.1499 5.15671 19.8877 6.30971 20.4079C7.4627 20.9282 8.74286 21.2168 10.0502 21.2514C11.3593 21.2168 12.6412 20.9281 13.7961 20.4079C14.951 19.8878 15.9477 19.1501 16.7088 18.2524C18.5387 16.1762 19.5064 13.6505 19.4625 11.065V10.8851C19.5107 8.24182 18.4516 5.66871 16.4715 3.61759C15.6976 2.8058 14.7262 2.14295 13.6227 1.67392C12.5192 1.2049 11.3091 0.94061 10.074 0.898553V5.6269H9.56371V0.348694H9.96722C11.2881 0.379195 12.5855 0.650495 13.7699 1.14407C14.9543 1.63765 15.9975 2.34164 16.8276 3.20757C18.9085 5.37487 20.0213 8.08814 19.9728 10.8751V11.065C20.0265 13.7923 19.0038 16.4576 17.0649 18.6424C16.2615 19.5851 15.2105 20.3587 13.9938 20.9031C12.777 21.4476 11.4275 21.7481 10.0502 21.7812C8.67358 21.7459 7.32504 21.4445 6.10875 20.9002C4.89246 20.3559 3.84107 19.5835 3.03571 18.6424C1.1059 16.4542 0.0877872 13.7905 0.139578 11.065C0.134348 9.70861 0.378564 8.35975 0.863575 7.06635C1.31105 5.82633 2.01414 4.66236 2.94067 3.62759L3.30868 3.97733Z" fill="#8E8A88"/>
<path fill-rule="evenodd" clip-rule="evenodd" d="M5.21985 5.86682L11.6054 11.2048C11.6054 12.0245 11.3205 12.4444 10.6202 12.4244L5.21985 5.86682Z" fill="#8E8A88"/>
</svg>
