<svg width="93" height="141" viewBox="0 0 93 141" fill="none" xmlns="http://www.w3.org/2000/svg">
<path fill-rule="evenodd" clip-rule="evenodd" d="M46.5004 0.0483677H47.1725C53.4195 0.250152 59.5425 1.62086 65.1163 4.06524C70.6902 6.50962 75.5823 9.97026 79.4567 14.2071C88.3618 23.7912 93.1462 35.7439 92.9966 48.0314V48.6107C92.9966 63.1068 79.009 86.3494 66.7556 107.031C60.6568 117.371 54.9487 127.035 51.6475 134.38L48.6833 141L45.719 134.38C40.2853 123.729 33.9446 113.441 26.7506 103.6C13.6579 84.5617 0.00416804 64.653 0.00416804 48.5623V47.9831C-0.161298 35.7015 4.60438 23.7494 13.4894 14.1587C17.3569 9.90361 22.2565 6.43087 27.8434 3.98502C33.4303 1.53917 39.5707 0.17866 45.831 0L46.5004 0.0483677ZM47.0604 7.1997H45.943C40.533 7.34086 35.223 8.50526 30.3897 10.609C25.5563 12.7128 21.3169 15.7049 17.9672 19.3766C10.4465 27.6227 6.48941 37.875 6.77684 48.3688V48.9493C6.77684 62.5661 19.6103 81.3212 31.8894 99.2663C31.9851 99.4062 32.0808 99.546 32.1764 99.6858C38.387 108.722 44.4298 117.515 48.9619 125.633C52.337 119.23 56.7515 111.742 61.3941 103.866C61.4464 103.778 61.4987 103.689 61.5511 103.6C61.6415 103.447 61.732 103.293 61.8226 103.14C73.5043 83.3482 86.5628 61.2237 86.7293 48.9009V48.3688C86.9406 37.8368 82.8635 27.5753 75.2057 19.3766C71.838 15.6865 67.5682 12.6829 62.704 10.5784C57.8398 8.47381 52.4991 7.31982 47.0604 7.1997Z" fill="#A2D062"/>
<path d="M47.0604 7.1997H45.943C40.533 7.34086 35.223 8.50526 30.3897 10.609C25.5563 12.7128 21.3169 15.7049 17.9672 19.3766C10.4465 27.6227 6.48941 37.875 6.77684 48.3688V48.9493C6.77684 62.5661 19.6103 81.3212 31.8894 99.2663L32.1764 99.6858C38.387 108.722 44.4298 117.515 48.9619 125.633C52.337 119.23 56.7515 111.742 61.3941 103.866L61.5511 103.6L61.8226 103.14C73.5043 83.3482 86.5628 61.2237 86.7293 48.9009V48.3688C86.9406 37.8368 82.8635 27.5753 75.2057 19.3766C71.838 15.6865 67.5682 12.6829 62.704 10.5784C57.8398 8.47381 52.4991 7.31982 47.0604 7.1997Z" fill="#A2D062"/>
<circle cx="46.5" cy="48.5" r="36.5" fill="white"/>
<path d="M23.6328 40.9922C24.5391 40.9922 25.3672 41.1172 26.1172 41.3672C26.8672 41.6172 27.5 41.9062 28.0156 42.2344V45.4453C27.4531 45.1016 26.8516 44.7812 26.2109 44.4844C25.5703 44.1875 24.8438 44.0391 24.0312 44.0391C23.625 44.0391 23.2188 44.1016 22.8125 44.2266C22.4219 44.3516 22.0938 44.5391 21.8281 44.7891C21.5781 45.0391 21.4531 45.3594 21.4531 45.75C21.4531 46.2656 21.6797 46.6562 22.1328 46.9219C22.5859 47.1875 23.1406 47.4531 23.7969 47.7188L25.7188 48.5156C26.8125 48.9844 27.6172 49.5547 28.1328 50.2266C28.6484 50.8984 28.9062 51.6641 28.9062 52.5234C28.9062 53.4609 28.6328 54.2891 28.0859 55.0078C27.5547 55.7109 26.8359 56.2656 25.9297 56.6719C25.0391 57.0781 24.0469 57.2812 22.9531 57.2812C22.0312 57.2812 21.1484 57.125 20.3047 56.8125C19.4609 56.5 18.7266 56.1172 18.1016 55.6641V52.4531C18.7891 52.9531 19.5469 53.375 20.375 53.7188C21.2031 54.0625 22.0859 54.2344 23.0234 54.2344C23.6797 54.2344 24.2422 54.1094 24.7109 53.8594C25.1797 53.5938 25.4141 53.2031 25.4141 52.6875C25.4141 52.2812 25.2188 51.9531 24.8281 51.7031C24.4531 51.4375 24.0391 51.2188 23.5859 51.0469L21.1719 50.1094C19.9531 49.6406 19.125 49.0312 18.6875 48.2812C18.2656 47.5156 18.0547 46.6719 18.0547 45.75C18.0547 44.7969 18.3125 43.9688 18.8281 43.2656C19.3594 42.5469 20.0469 41.9922 20.8906 41.6016C21.7344 41.1953 22.6484 40.9922 23.6328 40.9922ZM35.9609 41.7188V45.1641H39.2422V47.6484H35.9609V52.7578C35.9609 53.2891 36.0781 53.7109 36.3125 54.0234C36.5625 54.3203 36.9297 54.4688 37.4141 54.4688C37.8359 54.4688 38.1953 54.4219 38.4922 54.3281C38.8047 54.2344 39.0938 54.1016 39.3594 53.9297V56.2969C39.0625 56.5938 38.6875 56.8438 38.2344 57.0469C37.7969 57.25 37.2422 57.3516 36.5703 57.3516C35.5078 57.3516 34.6406 57.0156 33.9688 56.3438C33.3125 55.6562 32.9844 54.7188 32.9844 53.5312V47.6484H30.8516V46.125C31.6016 45.8594 32.2891 45.3594 32.9141 44.625C33.5547 43.8906 34.0625 42.9219 34.4375 41.7188H35.9609ZM46.9766 44.8594C47.6172 44.8594 48.2656 45.0078 48.9219 45.3047C49.5781 45.6016 50.125 46 50.5625 46.5V45.1641H53.5391V57H50.5625V55.0078C50.2188 55.6484 49.7188 56.2031 49.0625 56.6719C48.4062 57.125 47.6406 57.3516 46.7656 57.3516C45.8125 57.3516 44.9297 57.1094 44.1172 56.625C43.3203 56.1406 42.6797 55.4375 42.1953 54.5156C41.7109 53.5938 41.4688 52.4766 41.4688 51.1641C41.4688 49.8516 41.7109 48.7266 42.1953 47.7891C42.6953 46.8516 43.3594 46.1328 44.1875 45.6328C45.0312 45.1172 45.9609 44.8594 46.9766 44.8594ZM47.5859 47.7656C46.9609 47.7656 46.4219 47.9297 45.9688 48.2578C45.5312 48.5703 45.1875 48.9844 44.9375 49.5C44.6875 50.0156 44.5625 50.5703 44.5625 51.1641C44.5625 52.0547 44.8281 52.8125 45.3594 53.4375C45.9062 54.0625 46.625 54.375 47.5156 54.375C48.0469 54.375 48.5391 54.2344 48.9922 53.9531C49.4609 53.6719 49.8359 53.2812 50.1172 52.7812C50.4141 52.2656 50.5625 51.6484 50.5625 50.9297V49.2422C50.1406 48.7891 49.6797 48.4297 49.1797 48.1641C48.6953 47.8984 48.1641 47.7656 47.5859 47.7656ZM64.6484 48.4922C64.1484 48.2109 63.625 48.0703 63.0781 48.0703C62.3906 48.0703 61.8203 48.2969 61.3672 48.75C60.9141 49.1875 60.5156 49.7344 60.1719 50.3906V57H57.1953V45.1641H60.1719V47.3906C60.5781 46.6875 61.0547 46.1016 61.6016 45.6328C62.1641 45.1641 62.7969 44.9297 63.5 44.9297C63.9219 44.9297 64.3047 45 64.6484 45.1406V48.4922ZM71.2344 41.7188V45.1641H74.5156V47.6484H71.2344V52.7578C71.2344 53.2891 71.3516 53.7109 71.5859 54.0234C71.8359 54.3203 72.2031 54.4688 72.6875 54.4688C73.1094 54.4688 73.4688 54.4219 73.7656 54.3281C74.0781 54.2344 74.3672 54.1016 74.6328 53.9297V56.2969C74.3359 56.5938 73.9609 56.8438 73.5078 57.0469C73.0703 57.25 72.5156 57.3516 71.8438 57.3516C70.7812 57.3516 69.9141 57.0156 69.2422 56.3438C68.5859 55.6562 68.2578 54.7188 68.2578 53.5312V47.6484H66.125V46.125C66.875 45.8594 67.5625 45.3594 68.1875 44.625C68.8281 43.8906 69.3359 42.9219 69.7109 41.7188H71.2344Z" fill="#A2D062"/>
</svg>
