<svg width="35" height="31" viewBox="0 0 35 31" fill="none" xmlns="http://www.w3.org/2000/svg">
<path fill-rule="evenodd" clip-rule="evenodd" d="M13.611 3.14944H21.1611C21.3047 3.13197 21.4348 3.06571 21.5237 2.96478C21.6127 2.86385 21.6533 2.7362 21.6372 2.60913C21.7077 2.084 21.5399 1.55558 21.1703 1.13939C20.8007 0.723197 20.2592 0.453105 19.6646 0.388031H15.13C14.5374 0.455518 13.999 0.726648 13.6318 1.14257C13.2645 1.55848 13.0981 2.08554 13.1687 2.60913C13.1489 2.73217 13.184 2.85719 13.2664 2.95794C13.3489 3.05869 13.4724 3.12738 13.611 3.14944Z" fill="#8E8A88"/>
<path fill-rule="evenodd" clip-rule="evenodd" d="M9.58717 25.0105H4.93904C4.82865 25.0254 4.72911 25.0777 4.66143 25.1561C4.59376 25.2345 4.56343 25.333 4.57647 25.4309V28.4324C4.52822 28.8125 4.65064 29.194 4.91773 29.4952C5.18481 29.7964 5.57526 29.9931 6.00489 30.0431H8.5216C8.95123 29.9931 9.3414 29.7964 9.60849 29.4952C9.87557 29.194 9.99827 28.8125 9.95002 28.4324V25.4309C9.96306 25.333 9.93246 25.2345 9.86478 25.1561C9.7971 25.0777 9.69756 25.0254 9.58717 25.0105Z" fill="#8E8A88"/>
<path fill-rule="evenodd" clip-rule="evenodd" d="M29.8225 25.0105H25.1747C25.0655 25.0276 24.9676 25.0804 24.9004 25.1583C24.8332 25.2361 24.8016 25.3334 24.8118 25.4309V28.4324C24.7636 28.8125 24.8863 29.194 25.1533 29.4952C25.4204 29.7964 25.8106 29.9931 26.2402 30.0431H28.7569C29.1866 29.9931 29.577 29.7964 29.8441 29.4952C30.1112 29.194 30.2336 28.8125 30.1854 28.4324V25.4309C30.1984 25.333 30.1678 25.2345 30.1001 25.1561C30.0324 25.0777 29.9329 25.0254 29.8225 25.0105Z" fill="#8E8A88"/>
<path fill-rule="evenodd" clip-rule="evenodd" d="M31.8406 19.0875C31.9154 19.7298 31.7059 20.3728 31.2558 20.8819C30.8057 21.391 30.1502 21.7267 29.426 21.8189C28.0997 21.8189 27.0225 20.5883 27.0225 19.0875C27.0225 17.5867 28.1563 16.3561 29.426 16.3561C30.1502 16.4483 30.8057 16.784 31.2558 17.2931C31.7059 17.8022 31.9154 18.4452 31.8406 19.0875ZM24.1206 22.8294C24.1206 23.0895 23.9504 23.2996 23.7237 23.2996H11.038C10.8226 23.2996 10.6411 23.0895 10.6411 22.8294V21.4588C10.6411 21.1987 10.8226 20.9884 11.038 20.9884H23.7237C23.9504 20.9884 24.1206 21.1987 24.1206 21.4588V22.8294ZM7.70509 19.0875C7.77989 19.7298 7.57033 20.3728 7.12027 20.8819C6.67021 21.391 6.01438 21.7267 5.29024 21.8189C3.97518 21.8189 2.88701 20.5883 2.88701 19.0875C2.88701 17.5867 4.02053 16.3561 5.29024 16.3561C6.01438 16.4483 6.67021 16.784 7.12027 17.2931C7.57033 17.8022 7.77989 18.4452 7.70509 19.0875ZM7.78425 6.73109C7.84426 6.43291 8.01305 6.16019 8.26473 5.95432C8.51641 5.74846 8.83719 5.62081 9.17864 5.59061H25.5941C25.9342 5.62126 26.2535 5.74932 26.5033 5.9553C26.7531 6.16128 26.9197 6.43373 26.9774 6.73109L28.7457 12.304H6.0724L7.82964 6.73109H7.78425ZM33.235 14.0649L30.4122 12.1941L27.8841 5.10037C27.8135 4.81668 27.6427 4.55999 27.3962 4.36757C27.1496 4.17516 26.8401 4.05691 26.5124 4.02975H8.24923C7.92238 4.05589 7.61348 4.17408 7.36853 4.36684C7.12358 4.5596 6.95534 4.81678 6.88861 5.10037L4.3492 12.1941L1.3224 14.1951C1.09206 14.3709 0.911577 14.5918 0.795426 14.8402C0.679275 15.0887 0.630589 15.3578 0.653441 15.6258L0.914162 22.8595C0.914162 23.6999 1.51518 24.3602 2.22939 24.3602H31.9541C32.793 24.3602 33.4958 23.5898 33.5638 22.5993L34.0515 15.906C34.0884 15.5671 34.0334 15.2252 33.8915 14.9086C33.7496 14.5921 33.5246 14.3098 33.235 14.085V14.0649Z" fill="#8E8A88"/>
</svg>
