<svg width="52" height="62" viewBox="0 0 52 62" fill="none" xmlns="http://www.w3.org/2000/svg">
<path fill-rule="evenodd" clip-rule="evenodd" d="M35.9374 19.0247C35.9374 19.0247 38.6363 16.4857 39.4838 17.4953C40.3313 18.5049 39.1492 22.1736 38.3017 25.1224C37.4542 28.0712 36.0712 27.3615 35.9374 25.4223C35.8036 23.4831 35.9374 19.0247 35.9374 19.0247Z" fill="#D9AE88"/>
<path fill-rule="evenodd" clip-rule="evenodd" d="M37.9448 42.3352C34.2466 40.4451 30.0579 39.4623 25.8009 39.4863C21.9998 39.4959 18.2825 40.4887 15.0953 42.3453L14.8389 46.3436C14.8389 46.3436 39.3722 47.0833 39.1269 46.5735C38.8815 46.0637 37.9448 42.3352 37.9448 42.3352Z" fill="#573313"/>
<path fill-rule="evenodd" clip-rule="evenodd" d="M16.3779 30.92C16.3779 30.92 17.1361 37.6172 16.5562 40.8159C16.1824 43.2793 15.1112 45.6159 13.4449 47.6032C12.1959 49.0226 5.63882 51.2917 3.40852 53.071C2.58818 53.8669 1.97515 54.816 1.61328 55.8499C4.06661 59.2785 7.85803 61.4775 12.1068 61.4775H23.3699H39.7849C44.4574 61.1276 48.4719 58.1289 50.6129 53.8207C50.5884 53.781 50.554 53.7467 50.5125 53.7206C48.3937 52.4911 41.3014 48.8526 39.6621 47.9629C38.0228 47.0733 35.7367 41.7355 35.4691 39.2765C35.2015 36.8175 35.0678 28.5008 35.0678 28.5008L16.3779 30.92Z" fill="#F3CFA7"/>
<g style="mix-blend-mode:multiply" opacity="0.4">
<path fill-rule="evenodd" clip-rule="evenodd" d="M16.7235 35.658C16.7235 35.658 27.4515 50.3918 27.5407 50.9516C27.6299 51.5114 32.0014 49.5722 35.0903 47.9528C38.1793 46.3335 37.432 45.5139 37.432 45.5139C35.8715 42.0203 35.1129 38.2806 35.2017 34.5183C35.2797 32.9989 34.856 26.3716 34.7111 25.242C33.1053 12.5671 19.0097 27.6911 16.8017 28.8006C16.5898 28.9206 16.7235 35.658 16.7235 35.658Z" fill="#B88166"/>
</g>
<path fill-rule="evenodd" clip-rule="evenodd" d="M14.0475 16.1859C13.6567 17.6202 13.6798 19.1199 14.1145 20.5441C14.2956 21.2458 14.3872 22.4482 14.4983 23.9068C14.8113 28.0165 15.2792 34.16 18.3409 36.8675C19.4503 37.8486 20.2096 38.6367 20.8148 39.2648C22.4725 40.9853 22.9738 41.5056 26.3476 41.5056C29.1664 41.5056 30.2211 40.3309 32.382 37.9241C32.7345 37.5315 33.1165 37.1061 33.5403 36.6477C35.1684 34.8984 36.3839 26.2718 36.5735 22.3534C36.585 22.1158 36.6011 21.844 36.619 21.543C36.8958 16.8799 37.5893 5.19518 27.9311 4.65057C18.5279 4.12034 17.8271 5.04477 16.232 7.14877C16.083 7.34535 15.9262 7.55223 15.7537 7.76918C13.7353 10.3082 14.0475 16.1859 14.0475 16.1859ZM30 33.5H23.5L24.4311 34.5H27.9311L30 33.5Z" fill="#F3CFA7"/>
<path fill-rule="evenodd" clip-rule="evenodd" d="M14.5269 19.6044C13.8784 18.8778 13.154 18.2083 12.3635 17.6052C11.9063 17.4453 11.3823 18.135 11.5941 18.6048C11.9802 19.7882 12.1348 21.0225 12.0513 22.2532C11.9955 24.0025 11.9955 26.0517 13.2222 26.2516C14.2662 26.2494 15.2847 25.9638 16.1438 25.4321L14.5269 19.6044Z" fill="#F3CFA7"/>
<path fill-rule="evenodd" clip-rule="evenodd" d="M13.8353 46.8135C13.8353 46.8135 16.0655 52.6912 28.4548 51.8715C40.8441 51.0518 38.7588 46.8735 38.7588 46.8735L46.5649 51.0017C48.0674 51.9885 49.2274 53.3369 49.9103 54.8903C47.5016 58.8187 43.4314 61.3977 38.8369 61.3977H12.0733C7.1555 61.3977 2.85117 58.3988 0.520508 54.0605L0.721159 53.8006C3.59825 50.332 13.8353 46.8135 13.8353 46.8135Z" fill="white"/>
<g style="mix-blend-mode:multiply">
<path fill-rule="evenodd" clip-rule="evenodd" d="M26.6929 50.8119L22.9012 59.4185C20.5664 56.9597 18.431 54.354 16.5115 51.6216C13.5117 47.2034 13.9242 47.2933 13.9242 47.2933L14.27 45.8239L26.6929 50.8119Z" fill="#B9B1A4"/>
</g>
<g style="mix-blend-mode:multiply">
<path fill-rule="evenodd" clip-rule="evenodd" d="M25.0869 54.1206C25.0869 54.1206 26.9938 51.7416 28.4324 54.1806C29.595 55.9942 30.911 57.7252 32.3689 59.3585C34.6208 56.9549 36.7136 54.4348 38.6362 51.8115C41.6136 47.6931 37.4541 46.2837 37.4541 46.2837L37.2088 47.2833L26.1354 50.9119L25.0869 54.1206Z" fill="#B9B1A4"/>
</g>
<path fill-rule="evenodd" clip-rule="evenodd" d="M27.5297 50.2821L24.1061 57.9689C21.0265 56.2322 18.3124 54.0226 16.0883 51.4415C13.713 48.4427 13.3894 47.1134 13.3894 47.1134L15.0956 42.3453C15.0956 42.3453 17.2926 49.6123 27.5297 50.2821Z" fill="white"/>
<path fill-rule="evenodd" clip-rule="evenodd" d="M27.3396 50.2721C29.6223 49.6695 31.7594 48.6899 33.6404 47.3833C35.385 46.2257 36.8588 44.772 37.9782 43.105L39.2161 48.033C39.2161 48.033 39.573 49.2524 35.8707 53.4707C31.3097 58.6786 30.0161 58.6188 30.0161 58.6188L27.3396 50.2721Z" fill="white"/>
<path fill-rule="evenodd" clip-rule="evenodd" d="M22.1211 50.392L22.9019 56.5595L26.4145 53.8506H29.4365L32.9492 55.7998L33.6292 48.6527L28.9459 50.8218L26.4145 50.9318L22.1211 50.392Z" fill="#372915"/>
<path fill-rule="evenodd" clip-rule="evenodd" d="M14.9395 45.0942C14.9395 45.0942 19.1993 56.8793 20.7494 61.4775H12.1293C6.79886 61.4775 2.18203 58.0089 0.0297852 52.9909C3.4756 50.9318 14.9395 45.0942 14.9395 45.0942Z" fill="#713B12"/>
<path fill-rule="evenodd" clip-rule="evenodd" d="M39.8407 46.5736L34.7559 61.4775H38.9042C44.4799 61.4775 49.3084 57.6491 51.3045 52.2312C49.9887 51.5415 47.8364 50.492 39.8407 46.5736Z" fill="#713B12"/>
<g style="mix-blend-mode:multiply">
<path fill-rule="evenodd" clip-rule="evenodd" d="M13.1664 46.5236L13.4117 60.8979L17.0695 60.8178L16.4005 61.4775H11.9399L13.2111 46.7835L13.1664 46.5236Z" fill="#C5ADA2"/>
</g>
<g style="mix-blend-mode:multiply">
<path fill-rule="evenodd" clip-rule="evenodd" d="M40.5542 47.5232C40.7103 47.6131 40.5542 59.8683 40.5542 59.8683L37.7217 60.9279L38.2793 61.4775H38.9485C39.6183 61.4764 40.2866 61.4196 40.9446 61.3076L41.4352 61.0077C41.4352 61.0077 40.8107 47.5232 40.5988 47.5232H40.5542Z" fill="#C5ADA2"/>
</g>
<path fill-rule="evenodd" clip-rule="evenodd" d="M37.9894 42.4154L40.3537 47.9332C40.3537 47.9332 40.9222 60.0283 40.7103 59.9283C39.6741 60.1968 38.6606 60.5308 37.6771 60.9279C37.6771 60.9279 37.8892 61.1576 38.1569 61.4775H34.8669L37.7776 42.4852L37.9894 42.4154Z" fill="#713B12"/>
<path fill-rule="evenodd" clip-rule="evenodd" d="M13.166 46.5236L15.151 42.3853L20.7268 61.4775H16.478C16.9129 61.0577 17.2029 60.7579 17.0914 60.8178C16.0299 60.8221 14.9699 60.7418 13.9242 60.578C13.7235 60.578 13.166 46.5236 13.166 46.5236Z" fill="#713B12"/>
<path fill-rule="evenodd" clip-rule="evenodd" d="M13.8911 19.0246C13.9915 19.2446 15.2627 18.6148 15.8538 14.2465C16.4448 9.8783 15.4298 9.36869 16.4446 7.43947C17.4594 5.51025 19.6451 8.43904 24.5406 8.65895C29.4361 8.87886 32.224 8.04914 33.2388 8.34902C34.2536 8.64889 33.3281 12.8271 34.4209 15.466C35.0277 16.9767 35.8484 18.4112 36.863 19.7343C37.6387 17 38.15 14.2109 38.3909 11.3978C38.3701 10.2352 38.0727 9.08982 37.5189 8.03835C36.9651 6.98688 36.1674 6.05343 35.1792 5.3002C34.1188 3.75236 32.6283 2.47788 30.8533 1.60174C29.0783 0.725597 27.0799 0.277844 25.0538 0.302214C18.0506 0.402173 17.0356 3.86082 15.0953 5.59012C13.1549 7.31942 11.8169 14.4565 13.8911 19.0246Z" fill="#75471E"/>
<path fill-rule="evenodd" clip-rule="evenodd" d="M31.1977 20.0001C30.3698 20.0001 29.6834 20.6873 29.7086 21.5158C29.7338 22.3443 30.3951 23.0078 31.2229 22.9999C32.0508 22.9921 32.7372 22.3168 32.707 21.4883C32.6767 20.6597 32.0205 19.9922 31.1926 20.0001H31.1977ZM31.2229 22.8036C30.5061 22.8036 29.9155 22.2343 29.9105 21.5118C29.9054 20.7893 30.4809 20.2043 31.1977 20.1964C31.9145 20.1885 32.5102 20.7697 32.5152 21.4883C32.5202 22.2068 31.9448 22.788 31.2229 22.7958V22.8036Z" fill="#3D2A1F"/>
<path d="M31.2229 22.8036C30.5061 22.8036 29.9155 22.2343 29.9105 21.5118C29.9054 20.7893 30.4809 20.2043 31.1977 20.1964C31.9145 20.1885 32.5102 20.7697 32.5152 21.4883C32.5202 22.2068 31.9448 22.788 31.2229 22.7958V22.8036Z" fill="#3D2A1F"/>
<path d="M21.3126 22.78C20.5958 22.78 20.0052 22.2107 20.0001 21.4883C19.9951 20.7658 20.5705 20.1807 21.2873 20.1728C22.0041 20.165 22.5998 20.7461 22.6049 21.4647C22.6099 22.1832 22.0344 22.7644 21.3126 22.7723V22.78Z" fill="#3D2A1F"/>
</svg>
