<svg width="26" height="28" viewBox="0 0 26 28" fill="none" xmlns="http://www.w3.org/2000/svg">
<path fill-rule="evenodd" clip-rule="evenodd" d="M12.7136 0C13.7778 0.023966 14.8208 0.243258 15.7609 0.640749C16.701 1.03824 17.5128 1.60333 18.133 2.2916C19.6304 3.88929 20.4212 5.83606 20.3821 7.82854C20.4211 9.82363 19.6305 11.7729 18.133 13.3738C17.5128 14.0621 16.701 14.6272 15.7609 15.0246C14.8208 15.4221 13.7778 15.6414 12.7136 15.6654C11.648 15.6408 10.6039 15.4212 9.66226 15.0238C8.72057 14.6264 7.90662 14.0618 7.28358 13.3738C5.78614 11.7729 4.9955 9.82363 5.03446 7.82854C4.99545 5.83606 5.78622 3.88929 7.28358 2.2916C7.90662 1.60362 8.72057 1.03897 9.66226 0.641581C10.6039 0.244196 11.648 0.0246037 12.7136 0ZM17.3619 3.08375C16.8304 2.49288 16.1342 2.00781 15.3279 1.66645C14.5215 1.32509 13.6267 1.13664 12.7136 1.11596C11.799 1.13663 10.9028 1.32493 10.0947 1.66624C9.28665 2.00755 8.58845 2.4927 8.05468 3.08375C6.77402 4.45388 6.09658 6.12145 6.12692 7.82854C6.09501 9.53844 6.7725 11.2089 8.05468 12.5816C8.59018 13.1713 9.28872 13.6553 10.0964 13.9965C10.9042 14.3376 11.7995 14.5268 12.7136 14.5494C13.6262 14.5268 14.5201 14.3377 15.326 13.9965C16.132 13.6553 16.8287 13.1711 17.3619 12.5816C18.6441 11.2089 19.3216 9.53844 19.2897 7.82854C19.32 6.12145 18.6426 4.45388 17.3619 3.08375Z" fill="currentColor"/>
<path fill-rule="evenodd" clip-rule="evenodd" d="M0.0431815 27.5229C-0.0214513 24.2228 1.28487 20.998 3.75959 18.3486C4.78999 17.207 6.13811 16.2701 7.69865 15.6111C9.2592 14.9521 10.99 14.5888 12.7562 14.5494C14.5205 14.5901 16.2493 14.954 17.8079 15.613C19.3664 16.2719 20.7128 17.2081 21.7421 18.3486C24.2211 20.9962 25.528 24.2222 25.4585 27.5229H24.3875C24.45 24.5061 23.2522 21.5579 20.9817 19.1407C20.0433 18.0979 18.8146 17.2416 17.3914 16.6387C15.9683 16.0358 14.3893 15.7028 12.7776 15.6654C11.1643 15.7022 9.58344 16.035 8.15847 16.6379C6.7335 17.2407 5.50289 18.0972 4.56286 19.1407C2.29742 21.56 1.10019 24.5067 1.15709 27.5229H0.0431815Z" fill="currentColor"/>
<path d="M25.4158 27.0459H0V28H25.4158V27.0459Z" fill="currentColor"/>
</svg>
