<svg width="100%" height="100%" viewBox="0 0 28 33" fill="none" xmlns="http://www.w3.org/2000/svg" preserveAspectRatio="none">
<g clip-path="url(#clip0)">
<path fill-rule="evenodd" clip-rule="evenodd" d="M13.9965 0C12.8228 0.0313093 11.6731 0.295976 10.6364 0.773527C9.5997 1.25108 8.70377 1.92871 8.0179 2.75402C6.37504 4.66839 5.50665 6.9982 5.54711 9.38295C5.50665 11.7677 6.37504 14.0975 8.0179 16.0119C8.70377 16.8372 9.5997 17.5148 10.6364 17.9924C11.6731 18.4699 12.8228 18.7346 13.9965 18.7659C15.1703 18.7346 16.3199 18.4699 17.3566 17.9924C18.3933 17.5148 19.2893 16.8372 19.9751 16.0119C21.6101 14.0993 22.4734 11.7742 22.432 9.395C22.4705 7.00956 21.5996 4.67968 19.9543 2.76607C19.2742 1.93893 18.3828 1.25896 17.3494 0.779163C16.316 0.299368 15.1685 0.0327172 13.9965 0V0ZM8.87398 3.70015C9.46224 2.99381 10.2301 2.41398 11.1183 2.00543C12.0065 1.59688 12.9912 1.37053 13.9965 1.34386C15.0021 1.36917 15.9874 1.59493 16.8759 2.00359C17.7643 2.41226 18.5319 2.99282 19.1191 3.70015C20.5211 5.34723 21.2551 7.34932 21.2071 9.395C21.2551 11.4407 20.5211 13.4428 19.1191 15.0899C18.5356 15.8027 17.7696 16.3891 16.881 16.8031C15.9923 17.2171 15.0051 17.4475 13.9965 17.4763C12.9859 17.4434 11.9977 17.2087 11.1092 16.7905C10.2206 16.3724 9.45561 15.7821 8.87398 15.0657C7.46238 13.4212 6.71628 11.4196 6.75118 9.37089C6.72241 7.33036 7.4682 5.33809 8.87398 3.70015Z" fill="#5AA832"/>
<path fill-rule="evenodd" clip-rule="evenodd" d="M27.9998 33C28.0702 29.043 26.6291 25.1768 23.9004 22.002C21.3669 19.1877 17.8661 17.4763 13.9963 17.4763C10.1266 17.4763 6.63267 19.2179 4.09924 22.0321C1.37055 25.2069 -0.0705814 29.0732 -0.000188828 33.0301H1.20389C1.13896 29.4147 2.45804 25.8824 4.95531 22.9843C7.26603 20.4111 10.4676 18.8201 14.0033 18.8201C17.539 18.8201 20.7336 20.4111 23.0513 22.9843C25.5367 25.8755 26.8505 29.3962 26.7888 33H27.9998Z" fill="#5AA832"/>
</g>
<defs>
<clipPath id="clip0">
<rect width="28" height="33" fill="white" transform="matrix(-1 0 0 1 28 0)"/>
</clipPath>
</defs>
</svg>
