<svg width="28" height="33" viewBox="0 0 28 33" fill="none" xmlns="http://www.w3.org/2000/svg">
<path fill-rule="evenodd" clip-rule="evenodd" d="M3.00671 14.4762H3.31295C3.18865 13.7074 3.12122 12.9321 3.11111 12.1553C3.11111 5.32379 7.92742 0 13.9478 0C19.9682 0 25 4.16853 25 11H23.5C23.5 5.06938 19.1678 1.73915 14.08 1.73915C8.99229 1.73915 4.84415 6.36853 4.84415 12.1553C4.84964 12.9318 4.91242 13.7071 5.03207 14.4762H22.9888H24.9933C26.608 14.4762 27.9165 15.8775 28 17.7481V29.7282C27.9165 31.6049 26.608 33 24.9933 33H3.00671C1.30152 33 0 31.4986 0 29.528V17.9482C0 15.9776 1.30152 14.4762 3.00671 14.4762ZM1.51031 29.5592C1.51031 30.4851 2.20631 31.2921 3.01367 31.2921H24.9933C25.7937 31.2921 26.4966 30.4851 26.4966 29.5592V17.9482C26.4966 17.0224 25.8006 16.2091 24.9933 16.2091H3.11111C2.30375 16.2091 1.6008 17.0224 1.6008 17.9482L1.50336 29.528L1.51031 29.5592Z" fill="#5AA832"/>
</svg>
