<svg  width="100%" height="100%" preserveAspectRatio="none" viewBox="0 0 34 35" fill="none" xmlns="http://www.w3.org/2000/svg">
<path fill-rule="evenodd" clip-rule="evenodd" d="M0.705078 18.9405L17.2066 0.310974L33.3167 18.5503L32.4819 19.2707L17.2066 1.98181L1.55301 19.6608L0.705078 18.9405Z" fill="currentColor"/>
<path fill-rule="evenodd" clip-rule="evenodd" d="M4.39672 16.2491V33.3178H29.4815V15.6188H30.5903V34.4183H3.2749V16.2491H4.39672Z" fill="currentColor"/>
<path fill-rule="evenodd" clip-rule="evenodd" d="M17.1547 18.01C17.9224 18.0273 18.6743 18.1799 19.3528 18.4557C20.0314 18.7316 20.6185 19.1233 21.0681 19.6009C22.1519 20.7113 22.7253 22.0657 22.6987 23.4527C22.7253 24.8396 22.1519 26.1943 21.0681 27.3047C20.622 27.7857 20.0364 28.1808 19.3573 28.4586C18.6782 28.7364 17.9241 28.8894 17.1547 28.9056C16.3858 28.8879 15.6322 28.7341 14.9534 28.4564C14.2746 28.1788 13.6889 27.7846 13.2413 27.3047C12.1575 26.1943 11.5841 24.8396 11.6108 23.4527C11.5842 22.0627 12.1574 20.705 13.2413 19.5908C13.6903 19.1128 14.2766 18.7206 14.9553 18.4447C15.6341 18.1688 16.3869 18.0165 17.1547 17.9999V18.01ZM20.2853 20.3813C19.9305 19.9956 19.4624 19.6795 18.9184 19.4587C18.3744 19.2379 17.7701 19.1187 17.1547 19.1106C16.5406 19.1233 15.9385 19.2446 15.3955 19.465C14.8525 19.6854 14.3833 19.999 14.0241 20.3813C13.1609 21.2711 12.7026 22.3536 12.7197 23.4627C12.7026 24.5717 13.1609 25.6545 14.0241 26.5443C14.384 26.9261 14.8532 27.2393 15.3961 27.4596C15.939 27.6799 16.5408 27.8015 17.1547 27.815C17.7685 27.8008 18.37 27.6789 18.9127 27.4586C19.4554 27.2383 19.9248 26.9255 20.2853 26.5443C21.1485 25.6545 21.6068 24.5717 21.5898 23.4627C21.6068 22.3536 21.1485 21.2711 20.2853 20.3813Z" fill="currentColor"/>
</svg>
