<svg  width="100%" height="100%" preserveAspectRatio="none" viewBox="0 0 30 35" fill="none" xmlns="http://www.w3.org/2000/svg">
<path d="M29.9673 33.5719H0.299805V34.7415H29.9673V33.5719Z" fill="currentColor"/>
<path fill-rule="evenodd" clip-rule="evenodd" d="M0.287724 34.1517C0.213648 30.1047 1.74427 26.151 4.64054 22.9073C5.84046 21.5068 7.41134 20.3568 9.2304 19.5471C11.0495 18.7375 13.0676 18.2899 15.1276 18.2394C17.187 18.2922 19.2044 18.7409 21.023 19.5503C22.8416 20.3598 24.4128 21.5084 25.6146 22.9073C28.5026 26.154 30.0282 30.1064 29.9552 34.1517H28.6759C28.7429 30.4547 27.3469 26.8427 24.7055 23.8768C23.6101 22.5999 22.1771 21.5514 20.5179 20.8129C18.8588 20.0744 17.0182 19.6659 15.1393 19.6189C13.2607 19.6674 11.4206 20.0767 9.76173 20.8151C8.10284 21.5534 6.66966 22.601 5.57299 23.8768C2.9316 26.8427 1.53621 30.4547 1.6032 34.1517H0.287724Z" fill="currentColor"/>
<path fill-rule="evenodd" clip-rule="evenodd" d="M15.1276 0.358276C16.3705 0.389083 17.5879 0.659494 18.6852 1.14842C19.7824 1.63734 20.7299 2.33162 21.4533 3.17697C23.2051 5.13709 24.1299 7.52733 24.0837 9.97369C24.1282 12.4168 23.2034 14.8031 21.4533 16.7602C20.7299 17.6055 19.7824 18.2998 18.6852 18.7887C17.5879 19.2776 16.3705 19.548 15.1276 19.5789C13.883 19.5481 12.6634 19.2778 11.5642 18.789C10.465 18.3001 9.51553 17.6057 8.78961 16.7602C7.04296 14.8022 6.12209 12.4157 6.17092 9.97369C6.12034 7.52837 7.04125 5.13801 8.78961 3.17697C9.51553 2.33141 10.465 1.63703 11.5642 1.14817C12.6634 0.659313 13.883 0.389075 15.1276 0.358276ZM20.5565 4.14646C19.9333 3.42379 19.1192 2.83063 18.1778 2.41294C17.2364 1.99524 16.1929 1.76403 15.1276 1.73748C14.0617 1.76176 13.0169 1.99188 12.0751 2.40976C11.1333 2.82765 10.32 3.42213 9.69871 4.14646C8.20178 5.82878 7.41164 7.87733 7.45078 9.97369C7.41338 12.0668 8.20348 14.1114 9.69871 15.7907C10.32 16.515 11.1333 17.1095 12.0751 17.5274C13.0169 17.9453 14.0617 18.1754 15.1276 18.1996C16.1929 18.1731 17.2364 17.9419 18.1778 17.5242C19.1192 17.1065 19.9333 16.5133 20.5565 15.7907C22.0517 14.1114 22.8418 12.0668 22.8044 9.97369C22.833 7.89097 22.0434 5.85789 20.5565 4.18648V4.14646Z" fill="currentColor"/>
</svg>
