<svg width="48" height="36" viewBox="0 0 48 36" fill="none" xmlns="http://www.w3.org/2000/svg">
<path d="M14.6846 21.2099L12.3768 23H15.2975H22.9644L20.5192 28.5301L22.1018 29.6786L33.168 19.7441L35.296 17.8338L32.4413 18.0017L25.5989 18.4042L27.9098 13.3373L26.3871 12.1322L14.6846 21.2099ZM23.0902 19.085L22.4011 20.5958L24.0587 20.4983L29.704 20.1662L24.2322 25.0784L25.4146 22.4044L26.0356 21H24.5H18.2182L24.4059 16.2002L23.0902 19.085ZM43.0152 18.3896V14.8818H46.4629V34.7612H43.0389V30.7036V29.7036H42.0389H39.4629H38.4629V30.7036V34.821H18.0929L10.8558 26.1163L10.5559 25.7556H10.0868H8.41627V23.1573V22.1573H7.41627H5.30383H4.30182L4.30383 23.1593L4.31341 27.9345H1.5V12.673H4.20878V18.2498V19.2498H5.20878H7.35716H8.35716V18.2498V13.9223H10.1228H10.5993L10.8994 13.5522L14.4092 9.2247H21.4338H22.4338V8.2247V4.69641V3.69641H21.4338H16.2975V1H30.0716V3.69641H27H26V4.69641V8.2247V9.20775L26.9829 9.22456L32.8386 9.32469L38.3597 18.8895L38.6484 19.3896H39.2258H42.0152H43.0152V18.3896Z" stroke="#8E8A88" stroke-width="2"/>
</svg>
