<svg width="46" height="35" viewBox="0 0 46 35" fill="none" xmlns="http://www.w3.org/2000/svg">
<path d="M18.9659 19.9935L18.4723 20.6356L19.2675 20.7891L21.8401 21.286L19.251 28.0762L20.1143 28.5594L27.3427 19.174L27.8394 18.5291L27.0395 18.3777L24.5385 17.9042L26.6141 11.6398L25.7431 11.1778L18.9659 19.9935ZM23.4096 18.1319L23.2299 18.6742L23.7912 18.7805L26.0537 19.2088L21.3968 25.2553L22.9866 21.0861L23.1987 20.5299L22.6142 20.417L20.2523 19.9609L24.7361 14.1285L23.4096 18.1319ZM19.4338 3.19641H13.7975V1.34772H28.5716V3.19641H23.0182H22.5182V3.69641V7.33451V7.83451H23.0182H31.133L36.7928 17.6396L36.9371 17.8896H37.2258H40.0152H40.5152V17.3896V13.3818H43.5771C44.568 14.7284 45.0473 16.2863 44.9636 17.8527L44.9629 17.866V17.8794V29.2025C44.9582 30.9543 44.4742 32.685 43.5438 34.2612H40.5389V29.7036V29.2036H40.0389H37.4629H36.9629V29.7036V34.321H15.8584L8.4713 25.436L8.32136 25.2556H8.08682H5.91627V22.1573V21.6573H5.41627H3.30383H2.80282L2.80383 22.1583L2.81441 27.4345H1.33496V11.173H2.70878V17.2498V17.7498H3.20878H5.35716H5.85716V17.2498V12.4223H8.12275H8.36101L8.51109 12.2373L12.1709 7.72471H19.4338H19.9338V7.22471V3.69641V3.19641H19.4338Z" stroke="#8E8A88"/>
</svg>
