<svg width="36" height="36" viewBox="0 0 36 36" fill="none" xmlns="http://www.w3.org/2000/svg">
<path fill-rule="evenodd" clip-rule="evenodd" d="M14.6328 6.0474L21.6521 13.3038L23.8919 11.0049L20.6887 7.72651L21.2642 7.13695L27.9463 0.290222L35.191 7.72651L27.9463 15.153L25.043 12.1545L22.8032 14.4534L29.1224 20.98L25.5189 24.6484L26.7702 25.8777L25.3307 27.357L24.0795 26.1176L20.6386 29.6159L14.1324 22.8992L12.1676 24.8982L15.2835 28.0966L8.03872 35.5229L0.793945 28.0966L1.36947 27.5068L8.03872 20.6603L11.0165 23.7186L12.9814 21.7196L5.57349 14.0635L14.0573 5.42783L14.6328 6.01739V6.0474ZM27.9463 2.64917L22.9413 7.72651L27.9463 12.7941L32.8883 7.72651L27.9463 2.64917ZM8.03872 23.059L3.03373 28.1366L8.03872 33.204L12.9814 28.1366L8.03872 23.059ZM26.8074 21L14.0194 7.80654L7.83832 14.1035L20.6263 27.297L26.8074 21Z" fill="#8E8A88"/>
</svg>
