<svg width="21" height="19" viewBox="0 0 21 19" fill="none" xmlns="http://www.w3.org/2000/svg">
<path d="M12 11.48C12 12.3084 11.3284 12.98 10.5 12.98C9.67157 12.98 9 12.3084 9 11.48C9 10.6516 9.67157 9.97998 10.5 9.97998C11.0427 9.97998 11.5181 10.2682 11.7815 10.7C11.9201 10.9272 12 11.1943 12 11.48Z" fill="#8E8A88"/>
<path d="M3 18H18M2.12049 17.0499C1.87639 16.3229 1.69251 15.5771 1.57056 14.8199C1.44751 14.0496 1.39059 13.27 1.40052 12.4899C1.38705 9.54488 2.35068 6.67869 4.14051 4.33997C4.88589 3.32748 5.85262 2.49842 6.96693 1.91614C8.08123 1.33386 9.31375 1.01362 10.5706 0.979858C11.8357 1.01243 13.0768 1.33294 14.1996 1.91687C15.3224 2.5008 16.2974 3.33291 17.0505 4.34998C18.8341 6.68898 19.7814 9.5587 19.7405 12.4999C19.7414 13.2701 19.6812 14.0392 19.5605 14.7999C19.4375 15.5503 19.2536 16.2894 19.0105 17.0099M11.5 11L11.7815 10.7M14.6464 7.64645L11.7815 10.7M11.7815 10.7C11.5181 10.2682 11.0427 9.97998 10.5 9.97998C9.67157 9.97998 9 10.6516 9 11.48C9 12.3084 9.67157 12.98 10.5 12.98C11.3284 12.98 12 12.3084 12 11.48C12 11.1943 11.9201 10.9272 11.7815 10.7Z" stroke="#8E8A88"/>
</svg>
