<svg width="31" height="35" viewBox="0 0 31 35" fill="none" xmlns="http://www.w3.org/2000/svg">
<path fill-rule="evenodd" clip-rule="evenodd" d="M28.3764 34.3112V17.0496L30.0983 19.1786L30.8636 18.4589L16.1077 0.227905L0.980957 18.8487L1.74628 19.5684L3.32465 17.6294V34.3112H28.3764ZM18.0632 18.3643C17.4412 18.0888 16.7519 17.9366 16.0482 17.9193C15.3445 17.9366 14.6547 18.0888 14.0327 18.3643C13.4106 18.6399 12.8731 19.0313 12.4609 19.5083C11.4673 20.6214 10.9418 21.9779 10.9661 23.3665C10.9435 24.7518 11.469 26.1047 12.4609 27.2147C12.8712 27.6941 13.4081 28.0879 14.0303 28.3653C14.6526 28.6427 15.3433 28.7961 16.0482 28.8138C16.7531 28.7961 17.4433 28.6427 18.0655 28.3653C18.6878 28.0879 19.2253 27.6941 19.6356 27.2147C20.6248 26.1041 21.1459 24.7509 21.118 23.3665C21.1459 21.9791 20.6249 20.6226 19.6356 19.5083C19.2234 19.0313 18.6852 18.6399 18.0632 18.3643ZM18.918 20.288C18.5927 19.9027 18.1631 19.5868 17.6644 19.3663C17.1658 19.1457 16.6123 19.0266 16.0482 19.0186C15.4854 19.032 14.9338 19.1535 14.4361 19.3736C13.9385 19.5937 13.5078 19.9066 13.1779 20.288C12.3866 21.1769 11.9665 22.2586 11.9821 23.3665C11.9665 24.4745 12.3866 25.5561 13.1779 26.4451C13.5097 26.8248 13.9407 27.1363 14.4379 27.3562C14.9351 27.5762 15.486 27.6988 16.0482 27.7145C16.6124 27.7014 17.1652 27.579 17.6632 27.357C18.1612 27.135 18.5907 26.8194 18.918 26.4351C19.7116 25.5509 20.1321 24.4717 20.1138 23.3665C20.1348 22.2579 19.7141 21.1748 18.918 20.288Z" stroke="currentColor"/>
</svg>
