<svg width="29" height="35" viewBox="0 0 29 35" fill="none" xmlns="http://www.w3.org/2000/svg">
<path fill-rule="evenodd" clip-rule="evenodd" d="M0.285156 34.6174C0.285156 25.7009 6.57444 18.4739 14.3247 18.4739C22.075 18.4739 28.3646 25.7009 28.3646 34.6174H0.285156Z" stroke="currentColor"/>
<path fill-rule="evenodd" clip-rule="evenodd" d="M14.3579 0.501221C15.5178 0.530112 16.6545 0.798619 17.6797 1.28582C18.7048 1.77301 19.5907 2.46581 20.2683 3.31015C21.892 5.27448 22.75 7.66293 22.7104 10.1075C22.75 12.552 21.892 14.9402 20.2683 16.9045C19.5907 17.7489 18.7048 18.4416 17.6797 18.9288C16.6545 19.416 15.5178 19.6845 14.3579 19.7134C13.1981 19.6845 12.0613 19.416 11.0362 18.9288C10.011 18.4416 9.12512 17.7489 8.44758 16.9045C6.82388 14.9402 5.96582 12.552 6.00547 10.1075C5.96582 7.66293 6.82388 5.27448 8.44758 3.31015C9.12512 2.46581 10.011 1.77301 11.0362 1.28582C12.0613 0.798619 13.1981 0.530112 14.3579 0.501221Z" stroke="currentColor"/>
</svg>
