<svg width="100%" height="100%" preserveAspectRatio="none"  viewBox="0 0 45 52" fill="none" xmlns="http://www.w3.org/2000/svg">
<path d="M36.6334 12.5689C36.6334 19.3459 30.3057 24.8397 22.5 24.8397C14.6943 24.8397 8.36658 19.3459 8.36658 12.5689C8.36658 5.79193 14.6943 0.298096 22.5 0.298096C30.3057 0.298096 36.6334 5.79193 36.6334 12.5689Z" fill="#00DD00"/>
<path d="M44.0367 35.3617C44.0367 44.5508 34.3944 52.0001 22.5 52.0001C10.6056 52.0001 0.963348 44.5508 0.963348 35.3617C0.963348 27.7687 5.17575 24.4173 15.3093 26.9142C20.0439 28.0808 24.9947 28.1893 29.7368 27.0533C40.3742 24.5051 44.0367 27.7027 44.0367 35.3617Z" fill="#00DD00"/>
</svg>
