<svg width="100%" height="100%" preserveAspectRatio="none"  viewBox="0 0 44 52" fill="none" xmlns="http://www.w3.org/2000/svg">
<path d="M34.1701 12.2708C34.1701 18.0274 28.7199 23.0417 21.5367 23.0417C14.3534 23.0417 8.90322 18.0274 8.90322 12.2708C8.90322 6.51428 14.3534 1.5 21.5367 1.5C28.7199 1.5 34.1701 6.51428 34.1701 12.2708ZM41.5733 35.0637C41.5733 43.0874 32.9856 50.202 21.5367 50.202C10.0877 50.202 1.5 43.0874 1.5 35.0637C1.5 31.5006 2.48329 29.3992 4.17768 28.322C5.96631 27.1848 9.03631 26.8527 13.9871 28.0725C18.9348 29.2917 24.1292 29.4103 29.1229 28.214C34.372 26.9565 37.4076 27.2586 39.1033 28.3448C40.6897 29.361 41.5733 31.3967 41.5733 35.0637Z" stroke="#04C2FE" stroke-width="3"/>
</svg>
