<svg width="100%" height="100%" preserveAspectRatio="none"  viewBox="0 0 45 52" fill="none" xmlns="http://www.w3.org/2000/svg">
<path d="M35.1334 12.2708C35.1334 18.0274 29.6833 23.0417 22.5 23.0417C15.3167 23.0417 9.86658 18.0274 9.86658 12.2708C9.86658 6.51428 15.3167 1.5 22.5 1.5C29.6833 1.5 35.1334 6.51428 35.1334 12.2708ZM42.5367 35.0637C42.5367 43.0874 33.9489 50.202 22.5 50.202C11.0511 50.202 2.46335 43.0874 2.46335 35.0637C2.46335 31.5006 3.44664 29.3992 5.14103 28.322C6.92966 27.1848 9.99966 26.8527 14.9504 28.0725C19.8982 29.2917 25.0925 29.4103 30.0863 28.214C35.3354 26.9565 38.371 27.2586 40.0667 28.3448C41.653 29.361 42.5367 31.3967 42.5367 35.0637Z" stroke="#00DD00" stroke-width="3"/>
</svg>
