<svg width="100%" height="100%" preserveAspectRatio="none" viewBox="0 0 44 52" fill="none" xmlns="http://www.w3.org/2000/svg">
<path d="M35.6701 12.2708C35.6701 19.0478 29.3423 24.5417 21.5367 24.5417C13.731 24.5417 7.40322 19.0478 7.40322 12.2708C7.40322 5.49384 13.731 0 21.5367 0C29.3423 0 35.6701 5.49384 35.6701 12.2708Z" fill="#04C2FE"/>
<path d="M43.0733 35.0636C43.0733 44.2527 33.431 51.702 21.5367 51.702C9.64229 51.702 0 44.2527 0 35.0636C0 27.4706 4.2124 24.1192 14.3459 26.6161C19.0806 27.7827 24.0314 27.8912 28.7735 26.7552C39.4108 24.207 43.0733 27.4046 43.0733 35.0636Z" fill="#04C2FE"/>
</svg>
