<?xml version="1.0" standalone="yes"?>
<svg width="48" height="48">
<path style="fill:#ffffff; stroke:none;" d="M0 0L0 48L48 48L48 0L0 0z"/>
<path style="fill:#4c3b00; stroke:none;" d="M13 5L13 43L19 42L14 16L21 6L13 5z"/>
<path style="fill:#a98300; stroke:none;" d="M21 5L22 8L24 6L25 6L26 6L28 8L28 5L21 5z"/>
<path style="fill:#4c3b00; stroke:none;" d="M28 5L28 6C32.9455 8.43983 33.4344 12.1037 35 17L36 17L36 5L28 5z"/>
<path style="fill:#eeb700; stroke:none;" d="M14 16L14 17L14 18C20.0013 25.9215 10.1484 43.7988 26.9097 41.8704C29.0397 41.6253 31.0002 40.7143 33 40L36 17C34.8462 15.8748 29.0552 1.8035 28 8L26 6L25 6L24 6L24 8L23 8C16.7034 3.79639 16.7987 12.363 14 16z"/>
<path style="fill:#a57f00; stroke:none;" d="M16.3333 8.66667L16.6667 9.33333L16.3333 8.66667z"/>
<path style="fill:#a37f00; stroke:none;" d="M33 10L33 16L34 16L33 10z"/>
<path style="fill:#0c0c00; stroke:none;" d="M29 21L25 14C13.7235 14.8628 23.4916 19.973 29 21z"/>
<path style="fill:#926d00; stroke:none;" d="M25 14L30 20L32 18L25 14z"/>
<path style="fill:#7d6100; stroke:none;" d="M17 16L17 19L19 18L19 17L17 16z"/>
<path style="fill:#795e00; stroke:none;" d="M15 18L15 38L16 38L15 18z"/>
<path style="fill:#493900; stroke:none;" d="M34 18C34 24.5636 36.5441 36.3915 30 40L36 43L36 18L34 18z"/>
<path style="fill:#483200; stroke:none;" d="M17 19L17 26L18 26L17 19z"/>
<path style="fill:#1d0c00; stroke:none;" d="M31 19L31 26L32 26L31 19z"/>
<path style="fill:#7a7c7a; stroke:none;" d="M20 20L21 24L28 24L28 26L21 26C22.4945 38.9838 34.0584 24.5337 26.6836 20.7423C24.7345 19.7402 22.1137 20.0191 20 20z"/>
<path style="fill:#b1b3b1; stroke:none;" d="M20 21L22 31L21 26L28 24L20 21z"/>
<path style="fill:#9e6f00; stroke:none;" d="M30 21L30 25L31 25L30 21z"/>
<path style="fill:#f0f0f0; stroke:none;" d="M25.6667 24.3333L26.3333 24.6667L25.6667 24.3333z"/>
<path style="fill:#b38800; stroke:none;" d="M18 25L17 27L19 27L18 25z"/>
<path style="fill:#482f00; stroke:none;" d="M17 27L17 34L18 34L19 27L17 27z"/>
<path style="fill:#855800; stroke:none;" d="M30 27L30 32L31 32L30 27z"/>
<path style="fill:#1f0d00; stroke:none;" d="M31 27L31 34L32 34L31 27z"/>
<path style="fill:#c6c7c7; stroke:none;" d="M28.3333 29.6667L28.6667 30.3333L28.3333 29.6667z"/>
<path style="fill:#3c3c3c; stroke:none;" d="M20.6667 31.3333L21.3333 31.6667L20.6667 31.3333z"/>
<path style="fill:#414242; stroke:none;" d="M27.6667 31.3333L28.3333 31.6667L27.6667 31.3333z"/>
<path style="fill:#090600; stroke:none;" d="M20 35L29 34L29 32C25.356 32 20.9036 30.7831 20 35z"/>
<path style="fill:#3d2c00; stroke:none;" d="M29 33L21 34L21 35L29 35L29 36L21 36L21 37C24.513 38.0074 30.8007 38.3127 29 33z"/>
<path style="fill:#665100; stroke:none;" d="M19 34C19.8965 38.0981 25.4165 36 29 36L29 35L19 34z"/>
<path style="fill:#977500; stroke:none;" d="M33 34L33 39L34 39L33 34z"/>
<path style="fill:#ca9d00; stroke:none;" d="M18 35L18 39L22 38L22 37L18 35z"/>
<path style="fill:#b78e00; stroke:none;" d="M18 40L18 43L31 43L31 42L18 40z"/>
</svg>
