<?xml version="1.0" standalone="yes"?>
<svg width="19" height="39">
<path style="fill:#000000; stroke:none;" d="M0 0L0 39L19 39L19 0L15 0L15 1C20.3745 6.26399 18.0033 19.7597 18 27C17.9987 29.8534 18.6558 34.0461 16.3966 36.2577C7.46943 44.9967 1.00049 33.5821 1 26C0.999764 22.3329 0.942197 18.6633 1.1304 15C1.39627 9.82497 0.0419304 4.87667 4 1L0 0z"/>
<path style="fill:#ab0005; stroke:none;" d="M1 10L2 10C7.26821 5.6877 12.3419 7.68859 18 10C17.9539 -3.0495 1.04612 -3.04951 1 10z"/>
<path style="fill:#250102; stroke:none;" d="M6 0L6 1L13 1L6 0z"/>
<path style="fill:#670005; stroke:none;" d="M6 7L6 8L13 8L6 7z"/>
<path style="fill:#730006; stroke:none;" d="M2 8L2 19L3 19L2 8z"/>
<path style="fill:#140001; stroke:none;" d="M3 8C4.51068 14.9228 14.4893 14.9229 16 8L3 8z"/>
<path style="fill:#4d0105; stroke:none;" d="M16 10L15 17L16 17L18 10L16 10z"/>
<path style="fill:#be0005; stroke:none;" d="M16 12L16 17L15 17L15 13L4 13L3 19L17 19L17 37L18 37L18 12L16 12z"/>
<path style="fill:#2f0204; stroke:none;" d="M3 13L3 17L4 17L3 13z"/>
<path style="fill:#b80007; stroke:none;" d="M1 16L2.60339 36.9722L16 38L13 21L13 37L12 37L12 20L10 20L10 37L9 37L9 20L7 20L7 37L6 37L6 20L4 22L3 22L1 16z"/>
<path style="fill:#510005; stroke:none;" d="M3 22L4 22L16 20C12.682 18.0883 3.96654 17.4895 3 22z"/>
<path style="fill:#850006; stroke:none;" d="M16 19L12 20L12 37L13 37L13 21L16 22L15 37L17 37L16 19z"/>
<path style="fill:#841213; stroke:none;" d="M6 20L6 37L7 37L6 20M9 20L9 37L10 37L9 20z"/>
<path style="fill:#5a0005; stroke:none;" d="M3 23L3 37L4 37L3 23z"/>
</svg>
