<?xml version="1.0" standalone="yes"?>
<svg width="48" height="48">
<path style="fill:#ffffff; stroke:none;" d="M0 0L0 48L48 48L48 0L0 0z"/>
<path style="fill:#5c5a5a; stroke:none;" d="M12 8L12 27L18 26L18 22L15 22L15 14L18 17C20.3911 11.2878 17.8079 8.19072 12 8z"/>
<path style="fill:#bcbcbc; stroke:none;" d="M18 8L19 22L29 22L30 8L18 8z"/>
<path style="fill:#3c3b3b; stroke:none;" d="M20 8L20 10L28 10L28 8L20 8z"/>
<path style="fill:#5e5c5c; stroke:none;" d="M29 17L30 17L30 14C34.208 16.3296 34.208 19.6704 30 22L30 26L36 28L36 8C29.5336 8.21235 29.021 11.0629 29 17z"/>
<path style="fill:#080808; stroke:none;" d="M15 14L15 22L18 22L18 14L15 14z"/>
<path style="fill:#191818; stroke:none;" d="M30 14L30 22C34.7735 20.4155 34.7735 15.5845 30 14z"/>
<path style="fill:#828081; stroke:none;" d="M18 17L18 26C12.202 27.0068 13.0032 32.0994 13 37L14 37L14 29L18 27L19 27L19 37L20 37L19 23L29 23L28 27L34 29L34 37L35 37C34.9968 32.0994 35.798 27.0068 30 26L30 17L29 17L29 22L19 22L18 17z"/>
<path style="fill:#241b20; stroke:none;" d="M19 23C21.062 28.1296 26.938 28.1296 29 23L19 23z"/>
<path style="fill:#272626; stroke:none;" d="M13 26L12 37L13 37L13 26z"/>
<path style="fill:#463f43; stroke:none;" d="M18 27C18 29.9273 17.0893 34.9491 19.0278 37.3966C26.5195 46.8556 30 31.5873 30 27L29 27C28.997 30.8783 27.2562 42.9795 20.6034 36.3958C18.2963 34.1127 19.1937 29.8437 18 27z"/>
<path style="fill:#9e9e9e; stroke:none;" d="M20 27L20 37L29 37L29 27L20 27z"/>
<path style="fill:#2c2c2c; stroke:none;" d="M35 28C34.986 32.8877 35.291 37.3288 30 39L30 40L36 40L35 28z"/>
<path style="fill:#b2b2b2; stroke:none;" d="M14 29L14 38L18 38L18 29L14 29z"/>
<path style="fill:#b7b7b7; stroke:none;" d="M30 29L30 38L34 38L34 29L30 29z"/>
<path style="fill:#4f4f4f; stroke:none;" d="M12 37L12 40L15 39L15 38L12 37z"/>
<path style="fill:#21191d; stroke:none;" d="M20 37L20 38L28 38L20 37z"/>
<path style="fill:#7b797a; stroke:none;" d="M15 38L15 39L34 39L15 38z"/>
<path style="fill:#111111; stroke:none;" d="M14 39L14 40L18 40L14 39z"/>
</svg>
