<?xml version="1.0" standalone="yes"?>
<svg width="48" height="48">
<path style="fill:#ffffff; stroke:none;" d="M0 0L0 48L48 48L48 0L0 0z"/>
<path style="fill:#bdbdbd; stroke:none;" d="M14 4L16 17L20 5L18 9L24 12L25 12L31 9L29 5L33 15L35 15L35 4L14 4z"/>
<path style="fill:#5a5b5b; stroke:none;" d="M19 5L16 10L19 5z"/>
<path style="fill:#727373; stroke:none;" d="M29 5L31 8L29 5z"/>
<path style="fill:#4a4a4a; stroke:none;" d="M31 7L33 10L31 7z"/>
<path style="fill:#a5a5a5; stroke:none;" d="M17 9L17 13L30 13L30 14L28 14L28 15L35 16L35 15C31.9032 11.2113 31.3794 9.17665 26 9L27 12L17 9z"/>
<path style="fill:#888989; stroke:none;" d="M16 10L17 28L18 28L19 21L16 10z"/>
<path style="fill:#696a6a; stroke:none;" d="M18 12L21 11L18 12z"/>
<path style="fill:#707171; stroke:none;" d="M25 10L25 12L27 12L27 10L25 10z"/>
<path style="fill:#5f6060; stroke:none;" d="M28 10L28 12L30 12L30 10L28 10z"/>
<path style="fill:#e3e3e3; stroke:none;" d="M17 15L30 14C26.1412 12.3771 19.6836 11.3205 17 15z"/>
<path style="fill:#5a5a5a; stroke:none;" d="M20 14L20 15L28 15L20 14z"/>
<path style="fill:#111212; stroke:none;" d="M18.6474 16.0231C13.6777 20.2281 27.3341 22.4087 30.2384 19.9769C35.4544 15.6094 21.5389 13.5766 18.6474 16.0231z"/>
<path style="fill:#555656; stroke:none;" d="M32 16L33 20L34 20L35 16L32 16z"/>
<path style="fill:#000000; stroke:none;" d="M14 17L14 20L15 20L14 17M34 17L34 20L35 20L34 17z"/>
<path style="fill:#b9b9b9; stroke:none;" d="M32 18L32 21L33 21L32 18z"/>
<path style="fill:#3d3e3e; stroke:none;" d="M17.3333 19.6667L17.6667 20.3333L17.3333 19.6667z"/>
<path style="fill:#464747; stroke:none;" d="M31.3333 19.6667L31.6667 20.3333L31.3333 19.6667z"/>
<path style="fill:#bdbdbd; stroke:none;" d="M31 28C19.0599 30.2154 19.0599 22.7846 31 25C27.9971 15.9523 16.5708 21.8579 18.1481 30.8912C19.5122 38.7028 30.7617 35.1659 31 28z"/>
<path style="fill:#888888; stroke:none;" d="M30 21L31 28L32 28L33 21L30 21z"/>
<path style="fill:#5a5b5b; stroke:none;" d="M14 23L16 34L18 34L17 22L14 23z"/>
<path style="fill:#5e5f5f; stroke:none;" d="M32 22L29 34L29 35L33 35L35 23L32 22z"/>
<path style="fill:#0b0c0c; stroke:none;" d="M14 24L14 26L16 24L14 24z"/>
<path style="fill:#979797; stroke:none;" d="M20 24L20 25L29 25L20 24z"/>
<path style="fill:#000000; stroke:none;" d="M33 24L35 26L35 24L33 24z"/>
<path style="fill:#03399e; stroke:none;" d="M19 25L19 28L23 28L23 25L19 25z"/>
<path style="fill:#ffffff; stroke:none;" d="M23 25L23 28L26 28L26 25L23 25z"/>
<path style="fill:#ff0000; stroke:none;" d="M26 25L26 28L30 28L30 25L26 25z"/>
<path style="fill:#e1888c; stroke:none;" d="M30 25L30 28L31 28L30 25z"/>
<path style="fill:#c2c2c2; stroke:none;" d="M14 26L14 42C22.9753 44.228 26.0247 44.228 35 42L35 26L33 26C32.9386 43.9182 16.1982 43.905 16 26L14 26z"/>
<path style="fill:#939393; stroke:none;" d="M20 28L20 29L29 29L20 28z"/>
<path style="fill:#6b6c6c; stroke:none;" d="M18.6667 34.3333L19.3333 34.6667L18.6667 34.3333z"/>
<path style="fill:#000000; stroke:none;" d="M18 35C19.1639 41.9744 29.8361 41.9744 31 35L18 35z"/>
<path style="fill:#383939; stroke:none;" d="M21 35L21 36L28 36L21 35z"/>
<path style="fill:#494a4a; stroke:none;" d="M20 40L20 41L28 41L20 40z"/>
<path style="fill:#8f8f8f; stroke:none;" d="M14 42L14 45L20 45L14 42z"/>
<path style="fill:#939393; stroke:none;" d="M29 45L35 45L35 42L29 45z"/>
</svg>
