<?xml version="1.0" standalone="yes"?>
<svg width="48" height="48">
<path style="fill:#ffffff; stroke:none;" d="M0 0L0 48L48 48L48 0L0 0z"/>
<path style="fill:#063e1b; stroke:none;" d="M13 5L13 43L18 43L14 18L14 17L14 16C16.5203 13.8013 15.6237 10.1127 18.3179 7.89352C26.9119 0.814915 32.4819 10.3398 35 17L36 17L36 5L13 5z"/>
<path style="fill:#18ba55; stroke:none;" d="M18 14L31 15C30.708 6.10764 18.129 3.11768 18 14z"/>
<path style="fill:#476653; stroke:none;" d="M22 6L22 8L24 8L24 6L22 6z"/>
<path style="fill:#9ebca9; stroke:none;" d="M24 6L24 8L26 8L26 6L24 6z"/>
<path style="fill:#4da66e; stroke:none;" d="M26 6L26 8C29.8823 9.17761 30.6994 11.0481 31 15L32 15L33 8L26 6z"/>
<path style="fill:#75e19e; stroke:none;" d="M19.6667 7.33333L20.3333 7.66667L19.6667 7.33333z"/>
<path style="fill:#238548; stroke:none;" d="M16.3333 8.66667L16.6667 9.33333L16.3333 8.66667z"/>
<path style="fill:#55d987; stroke:none;" d="M17 8L14 18L20 15L17 8z"/>
<path style="fill:#70e49b; stroke:none;" d="M20 12L23 9L20 12z"/>
<path style="fill:#56e88d; stroke:none;" d="M32 10C31.7685 14.213 31.2443 17.1665 36 18L36 17L32 10z"/>
<path style="fill:#018332; stroke:none;" d="M33 12L33 16L34 16L33 12z"/>
<path style="fill:#090b0b; stroke:none;" d="M20 21L28 20C24.4923 15.1859 17.5024 12.4631 20 21z"/>
<path style="fill:#6e6468; stroke:none;" d="M23 14L28 19L30 15L23 14z"/>
<path style="fill:#036127; stroke:none;" d="M30 15L32 18L30 15z"/>
<path style="fill:#1a3221; stroke:none;" d="M17 16L17 26L18 26L17 16z"/>
<path style="fill:#939393; stroke:none;" d="M28 16L28 20L21 20L21 25L28 24L30 16L28 16z"/>
<path style="fill:#18bb51; stroke:none;" d="M16 18C16 23.9757 13.2155 37.7482 20 40L18 42L18 43L31 43L30 40C36.7845 37.7482 34 23.9757 34 18C24.0478 19.7281 32.9716 31.2295 28.3071 36.2539C26.0732 38.66 21.791 37.3447 19 37C20.5318 30.2989 22.1245 24.4927 19 18L18 18L18 26L17 26L16 18z"/>
<path style="fill:#21643b; stroke:none;" d="M29.3333 18.6667L29.6667 19.3333L29.3333 18.6667z"/>
<path style="fill:#063e1b; stroke:none;" d="M34 18C34 26.6891 34.9917 35.0587 31 43L36 43L36 18L34 18z"/>
<path style="fill:#2d0a1a; stroke:none;" d="M31 19L31 26L32 26L31 19z"/>
<path style="fill:#559b6d; stroke:none;" d="M28 21L28 29L29 29L28 21z"/>
<path style="fill:#4d6e54; stroke:none;" d="M30 21L30 25L31 25L30 21z"/>
<path style="fill:#afb3af; stroke:none;" d="M21 25L21 26L28 24L21 25z"/>
<path style="fill:#ffffff; stroke:none;" d="M25.6667 24.3333L26.3333 24.6667L25.6667 24.3333z"/>
<path style="fill:#8e8f8e; stroke:none;" d="M21 26C21.4243 31.4463 23.9846 32.1389 29 31L28 26L21 26z"/>
<path style="fill:#183521; stroke:none;" d="M17 27L17 34L18 34L17 27z"/>
<path style="fill:#5f2546; stroke:none;" d="M18 27L18 33L19 33L18 27z"/>
<path style="fill:#6b555a; stroke:none;" d="M30 27L30 32L31 32L30 27z"/>
<path style="fill:#2a0c1a; stroke:none;" d="M31 27L31 34L32 34L31 27z"/>
<path style="fill:#4b4046; stroke:none;" d="M20.6667 31.3333L21.3333 31.6667L20.6667 31.3333z"/>
<path style="fill:#234830; stroke:none;" d="M27.6667 31.3333L28.3333 31.6667L27.6667 31.3333z"/>
<path style="fill:#060606; stroke:none;" d="M20 32L20 34L29 34L29 32L20 32z"/>
<path style="fill:#472a3b; stroke:none;" d="M29 33L19 34C20.5966 39.4581 31.6339 39.0515 29 33z"/>
<path style="fill:#73672f; stroke:none;" d="M16 39L20 42L16 39z"/>
<path style="fill:#905628; stroke:none;" d="M30 42L33 40L30 42z"/>
</svg>
