<?xml version="1.0" standalone="yes"?>
<svg width="48" height="48">
<path style="fill:#ffffff; stroke:none;" d="M0 0L0 48L11 48L11 0L0 0z"/>
<path style="fill:#ffc600; stroke:none;" d="M11 0L11 48L19 48L19 47C11.3073 39.668 8.73419 5.47387 23.0008 2.95602C32.6605 1.25121 37.3907 18.0959 32 24C35.0114 31.1068 36.1332 42.2551 29 47L29 48L38 48L38 0L11 0z"/>
<path style="fill:#ffffff; stroke:none;" d="M38 0L38 48L48 48L48 0L38 0z"/>
<path style="fill:#d7a700; stroke:none;" d="M14 19L15 19C16.8709 13.5875 19.5875 10.8709 25 9L25 8L21 8C28.0654 1.1106 31.1511 14.0175 33 19C39.9438 8.65563 21.5436 -5.07456 15.1481 9.09028C13.7479 12.1915 14.0026 15.6827 14 19z"/>
<path style="fill:#ffc600; stroke:none;" d="M21 8L31 13C30.2256 7.99912 24.8989 2.01547 21 8z"/>
<path style="fill:#7d796b; stroke:none;" d="M20 11L21 15L30 16C29.0733 10.2736 25.0868 8.43609 20 11z"/>
<path style="fill:#c6b166; stroke:none;" d="M17 14L20 11L17 14z"/>
<path style="fill:#56554f; stroke:none;" d="M15 19L22 12C17.9812 13.1406 16.1406 14.9812 15 19z"/>
<path style="fill:#5d4d15; stroke:none;" d="M30 14L33 18L30 14z"/>
<path style="fill:#a1a09d; stroke:none;" d="M14 24L22 21L22 20L19 20C24.0252 14.815 27.8105 18.005 33 21L31 23C33.5695 23.5808 35.0879 21.8291 33.338 19.2855C27.003 10.0772 17.7007 17.0422 14 24z"/>
<path style="fill:#d8d6d1; stroke:none;" d="M19 20L33 23C30.2706 17.3911 23.1704 13.4932 19 20z"/>
<path style="fill:#b5a261; stroke:none;" d="M16 26L14 24L14 23L18 20C13.1334 18.4053 12.3212 23.6073 16 26z"/>
<path style="fill:#40391e; stroke:none;" d="M16 26C22.7841 24.241 24.2696 23.1762 31 26C28.6032 17.9284 19.3161 19.2837 16 26z"/>
<path style="fill:#8f6f00; stroke:none;" d="M31 36C30.9998 33.7333 31.1909 31.3418 30.8665 29.0926C28.5016 12.696 9.35347 33.3984 24.0424 35.8519C26.2877 36.2269 28.731 35.9997 31 36z"/>
<path style="fill:#695200; stroke:none;" d="M31 24L31 36C23.137 35.9939 19.2065 34.5419 19 26C13.2794 27.9174 16 37.8576 16 43L17 43C20.2024 37.5185 27.3961 39 33 39L31 24z"/>
<path style="fill:#8d6d00; stroke:none;" d="M14 26C14 30.5018 12.5554 40.8284 16.5995 43.9722C20.0596 46.662 28.7957 45 33 45L33 39C27.8074 39 19.0796 37.0858 17 43L16 43L16 26L14 26z"/>
<path style="fill:#af8800; stroke:none;" d="M33 26L33 43L34 43L33 26z"/>
<path style="fill:#dcab00; stroke:none;" d="M17 45C20.637 50.1477 27.945 47.5773 33 46L17 45z"/>
</svg>
