<?xml version="1.0" standalone="yes"?>
<svg width="48" height="48">
<path style="fill:#ffffff; stroke:none;" d="M0 0L0 48L48 48L48 0L0 0z"/>
<path style="fill:#92221d; stroke:none;" d="M11 11L11 32L16 29L16 28C12.7507 26.1938 12.4013 24.6171 13 21C16.9655 24.271 17.781 27.9896 18 33L19 33L24 22L25 22C26.1071 25.3402 27.7415 26.7386 31 25L38 31L38 11L11 11z"/>
<path style="fill:#d5655c; stroke:none;" d="M18 12L22 16L18 12z"/>
<path style="fill:#daa69d; stroke:none;" d="M19 12L22 15L19 12z"/>
<path style="fill:#e8b3a9; stroke:none;" d="M28 12L31 16L31 12L28 12z"/>
<path style="fill:#cb2821; stroke:none;" d="M17 13C17.3002 16.8644 18.0892 18.3483 22 19L17 13z"/>
<path style="fill:#ce2922; stroke:none;" d="M27 13L26 19C30.5425 18.2065 30.6722 15.4443 27 13z"/>
<path style="fill:#e4b4aa; stroke:none;" d="M13 21L17 25L13 21z"/>
<path style="fill:#d3756c; stroke:none;" d="M33 21L37 25L33 21z"/>
<path style="fill:#e9bcb1; stroke:none;" d="M34 21L34 22L36 24L37 24L34 21z"/>
<path style="fill:#bf2620; stroke:none;" d="M12 22C12.2813 25.6124 14.1521 29.3037 17 25L14 26L12 22z"/>
<path style="fill:#c62a23; stroke:none;" d="M24 22C22.5954 24.6997 19.102 27.6145 19.466 30.8951C19.9975 35.6845 27.6971 35.871 29.3773 31.7863C31.0167 27.8009 26.3455 24.5277 24 22z"/>
<path style="fill:#db655d; stroke:none;" d="M14 23L16 26L14 23z"/>
<path style="fill:#701e1a; stroke:none;" d="M30 25C29.8818 35.0002 18.8467 37.9676 18 27C13.3727 29.0259 11.3379 31.9783 11 37L38 37C37.8068 31.0475 34.8543 28.1611 30 25z"/>
</svg>
