<?xml version="1.0" standalone="yes"?>
<svg width="48" height="48">
<path style="fill:#5c5c5c; stroke:none;" d="M0 0C0 8.25484 -3.75089 25.1881 7 27L9 17L8 14L11 15L14 8L14 7C10.6787 8.09887 10.2626 9.59023 10 13L7 12C0.102832 18.529 1.44941 3.45413 0 0z"/>
<path style="fill:#1e1e1e; stroke:none;" d="M1 0C1 3.09868 1.2285 20.9296 7 12L10 13C11.3496 4.51312 24.9518 3.34552 32 1L32 0C28.1162 0 21.9816 -1.58092 21 3L19 4L7 0L8 8L6 0L1 0z"/>
<path style="fill:#676767; stroke:none;" d="M6 0L8 8L6 0z"/>
<path style="fill:#5f5f5f; stroke:none;" d="M13 0L13 2L19 4L21 3C20.1456 -0.987095 16.5105 0 13 0z"/>
<path style="fill:#bbbbbb; stroke:none;" d="M18 6L19 10L33 8L33 3L36 7L39 0L18 6z"/>
<path style="fill:#2e2e2e; stroke:none;" d="M38 5L42 0L38 5z"/>
<path style="fill:#ffffff; stroke:none;" d="M42 0L42 48L48 48L48 0L42 0z"/>
<path style="fill:#454545; stroke:none;" d="M29.6667 1.33333L30.3333 1.66667L29.6667 1.33333z"/>
<path style="fill:#818181; stroke:none;" d="M28 2L28 3L31 3L28 2z"/>
<path style="fill:#717171; stroke:none;" d="M33 3L33 8L14 13L14 15L40 10L42 3L36 7L33 3z"/>
<path style="fill:#a6a6a6; stroke:none;" d="M3 48C9.08826 46.2918 19.0234 35.1979 20 48L31 48C28.9097 44.8114 26.5356 45.3824 23 46L22 26L21 26L22 38L15 37C15.1385 33.5582 14.4025 32.593 11 32L13 18C18.1767 18.3171 22.112 15.4195 25 21L26 21L26 18L27 18L27 24L37 24L38 9L14 15L14 13L24 11L24 10L19 10L20 6C6.23563 1.9364 10.9747 32.1422 9.1358 39C8.21939 42.4176 4.99051 45.1595 3 48z"/>
<path style="fill:#5d5d5d; stroke:none;" d="M40 8L35 26C43.8997 23.6491 42 15.5813 42 8L40 8z"/>
<path style="fill:#575757; stroke:none;" d="M26 16L33 14L26 16z"/>
<path style="fill:#464646; stroke:none;" d="M8 14L9 17L7 20L10 21C10.8828 17.6959 10.9569 15.9201 8 14z"/>
<path style="fill:#f4f4f4; stroke:none;" d="M32 15L32 20L33 20L34 15L32 15z"/>
<path style="fill:#575757; stroke:none;" d="M17 22L18 22L20 18L22 18L23 23C27.1881 17.1435 18.2768 14.1796 17 22z"/>
<path style="fill:#d4d4d4; stroke:none;" d="M31 16C31.0651 19.0343 32.952 22.9843 34 18L33 18L33 20L32 20L31 16z"/>
<path style="fill:#626262; stroke:none;" d="M13 18L11 32L13 32L15 18L13 18z"/>
<path style="fill:#888888; stroke:none;" d="M16 18C14.6586 21.5555 12.3882 26.8631 13.5532 30.6952C16.2054 39.4186 20.5086 29.7796 21 26L22 26L22 29L28 29L28 33L29 33L32 29L32 28L25 22L17 25L16 18z"/>
<path style="fill:#707070; stroke:none;" d="M20 18L17 20L16 20L17 25L23 23L22 18L20 18z"/>
<path style="fill:#bababa; stroke:none;" d="M26 18L25 24L26 18z"/>
<path style="fill:#292929; stroke:none;" d="M7 20L5 32C9.35982 31.0658 10.173 23.7223 9 20L7 20z"/>
<path style="fill:#656565; stroke:none;" d="M28 23L28 24L35 22L28 23z"/>
<path style="fill:#848484; stroke:none;" d="M41 23L35 26L32 24L32 28L39 27L38 35L42 34L41 23z"/>
<path style="fill:#bcbcbc; stroke:none;" d="M0 24L0 34L6 26L0 24z"/>
<path style="fill:#747474; stroke:none;" d="M9 24L9 28L10 28L9 24z"/>
<path style="fill:#2c2c2c; stroke:none;" d="M26 24L32 28C30.9011 24.6787 29.4098 24.2626 26 24z"/>
<path style="fill:#484848; stroke:none;" d="M8 27L8 32L4 31L10 35L8 27z"/>
<path style="fill:#e1e1e1; stroke:none;" d="M32 36L39 27L32 36z"/>
<path style="fill:#545454; stroke:none;" d="M23 28C22.0836 32.1428 23.2412 34.104 27 36L28 29L23 28z"/>
<path style="fill:#a7a7a7; stroke:none;" d="M31 42C31 38.3872 42.0148 37.7533 36 32L32 36L36 28C28.8159 28.8082 23.2381 37.4654 31 42z"/>
<path style="fill:#5f5f5f; stroke:none;" d="M15 30L15 32L17 32L17 30L15 30z"/>
<path style="fill:#949494; stroke:none;" d="M0 43C10.4602 35.5378 0.0110868 28.6505 0 43z"/>
<path style="fill:#545454; stroke:none;" d="M15 35L22 38L21 34L15 35z"/>
<path style="fill:#090909; stroke:none;" d="M40 48L42 48L42 34C36.1194 35.9597 39.9456 43.0697 40 48z"/>
<path style="fill:#636363; stroke:none;" d="M8 35C4.01268 39.0015 0.441326 42.1458 0 48C5.60893 46.4255 11.9588 40.9405 8 35z"/>
<path style="fill:#7c7c7c; stroke:none;" d="M24 35L23 46L32 45L24 35z"/>
<path style="fill:#444444; stroke:none;" d="M37 36L37 39L38 39L37 36z"/>
<path style="fill:#f7f7f7; stroke:none;" d="M35 38L39 41L35 38z"/>
<path style="fill:#bdbdbd; stroke:none;" d="M30 40L30 45L30 46L35 48L34 42L38 42L38 48L39 48L39 41L35 39L30 40z"/>
<path style="fill:#999999; stroke:none;" d="M38 39L39 40L38 39z"/>
<path style="fill:#8c8c8c; stroke:none;" d="M39 40L39 48L40 48L39 40z"/>
<path style="fill:#7d7d7d; stroke:none;" d="M6 48L18 42C12.674 39.8544 8.93356 43.8846 6 48z"/>
<path style="fill:#585858; stroke:none;" d="M11 48L20 48L19 41L11 48z"/>
<path style="fill:#9e9e9e; stroke:none;" d="M34 42L35 48L38 48L38 42L34 42z"/>
</svg>
