<?xml version="1.0" standalone="yes"?>
<svg width="19" height="39">
<path style="fill:#000000; stroke:none;" d="M0 0L0 39L19 39L19 0L15 0L15 1C20.3745 6.26399 18.0033 19.7597 18 27C17.9987 29.8534 18.6558 34.0461 16.3966 36.2577C7.46943 44.9967 1.00049 33.5821 1 26C0.999764 22.3329 0.942197 18.6633 1.1304 15C1.39627 9.82497 0.0419304 4.87667 4 1L0 0z"/>
<path style="fill:#909090; stroke:none;" d="M1 10L2 10C6.2732 6.50216 10.844 7.3518 16 8C13.903 13.7033 9.33905 12.9994 4 13L3 19L17 19L17 37C20.0074 29.8331 17.8493 19.1402 17.8488 11.4244C17.8486 8.66969 18.6884 4.85791 16.9722 2.4483C11.1677 -5.70165 1.02547 2.79335 1 10z"/>
<path style="fill:#262626; stroke:none;" d="M6 0L6 1L13 1L6 0z"/>
<path style="fill:#595959; stroke:none;" d="M6 7L6 8L13 8L6 7z"/>
<path style="fill:#606060; stroke:none;" d="M2 8L2 19L3 19L2 8z"/>
<path style="fill:#161616; stroke:none;" d="M3 8L4 13L15 13L16 8L3 8z"/>
<path style="fill:#323232; stroke:none;" d="M7 12L7 13L12 13L7 12z"/>
<path style="fill:#2e2e2e; stroke:none;" d="M3 13L3 17L4 17L3 13z"/>
<path style="fill:#444444; stroke:none;" d="M15 13L15 17L16 17L15 13z"/>
<path style="fill:#8d8d8d; stroke:none;" d="M1 16L2.60339 36.9722L16 38L13 21L13 37L12 37L12 20L10 20L10 37L9 37L9 20L7 20L7 37L6 37L6 20L4 22L3 22L1 16z"/>
<path style="fill:#6a5f59; stroke:none;" d="M3 22L4 22L6 20L6 37L7 37L7 20L9 20L9 37L10 37L10 20L12 20L12 37L13 37L13 21L16 22L15 37L17 37L17 19C12.7946 19 4.06372 17.036 3 22z"/>
<path style="fill:#4f4f4f; stroke:none;" d="M3 23L3 37L4 37L3 23z"/>
</svg>
