<?xml version="1.0" standalone="yes"?>
<svg width="48" height="48">
<path style="fill:#ffffff; stroke:none;" d="M0 0L0 48L48 48L48 0L0 0z"/>
<path style="fill:#0e6a31; stroke:none;" d="M11 11L11 17L18 19C17.0671 13.3576 21.036 11.9993 22 18L26 18C27.723 12.1146 31.3034 13.1422 31 19L27 19L28 27L31 25L38 31L38 24L33 21L38 22L38 11L11 11z"/>
<path style="fill:#56bb78; stroke:none;" d="M18 12L22 16L18 12z"/>
<path style="fill:#a1caa8; stroke:none;" d="M19 12L22 15L19 12z"/>
<path style="fill:#92caa0; stroke:none;" d="M28 12L32 16L28 12z"/>
<path style="fill:#12a94b; stroke:none;" d="M17 13C17.3002 16.8644 18.0892 18.3483 22 19L17 13z"/>
<path style="fill:#15ab4e; stroke:none;" d="M27 13L26 19L31 19L27 13z"/>
<path style="fill:#09421e; stroke:none;" d="M11 17L11 37L21 37C19.5506 29.8166 21.0881 27.9669 25 22L26 25C34.6871 18.5465 14.3537 17.7881 11 17z"/>
<path style="fill:#58c27c; stroke:none;" d="M13 21L16 26L15 21L13 21z"/>
<path style="fill:#6abb84; stroke:none;" d="M33 21L37 25L33 21z"/>
<path style="fill:#b8debd; stroke:none;" d="M34 21L34 22L36 24L37 24L34 21z"/>
<path style="fill:#129a45; stroke:none;" d="M12 22C12.2813 25.6124 14.1521 29.3037 17 25L14 26L12 22z"/>
<path style="fill:#b0d8b6; stroke:none;" d="M14 22L17 25L14 22z"/>
<path style="fill:#16a34b; stroke:none;" d="M24 22C22.7775 24.3497 20.3862 26.4664 19.6574 29.0239C17.3383 37.1628 35.4004 35.1315 27.331 24.9792C26.2991 23.6808 25.3461 22.9009 24 22z"/>
<path style="fill:#468e5e; stroke:none;" d="M37.3333 22.6667L37.6667 23.3333L37.3333 22.6667z"/>
<path style="fill:#09431f; stroke:none;" d="M30 25L29 37L38 37C37.8068 31.0475 34.8543 28.1611 30 25z"/>
<path style="fill:#0e662f; stroke:none;" d="M29 32L21 34C21.8544 37.9871 25.4895 37 29 37L29 32z"/>
</svg>
