<?xml version="1.0" standalone="yes"?>
<svg width="48" height="48">
<path style="fill:#ffffff; stroke:none;" d="M0 0L0 48L48 48L48 0L0 0z"/>
<path style="fill:#666566; stroke:none;" d="M11 11L11 32L16 29L16 28C12.7507 26.1938 12.4013 24.6171 13 21L17 27L19 28L25 22L30 27L32 26L37 21L33 27L33 28L38 31L38 11L11 11z"/>
<path style="fill:#a5a5a6; stroke:none;" d="M18 12C16.8927 16.1582 17.5931 18.2645 22 19L18 12z"/>
<path style="fill:#cbcac2; stroke:none;" d="M19 12L22 16L19 12z"/>
<path style="fill:#c2c2be; stroke:none;" d="M28 12L28 17C31.8436 15.7225 31.8436 13.2775 28 12z"/>
<path style="fill:#949494; stroke:none;" d="M27 13L26 19L32 16L28 17L27 13z"/>
<path style="fill:#c0bfbb; stroke:none;" d="M13 21L14 26L16 26L17 25L13 21z"/>
<path style="fill:#979797; stroke:none;" d="M33 21L32 27L36 27L33 21z"/>
<path style="fill:#c8c7c2; stroke:none;" d="M34 21L37 25L37 21L34 21z"/>
<path style="fill:#9a9a9a; stroke:none;" d="M12 22C12.2813 25.6124 14.1521 29.3037 17 25L14 26L12 22z"/>
<path style="fill:#8e8d8d; stroke:none;" d="M24 22C22.7775 24.3497 20.3862 26.4664 19.6574 29.0239C17.3918 36.9749 35.8446 35.6607 27.331 24.9792C26.297 23.6819 25.3469 22.9014 24 22z"/>
<path style="fill:#555454; stroke:none;" d="M30 25L29 37L38 37C37.8068 31.0475 34.8543 28.1611 30 25M18 26C13.9744 29.2776 11.3634 31.5995 11 37L21 37L18 26z"/>
<path style="fill:#a1a1a1; stroke:none;" d="M27 33C26.2113 22.8785 16.8785 32.2113 27 33z"/>
<path style="fill:#706f6f; stroke:none;" d="M21 34C21.9089 38.2417 28.0911 38.2417 29 34L21 34z"/>
</svg>
