<?xml version="1.0" standalone="yes"?>
<svg width="48" height="48">
<path style="fill:#ffffff; stroke:none;" d="M0 0L0 48L48 48L48 0L0 0z"/>
<path style="fill:#917100; stroke:none;" d="M11 11L11 32L16 29L16 28C12.7507 26.1938 12.4013 24.6171 13 21L17 27L19 28L25 22C26.7664 24.8464 27.7707 26.6774 31 25L38 31L38 11L11 11z"/>
<path style="fill:#dbaa00; stroke:none;" d="M22 19C21.6338 7.84804 13.2253 17.5355 22 19z"/>
<path style="fill:#ffc600; stroke:none;" d="M28 12L28 17C31.8436 15.7225 31.8436 13.2775 28 12z"/>
<path style="fill:#c59900; stroke:none;" d="M27 13L26 19L32 16L28 17L27 13z"/>
<path style="fill:#ffc600; stroke:none;" d="M13 21L14 26L16 26L17 25L13 21M33 21L33 25L37 25L37 21L33 21z"/>
<path style="fill:#cd9f00; stroke:none;" d="M12 22C12.2813 25.6124 14.1521 29.3037 17 25L14 26L12 22z"/>
<path style="fill:#d6a600; stroke:none;" d="M24 22C22.7775 24.3497 20.3862 26.4664 19.6574 29.0239C17.3918 36.9749 35.8446 35.6607 27.331 24.9792C26.297 23.6819 25.3469 22.9014 24 22z"/>
<path style="fill:#715700; stroke:none;" d="M30 25L29 37L38 37C37.8078 31.1947 34.5117 28.3386 30 25z"/>
<path style="fill:#6e5500; stroke:none;" d="M18 26C13.9744 29.2776 11.3634 31.5995 11 37L21 37L18 26z"/>
<path style="fill:#957200; stroke:none;" d="M21 34C21.9089 38.2417 28.0911 38.2417 29 34L21 34z"/>
</svg>
