<?xml version="1.0" standalone="yes"?>
<svg width="48" height="48">
<path style="fill:#ffffff; stroke:none;" d="M0 0L0 48L48 48L48 0L0 0z"/>
<path style="fill:#480d00; stroke:none;" d="M12 10L12 16L37 17L37 10L26 10L26 13L22 13L23 10L12 10z"/>
<path style="fill:#966c5d; stroke:none;" d="M22 13L26 10L22 13z"/>
<path style="fill:#e49d7b; stroke:none;" d="M21 14C18.4913 19.8439 21.3809 23.7707 27 26C28.2637 18.5314 29.487 15.6818 21 14z"/>
<path style="fill:#863e28; stroke:none;" d="M12 16L12 17L20 17L12 16z"/>
<path style="fill:#c46e4f; stroke:none;" d="M12 17L12 21L21 23C19.4352 17.9027 17.1223 17.061 12 17z"/>
<path style="fill:#c36f4e; stroke:none;" d="M29 17L27 24L37 21L37 17L29 17z"/>
<path style="fill:#d10900; stroke:none;" d="M12 21L12 32L13 32L22 24L12 21z"/>
<path style="fill:#d50800; stroke:none;" d="M28 26L33 26L33 22L35 22L36 33L37 33L37 21C32.9085 21.4221 30.0831 22.3421 28 26z"/>
<path style="fill:#9b0f09; stroke:none;" d="M33 22L33 26L28 26L26 38L37 38L35 22L33 22z"/>
<path style="fill:#cc704b; stroke:none;" d="M20 26L25 27C23.4858 24.64 22.0465 23.7393 20 26z"/>
<path style="fill:#ffffff; stroke:none;" d="M27 24L21 25L24 36L25 36L27 24z"/>
<path style="fill:#a00f09; stroke:none;" d="M12 38L23 38L20 25C13.8814 27.4586 12.1493 31.6483 12 38z"/>
<path style="fill:#e7554e; stroke:none;" d="M27.3333 27.6667L27.6667 28.3333L27.3333 27.6667z"/>
<path style="fill:#d7433b; stroke:none;" d="M21.3333 28.6667L21.6667 29.3333L21.3333 28.6667z"/>
<path style="fill:#e3544c; stroke:none;" d="M22.3333 31.6667L22.6667 32.3333L22.3333 31.6667z"/>
<path style="fill:#ca0500; stroke:none;" d="M26 31C25.4173 33.178 24.4993 36.1201 23 33L22 33C23.1046 39.6267 28.1043 36.1974 26 31z"/>
<path style="fill:#e54d46; stroke:none;" d="M23.3333 34.6667L23.6667 35.3333L23.3333 34.6667z"/>
</svg>
