<?xml version="1.0" standalone="yes"?>
<svg width="48" height="48">
<path style="fill:#ffffff; stroke:none;" d="M0 0L0 48L48 48L48 0L0 0z"/>
<path style="fill:#5c5a5a; stroke:none;" d="M14 4L14 30L15 30L16.2824 14.4282L23 5L25 5L33 13L33 30L34 30L34 4L14 4z"/>
<path style="fill:#000505; stroke:none;" d="M23.6667 5.33333L24.3333 5.66667L23.6667 5.33333z"/>
<path style="fill:#a23833; stroke:none;" d="M22 6L22 7L26 7L22 6z"/>
<path style="fill:#e10000; stroke:none;" d="M19 9L19 10L21 12L32 14C28.9367 8.37262 24.9836 6.74658 19 9z"/>
<path style="fill:#b50000; stroke:none;" d="M18 10L15 15L18 10z"/>
<path style="fill:#eb4e46; stroke:none;" d="M19 10L19 12L21 12L19 10z"/>
<path style="fill:#503435; stroke:none;" d="M20.6667 10.3333L21.3333 10.6667L20.6667 10.3333z"/>
<path style="fill:#476565; stroke:none;" d="M26.6667 10.3333L27.3333 10.6667L26.6667 10.3333z"/>
<path style="fill:#e44f48; stroke:none;" d="M28.3333 10.6667L28.6667 11.3333L28.3333 10.6667z"/>
<path style="fill:#2b3535; stroke:none;" d="M18 16L23 16L24 12C20.5902 12.2626 19.0989 12.6787 18 16z"/>
<path style="fill:#596a6a; stroke:none;" d="M23 16L27 12L23 16z"/>
<path style="fill:#184c4f; stroke:none;" d="M25 15L25 16L31 15L25 15z"/>
<path style="fill:#773835; stroke:none;" d="M32 13L30 22L19 22L19 23L32 24L32 13z"/>
<path style="fill:#7c3c3a; stroke:none;" d="M17 14L16 24L18 24L17 14z"/>
<path style="fill:#d6140a; stroke:none;" d="M18 16L18 22L30 22C29.443 14.8514 23.8208 16 18 16z"/>
<path style="fill:#472624; stroke:none;" d="M18 22L30 24L30 23L18 22z"/>
<path style="fill:#8e2926; stroke:none;" d="M16 24C16 38.7751 15.1386 43 31 43L31 42L17 41L16 24z"/>
<path style="fill:#b62d27; stroke:none;" d="M17 24L17 25L31 25L31 41L26 41L26 42L32 42L32 24L17 24z"/>
<path style="fill:#9f7574; stroke:none;" d="M17 25L17 41L18 41L17 25z"/>
<path style="fill:#9b9b9b; stroke:none;" d="M18 25L18 41L31 41L31 25L18 25z"/>
<path style="fill:#2c3030; stroke:none;" d="M15 29L14 36L16 36L15 29z"/>
<path style="fill:#0d0000; stroke:none;" d="M32 29L32 37L33 37L32 29z"/>
<path style="fill:#242c2d; stroke:none;" d="M33 30L33 36L34 36L33 30z"/>
<path style="fill:#5a5c5c; stroke:none;" d="M14 36C14 39.3627 13.2842 42.2037 17 43L16 36L14 36z"/>
<path style="fill:#565e5e; stroke:none;" d="M33 36L31 43C34.6016 42.2282 34.6591 38.8795 33 36z"/>
<path style="fill:#5e5352; stroke:none;" d="M22 41L22 42L26 42L22 41z"/>
</svg>
