<svg width="24" height="51" viewBox="0 0 24 51" fill="none" xmlns="http://www.w3.org/2000/svg">
<path d="M3.20774 40.4257H2.53598C2.23565 40.4257 1.99219 40.6692 1.99219 40.9695V44.8667C1.99219 45.1671 2.23565 45.4105 2.53598 45.4105H3.20774C3.50806 45.4105 3.75152 45.1671 3.75152 44.8667V40.9695C3.75152 40.6692 3.50806 40.4257 3.20774 40.4257Z" fill="#60585A"/>
<path d="M21.8938 39.7923H21.222C20.9217 39.7923 20.6782 40.0358 20.6782 40.3361V44.2333C20.6782 44.5336 20.9217 44.7771 21.222 44.7771H21.8938C22.1941 44.7771 22.4376 44.5336 22.4376 44.2333V40.3361C22.4376 40.0358 22.1941 39.7923 21.8938 39.7923Z" fill="#60585A"/>
<path d="M14.0114 5.20032C14.358 5.22066 14.7168 5.2249 15.0608 5.17878C15.2871 5.13368 15.7875 4.94018 15.5456 4.62917C15.2134 4.30979 14.6252 4.35876 14.2052 4.39461L14.1727 4.01493C14.751 3.96743 15.45 3.9521 15.8729 4.41583C16.2517 5.01891 15.659 5.45458 15.1112 5.55707C14.745 5.6035 14.3787 5.57917 14.0114 5.60065V5.20032H14.0114Z" fill="#4A00AD"/>
<path d="M14.0114 3.19744C14.358 3.17711 14.7168 3.17287 15.0608 3.21898C15.2871 3.26408 15.7875 3.45759 15.5456 3.7686C15.2134 4.08797 14.6252 4.03901 14.2052 4.00316L14.1727 4.38283C14.751 4.43034 15.45 4.44567 15.8729 3.98194C16.2517 3.37886 15.659 2.94319 15.1112 2.8407C14.745 2.79427 14.3787 2.81859 14.0114 2.79712V3.19744H14.0114Z" fill="#4A00AD"/>
<path d="M12.6586 4.06706C12.7894 4.07954 12.9238 4.07413 13.0549 4.07483C13.1659 4.07518 13.5383 4.13199 13.6074 4.01165C13.6318 3.92588 13.5903 3.82771 13.5182 3.7798C13.3436 3.69001 13.1077 3.73573 12.9203 3.74472C12.691 3.75572 12.38 3.78102 12.3099 3.50196C12.2882 3.27413 12.4301 3.05563 12.6072 2.92343C12.8415 2.77936 13.1082 2.80597 13.3696 2.83887C13.5252 2.85955 13.6804 2.88337 13.8364 2.90091L13.8077 3.14175C13.6512 3.12308 13.4956 3.09716 13.3394 3.07648C13.1483 3.0531 12.929 3.01758 12.754 3.11933C12.6533 3.19044 12.5562 3.3216 12.5554 3.45013C12.5545 3.54586 12.8534 3.50807 12.9079 3.50537C13.1607 3.49184 13.4356 3.45101 13.6651 3.58181C13.85 3.72038 13.9317 3.98521 13.7882 4.1826C13.601 4.36043 13.2929 4.31453 13.0549 4.31532C12.9238 4.31593 12.7894 4.31052 12.6586 4.323V4.06706V4.06706Z" fill="#4A00AD"/>
<path d="M12.4551 4.31635C12.3034 4.301 12.1463 4.30706 11.9941 4.30625C11.7069 4.30524 11.4197 4.3074 11.1325 4.30854C11.075 4.30888 11.0174 4.30928 10.9598 4.31096V4.0938C11.0174 4.09555 11.075 4.09596 11.1325 4.09629C11.4197 4.09744 11.7069 4.09959 11.9941 4.09858C12.1463 4.09777 12.3034 4.10383 12.4551 4.08849V4.31635Z" fill="#4A00AD"/>
<path d="M11.6092 4.1571C11.6209 4.07352 11.615 3.98543 11.6156 3.90152C11.6164 3.73409 11.6165 3.56666 11.6152 3.39916C11.6143 3.28826 11.6131 3.17735 11.6128 3.06645C11.6127 3.0001 11.613 2.93368 11.6131 2.86733H11.8584C11.8585 2.93368 11.8588 3.0001 11.8586 3.06645C11.8584 3.17735 11.8572 3.28826 11.8563 3.39916C11.855 3.56666 11.855 3.73409 11.8558 3.90152C11.8565 3.98543 11.8505 4.07352 11.8623 4.1571H11.6092V4.1571Z" fill="#4A00AD"/>
<path d="M10.6643 4.27106C10.6781 4.16299 10.6715 4.04923 10.6728 3.9406C10.6757 3.66759 10.676 3.39453 10.6733 3.12146C10.6722 3.03208 10.6709 2.94264 10.6691 2.85326H10.8765C10.8748 2.94264 10.8734 3.03208 10.8724 3.12146C10.8696 3.39453 10.87 3.66759 10.8729 3.9406C10.8742 4.04923 10.8675 4.16299 10.8813 4.27106H10.6643Z" fill="#4A00AD"/>
<path d="M10.7939 4.3363C10.7046 4.32642 10.6126 4.33162 10.5228 4.32915C10.3311 4.32041 10.1625 4.26447 10.1373 4.04974C10.1316 3.8347 10.2496 3.70573 10.4584 3.66589C10.5564 3.65354 10.6522 3.65727 10.7501 3.66772L10.7278 3.86833C10.6504 3.85965 10.5743 3.85566 10.4969 3.8651C10.3952 3.88385 10.3437 3.92084 10.3445 4.02827C10.3524 4.1255 10.4457 4.12252 10.5279 4.12645C10.6155 4.12822 10.7066 4.13158 10.7939 4.12183V4.3363V4.3363Z" fill="#4A00AD"/>
<path d="M10.7085 3.76178C10.631 3.75317 10.5506 3.75722 10.4729 3.75659C10.3058 3.75526 10.1183 3.76824 9.97955 3.65935C9.86218 3.5352 9.90259 3.38242 9.94655 3.23521C9.97645 3.13558 10.0019 3.03772 10.0051 2.93326C10.0053 2.91287 10.0051 2.89266 10.0046 2.87233L10.214 2.86701C10.2146 2.89127 10.2148 2.91546 10.2146 2.93972C10.2106 3.06204 10.1812 3.17681 10.146 3.29336C10.1301 3.34683 10.0856 3.44577 10.1152 3.50176C10.1859 3.58208 10.3796 3.55326 10.4729 3.5525C10.5506 3.55187 10.631 3.55592 10.7085 3.5473V3.76178Z" fill="#4A00AD"/>
<path d="M10.7303 4.33569H10.8794V4.14406H10.7303V4.33569Z" fill="#4A00AD"/>
<path fill-rule="evenodd" clip-rule="evenodd" d="M8.38819 3.58004C8.38819 3.13931 8.71732 2.78155 9.12284 2.78155C9.52836 2.78155 9.85742 3.13931 9.85742 3.58004C9.85742 4.02084 9.52836 4.37854 9.12284 4.37854C8.71732 4.37854 8.38819 4.02084 8.38819 3.58004ZM8.62243 3.60044C8.62243 3.30026 8.84667 3.05658 9.12284 3.05658C9.39908 3.05658 9.62325 3.30026 9.62325 3.60044C9.62325 3.90075 9.39908 4.14436 9.12284 4.14436C8.84667 4.14436 8.62243 3.90075 8.62243 3.60044Z" fill="#4A00AD"/>
<path d="M22.3689 7.17078H21.6971C21.3968 7.17078 21.1533 7.41424 21.1533 7.71456V11.6118C21.1533 11.9121 21.3968 12.1556 21.6971 12.1556H22.3689C22.6692 12.1556 22.9127 11.9121 22.9127 11.6118V7.71456C22.9127 7.41424 22.6692 7.17078 22.3689 7.17078Z" fill="#60585A"/>
<path d="M2.72287 7.36603H2.05111C1.75079 7.36603 1.50732 7.60949 1.50732 7.90982V11.807C1.50732 12.1074 1.75079 12.3508 2.05111 12.3508H2.72287C3.0232 12.3508 3.26666 12.1074 3.26666 11.807V7.90982C3.26666 7.60949 3.0232 7.36603 2.72287 7.36603Z" fill="#60585A"/>
<path fill-rule="evenodd" clip-rule="evenodd" d="M12.2818 50.5567C5.11966 50.7063 4.02194 49.4216 2.96349 49.2099C1.90535 46.7538 1.70443 26.0437 2.33925 24.3506C2.81387 20.5158 2.02659 19.8808 1.78899 15.259C1.33672 9.86142 2.4107 12.8628 1.50781 7.37415C2.87968 1.65965 0.29569 1.54329 12.1823 1C23.0905 1.15209 21.5544 1.65971 22.9258 7.37415C22.0229 12.8629 23.0969 9.86148 22.6446 15.259C22.407 19.8805 21.6197 20.5156 22.0944 24.3506C22.7292 26.0435 22.5283 46.7535 21.4701 49.2099C19.8135 50.1698 15.4235 50.5567 12.281 50.5567H12.2818Z" fill="#008505" stroke="black" stroke-width="0.0633425"/>
<path fill-rule="evenodd" clip-rule="evenodd" d="M3.31691 3.78089C2.5779 4.96331 2.6318 16.2099 3.81422 17.0967C4.95628 16.156 11.5724 15.2822 12.8304 15.3634C14.1155 15.2689 19.1452 15.8737 20.6905 16.8011C21.1071 16.936 21.9401 3.78108 20.7576 2.89429C17.0622 1.85902 4.79469 1.85946 3.31691 3.78089Z" fill="#008505" stroke="black" stroke-opacity="0.45912" stroke-width="0.0633425"/>
<path fill-rule="evenodd" clip-rule="evenodd" d="M21.3506 18.639L23.1462 18.7887C23.1462 18.7887 24.044 19.6865 23.4455 20.1354C22.8469 20.5843 21.3506 19.9858 21.3506 19.9858V18.639V18.639Z" fill="black" stroke="black" stroke-opacity="0.55346" stroke-width="0.0791781"/>
<path fill-rule="evenodd" clip-rule="evenodd" d="M3.30066 18.9387L1.50503 19.0883C1.50503 19.0883 0.607214 19.9861 1.20574 20.435C1.80432 20.8839 3.30066 20.2854 3.30066 20.2854V18.9387Z" fill="black" stroke="black" stroke-opacity="0.54717" stroke-width="0.0633425"/>
<path fill-rule="evenodd" clip-rule="evenodd" d="M4.29133 2.03925C3.71979 2.13889 3.06755 3.24263 3.36754 3.42658C4.08211 3.06622 5.47855 2.57107 6.85036 2.43311C7.12185 2.28743 7.49253 1.84048 7.50646 1.74084C6.56355 1.68719 4.91481 1.91662 4.29133 2.03925V2.03925Z" fill="#222222" fill-opacity="0.56604" stroke="black" stroke-opacity="0.25157" stroke-width="0.0685365"/>
<path fill-rule="evenodd" clip-rule="evenodd" d="M19.8808 1.7282C20.4523 1.82785 21.1046 2.65509 20.8046 2.83904C20.0901 2.47871 18.6936 2.36365 17.3218 2.22565C17.0503 2.07997 16.6798 1.52939 16.6655 1.42975C17.6086 1.37609 19.2573 1.60555 19.8808 1.72819V1.7282Z" fill="#222222" fill-opacity="0.56604" stroke="black" stroke-opacity="0.25157" stroke-width="0.0685365"/>
<path d="M8.07324 1.61834C10.4231 1.20364 14.3972 1.23816 16.0905 1.44548" stroke="black" stroke-opacity="0.37107" stroke-width="0.0633425"/>
<path d="M8.07324 1.79113C10.4231 1.37643 14.3972 1.41095 16.0905 1.61827" stroke="black" stroke-opacity="0.37107" stroke-width="0.0633425"/>
<path d="M8.07324 1.9984C10.4231 1.5837 14.3972 1.61822 16.0905 1.82554" stroke="black" stroke-opacity="0.37107" stroke-width="0.0633425"/>
<path d="M8.07324 2.24036C10.4231 1.86025 14.2935 1.92929 15.9524 2.03292" stroke="black" stroke-opacity="0.37107" stroke-width="0.0633425"/>
<path d="M3.26274 20.6306C3.11496 22.2564 2.31317 48.7198 3.5583 48.7128C7.98315 50.3893 17.5963 50.2067 21.2004 48.2694C22.3108 48.2649 21.6438 21.8125 21.496 20.1871" fill="#008505"/>
<path d="M3.26274 20.6306C3.11496 22.2564 2.31317 48.7198 3.5583 48.7128C7.98315 50.3893 17.5963 50.2067 21.2004 48.2694C22.3108 48.2649 21.6438 21.8125 21.496 20.1871" stroke="black" stroke-width="0.0633425"/>
<path fill-rule="evenodd" clip-rule="evenodd" d="M3.84311 17.4425C3.84311 17.4425 7.88328 15.874 12.3912 15.8339C16.45 15.7966 18.2831 16.3951 20.7524 17.2929C20.4531 20.136 20.1539 22.8293 19.4057 23.7272C12.5222 22.0812 12.0738 22.0813 5.19034 23.7273C5.04072 22.8295 3.694 17.5922 3.84361 17.4426L3.84311 17.4425Z" fill="black" stroke="black" stroke-width="0.0633425"/>
<path fill-rule="evenodd" clip-rule="evenodd" d="M6.08793 34.9497C5.33973 38.5409 4.74121 45.424 4.74121 45.424C5.93832 46.4715 12.0731 46.9204 12.2232 46.9204C12.6721 46.9204 18.807 46.4715 19.8547 44.9751C19.8547 44.0773 19.2561 37.6432 18.6576 34.7998C13.4204 35.5479 6.38754 35.2487 6.08793 34.9494V34.9497Z" fill="black" fill-opacity="0.78616" stroke="black" stroke-width="0.0633425"/>
<path fill-rule="evenodd" clip-rule="evenodd" d="M3.69354 19.6868L4.74097 24.4751C4.74097 24.4751 4.74097 33.4533 4.59135 33.6028C4.44167 33.7524 3.24463 36.2962 3.24463 36.2962C3.24463 36.2962 3.54386 19.9861 3.69354 19.6865V19.6868Z" fill="black" fill-opacity="0.68554" stroke="black" stroke-width="0.0633425"/>
<path fill-rule="evenodd" clip-rule="evenodd" d="M21.4 19.0002L20 23.9011C20 23.9011 20 33.0903 20.2 33.2433C20.4 33.3964 21.5 35 21.5 35C21.5 35 21.6001 19.3069 21.4 19.0002Z" fill="black" fill-opacity="0.74843" stroke="black" stroke-width="0.0633425"/>
</svg>
