<svg width="26" height="39" viewBox="0 0 26 39" fill="none" xmlns="http://www.w3.org/2000/svg">
<path fill-rule="evenodd" clip-rule="evenodd" d="M13.2651 16.1244H12.7774C12.4132 16.1693 12.0832 16.3374 11.8568 16.5931C11.6305 16.8489 11.5257 17.1725 11.5646 17.4952V36.745C11.5257 37.0678 11.6305 37.3911 11.8568 37.6469C12.0832 37.9026 12.4132 38.0707 12.7774 38.1156H13.2651C13.6293 38.0707 13.9593 37.9026 14.1856 37.6469C14.412 37.3911 14.5167 37.0678 14.4779 36.745V17.4952C14.5167 17.1725 14.412 16.8489 14.1856 16.5931C13.9593 16.3374 13.6293 16.1693 13.2651 16.1244Z" fill="#8E8A88"/>
<path fill-rule="evenodd" clip-rule="evenodd" d="M13.3109 13.3631C13.1184 13.3731 12.9253 13.3731 12.7327 13.3631C12.0299 13.3631 11.4855 13.363 11.0774 14.0433C10.4198 15.1939 10.3633 17.9954 10.3633 26.3697C10.3633 26.6899 10.5221 26.9401 10.7148 26.9401C10.9075 26.9401 11.066 26.6899 11.066 26.3697C11.066 18.8158 11.0662 15.6542 11.5877 14.8238C11.7804 14.4936 12.0865 14.4838 12.7214 14.4938C12.9177 14.5038 13.1146 14.5038 13.3109 14.4938C13.9344 14.4938 14.2632 14.4936 14.4446 14.8238C14.932 15.6542 14.9774 18.8259 14.9774 26.3697C14.9774 26.6899 15.1245 26.9401 15.3286 26.9401C15.5326 26.9401 15.6801 26.6899 15.6801 26.3697C15.6801 17.9954 15.6235 15.1939 14.966 14.0433C14.5579 13.353 14.0024 13.3531 13.3109 13.3631Z" fill="#8E8A88"/>
<path fill-rule="evenodd" clip-rule="evenodd" d="M15.85 8.2405C15.2492 9.30104 14.943 9.36094 14.8863 9.36094C14.862 9.25173 14.7978 9.15263 14.7036 9.07857C14.6095 9.00451 14.4906 8.95964 14.3649 8.95082H11.7006C11.5741 8.9607 11.4543 9.0056 11.3585 9.0793C11.2628 9.15301 11.1961 9.25163 11.1678 9.36094C11.1678 9.36094 10.7939 9.30104 10.193 8.2405C9.76934 7.44731 9.39098 6.6357 9.05937 5.80908H16.995C16.6637 6.63579 16.2853 7.44741 15.8614 8.2405H15.85ZM20.3847 0.686584C19.251 0.686584 18.4801 2.37738 17.5278 4.61853H8.56035C7.59673 2.37738 6.79179 0.686584 5.69214 0.686584C5.52355 0.70894 5.37148 0.788183 5.26784 0.907645C5.16421 1.02711 5.11712 1.17734 5.13665 1.3268C5.11712 1.47627 5.16421 1.6265 5.26784 1.74596C5.37148 1.86543 5.52355 1.94491 5.69214 1.96727C5.69214 1.96727 5.95312 1.96727 6.50862 2.96778C6.92808 3.71816 7.3701 4.77853 7.81223 5.78905C8.94589 8.39038 9.85283 10.6316 11.2132 10.6316C11.2415 10.7409 11.3082 10.8395 11.4039 10.9132C11.4997 10.987 11.6195 11.0319 11.746 11.0417H12.3015V12.1023C12.2725 12.3091 12.3373 12.5176 12.4817 12.6825C12.6261 12.8474 12.8383 12.9555 13.0723 12.9829C13.3072 12.9554 13.5206 12.8477 13.6668 12.6832C13.813 12.5187 13.8805 12.3102 13.8548 12.1023V11.0417H14.4102C14.536 11.0329 14.6549 10.988 14.749 10.914C14.8432 10.8399 14.9074 10.7408 14.9317 10.6316C16.2467 10.6316 17.199 8.39038 18.3327 5.78905C18.7635 4.78854 19.2055 3.71816 19.6249 2.96778C20.1804 1.96727 20.4412 1.96727 20.4412 1.96727C20.6118 1.94727 20.7669 1.86887 20.8729 1.74914C20.9789 1.62941 21.0273 1.47778 21.008 1.3268C21.0175 1.24655 21.0078 1.16544 20.9798 1.08865C20.9517 1.01185 20.9061 0.941034 20.8452 0.880776C20.7844 0.820517 20.7098 0.77207 20.6266 0.738613C20.5434 0.705156 20.4534 0.687542 20.362 0.686584H20.3847Z" fill="#8E8A88"/>
<path fill-rule="evenodd" clip-rule="evenodd" d="M4.37722 0.286194H0.477486C0.366254 0.301082 0.265516 0.352967 0.196008 0.431039C0.1265 0.509111 0.0933627 0.607662 0.103289 0.706563V1.63694C0.0933627 1.73584 0.1265 1.8344 0.196008 1.91247C0.265516 1.99054 0.366254 2.04218 0.477486 2.05707H4.37722C4.48845 2.04218 4.58919 1.99054 4.6587 1.91247C4.72821 1.8344 4.76134 1.73584 4.75142 1.63694V0.706563C4.76134 0.607662 4.72821 0.509111 4.6587 0.431039C4.58919 0.352967 4.48845 0.301082 4.37722 0.286194Z" fill="#8E8A88"/>
<path fill-rule="evenodd" clip-rule="evenodd" d="M25.5647 0.286194H21.665C21.5538 0.301082 21.453 0.352967 21.3835 0.431039C21.314 0.509111 21.2809 0.607662 21.2908 0.706563V1.63694C21.2809 1.73584 21.314 1.8344 21.3835 1.91247C21.453 1.99054 21.5538 2.04218 21.665 2.05707H25.5647C25.676 2.04218 25.7767 1.99054 25.8462 1.91247C25.9157 1.8344 25.9489 1.73584 25.9389 1.63694V0.706563C25.9489 0.607662 25.9157 0.509111 25.8462 0.431039C25.7767 0.352967 25.676 0.301082 25.5647 0.286194Z" fill="#8E8A88"/>
</svg>
