<svg width="24" height="41" viewBox="0 0 24 41" fill="none" xmlns="http://www.w3.org/2000/svg">
<path fill-rule="evenodd" clip-rule="evenodd" d="M2.71298 26.0793H1.79465C1.45458 26.1217 1.14643 26.2789 0.934989 26.5177C0.723551 26.7566 0.625317 27.0585 0.660983 27.36V39.6864C0.625317 39.9878 0.723551 40.2897 0.934989 40.5286C1.14643 40.7674 1.45458 40.9246 1.79465 40.967H2.71298C3.05305 40.9246 3.3612 40.7674 3.57264 40.5286C3.78408 40.2897 3.88231 39.9878 3.84665 39.6864V27.36C3.88231 27.0585 3.78408 26.7566 3.57264 26.5177C3.3612 26.2789 3.05305 26.1217 2.71298 26.0793Z" fill="#8E8A88"/>
<path fill-rule="evenodd" clip-rule="evenodd" d="M22.0196 26.0793H21.1013C20.7612 26.1217 20.4531 26.2789 20.2416 26.5177C20.0302 26.7566 19.932 27.0585 19.9676 27.36V39.6864C19.932 39.9878 20.0302 40.2897 20.2416 40.5286C20.4531 40.7674 20.7612 40.9246 21.1013 40.967H22.0196C22.3609 40.927 22.6706 40.7705 22.8826 40.531C23.0946 40.2916 23.1919 39.9883 23.1533 39.6864V27.36C23.1919 27.058 23.0946 26.7548 22.8826 26.5153C22.6706 26.2758 22.3609 26.1193 22.0196 26.0793Z" fill="#8E8A88"/>
<path fill-rule="evenodd" clip-rule="evenodd" d="M21.2258 25.5292H22.0196C22.1216 25.5292 22.1781 25.4089 22.1328 25.3089C22.0451 25.1045 21.8904 24.928 21.6885 24.8015C21.4866 24.675 21.2466 24.6042 20.9991 24.5985H19.7409C19.3284 24.6485 18.9542 24.8385 18.698 25.1281C18.4418 25.4177 18.3237 25.7841 18.3689 26.1494V30.8918C18.3918 31.0939 18.3257 31.2961 18.1843 31.4563C18.0429 31.6165 17.8371 31.7225 17.6094 31.7523H12.8254V18.4255C12.8293 18.1697 12.7465 17.9189 12.5874 17.7051V5.28862L13.6303 3.23777C13.6748 3.14497 13.7053 3.04738 13.721 2.94758H15.2967C15.4336 3.03059 15.5956 3.07575 15.7617 3.07753H18.6523C18.9411 3.04019 19.2027 2.90597 19.3822 2.70283C19.5617 2.49968 19.6454 2.24343 19.6161 1.98713C19.6454 1.73083 19.5617 1.47433 19.3822 1.27119C19.2027 1.06804 18.9411 0.93382 18.6523 0.896484H15.7617C15.5936 0.897202 15.4302 0.946283 15.2967 1.03645H8.42691C8.29343 0.946283 8.13003 0.897202 7.96193 0.896484H5.07103C4.78222 0.93382 4.52095 1.06804 4.34145 1.27119C4.16195 1.47433 4.07823 1.73083 4.10758 1.98713C4.07823 2.24343 4.16195 2.49968 4.34145 2.70283C4.52095 2.90597 4.78222 3.04019 5.07103 3.07753H7.96193C8.12804 3.07575 8.28999 3.03059 8.42691 2.94758H10.0026C10.0128 3.04833 10.0436 3.14666 10.0934 3.23777L11.1363 5.28862V17.7051C10.9772 17.9189 10.8943 18.1697 10.8982 18.4255V31.7523H6.10284C5.8773 31.7202 5.67427 31.6131 5.53518 31.4531C5.39609 31.2932 5.33128 31.0924 5.35444 30.8918V26.1694C5.39964 25.8042 5.28181 25.4377 5.02564 25.1481C4.76946 24.8585 4.3952 24.6685 3.98275 24.6186H2.71319C2.47513 24.6326 2.24669 24.7072 2.05558 24.8333C1.86446 24.9593 1.71864 25.1314 1.63599 25.3289C1.63599 25.4289 1.6361 25.549 1.74946 25.549H2.54297C3.06986 25.6185 3.54558 25.8663 3.86928 26.2398C4.19297 26.6132 4.3393 27.083 4.27752 27.55V34.0335C4.24185 34.335 4.34009 34.6369 4.55152 34.8758C4.76296 35.1146 5.07112 35.2716 5.41118 35.314H18.3238C18.6639 35.2716 18.972 35.1146 19.1835 34.8758C19.3949 34.6369 19.4931 34.335 19.4575 34.0335V27.55C19.4225 27.3147 19.4405 27.0758 19.5106 26.8468C19.5807 26.6177 19.7014 26.4029 19.8657 26.2151C20.03 26.0273 20.2348 25.8699 20.4682 25.7522C20.7017 25.6345 20.959 25.5588 21.2258 25.5292Z" fill="#8E8A88"/>
</svg>
