<svg width="27" height="38" viewBox="0 0 27 38" fill="none" xmlns="http://www.w3.org/2000/svg">
<path fill-rule="evenodd" clip-rule="evenodd" d="M23.3968 24.1694H21.5491C21.284 24.2018 21.0437 24.3249 20.8804 24.5121C20.7171 24.6992 20.6439 24.9354 20.6762 25.1699V36.8558C20.6468 37.0898 20.7213 37.3249 20.884 37.5114C21.0468 37.698 21.2853 37.8215 21.5491 37.8563H23.3968C23.6607 37.8215 23.8989 37.698 24.0616 37.5114C24.2244 37.3249 24.2991 37.0898 24.2698 36.8558V25.1699C24.302 24.9354 24.2285 24.6992 24.0652 24.5121C23.902 24.3249 23.662 24.2018 23.3968 24.1694Z" fill="#8E8A88"/>
<path fill-rule="evenodd" clip-rule="evenodd" d="M24.9837 16.1653H22.059C21.6426 16.2177 21.2656 16.4109 21.0075 16.7039C20.7495 16.997 20.6306 17.3672 20.676 17.7362V23.7393C20.9124 23.5427 21.2241 23.432 21.5489 23.4291H23.3967C23.8561 23.4864 24.2725 23.6988 24.558 24.0216C24.8435 24.3445 24.9758 24.7526 24.9272 25.1599V36.8458C24.93 37.1939 24.8366 37.5373 24.6551 37.8463H24.9837C25.4022 37.794 25.7812 37.5996 26.0396 37.3043C26.2979 37.009 26.4155 36.6363 26.367 36.2657V17.7562C26.4217 17.3836 26.3068 17.0067 26.0476 16.7086C25.7884 16.4104 25.4057 16.2152 24.9837 16.1653Z" fill="#8E8A88"/>
<path fill-rule="evenodd" clip-rule="evenodd" d="M5.24701 24.1694H3.41061C3.14343 24.1994 2.90038 24.3215 2.73473 24.5089C2.56908 24.6963 2.49424 24.9339 2.52632 25.1699V36.8558C2.49724 37.0913 2.57322 37.3275 2.73833 37.5144C2.90343 37.7012 3.14469 37.8239 3.41061 37.8563H5.24701C5.51293 37.8239 5.75419 37.7012 5.9193 37.5144C6.0844 37.3275 6.16039 37.0913 6.13131 36.8558V25.1699C6.16339 24.9339 6.08854 24.6963 5.9229 24.5089C5.75725 24.3215 5.51419 24.1994 5.24701 24.1694Z" fill="#8E8A88"/>
<path fill-rule="evenodd" clip-rule="evenodd" d="M3.4102 23.439H5.24659C5.57509 23.4404 5.89093 23.5512 6.13088 23.7492V17.7462C6.17604 17.3756 6.05557 17.0041 5.79516 16.7107C5.53474 16.4174 5.15495 16.2253 4.7365 16.1753H1.81155C1.39517 16.2276 1.01816 16.4208 0.76009 16.7139C0.502022 17.007 0.383136 17.3771 0.428515 17.7462V36.2557C0.382919 36.6258 0.501415 36.9971 0.759259 37.2918C1.0171 37.5865 1.39424 37.7816 1.81155 37.8363H2.15171C1.96797 37.5276 1.87078 37.1845 1.86829 36.8358V25.1699C1.81989 24.7611 1.95384 24.3518 2.24166 24.0287C2.52948 23.7056 2.94867 23.494 3.4102 23.439Z" fill="#8E8A88"/>
<path fill-rule="evenodd" clip-rule="evenodd" d="M19.417 14.1643C19.3267 13.9393 19.1637 13.7426 18.9481 13.5986C18.7325 13.4545 18.4737 13.3695 18.2039 13.3538H14.1796V10.3523C14.1631 10.2097 14.2092 10.0672 14.3083 9.95363C14.4074 9.84011 14.552 9.76439 14.7124 9.7421H15.6531C15.7552 9.7421 15.8233 9.83209 15.8233 9.94215C15.8214 9.97716 15.8312 10.0118 15.8513 10.0421C15.8714 10.0723 15.9009 10.0966 15.9365 10.1122L16.2654 10.2724C16.3787 10.2724 16.5034 10.2222 16.5034 10.0921V7.531C16.5034 7.40094 16.3901 7.31071 16.2881 7.34072L15.9592 7.44087C15.9166 7.45567 15.8805 7.48216 15.856 7.51635C15.8315 7.55053 15.8202 7.59057 15.8233 7.63091V7.691C15.8233 7.80105 15.7552 7.89105 15.6531 7.89105H14.7124C14.0581 7.97093 13.4647 8.27255 13.0584 8.73206C12.652 9.19156 12.4644 9.77276 12.5355 10.3523V13.3538H8.51125C8.24144 13.3695 7.9826 13.4545 7.76701 13.5986C7.55142 13.7426 7.38844 13.9393 7.29815 14.1643H6.33443L8.21649 1.48787H18.4986L20.3807 14.1643H19.417ZM16.1068 18.1663C16.1003 17.8693 16.2091 17.5792 16.4154 17.3444C16.6216 17.1096 16.9129 16.9441 17.2404 16.8756C18 16.8056 18.6461 17.526 18.5781 18.3964C18.5867 18.6939 18.4786 18.9849 18.272 19.2201C18.0654 19.4553 17.773 19.6203 17.4444 19.6871C16.6735 19.7572 16.0387 19.0368 16.0954 18.1663H16.1068ZM9.39527 16.8756C9.72284 16.9441 10.0141 17.1096 10.2203 17.3444C10.4266 17.5792 10.5354 17.8693 10.5289 18.1663C10.5289 19.0368 9.95083 19.7572 9.17994 19.6871C8.85134 19.6203 8.55898 19.4553 8.35239 19.2201C8.14579 18.9849 8.03767 18.6939 8.04627 18.3964C7.97825 17.526 8.61303 16.8056 9.38392 16.8756H9.39527ZM18.6575 25.8001C18.6704 25.8889 18.6432 25.9788 18.5817 26.05C18.5201 26.1212 18.4292 26.168 18.3287 26.1804H8.38643C8.28515 26.168 8.19322 26.1213 8.12986 26.0505C8.06649 25.9797 8.03653 25.89 8.04627 25.8001V25.7202C8.03653 25.6304 8.06649 25.5407 8.12986 25.4699C8.19322 25.399 8.28515 25.3524 8.38643 25.3399H18.3287C18.4292 25.3524 18.5201 25.3994 18.5817 25.4706C18.6432 25.5418 18.6704 25.6314 18.6575 25.7202V25.8001ZM18.6575 27.1008C18.6704 27.1896 18.6432 27.2796 18.5817 27.3507C18.5201 27.4219 18.4292 27.4687 18.3287 27.4812H8.38643C8.28515 27.4687 8.19322 27.422 8.12986 27.3512C8.06649 27.2804 8.03653 27.1907 8.04627 27.1008V27.021C8.03653 26.9311 8.06649 26.8414 8.12986 26.7706C8.19322 26.6998 8.28515 26.6531 8.38643 26.6406H18.3287C18.4292 26.6531 18.5201 26.6999 18.5817 26.7711C18.6432 26.8423 18.6704 26.9322 18.6575 27.021V27.1008ZM18.6575 28.4016C18.6704 28.4904 18.6432 28.58 18.5817 28.6512C18.5201 28.7224 18.4292 28.7694 18.3287 28.7819H8.38643C8.28515 28.7694 8.19322 28.7228 8.12986 28.6519C8.06649 28.5811 8.03653 28.4914 8.04627 28.4016V28.3214C8.03653 28.2316 8.06649 28.1419 8.12986 28.0711C8.19322 28.0002 8.28515 27.9538 8.38643 27.9414H18.3287C18.4292 27.9538 18.5201 28.0006 18.5817 28.0718C18.6432 28.143 18.6704 28.2326 18.6575 28.3214V28.4016ZM18.6575 29.6923C18.6704 29.7811 18.6432 29.8707 18.5817 29.9419C18.5201 30.0131 18.4292 30.0599 18.3287 30.0723H8.38643C8.28515 30.0599 8.19322 30.0135 8.12986 29.9426C8.06649 29.8718 8.03653 29.7821 8.04627 29.6923V29.6121C8.03653 29.5223 8.06649 29.4326 8.12986 29.3618C8.19322 29.2909 8.28515 29.2445 8.38643 29.2321H18.3287C18.4292 29.2445 18.5201 29.2913 18.5817 29.3625C18.6432 29.4337 18.6704 29.5233 18.6575 29.6121V29.6923ZM21.1515 15.6851H25.7997C26.1965 15.6851 26.5023 15.2848 26.4457 14.8345C26.4412 14.6744 26.3708 14.5212 26.2478 14.4034C26.1247 14.2856 25.9575 14.2113 25.777 14.1943H21.707L19.7004 0.647351C19.6936 0.493091 19.625 0.34599 19.5067 0.232344C19.3883 0.118698 19.2277 0.0460454 19.0541 0.0271606H7.71747C7.54386 0.0460454 7.3836 0.118698 7.26522 0.232344C7.14683 0.34599 7.07823 0.493091 7.07148 0.647351L4.98543 14.1643H0.915466C0.734928 14.1812 0.567733 14.2556 0.444674 14.3734C0.321614 14.4912 0.251264 14.6443 0.24678 14.8045C0.222069 14.898 0.219464 14.9951 0.239031 15.0896C0.258597 15.184 0.299932 15.2739 0.360534 15.3536C0.421137 15.4334 0.49949 15.5013 0.591087 15.5532C0.682684 15.605 0.785355 15.6397 0.892771 15.655H7.11659V30.1725C7.07119 30.5389 7.1889 30.9064 7.44484 31.1977C7.70079 31.4889 8.07518 31.681 8.48856 31.7333H18.1812C18.5946 31.681 18.969 31.4889 19.2249 31.1977C19.4808 30.9064 19.5986 30.5389 19.5532 30.1725V15.635L21.1515 15.6851Z" fill="#8E8A88"/>
</svg>
