<svg width="36" height="20" viewBox="0 0 36 20" fill="none" xmlns="http://www.w3.org/2000/svg">
<path fill-rule="evenodd" clip-rule="evenodd" d="M31.8255 5.12346H29.0821C28.7649 5.13838 28.4469 5.13838 28.1297 5.12346L21.9399 4.05285C19.4992 3.63196 16.9891 3.63196 14.5484 4.05285L8.35861 5.12346C8.04141 5.13838 7.72344 5.13838 7.40624 5.12346H4.66285C4.60163 5.12964 4.54253 5.14648 4.48876 5.17305C4.43499 5.19961 4.38752 5.23525 4.34954 5.27808C4.31157 5.32091 4.28364 5.36999 4.26734 5.42244C4.25105 5.47489 4.24697 5.52972 4.25489 5.58365V6.78422C4.24697 6.83815 4.25105 6.89298 4.26734 6.94543C4.28364 6.99788 4.31157 7.04696 4.34954 7.08979C4.38752 7.13262 4.43499 7.16826 4.48876 7.19482C4.54253 7.22139 4.60163 7.23847 4.66285 7.24465H5.87595C7.29034 7.24845 8.68254 7.55384 9.93429 8.135L11.068 8.63525L8.51721 19.5207C8.51721 19.6707 8.51739 19.8109 8.71012 19.8109H9.58306C9.68509 19.8109 9.76437 19.7309 9.78705 19.6208C9.94576 18.4802 10.9208 12.4771 12.4286 9.25544L12.8025 9.42569C13.529 9.75491 14.3327 9.92966 15.1493 9.93596H21.339C22.1556 9.92966 22.9593 9.75491 23.6858 9.42569L24.06 9.25544C25.6131 12.4771 26.5425 18.4802 26.7013 19.6208C26.7013 19.7309 26.8035 19.8109 26.9055 19.8109H27.7785C27.9145 19.8109 28.0051 19.6707 27.9711 19.5207L25.4203 8.63525L26.554 8.135C27.8058 7.55384 29.1982 7.24845 30.6126 7.24465H31.8255C31.8867 7.23847 31.946 7.22139 31.9998 7.19482C32.0536 7.16826 32.1008 7.13262 32.1388 7.08979C32.1767 7.04696 32.2047 6.99788 32.221 6.94543C32.2373 6.89298 32.2416 6.83815 32.2337 6.78422V5.58365C32.2416 5.52972 32.2373 5.47489 32.221 5.42244C32.2047 5.36999 32.1767 5.32091 32.1388 5.27808C32.1008 5.23525 32.0536 5.19961 31.9998 5.17305C31.946 5.14648 31.8867 5.12964 31.8255 5.12346Z" fill="#8E8A88"/>
<path fill-rule="evenodd" clip-rule="evenodd" d="M22.0187 10.196H14.4683C14.383 10.206 14.3057 10.2451 14.2527 10.305C14.1997 10.3649 14.1753 10.4405 14.1849 10.516V11.2764C14.1753 11.3519 14.1997 11.4279 14.2527 11.4877C14.3057 11.5476 14.383 11.5867 14.4683 11.5967H22.0187C22.1041 11.5867 22.1816 11.5476 22.2346 11.4877C22.2876 11.4279 22.3118 11.3519 22.3021 11.2764V10.516C22.3118 10.4405 22.2876 10.3649 22.2346 10.305C22.1816 10.2451 22.1041 10.206 22.0187 10.196Z" fill="#8E8A88"/>
<path fill-rule="evenodd" clip-rule="evenodd" d="M19.3547 14.2081C19.3558 14.4679 19.2583 14.7205 19.0774 14.9255C18.8965 15.1305 18.6429 15.2758 18.3572 15.3385C17.6544 15.4186 17.0648 14.7483 17.1328 13.9479C17.1317 13.6881 17.2295 13.4355 17.4104 13.2305C17.5913 13.0256 17.8449 12.88 18.1306 12.8172C18.8334 12.7372 19.4228 13.4077 19.3547 14.2081ZM20.0237 12.147H16.4638C16.2772 12.1695 16.108 12.2552 15.9916 12.3859C15.8753 12.5166 15.8211 12.682 15.8405 12.8473V15.3185C15.8242 15.4822 15.8797 15.6453 15.9958 15.7738C16.1119 15.9023 16.2794 15.9863 16.4638 16.0088H20.0237C20.2081 15.9863 20.3757 15.9023 20.4917 15.7738C20.6078 15.6453 20.6636 15.4822 20.6473 15.3185V12.8473C20.66 12.7638 20.654 12.679 20.6296 12.5976C20.6051 12.5163 20.5626 12.4398 20.5047 12.3729C20.4468 12.306 20.3744 12.25 20.2919 12.2078C20.2093 12.1656 20.1183 12.138 20.0237 12.127V12.147Z" fill="#8E8A88"/>
<path fill-rule="evenodd" clip-rule="evenodd" d="M5.09308 2.88222C5.01892 2.89215 4.95177 2.92666 4.90543 2.97871C4.85909 3.03076 4.83681 3.09646 4.84343 3.1624V4.34293C4.83681 4.40887 4.85909 4.47457 4.90543 4.52662C4.95177 4.57867 5.01892 4.61318 5.09308 4.62311H7.50765C7.58181 4.61318 7.64897 4.57867 7.6953 4.52662C7.74164 4.47457 7.76364 4.40887 7.75702 4.34293V3.12234C7.76364 3.0564 7.74164 2.9907 7.6953 2.93865C7.64897 2.8866 7.58181 2.85209 7.50765 2.84216L5.09308 2.88222Z" fill="#8E8A88"/>
<path fill-rule="evenodd" clip-rule="evenodd" d="M5.69411 2.39206H6.89586C6.93225 2.39179 6.96793 2.38338 6.99965 2.36763C7.03137 2.35188 7.05827 2.32923 7.07742 2.30192C8.09894 2.49065 9.14001 2.58457 10.1837 2.5821C11.7254 2.5821 11.9974 2.3319 11.9974 2.01172C11.9974 1.69154 11.7254 1.43157 10.1837 1.43157C9.14001 1.4291 8.09894 1.52302 7.07742 1.71175C7.05632 1.6861 7.02902 1.66476 6.99771 1.64922C6.96641 1.63367 6.93166 1.62421 6.89586 1.62161H5.69411C5.65688 1.62383 5.62085 1.6342 5.58921 1.65166C5.55757 1.66911 5.53139 1.6932 5.51282 1.72176C4.48034 1.52897 3.42787 1.43168 2.37254 1.43157C0.830752 1.43157 0.558838 1.69154 0.558838 2.01172C0.558838 2.3319 0.830752 2.5821 2.37254 2.5821C3.42816 2.58696 4.48123 2.48962 5.51282 2.2919C5.53139 2.32047 5.55757 2.34456 5.58921 2.36201C5.62085 2.37946 5.65688 2.38984 5.69411 2.39206Z" fill="#8E8A88"/>
<path fill-rule="evenodd" clip-rule="evenodd" d="M5.75063 1.48163H6.88431C6.88431 1.48163 6.98643 1.41147 6.97509 1.35143L6.88431 0.991386C6.87435 0.904157 6.83055 0.822547 6.76031 0.760554C6.69007 0.698562 6.59787 0.65991 6.49903 0.651123H6.18157C6.08273 0.65991 5.99026 0.698562 5.92002 0.760554C5.84977 0.822547 5.80598 0.904157 5.79602 0.991386L5.70524 1.35143C5.64855 1.41147 5.69394 1.48163 5.75063 1.48163Z" fill="#8E8A88"/>
<path fill-rule="evenodd" clip-rule="evenodd" d="M31.3944 4.62311C31.4685 4.61318 31.5354 4.57867 31.5817 4.52662C31.6281 4.47457 31.6504 4.40887 31.6437 4.34293V3.12234C31.6504 3.0564 31.6281 2.9907 31.5817 2.93865C31.5354 2.8866 31.4685 2.85209 31.3944 2.84216H28.9795C28.9054 2.85209 28.8385 2.8866 28.7921 2.93865C28.7458 2.9907 28.7235 3.0564 28.7301 3.12234V4.30288C28.7235 4.36881 28.7458 4.43451 28.7921 4.48656C28.8385 4.53861 28.9054 4.57312 28.9795 4.58305L31.3944 4.62311Z" fill="#8E8A88"/>
<path fill-rule="evenodd" clip-rule="evenodd" d="M34.1259 1.43157C33.0668 1.43113 32.0105 1.52842 30.9743 1.72176C30.9565 1.69259 30.9305 1.66799 30.8987 1.65044C30.8669 1.63289 30.8305 1.6229 30.793 1.62161H29.5912C29.5554 1.62421 29.5207 1.63367 29.4894 1.64922C29.4581 1.66476 29.4311 1.6861 29.41 1.71175C28.3884 1.52302 27.3474 1.4291 26.3037 1.43157C24.7619 1.43157 24.4897 1.69154 24.4897 2.01172C24.4897 2.3319 24.7619 2.5821 26.3037 2.5821C27.3474 2.58457 28.3884 2.49065 29.41 2.30192C29.4291 2.32923 29.4557 2.35188 29.4874 2.36763C29.5192 2.38338 29.5548 2.39179 29.5912 2.39206H30.793C30.8305 2.39076 30.8669 2.38078 30.8987 2.36323C30.9305 2.34568 30.9565 2.32108 30.9743 2.2919C32.0059 2.48962 33.0589 2.58696 34.1146 2.5821C35.6563 2.5821 35.9285 2.3319 35.9285 2.01172C35.9285 1.69154 35.6563 1.43157 34.1259 1.43157Z" fill="#8E8A88"/>
<path fill-rule="evenodd" clip-rule="evenodd" d="M29.6483 1.48163H30.782C30.8387 1.48163 30.8841 1.41147 30.8728 1.35143L30.782 0.991386C30.772 0.904157 30.7282 0.822547 30.658 0.760554C30.5878 0.698562 30.4953 0.65991 30.3965 0.651123H30.079C29.9802 0.65991 29.888 0.698562 29.8177 0.760554C29.7475 0.822547 29.7037 0.904157 29.6937 0.991386L29.6029 1.35143C29.5463 1.41147 29.5916 1.48163 29.6483 1.48163Z" fill="#8E8A88"/>
</svg>
