<svg width="28" height="43" viewBox="0 0 28 43" fill="none" xmlns="http://www.w3.org/2000/svg">
<path fill-rule="evenodd" clip-rule="evenodd" d="M5.97681 18.9843C5.09255 18.9843 4.23086 17.9839 3.89076 16.5832C3.65925 15.7152 3.72627 14.8059 4.0834 13.9717C4.15762 13.7947 4.27253 13.6334 4.42079 13.4974C4.56905 13.3613 4.74747 13.2538 4.945 13.1815C5.08605 13.1387 5.23572 13.1228 5.38424 13.1349C5.53276 13.1469 5.67677 13.1866 5.8066 13.2514C5.86642 13.285 5.91432 13.3332 5.94443 13.3899C5.97454 13.4466 5.98578 13.5095 5.97681 13.5716C5.97681 14.0719 5.88603 14.5722 5.88603 15.1225C5.88426 16.2902 6.02861 17.4545 6.31669 18.5942C6.35041 18.6784 6.35041 18.7702 6.31669 18.8544C6.29567 18.888 6.26645 18.9171 6.23117 18.9396C6.19589 18.9621 6.1555 18.9773 6.11271 18.9843H5.97681ZM4.41221 16.4232C4.45932 16.805 4.59908 17.1733 4.82211 17.5031C5.04514 17.8329 5.34606 18.1163 5.70447 18.3341C5.47607 17.2755 5.36242 16.2001 5.36459 15.1225C5.36459 14.6622 5.36437 14.2019 5.42105 13.7416C5.31025 13.7115 5.19197 13.7115 5.08117 13.7416C4.95746 13.7899 4.84624 13.8602 4.75458 13.948C4.66291 14.0358 4.5928 14.1391 4.54838 14.2519C4.25779 14.9473 4.21027 15.7038 4.41221 16.4232Z" fill="#8E8A88"/>
<path fill-rule="evenodd" clip-rule="evenodd" d="M13.7987 26.6084C12.8523 26.556 11.9286 26.3297 11.0872 25.9437C10.2457 25.5578 9.50496 25.0207 8.91254 24.3672C7.34609 22.7678 6.27591 20.8373 5.80631 18.7643C5.50942 17.5681 5.36129 16.347 5.3643 15.1225C5.3643 14.7623 5.3643 14.382 5.3643 14.0018C5.3643 13.8317 5.3643 13.6616 5.3643 13.4915C5.7044 10.49 8.52712 7.5685 8.65182 7.48846C8.68353 7.45065 8.72925 7.42396 8.78108 7.41298C8.83291 7.40201 8.88754 7.40763 8.93524 7.42862C10.4165 8.14945 12.0335 8.62732 13.7079 8.83925C16.5874 8.83925 18.0046 5.98766 18.0159 5.95765C18.0334 5.91982 18.0612 5.88659 18.0967 5.86043C18.1323 5.83427 18.1746 5.81607 18.2199 5.80767C18.2645 5.8038 18.3096 5.81122 18.3497 5.82892C18.3898 5.84662 18.4236 5.87399 18.4469 5.90782C18.5716 6.07791 21.4963 9.97972 22.0064 13.2214C22.0064 13.3314 22.0064 13.4516 22.0064 13.5616C22.0064 13.6717 22.0064 13.8918 22.0064 14.0619C22.0064 14.4421 22.0064 14.8224 22.0064 15.1926C22.0056 16.4175 21.8537 17.6385 21.5531 18.8344C21.0922 20.9081 20.0251 22.8396 18.4579 24.4373C17.8655 25.0909 17.125 25.6276 16.2836 26.0136C15.4421 26.3995 14.5185 26.6261 13.572 26.6785L13.7987 26.6084ZM5.97653 13.6017C5.97653 13.7618 5.97653 13.9218 5.97653 14.0819C5.97653 14.4421 5.97653 14.8024 5.97653 15.1525C5.97104 16.3199 6.11156 17.4842 6.39584 18.6243C6.83923 20.592 7.85068 22.4254 9.33213 23.9471C9.88956 24.5471 10.5784 25.0414 11.3576 25.4007C12.1368 25.76 12.9904 25.9768 13.8668 26.038C14.7434 25.9774 15.597 25.761 16.3763 25.4017C17.1556 25.0423 17.8445 24.5475 18.4015 23.9471C19.8829 22.4254 20.8941 20.592 21.3375 18.6243C21.6256 17.4846 21.7702 16.3203 21.7684 15.1525C21.7684 14.7924 21.7684 14.4321 21.7684 14.0819V13.5917C21.7684 13.4916 21.7684 13.3915 21.7684 13.2915C21.1622 10.9024 20.0755 8.62867 18.5601 6.57808C18.0386 7.41851 16.5535 9.3996 14.0254 9.3996C12.3352 9.21105 10.7006 8.74248 9.20731 8.01876C7.67633 9.60796 6.64103 11.5218 6.2032 13.5717L5.97653 13.6017Z" fill="#8E8A88"/>
<path fill-rule="evenodd" clip-rule="evenodd" d="M21.6098 18.9843H21.508C21.4667 18.9773 21.4277 18.9619 21.3942 18.9394C21.3608 18.9168 21.3336 18.8877 21.3151 18.8544C21.2814 18.7702 21.2814 18.6784 21.3151 18.5942C21.6032 17.4545 21.7478 16.2902 21.746 15.1225C21.746 14.6022 21.7459 14.0719 21.6552 13.5716C21.6463 13.5095 21.6575 13.4466 21.6876 13.3899C21.7177 13.3332 21.7656 13.285 21.8255 13.2514C21.9553 13.1866 22.099 13.1469 22.2475 13.1349C22.3961 13.1228 22.546 13.1387 22.6871 13.1815C22.8853 13.2528 23.0643 13.3597 23.2127 13.4959C23.3611 13.632 23.4757 13.7941 23.5487 13.9717C23.9113 14.8048 23.9785 15.7156 23.7413 16.5832C23.4012 17.9939 22.5395 18.9843 21.6552 18.9843H21.6098ZM22.1653 13.7416C22.2107 14.2019 22.2334 14.6622 22.2334 15.1225C22.2319 16.2004 22.1141 17.2758 21.8819 18.3341C22.2403 18.1163 22.5415 17.8329 22.7646 17.5031C22.9876 17.1733 23.1274 16.805 23.1745 16.4232C23.3747 15.711 23.3312 14.9623 23.0496 14.2719C22.9516 14.0452 22.756 13.8618 22.5055 13.7617C22.3948 13.7309 22.276 13.7309 22.1653 13.7617V13.7416Z" fill="#8E8A88"/>
<path fill-rule="evenodd" clip-rule="evenodd" d="M27.1648 42.3463H0.421513C0.274136 42.3463 0.160792 42.2161 0.160792 42.0461V36.7035C0.160792 36.6034 0.160792 36.4933 0.160792 36.3832C0.139019 35.364 0.433975 34.3588 1.01353 33.477C1.59309 32.5951 2.43501 31.8701 3.44831 31.3807L3.62987 31.3006C4.44611 30.9804 5.23949 30.6302 5.98771 30.3001C6.45054 30.0511 6.83923 29.708 7.12137 29.2995C8.13873 27.7807 8.82691 26.1082 9.15068 24.3671C9.15622 24.3196 9.17452 24.2738 9.2041 24.2337C9.23367 24.1937 9.27384 24.1606 9.32089 24.137C9.36592 24.1211 9.41539 24.1184 9.46233 24.1292C9.50926 24.14 9.55114 24.1638 9.58161 24.1971C10.096 24.7427 10.736 25.1853 11.4592 25.4958C12.1825 25.8064 12.9722 25.9774 13.7761 25.9978C14.5781 25.976 15.3658 25.8044 16.0869 25.4939C16.808 25.1834 17.4461 24.7415 17.9593 24.1971C17.9908 24.165 18.0326 24.1421 18.0791 24.1314C18.1257 24.1207 18.1748 24.1226 18.22 24.137C18.2684 24.1592 18.3095 24.192 18.3393 24.2323C18.3691 24.2726 18.3867 24.3191 18.3902 24.3671C18.714 26.1082 19.4022 27.7807 20.4195 29.2995C20.7017 29.708 21.0904 30.0511 21.5532 30.3001C22.3014 30.6502 23.0948 30.9904 23.8997 31.3006L24.0926 31.3807C25.1059 31.8701 25.9478 32.5951 26.5274 33.477C27.1069 34.3588 27.4019 35.364 27.3801 36.3832C27.3801 36.4833 27.3801 36.5934 27.3801 36.6935V42.036C27.3801 42.2061 27.2668 42.3362 27.1194 42.3362L27.1648 42.3463ZM0.693581 41.7458H26.8927V36.4333C26.9048 35.5276 26.6379 34.636 26.1208 33.8536C25.6037 33.0713 24.8556 32.4274 23.9564 31.9909L23.7524 31.911C22.9362 31.5808 22.1425 31.2306 21.383 30.9105C20.8313 30.6195 20.3683 30.2141 20.034 29.7297C19.0505 28.2675 18.3602 26.6666 17.9933 24.9973C17.4516 25.5017 16.8019 25.9065 16.0819 26.1881C15.362 26.4697 14.5861 26.6228 13.7988 26.6383C13.0097 26.6235 12.2318 26.471 11.5099 26.1893C10.788 25.9077 10.1365 25.5024 9.59296 24.9973C9.23123 26.6679 8.54053 28.2695 7.55231 29.7297C7.21795 30.2141 6.75498 30.6195 6.20332 30.9105C5.44376 31.2607 4.65009 31.6108 3.83386 31.911L3.62987 31.9909C2.73446 32.4279 1.98959 33.0708 1.47464 33.8512C0.959688 34.6315 0.693777 35.5203 0.704929 36.4233C0.699479 36.5166 0.699479 36.6102 0.704929 36.7035L0.693581 41.7458Z" fill="#8E8A88"/>
<path fill-rule="evenodd" clip-rule="evenodd" d="M10.772 42.3464H0.421513C0.274136 42.3464 0.160792 42.2163 0.160792 42.0462V36.7036C0.160792 36.6035 0.160792 36.4934 0.160792 36.3833C0.139019 35.3641 0.433975 34.3589 1.01353 33.4771C1.59309 32.5952 2.43501 31.8702 3.44831 31.3808L3.62988 31.3007C4.44612 30.9805 5.2395 30.6303 5.98772 30.3001C6.45055 30.0511 6.83924 29.7081 7.12138 29.2996C7.14921 29.2625 7.18885 29.2334 7.23514 29.2156C7.28142 29.1978 7.33261 29.1923 7.38238 29.1997C7.43394 29.2148 7.47941 29.2423 7.51357 29.2796C7.54774 29.3168 7.56907 29.3622 7.57502 29.4098L10.976 41.9463C11.0157 42.0329 11.0157 42.1298 10.976 42.2164C10.9567 42.2524 10.9261 42.2826 10.888 42.3039C10.8499 42.3251 10.8058 42.3364 10.7607 42.3364L10.772 42.3464ZM0.693582 41.746H10.4205L7.23486 30.0901C6.95001 30.4082 6.60018 30.6763 6.20332 30.8805C5.44377 31.2307 4.6501 31.5809 3.83386 31.881L3.62988 31.9612C2.73446 32.3982 1.98959 33.0409 1.47464 33.8212C0.959689 34.6016 0.693777 35.4904 0.70493 36.3934C0.69948 36.4867 0.69948 36.5802 0.70493 36.6735L0.693582 41.746Z" fill="#8E8A88"/>
<path fill-rule="evenodd" clip-rule="evenodd" d="M27.1647 42.3465H16.8142C16.7694 42.3454 16.7259 42.3337 16.688 42.3125C16.6501 42.2914 16.6192 42.2616 16.5989 42.2263C16.5592 42.1397 16.5592 42.043 16.5989 41.9564L19.9999 29.4199C20.0058 29.3723 20.0271 29.3269 20.0613 29.2897C20.0955 29.2524 20.1409 29.2249 20.1925 29.2098C20.2423 29.2011 20.294 29.2059 20.3406 29.2237C20.3872 29.2416 20.4265 29.2716 20.4532 29.3097C20.7354 29.7182 21.1241 30.0612 21.5869 30.3102C22.3351 30.6604 23.1287 31.0006 23.9336 31.3108L24.1263 31.3909C25.1396 31.8803 25.9818 32.6053 26.5613 33.4872C27.1409 34.3691 27.4358 35.3742 27.4141 36.3935C27.4141 36.4935 27.4141 36.6036 27.4141 36.7037V42.0463C27.4141 42.2164 27.3007 42.3465 27.1533 42.3465H27.1647ZM17.1771 41.7461H26.8926V36.4335C26.9027 35.5295 26.6349 34.6399 26.1179 33.8594C25.6009 33.079 24.8539 32.4368 23.9563 32.0011L23.7524 31.9212C22.9361 31.591 22.1425 31.2408 21.3829 30.9207C20.9875 30.7186 20.6409 30.4501 20.3627 30.1302L17.1771 41.7461Z" fill="#8E8A88"/>
<path fill-rule="evenodd" clip-rule="evenodd" d="M20.6575 42.3464H16.8142C16.7702 42.3426 16.7279 42.3299 16.6905 42.309C16.6531 42.2882 16.6217 42.2597 16.5989 42.2262C16.5592 42.1396 16.5592 42.0429 16.5989 41.9563L19.9999 29.4198C20.007 29.3805 20.0239 29.343 20.0494 29.3101C20.0749 29.2773 20.1085 29.2496 20.1474 29.2295C20.1809 29.2097 20.2202 29.1992 20.2606 29.1992C20.3009 29.1992 20.3405 29.2097 20.3741 29.2295C20.406 29.2475 20.4328 29.2715 20.4532 29.2996L20.5781 29.4599C20.6168 29.5084 20.6586 29.5551 20.7029 29.5998L20.8161 29.7198L20.9409 29.8399L21.1562 30.02C21.1748 30.0157 21.1944 30.0157 21.213 30.02L21.3489 30.1101H21.4283H21.5077L22.0859 30.3802H22.1764C22.7206 30.6304 23.3101 30.8705 23.8542 31.1006C23.9124 31.1289 23.9605 31.1711 23.9926 31.2225C24.0247 31.2738 24.0397 31.3322 24.0358 31.3908V34.1422C24.0397 34.2007 24.0247 34.2591 23.9926 34.3105C23.9605 34.3619 23.9124 34.4041 23.8542 34.4324L22.2332 35.0426L23.8883 35.9332C23.959 35.9793 24.0076 36.047 24.0244 36.1232C24.0586 36.2004 24.0586 36.2861 24.0244 36.3633L20.8388 41.9663C20.8209 42.0068 20.7897 42.0415 20.7494 42.0664C20.709 42.0914 20.6613 42.1053 20.6121 42.1063L20.6575 42.3464ZM17.1771 41.746H20.51L23.4576 36.5634L21.485 35.5028C21.434 35.4699 21.3935 35.4259 21.3677 35.375C21.3418 35.3241 21.3313 35.2683 21.3375 35.2128C21.3389 35.1578 21.3564 35.104 21.3882 35.0567C21.4199 35.0094 21.4651 34.9701 21.5191 34.9427L23.5822 34.1622V31.841L22.0746 31.1907H21.9724L21.3829 30.9306L21.2811 30.8805H21.1903L21.0087 30.7603H20.9409L20.6915 30.5603L20.5327 30.4003L20.4081 30.2701L17.2224 41.9363L17.1771 41.746Z" fill="#8E8A88"/>
<path fill-rule="evenodd" clip-rule="evenodd" d="M10.7722 42.3463H6.92892C6.88004 42.3441 6.83285 42.3298 6.79275 42.305C6.75265 42.2803 6.72133 42.2461 6.70225 42.2064L3.51658 36.6034C3.48243 36.5262 3.48243 36.4405 3.51658 36.3633C3.53825 36.2864 3.59071 36.219 3.6641 36.1733L5.30786 35.2827L3.68679 34.6725C3.63027 34.6426 3.58358 34.5999 3.55173 34.5489C3.51987 34.498 3.50381 34.4405 3.50523 34.3823V31.6309C3.50381 31.5728 3.51987 31.5153 3.55173 31.4644C3.58358 31.4134 3.63027 31.3707 3.68679 31.3408C4.26496 31.1106 4.82044 30.8706 5.3646 30.6304H5.4551L6.04463 30.3603H6.11272H6.1808L6.32805 30.2701C6.40915 30.2158 6.48494 30.1556 6.55473 30.0901L6.6909 29.9602L6.82707 29.83L6.95162 29.68L7.08779 29.5198L7.16695 29.4499C7.20051 29.4301 7.24007 29.4194 7.28043 29.4194C7.32078 29.4194 7.36035 29.4301 7.3939 29.4499C7.43398 29.47 7.46869 29.4973 7.49603 29.53C7.52338 29.5628 7.54262 29.6002 7.5525 29.6399L10.9535 42.1763C10.9932 42.263 10.9932 42.3598 10.9535 42.4465C10.9331 42.4817 10.9023 42.5113 10.8644 42.5325C10.8265 42.5536 10.783 42.5653 10.7382 42.5664L10.7722 42.3463ZM7.07644 41.7459H10.4207L7.23504 30.0801L7.09914 30.2201L6.94027 30.3703C6.83824 30.4503 6.75891 30.5203 6.67955 30.5703C6.60019 30.6204 6.67955 30.5703 6.67955 30.5703C6.62291 30.6191 6.55795 30.6597 6.48692 30.6905H6.40748L6.30535 30.7404L5.71582 31.0105H5.62532L4.10611 31.661V33.982L6.16946 34.7624C6.225 34.7883 6.2714 34.8273 6.30341 34.875C6.33543 34.9227 6.35172 34.9771 6.35074 35.0326C6.35943 35.0883 6.35023 35.1449 6.32417 35.1962C6.29812 35.2475 6.25639 35.2914 6.2035 35.3228L4.23093 36.3833L7.07644 41.7459Z" fill="#8E8A88"/>
<path fill-rule="evenodd" clip-rule="evenodd" d="M10.5906 36.8936C10.517 36.8901 10.448 36.8613 10.398 36.8135L8.53863 34.8125C8.50706 34.7732 8.48421 34.7292 8.47082 34.6826L7.09913 29.68C7.07728 29.6358 7.06592 29.588 7.06592 29.5398C7.06592 29.4916 7.07728 29.444 7.09913 29.3998C7.14465 29.3455 7.18615 29.2885 7.22368 29.2296C7.23901 29.205 7.2599 29.1835 7.28485 29.1661C7.30979 29.1487 7.33834 29.1359 7.36899 29.1285C7.39963 29.121 7.43157 29.119 7.46309 29.1226C7.49461 29.1262 7.52505 29.1356 7.55249 29.1497L13.8671 32.6916C13.908 32.7169 13.9421 32.7496 13.9676 32.7875C13.993 32.8255 14.0089 32.8678 14.0143 32.9116C14.0212 32.9575 14.0177 33.004 14.0041 33.0487C13.9905 33.0933 13.9669 33.1352 13.9349 33.1718L10.7268 36.8936C10.7077 36.9209 10.681 36.9436 10.6493 36.9593C10.6176 36.9751 10.5816 36.9833 10.5452 36.9835L10.5906 36.8936ZM8.95822 34.3823L10.5793 36.1733L13.3456 32.9517L7.67731 29.7899L8.95822 34.3823Z" fill="#8E8A88"/>
<path fill-rule="evenodd" clip-rule="evenodd" d="M17.0076 36.8936C16.9696 36.8932 16.9323 36.8848 16.8988 36.8691C16.8653 36.8535 16.8363 36.8309 16.8146 36.8034L13.6065 33.0815C13.5759 33.0445 13.554 33.0024 13.5423 32.9577C13.5306 32.913 13.5293 32.8666 13.5385 32.8214C13.5418 32.7782 13.5557 32.7363 13.5791 32.6983C13.6026 32.6603 13.635 32.6272 13.6744 32.6013L20.0117 29.0895C20.0382 29.0755 20.0676 29.0664 20.0983 29.0629C20.129 29.0594 20.1602 29.0615 20.1899 29.069C20.2196 29.0765 20.2474 29.0893 20.2713 29.1066C20.2952 29.1239 20.3149 29.1454 20.3291 29.1696L20.4537 29.3396C20.493 29.4298 20.493 29.5296 20.4537 29.6198L19.0706 34.6224C19.0622 34.6705 19.0388 34.7154 19.0028 34.7523L17.1435 36.7533C17.1208 36.7767 17.0932 36.796 17.0621 36.8098C17.0309 36.8235 16.9969 36.8315 16.9622 36.8335L17.0076 36.8936ZM14.2412 32.9516L17.0076 36.1732L18.6286 34.3823L19.8868 29.7898L14.2185 32.9516H14.2412Z" fill="#8E8A88"/>
<path fill-rule="evenodd" clip-rule="evenodd" d="M15.7256 42.3464H11.8713C11.8293 42.3455 11.7881 42.3349 11.7522 42.3156C11.7164 42.2963 11.687 42.2688 11.667 42.2362C11.6331 42.1555 11.6331 42.0668 11.667 41.9861L12.574 36.9835L11.701 35.3027C11.6653 35.2461 11.6465 35.1824 11.6465 35.1176C11.6465 35.0528 11.6653 34.9893 11.701 34.9327L13.6171 32.7614C13.6394 32.7364 13.6678 32.7164 13.7002 32.7025C13.7326 32.6886 13.7679 32.6813 13.804 32.6813C13.84 32.6813 13.8756 32.6886 13.908 32.7025C13.9404 32.7164 13.9688 32.7364 13.9911 32.7614L15.9182 34.9327C15.9551 34.9889 15.9744 35.0526 15.9744 35.1176C15.9744 35.1826 15.9551 35.2465 15.9182 35.3027L15.0456 36.9835L15.9523 41.9861C15.9872 42.0666 15.9872 42.1557 15.9523 42.2362C15.9314 42.2682 15.9019 42.2951 15.8662 42.3144C15.8306 42.3336 15.79 42.3446 15.7483 42.3464H15.7256ZM12.2001 41.746H15.3968L14.5239 36.9735C14.5009 36.9049 14.5009 36.832 14.5239 36.7634L15.3514 35.1828L13.7644 33.3918L12.1774 35.1828L12.9936 36.7634C13.0166 36.832 13.0166 36.9049 12.9936 36.9735L12.2001 41.746Z" fill="#8E8A88"/>
<path fill-rule="evenodd" clip-rule="evenodd" d="M5.7151 13.8017C5.65314 13.7958 5.59523 13.772 5.55014 13.7341C5.50506 13.6961 5.47534 13.646 5.46573 13.5916C5.21588 12.681 5.09047 11.7472 5.09181 10.8102C5.09181 6.9182 6.22537 3.9767 8.39067 2.06572C9.76521 0.845881 11.6124 0.130893 13.5603 0.0646973C16.3037 0.0646973 17.7093 0.50505 17.9587 1.44553C17.9988 1.75667 17.9596 2.07162 17.8439 2.36763C17.7282 2.66365 17.539 2.9332 17.2901 3.15637C18.5882 3.30195 19.7732 3.8821 20.6003 4.77707C21.8586 6.09775 22.4934 8.10878 22.4934 10.7801C22.4875 11.6429 22.3504 12.5011 22.0854 13.3315C22.077 13.389 22.0443 13.4415 21.9938 13.4785C21.9434 13.5156 21.8789 13.5346 21.8134 13.5316C21.7491 13.5205 21.6907 13.491 21.6476 13.4475C21.6045 13.404 21.5789 13.3491 21.5751 13.2914C20.9689 10.9024 19.8825 8.62863 18.367 6.57804C17.8455 7.41847 16.3604 9.39956 13.8323 9.39956C12.1422 9.21101 10.5075 8.74244 9.01425 8.01872C7.48327 9.60792 6.4477 11.5218 6.00987 13.5716C6.01116 13.6328 5.98808 13.6923 5.94455 13.7399C5.90101 13.7875 5.83984 13.82 5.77184 13.8318L5.7151 13.8017ZM13.5603 0.655087C13.2315 0.655087 5.6246 0.765046 5.6246 10.8102C5.62433 11.2785 5.65824 11.7463 5.72645 12.2108C6.36223 10.4529 7.38742 8.82411 8.74218 7.41856C8.77389 7.38075 8.8196 7.35382 8.87143 7.34284C8.92326 7.33186 8.97789 7.33748 9.02559 7.35847C10.5069 8.0793 12.1239 8.55718 13.7983 8.76911C16.6665 8.76911 18.0949 5.91776 18.1063 5.88775C18.1246 5.85038 18.1525 5.81733 18.1879 5.79126C18.2234 5.7652 18.2653 5.7467 18.3102 5.73752C18.3549 5.73366 18.3999 5.74107 18.4401 5.75878C18.4802 5.77648 18.5136 5.80384 18.5369 5.83767C19.964 7.762 21.0785 9.85338 21.8474 12.0508C21.9237 11.6206 21.9615 11.1856 21.9606 10.7501C21.9606 8.27884 21.3824 6.40784 20.2374 5.20722C19.7988 4.72949 19.2414 4.34749 18.6083 4.09068C17.9753 3.83388 17.2835 3.70921 16.5871 3.72648C16.5204 3.72695 16.4559 3.70586 16.4058 3.66713C16.3556 3.6284 16.3233 3.57477 16.315 3.51642C16.2925 3.45712 16.2902 3.39342 16.3083 3.33297C16.3265 3.27252 16.3643 3.21811 16.4171 3.1764C16.8139 2.87624 17.5507 2.10578 17.4487 1.60553C17.3693 1.32538 16.8365 0.655087 13.5603 0.655087Z" fill="#8E8A88"/>
</svg>
