<svg width="34" height="32" viewBox="0 0 34 32" fill="none" xmlns="http://www.w3.org/2000/svg">
<path fill-rule="evenodd" clip-rule="evenodd" d="M1.64417 23.4193L1.50828 12.7337L7.04044 6.49047H11.9833V0.487396L33.9537 0.647635V25.5403H30.9722C31.074 25.9747 31.1232 26.4174 31.1195 26.861C31.1195 29.6124 29.147 31.8636 26.721 31.8636C24.295 31.8636 22.3109 29.6224 22.3109 26.861C22.3108 26.4171 22.3641 25.9743 22.4698 25.5403H13.1511C13.2567 25.9743 13.3098 26.4171 13.3096 26.861C13.3096 29.6124 11.3372 31.8636 8.8998 31.8636C6.46242 31.8636 4.50103 29.6224 4.50103 26.861C4.49728 26.4174 4.54683 25.9747 4.64856 25.5403H0.533203V23.3893L1.64417 23.4193ZM11.7567 8.90187H8.15141L3.91151 14.9049H11.7567V8.90187ZM9.013 23.4193C7.64127 23.4193 6.54169 24.6698 6.54169 26.2206C6.54169 27.7714 7.67528 29.012 9.013 29.012C10.3507 29.012 11.4843 27.7613 11.4843 26.2206C11.4843 24.6798 10.3507 23.4193 9.013 23.4193ZM26.6529 23.4193C25.2925 23.4193 24.1816 24.6698 24.1816 26.2206C24.1816 27.7714 25.3152 29.012 26.6529 29.012C27.9906 29.012 29.1242 27.7613 29.1242 26.2206C29.1242 24.6798 28.0247 23.4193 26.6529 23.4193Z" fill="#8E8A88"/>
</svg>
