<svg width="32" height="36" viewBox="0 0 32 36" fill="none" xmlns="http://www.w3.org/2000/svg">
<path fill-rule="evenodd" clip-rule="evenodd" d="M5.56113 17.9559H3.15791C2.2572 18.0419 1.43027 18.4355 0.854046 19.0524C0.277822 19.6694 -0.00221244 20.4607 0.074099 21.2574V32.1331C-0.00221244 32.9298 0.277822 33.7213 0.854046 34.3383C1.43027 34.9553 2.2572 35.3488 3.15791 35.4348H5.56113C6.46389 35.3512 7.29359 34.9587 7.87219 34.3415C8.45078 33.7242 8.73215 32.9314 8.65601 32.1331V21.2176C8.71979 20.4259 8.43268 19.6433 7.8553 19.0349C7.27792 18.4264 6.45542 18.0395 5.56113 17.9559Z" fill="#8E8A88"/>
<path fill-rule="evenodd" clip-rule="evenodd" d="M28.4281 17.9559H26.0248C25.1221 18.0395 24.2924 18.432 23.7138 19.0493C23.1352 19.6665 22.8538 20.4591 22.93 21.2574V32.1331C22.8538 32.9314 23.1352 33.7242 23.7138 34.3415C24.2924 34.9587 25.1221 35.3512 26.0248 35.4348H28.4281C29.3288 35.3488 30.1557 34.9553 30.7319 34.3383C31.3082 33.7213 31.5879 32.9298 31.5116 32.1331V21.2176C31.5756 20.4275 31.2901 19.6463 30.7151 19.038C30.14 18.4298 29.3203 18.0419 28.4281 17.9559Z" fill="#8E8A88"/>
<path fill-rule="evenodd" clip-rule="evenodd" d="M20.2535 5.41943C20.3509 5.42119 20.4477 5.40406 20.5369 5.36936L27.0554 3.03808C27.3187 2.90979 27.5243 2.70593 27.6378 2.46014C27.7512 2.21436 27.7657 1.94165 27.679 1.68753C27.5203 1.12724 26.9874 0.807122 26.4886 0.987215L19.9587 3.32827C19.6984 3.45633 19.4958 3.65932 19.3844 3.90327C19.273 4.14722 19.2595 4.41748 19.3465 4.66905C19.3791 4.86625 19.4867 5.0479 19.6515 5.1842C19.8162 5.32051 20.0284 5.40341 20.2535 5.41943Z" fill="#8E8A88"/>
<path fill-rule="evenodd" clip-rule="evenodd" d="M4.5304 3.03807L11.049 5.36935C11.1418 5.40519 11.2425 5.42233 11.3438 5.41942C11.5668 5.40125 11.7764 5.31738 11.9388 5.18126C12.1013 5.04514 12.207 4.86469 12.2391 4.66904C12.3261 4.41747 12.3129 4.14721 12.2015 3.90326C12.0901 3.65932 11.8875 3.45633 11.6272 3.32826L5.09723 0.987215C4.59842 0.807123 4.0656 1.12724 3.96357 1.68753C3.87188 1.9361 3.87785 2.20474 3.98073 2.44988C4.0836 2.69502 4.27736 2.90217 4.5304 3.03807Z" fill="#8E8A88"/>
<path fill-rule="evenodd" clip-rule="evenodd" d="M15.7987 15.4146C14.6651 15.4146 13.7127 13.8038 13.7127 12.4931C13.7127 11.1825 14.6424 11.2523 15.7987 11.2523C16.9551 11.2523 17.8848 11.1925 17.8848 12.4931C17.8848 13.7938 16.9437 15.4146 15.7987 15.4146ZM30.3775 15.2045C30.4038 14.9827 30.3328 14.7602 30.1788 14.5833C30.0248 14.4065 29.7996 14.2885 29.5499 14.2538C23.4622 14.2538 18.5421 10.5521 18.5421 5.97982C18.5921 5.28972 18.3326 4.60987 17.8192 4.08749C17.3058 3.56512 16.5799 3.24216 15.7987 3.18835C15.0155 3.23966 14.2869 3.56142 13.7711 4.08407C13.2553 4.60673 12.9941 5.28811 13.044 5.97982C13.044 10.5521 8.12366 14.2538 2.04721 14.2538C1.79547 14.2862 1.56779 14.4033 1.41146 14.5804C1.25513 14.7575 1.18226 14.9812 1.20831 15.2045C1.22569 15.3868 1.32333 15.5558 1.4801 15.6754C1.63687 15.7951 1.84032 15.8558 2.04721 15.8447C7.80623 15.8447 12.3637 19.5267 12.3637 23.4887C12.3637 25.5698 13.8487 27.2507 15.6852 27.2507C17.5218 27.2507 18.9957 25.5698 18.9957 23.4887C18.9957 19.7368 23.7796 15.8447 29.5499 15.8447C29.7557 15.8557 29.9579 15.7946 30.1129 15.6747C30.2679 15.5548 30.3629 15.3859 30.3775 15.2045Z" fill="#8E8A88"/>
</svg>
