<svg width="30" height="39" viewBox="0 0 30 39" fill="none" xmlns="http://www.w3.org/2000/svg">
<path fill-rule="evenodd" clip-rule="evenodd" d="M1.65447 12.1224H2.16457C2.58403 12.1224 2.92432 11.632 2.92432 11.0317V5.11874C2.92432 4.69852 2.686 4.35834 2.39125 4.35834H1.25758C0.792776 4.35834 0.407329 4.9086 0.407329 5.58896V10.2613C0.316635 11.2918 0.894917 12.1224 1.65447 12.1224Z" fill="#8E8A88"/>
<path fill-rule="evenodd" clip-rule="evenodd" d="M27.4568 12.1224H27.9669C28.6811 12.1224 29.2594 11.2919 29.2594 10.2813V5.60903C29.2594 4.92868 28.874 4.37842 28.3978 4.37842H27.2641C26.9694 4.37842 26.7314 4.7186 26.7314 5.13882V11.0317C26.6973 11.632 27.0373 12.1224 27.4568 12.1224Z" fill="#8E8A88"/>
<path fill-rule="evenodd" clip-rule="evenodd" d="M28.7722 29.6213H1.04272C0.825056 29.6487 0.628055 29.7495 0.492774 29.9024C0.357492 30.0554 0.294571 30.2488 0.317299 30.4418V31.1621C0.294571 31.3551 0.357492 31.5485 0.492774 31.7015C0.628055 31.8544 0.825056 31.9552 1.04272 31.9826H28.7722C28.9898 31.9552 29.1871 31.8544 29.3224 31.7015C29.4577 31.5485 29.5206 31.3551 29.4979 31.1621V30.4418C29.5206 30.2488 29.4577 30.0554 29.3224 29.9024C29.1871 29.7495 28.9898 29.6487 28.7722 29.6213Z" fill="#8E8A88"/>
<path fill-rule="evenodd" clip-rule="evenodd" d="M26.9917 27.3801H23.0011V19.9164C25.1211 19.9164 26.9917 21.9174 26.9917 21.9174V27.3601V27.3801ZM20.6317 27.3801H9.18153V18.9659C9.18153 17.3751 11.4489 16.3044 14.9066 16.3044C18.3643 16.3044 20.5749 17.3851 20.5749 18.9759V27.3801H20.6317ZM6.81235 27.3801H2.78778V21.9374C2.78778 21.9374 4.65835 19.9364 6.7783 19.9364V27.4001L6.81235 27.3801ZM14.9066 14.6737C6.51747 14.6737 0.905991 16.8348 0.905991 18.6757V28.1305C0.883126 28.3352 0.95038 28.5397 1.09392 28.7018C1.23746 28.8639 1.44619 28.9712 1.67681 29.001H28.1367C28.3673 28.9712 28.576 28.8639 28.7196 28.7018C28.8631 28.5397 28.9304 28.3352 28.9075 28.1305V18.6958C28.8621 16.8548 23.3978 14.6737 14.9066 14.6737Z" fill="#8E8A88"/>
<path fill-rule="evenodd" clip-rule="evenodd" d="M3.85359 26.96H5.67891C5.96232 26.96 6.20035 26.6697 6.20035 26.3296V22.4677C6.20035 22.1276 5.96232 21.8473 5.67891 21.8473H5.11208C4.12579 21.8473 3.3208 22.8479 3.3208 23.9585V26.3296C3.3208 26.6697 3.55884 26.96 3.85359 26.96Z" fill="#8E8A88"/>
<path fill-rule="evenodd" clip-rule="evenodd" d="M24.1352 26.96H25.9603C26.255 26.96 26.493 26.6697 26.493 26.3296V23.9585C26.493 22.7979 25.6883 21.8473 24.702 21.8473H24.1352C23.8518 21.8473 23.6138 22.1276 23.6138 22.4677V26.3296C23.6138 26.6697 23.8518 26.96 24.1352 26.96Z" fill="#8E8A88"/>
<path fill-rule="evenodd" clip-rule="evenodd" d="M2.65186 36.2548C2.65186 37.2553 3.25291 38.1256 4.00113 38.1256H6.40436C7.15258 38.1256 7.75336 37.2853 7.75336 36.2548V32.723H2.65186V36.2548Z" fill="#8E8A88"/>
<path fill-rule="evenodd" clip-rule="evenodd" d="M22.0605 36.2548C22.0605 37.2553 22.6613 38.1256 23.4095 38.1256H25.8131C26.5499 38.1256 27.162 37.2853 27.162 36.2548V32.723H22.0605V36.2548Z" fill="#8E8A88"/>
<path fill-rule="evenodd" clip-rule="evenodd" d="M12.9912 26.5696H13.8415V17.1249L12.9912 17.235V26.5696Z" fill="#8E8A88"/>
<path fill-rule="evenodd" clip-rule="evenodd" d="M15.9727 26.5696H16.8229V17.2649L15.9727 17.155V26.5696Z" fill="#8E8A88"/>
<path fill-rule="evenodd" clip-rule="evenodd" d="M17.4583 26.5696H18.3199V17.6852C18.0425 17.5672 17.7542 17.4701 17.4583 17.395V26.5696Z" fill="#8E8A88"/>
<path fill-rule="evenodd" clip-rule="evenodd" d="M14.4768 17.1249V26.5696H15.3384V17.1249H14.4768Z" fill="#8E8A88"/>
<path fill-rule="evenodd" clip-rule="evenodd" d="M11.4944 26.5696H12.356V17.395C12.06 17.4701 11.7718 17.5672 11.4944 17.6852V26.5696Z" fill="#8E8A88"/>
<path fill-rule="evenodd" clip-rule="evenodd" d="M18.9429 18.0252V26.5696H19.7931V19.396C19.784 19.1246 19.7023 18.8587 19.5545 18.6205C19.4068 18.3822 19.1971 18.1783 18.9429 18.0252Z" fill="#8E8A88"/>
<path fill-rule="evenodd" clip-rule="evenodd" d="M10.0208 19.386V26.5696H10.86V18.0252C10.6093 18.1784 10.4028 18.3812 10.2571 18.6176C10.1114 18.8539 10.0303 19.1171 10.0208 19.386Z" fill="#8E8A88"/>
<path fill-rule="evenodd" clip-rule="evenodd" d="M5.95178 6.79955C5.91755 6.27354 6.11968 5.7568 6.51446 5.36156C6.90924 4.96632 7.46464 4.72462 8.06024 4.68861H21.755C22.3506 4.72462 22.906 4.96632 23.3008 5.36156C23.6956 5.7568 23.898 6.27354 23.8638 6.79955V12.5525C23.8638 12.5525 17.141 12.1524 14.9076 12.1524C12.6743 12.1524 5.95178 12.5525 5.95178 12.5525V6.79955ZM11.6201 1.69708C11.6038 1.56358 11.6464 1.42964 11.7394 1.32335C11.8324 1.21707 11.9684 1.1466 12.1189 1.12672H17.6513C17.8027 1.14893 17.9386 1.22131 18.0313 1.32922C18.1241 1.43712 18.1666 1.57244 18.15 1.70709V3.05764C18.1666 3.19229 18.1241 3.32737 18.0313 3.43528C17.9386 3.54318 17.8027 3.61581 17.6513 3.63802H12.1189C11.9675 3.61581 11.8316 3.54318 11.7388 3.43528C11.6461 3.32737 11.6036 3.19229 11.6201 3.05764V1.70709V1.69708ZM4.65924 15.0137H4.77272H4.9767C8.19034 14.1611 11.5292 13.7331 14.8849 13.7433C18.251 13.7329 21.6006 14.1574 24.8272 15.0037C24.8986 15.0133 24.9712 15.0133 25.0426 15.0037C25.1617 14.9973 25.2785 14.9703 25.3857 14.9241C25.493 14.8779 25.5891 14.8135 25.6681 14.7345C25.7471 14.6555 25.8074 14.5634 25.846 14.4636C25.8846 14.3639 25.9005 14.2586 25.8928 14.1534V4.96878C25.8928 3.38797 23.5236 2.1873 19.5785 1.66703C19.5649 1.32042 19.411 0.989558 19.1448 0.734427C18.8786 0.479297 18.5176 0.316639 18.1273 0.276184H11.6428C11.2516 0.314642 10.8893 0.476676 10.6226 0.732229C10.356 0.987781 10.2029 1.31978 10.1917 1.66703C6.28053 2.1773 3.87708 3.36794 3.87708 4.94875V14.2035C3.86782 14.3037 3.88147 14.4044 3.91721 14.4998C3.95295 14.5952 4.01014 14.6834 4.08521 14.759C4.16029 14.8346 4.25171 14.8962 4.35424 14.94C4.45677 14.9837 4.56819 15.0087 4.68194 15.0137H4.65924Z" fill="#8E8A88"/>
</svg>
