<svg width="35" height="27" viewBox="0 0 35 27" fill="none" xmlns="http://www.w3.org/2000/svg">
<path fill-rule="evenodd" clip-rule="evenodd" d="M9.58717 21.0105H4.93904C4.82865 21.0254 4.72911 21.0777 4.66143 21.1561C4.59376 21.2345 4.56343 21.333 4.57647 21.4309V24.4324C4.52822 24.8125 4.65064 25.194 4.91773 25.4952C5.18481 25.7964 5.57526 25.9931 6.00489 26.0431H8.5216C8.95123 25.9931 9.3414 25.7964 9.60849 25.4952C9.87557 25.194 9.99827 24.8125 9.95002 24.4324V21.4309C9.96306 21.333 9.93246 21.2345 9.86478 21.1561C9.7971 21.0777 9.69756 21.0254 9.58717 21.0105Z" fill="#8E8A88"/>
<path fill-rule="evenodd" clip-rule="evenodd" d="M29.8225 21.0105H25.1747C25.0655 21.0276 24.9676 21.0804 24.9004 21.1583C24.8332 21.2361 24.8016 21.3334 24.8118 21.4309V24.4324C24.7636 24.8125 24.8863 25.194 25.1533 25.4952C25.4204 25.7964 25.8106 25.9931 26.2402 26.0431H28.7569C29.1866 25.9931 29.577 25.7964 29.8441 25.4952C30.1112 25.194 30.2336 24.8125 30.1854 24.4324V21.4309C30.1984 21.333 30.1678 21.2345 30.1001 21.1561C30.0324 21.0777 29.9329 21.0254 29.8225 21.0105Z" fill="#8E8A88"/>
<path fill-rule="evenodd" clip-rule="evenodd" d="M31.8406 15.0875C31.9154 15.7298 31.7059 16.3728 31.2558 16.8819C30.8057 17.391 30.1502 17.7267 29.426 17.8189C28.0997 17.8189 27.0225 16.5883 27.0225 15.0875C27.0225 13.5867 28.1563 12.3561 29.426 12.3561C30.1502 12.4483 30.8057 12.784 31.2558 13.2931C31.7059 13.8022 31.9154 14.4452 31.8406 15.0875ZM24.1206 18.8294C24.1206 19.0896 23.9504 19.2996 23.7237 19.2996H11.038C10.8226 19.2996 10.6411 19.0896 10.6411 18.8294V17.4588C10.6411 17.1987 10.8226 16.9884 11.038 16.9884H23.7237C23.9504 16.9884 24.1206 17.1987 24.1206 17.4588V18.8294ZM7.70509 15.0875C7.77989 15.7298 7.57033 16.3728 7.12027 16.8819C6.67021 17.391 6.01438 17.7267 5.29024 17.8189C3.97518 17.8189 2.88701 16.5883 2.88701 15.0875C2.88701 13.5867 4.02053 12.3561 5.29024 12.3561C6.01438 12.4483 6.67021 12.784 7.12027 13.2931C7.57033 13.8022 7.77989 14.4452 7.70509 15.0875ZM7.78425 2.73109C7.84426 2.43291 8.01305 2.16019 8.26473 1.95432C8.51641 1.74846 8.83719 1.62081 9.17864 1.59061H25.5941C25.9342 1.62126 26.2535 1.74932 26.5033 1.9553C26.7531 2.16128 26.9197 2.43373 26.9774 2.73109L28.7457 8.30401H6.0724L7.82964 2.73109H7.78425ZM33.235 10.0649L30.4122 8.19409L27.8841 1.10037C27.8135 0.816679 27.6427 0.559986 27.3962 0.367574C27.1496 0.175162 26.8401 0.0569099 26.5124 0.0297546H8.24923C7.92238 0.0558862 7.61348 0.174081 7.36853 0.366841C7.12358 0.559601 6.95534 0.816784 6.88861 1.10037L4.3492 8.19409L1.3224 10.1951C1.09206 10.3709 0.911577 10.5918 0.795426 10.8402C0.679275 11.0887 0.630589 11.3578 0.653441 11.6258L0.914162 18.8595C0.914162 19.6999 1.51518 20.3602 2.22939 20.3602H31.9541C32.793 20.3602 33.4958 19.5898 33.5638 18.5993L34.0515 11.906C34.0884 11.5671 34.0334 11.2252 33.8915 10.9086C33.7496 10.5921 33.5246 10.3098 33.235 10.085V10.0649Z" fill="#8E8A88"/>
</svg>
