<svg width="32" height="41" viewBox="0 0 32 41" fill="none" xmlns="http://www.w3.org/2000/svg">
<path fill-rule="evenodd" clip-rule="evenodd" d="M8.65308 7.4295C8.69509 7.08552 8.5838 6.74053 8.34254 6.46784C8.10128 6.19515 7.74915 6.01624 7.36083 5.96881C6.97459 6.01859 6.62523 6.19859 6.38632 6.47101C6.14741 6.74344 6.03741 7.08703 6.07966 7.4295V9.05017H8.65308V7.4295Z" fill="#8E8A88"/>
<path fill-rule="evenodd" clip-rule="evenodd" d="M10.4219 9.12024H11.7368C11.8291 9.10783 11.9126 9.06455 11.9696 8.99933C12.0266 8.93411 12.0528 8.85188 12.043 8.76996V8.05964H20.3188V8.76996C20.309 8.85188 20.3354 8.93411 20.3924 8.99933C20.4494 9.06455 20.5326 9.10783 20.6249 9.12024H21.9398C22.0321 9.10783 22.1156 9.06455 22.1726 8.99933C22.2296 8.93411 22.2558 8.85188 22.246 8.76996V6.21887C22.246 6.01877 22.1099 5.86859 21.9398 5.86859H20.6249C20.4548 5.86859 20.3188 6.01877 20.3188 6.21887V6.92919H12.043V6.21887C12.043 6.01877 11.9069 5.86859 11.7368 5.86859H10.4219C10.2518 5.86859 10.1158 6.01877 10.1158 6.21887V8.76996C10.106 8.85188 10.1324 8.93411 10.1894 8.99933C10.2464 9.06455 10.3296 9.10783 10.4219 9.12024Z" fill="#8E8A88"/>
<path fill-rule="evenodd" clip-rule="evenodd" d="M7.40635 4.57796L7.70111 0.575938V0.515849C7.70111 0.295738 7.49694 0.135813 7.30422 0.175833C7.21311 0.210051 7.1372 0.269474 7.08807 0.345353C7.03894 0.421231 7.0193 0.509315 7.03216 0.595968L7.32692 4.59799C7.32692 4.62801 7.39502 4.62799 7.40635 4.57796Z" fill="#8E8A88"/>
<path fill-rule="evenodd" clip-rule="evenodd" d="M5.88717 5.03815H5.95526L4.27746 1.50637C4.25803 1.46753 4.22752 1.43383 4.18917 1.40818C4.15082 1.38253 4.10589 1.36582 4.05826 1.35982C4.01062 1.35381 3.96205 1.35859 3.9171 1.37374C3.87215 1.38889 3.83211 1.41404 3.80113 1.44653C3.73972 1.52619 3.70703 1.62033 3.70703 1.71668C3.70703 1.81303 3.73972 1.90717 3.80113 1.98684L5.88717 5.03815Z" fill="#8E8A88"/>
<path fill-rule="evenodd" clip-rule="evenodd" d="M1.74962 4.60796L5.01448 6.12878C5.01448 6.12878 5.0825 6.12872 5.01448 6.05868L2.01035 3.92766C1.82896 3.84762 1.62473 3.92765 1.55671 4.16778C1.53818 4.24974 1.54666 4.33458 1.58079 4.41254C1.61492 4.4905 1.67347 4.55829 1.74962 4.60796Z" fill="#8E8A88"/>
<path fill-rule="evenodd" clip-rule="evenodd" d="M4.75333 7.50933V7.41944L1.10298 7.08917C0.997025 7.11289 0.905798 7.17232 0.848628 7.25455C0.791457 7.33678 0.772838 7.43525 0.796871 7.52936C0.802654 7.61342 0.844681 7.69253 0.914223 7.75019C0.983765 7.80785 1.07565 7.83975 1.17107 7.8396L4.75333 7.50933Z" fill="#8E8A88"/>
<path fill-rule="evenodd" clip-rule="evenodd" d="M26.179 7.4295C26.2242 7.08656 26.1157 6.7416 25.8763 6.46857C25.6368 6.19554 25.2856 6.01619 24.8981 5.96881C24.5106 6.01619 24.1595 6.19554 23.92 6.46857C23.6806 6.7416 23.5718 7.08656 23.617 7.4295V9.05017H26.179V7.4295Z" fill="#8E8A88"/>
<path fill-rule="evenodd" clip-rule="evenodd" d="M24.9332 4.57791L25.2279 0.575895C25.2408 0.489242 25.2212 0.401403 25.172 0.325525C25.1229 0.249647 25.047 0.189979 24.9559 0.155762C24.7631 0.155762 24.5816 0.275666 24.5703 0.495777V0.56588L24.8651 4.56789C24.8651 4.62792 24.9332 4.62793 24.9332 4.57791Z" fill="#8E8A88"/>
<path fill-rule="evenodd" clip-rule="evenodd" d="M26.3503 5.0382L28.5155 1.89669C28.5741 1.81608 28.6052 1.72231 28.6052 1.62653C28.6052 1.53076 28.5741 1.43698 28.5155 1.35638C28.4833 1.32405 28.4425 1.2993 28.3968 1.28432C28.351 1.26934 28.3017 1.26469 28.2534 1.27064C28.2051 1.27659 28.1593 1.29306 28.12 1.31851C28.0806 1.34397 28.0491 1.37759 28.0281 1.41647L26.3389 4.94831C26.3389 4.94831 26.2936 5.11824 26.3503 5.0382Z" fill="#8E8A88"/>
<path fill-rule="evenodd" clip-rule="evenodd" d="M27.257 6.11884L30.5105 4.59803C30.5949 4.54747 30.6597 4.47522 30.6962 4.39113C30.7327 4.30705 30.739 4.21521 30.7145 4.12781C30.6578 3.9177 30.4425 3.80766 30.2725 3.8877H30.2157L27.2229 6.01869C27.2229 6.01869 27.2116 6.11884 27.257 6.11884Z" fill="#8E8A88"/>
<path fill-rule="evenodd" clip-rule="evenodd" d="M31.168 7.11926H31.1113L27.4609 7.4495V7.53939L31.1 7.86963C31.1934 7.86728 31.2825 7.83421 31.3496 7.77681C31.4168 7.71941 31.4572 7.64177 31.4628 7.55942C31.4873 7.46667 31.4701 7.3693 31.4152 7.28731C31.3603 7.20533 31.2719 7.14509 31.168 7.11926Z" fill="#8E8A88"/>
<path fill-rule="evenodd" clip-rule="evenodd" d="M27.8344 14.6532V13.3725H28.9681L27.8344 14.6532ZM26.8934 32.3221C26.9033 32.4184 26.8713 32.5144 26.804 32.5906C26.7366 32.6668 26.6387 32.7176 26.5305 32.7325H22.7666C22.6584 32.7176 22.5609 32.6668 22.4935 32.5906C22.4261 32.5144 22.3941 32.4184 22.4041 32.3221V30.3211C22.3941 30.2248 22.4261 30.1289 22.4935 30.0527C22.5609 29.9764 22.6584 29.9258 22.7666 29.911H26.5305C26.6387 29.9258 26.7366 29.9764 26.804 30.0527C26.8713 30.1289 26.9033 30.2248 26.8934 30.3211V32.3221ZM21.5765 30.2212C21.5765 30.2812 21.5764 30.3411 21.4744 30.3411H10.8407C10.8407 30.3411 10.7386 30.2812 10.7386 30.2212V30.0309C10.7386 29.9709 10.7387 29.911 10.8407 29.911H21.4744C21.5311 29.911 21.5765 29.9709 21.5765 30.0309V30.2212ZM21.5765 31.4218C21.5781 31.4349 21.5767 31.4482 21.5724 31.4608C21.5681 31.4735 21.5608 31.4853 21.5513 31.4955C21.5418 31.5058 21.5302 31.5142 21.517 31.5204C21.5038 31.5267 21.4893 31.5304 21.4744 31.5317H10.8407C10.8258 31.5304 10.8113 31.5267 10.7981 31.5204C10.7849 31.5142 10.773 31.5058 10.7635 31.4955C10.754 31.4853 10.747 31.4735 10.7428 31.4608C10.7385 31.4482 10.737 31.4349 10.7386 31.4218V31.2317C10.7386 31.1617 10.7387 31.1115 10.8407 31.1115H21.4744C21.5311 31.1115 21.5765 31.1617 21.5765 31.2317V31.4218ZM21.5765 32.6123C21.5765 32.6823 21.5764 32.7325 21.4744 32.7325H10.8407C10.8407 32.7325 10.7386 32.7324 10.7386 32.6123V32.4323C10.7386 32.3623 10.7387 32.3121 10.8407 32.3121H21.4744C21.5311 32.3121 21.5765 32.3623 21.5765 32.4323V32.6123ZM9.85431 32.3221C9.86715 32.4189 9.83614 32.5162 9.76823 32.593C9.70032 32.6698 9.60092 32.72 9.49146 32.7325H5.73923C5.62977 32.72 5.53009 32.6698 5.46218 32.593C5.39427 32.5162 5.36354 32.4189 5.37638 32.3221V30.3211C5.36643 30.2248 5.39839 30.1289 5.46578 30.0527C5.53317 29.9764 5.63101 29.9258 5.73923 29.911H9.49146C9.59968 29.9258 9.69752 29.9764 9.76491 30.0527C9.8323 30.1289 9.86426 30.2248 9.85431 30.3211V32.3221ZM5.6598 12.3119C5.64358 12.1678 5.69121 12.0238 5.79265 11.9101C5.89409 11.7963 6.04146 11.7217 6.20394 11.7017H15.1598C15.3235 11.7192 15.4727 11.7932 15.5747 11.9076C15.6767 12.022 15.7231 12.1673 15.7039 12.3119V18.9855C15.7231 19.13 15.6767 19.2753 15.5747 19.3897C15.4727 19.5041 15.3235 19.5781 15.1598 19.5956H6.20394C6.04146 19.5757 5.89409 19.5011 5.79265 19.3873C5.69121 19.2735 5.64358 19.1295 5.6598 18.9855V12.3119ZM16.5655 12.3119C16.5462 12.1688 16.5913 12.0249 16.6909 11.9108C16.7905 11.7967 16.9367 11.7216 17.0983 11.7017H26.0544C26.2182 11.7192 26.3673 11.7932 26.4693 11.9076C26.5713 12.022 26.6178 12.1673 26.5986 12.3119V18.9855C26.6178 19.13 26.5713 19.2753 26.4693 19.3897C26.3673 19.5041 26.2182 19.5781 26.0544 19.5956H17.0983C16.9367 19.5757 16.7905 19.5007 16.6909 19.3865C16.5913 19.2724 16.5462 19.1285 16.5655 18.9855V12.3119ZM4.43535 14.6231L3.30168 13.3424H4.43535V14.6231ZM30.8612 12.3619H29.3647C29.2554 12.3719 29.1543 12.4173 29.081 12.4895C29.0076 12.5616 28.9675 12.6551 28.9681 12.752H27.8344V10.5109C27.8553 10.2625 27.7704 10.0163 27.5964 9.82012C27.4223 9.62398 27.1716 9.49221 26.8934 9.45054H19.9779C20.0038 9.23363 19.9331 9.01629 19.7808 8.84452C19.6285 8.67276 19.4065 8.55987 19.1617 8.52991H13.1081C12.8633 8.55987 12.6412 8.67276 12.4889 8.84452C12.3366 9.01629 12.2657 9.23363 12.2916 9.45054H5.37638C5.09809 9.49221 4.8474 9.62398 4.67337 9.82012C4.49935 10.0163 4.41444 10.2625 4.43535 10.5109V12.752H3.30168C3.30226 12.6551 3.2621 12.5616 3.18876 12.4895C3.11541 12.4173 3.0143 12.3719 2.90506 12.3619H1.4199C1.29844 12.3745 1.18741 12.4289 1.11102 12.5131C1.03462 12.5974 0.99889 12.7048 1.01165 12.8121V18.8152C1.00374 18.8691 1.00809 18.924 1.02439 18.9764C1.04068 19.0289 1.06861 19.078 1.10659 19.1208C1.14456 19.1636 1.19176 19.1993 1.24553 19.2258C1.2993 19.2524 1.35867 19.2692 1.4199 19.2754C2.46287 19.2754 3.31303 18.6052 3.31303 14.7032V14.223L4.4467 15.5034V32.8524C4.42578 33.1009 4.5107 33.3473 4.68472 33.5435C4.85874 33.7396 5.10944 33.8714 5.38773 33.913H26.9274C27.2057 33.8714 27.4564 33.7396 27.6304 33.5435C27.8044 33.3473 27.8891 33.1009 27.8681 32.8524V15.5034L29.0018 14.223V14.7032C29.0018 18.6052 29.8409 19.2754 30.8952 19.2754C31.0156 19.2581 31.1236 19.2008 31.1975 19.1152C31.2713 19.0295 31.305 18.9222 31.2918 18.8152V12.8121C31.2934 12.7574 31.2824 12.7031 31.2597 12.6521C31.2371 12.6012 31.2031 12.5547 31.1598 12.5156C31.1165 12.4764 31.0647 12.4455 31.0076 12.4242C30.9505 12.403 30.8891 12.392 30.8271 12.392L30.8612 12.3619Z" fill="#8E8A88"/>
<path fill-rule="evenodd" clip-rule="evenodd" d="M27.6079 34.2432H4.75328C4.57569 34.2657 4.4149 34.348 4.3049 34.4731C4.19491 34.5982 4.14429 34.7561 4.16375 34.9135V36.0042C4.14448 36.1604 4.19551 36.317 4.30573 36.4404C4.41596 36.5639 4.57662 36.6444 4.75328 36.6644H27.6419C27.8165 36.642 27.9744 36.5607 28.0823 36.4375C28.1902 36.3143 28.2396 36.1589 28.2201 36.0042V34.9135C28.2392 34.753 28.1857 34.5924 28.0709 34.4667C27.9562 34.3411 27.7896 34.2609 27.6079 34.2432Z" fill="#8E8A88"/>
<path fill-rule="evenodd" clip-rule="evenodd" d="M6.06763 38.9656C6.03217 39.266 6.1308 39.5667 6.34247 39.8039C6.55413 40.0412 6.86217 40.1962 7.20129 40.2363H9.9563C10.2954 40.1962 10.6035 40.0412 10.8151 39.8039C11.0268 39.5667 11.1254 39.266 11.09 38.9656V37.3748H6.09033L6.06763 38.9656Z" fill="#8E8A88"/>
<path fill-rule="evenodd" clip-rule="evenodd" d="M21.1685 38.9656C21.133 39.266 21.2316 39.5667 21.4433 39.8039C21.655 40.0412 21.963 40.1962 22.3021 40.2363H25.0569C25.396 40.1962 25.7043 40.0412 25.916 39.8039C26.1276 39.5667 26.226 39.266 26.1905 38.9656V37.3748H21.1912L21.1685 38.9656Z" fill="#8E8A88"/>
</svg>
