<svg width="34" height="36" viewBox="0 0 34 36" fill="none" xmlns="http://www.w3.org/2000/svg">
<path fill-rule="evenodd" clip-rule="evenodd" d="M6.50146 33.8135C6.50146 34.9941 7.19313 35.9447 8.04338 35.9447H9.87978C10.73 35.9447 11.4217 34.9941 11.4217 33.8135V31.2221H6.50146V33.8135Z" fill="#8E8A88"/>
<path fill-rule="evenodd" clip-rule="evenodd" d="M22.8147 33.8135C22.8147 34.9941 23.5061 35.9447 24.3563 35.9447H26.1589C27.0092 35.9447 27.6895 34.9941 27.6895 33.8135V31.2221H22.7693L22.8147 33.8135Z" fill="#8E8A88"/>
<path fill-rule="evenodd" clip-rule="evenodd" d="M29.56 20.887C29.5591 21.2394 29.4248 21.5815 29.1783 21.8589C28.9319 22.1362 28.5874 22.333 28.1997 22.4178C27.2474 22.5178 26.4425 21.6172 26.5446 20.5367C26.5409 20.1846 26.6719 19.8419 26.9168 19.564C27.1617 19.2861 27.506 19.0893 27.8936 19.0059C28.8572 18.8958 29.6507 19.7964 29.56 20.887ZM28.9591 28.891C28.9607 28.9292 28.9538 28.9672 28.9387 29.0029C28.9235 29.0386 28.9003 29.0713 28.8708 29.0992C28.8414 29.127 28.8061 29.1496 28.7668 29.1654C28.7275 29.1811 28.6849 29.19 28.6417 29.1912H5.52633C5.44011 29.1862 5.35916 29.1522 5.3002 29.0965C5.24125 29.0407 5.20867 28.9673 5.20887 28.891V28.0505C5.20573 27.9726 5.23707 27.8966 5.29633 27.8387C5.35558 27.7809 5.43812 27.7455 5.52633 27.7403H28.6417C28.6859 27.7416 28.7294 27.7508 28.7696 27.7672C28.8097 27.7836 28.8456 27.8069 28.8753 27.8358C28.9049 27.8648 28.9275 27.8988 28.942 27.9357C28.9564 27.9726 28.9622 28.0116 28.9591 28.0505V28.891ZM4.58529 20.4866C4.58159 20.1346 4.71293 19.7918 4.95783 19.5139C5.20274 19.236 5.54676 19.0395 5.93429 18.956C6.89791 18.846 7.69144 19.7463 7.60075 20.8369C7.60244 21.1885 7.47059 21.5303 7.226 21.8078C6.98141 22.0854 6.6383 22.2826 6.25175 22.3677C5.28814 22.4677 4.4946 21.5672 4.58529 20.4866ZM6.90937 5.76912C6.89544 5.45241 7.01715 5.14277 7.25035 4.90173C7.48355 4.66069 7.81097 4.5059 8.16758 4.46841H15.8088C15.8549 4.47343 15.8969 4.49392 15.9264 4.52556C15.9559 4.55721 15.9706 4.59776 15.9674 4.63866V13.5631C11.7161 13.6732 8.42858 14.4336 8.42858 15.3441H6.27445C6.22835 15.3391 6.18635 15.3186 6.15682 15.2869C6.12729 15.2553 6.1126 15.215 6.11586 15.1741L6.90937 5.76912ZM16.7949 23.1181C16.7949 23.2782 16.6816 23.4183 16.5342 23.4183H9.25614C9.17087 23.4183 9.08886 23.389 9.02752 23.3367C8.96618 23.2844 8.93027 23.2133 8.92733 23.1381C8.92879 23.1013 8.93852 23.0651 8.95584 23.0316C8.97316 22.9981 8.99754 22.968 9.02807 22.9429C9.05861 22.9178 9.09471 22.8981 9.1338 22.8853C9.1729 22.8724 9.21445 22.8666 9.25614 22.8679H16.5342C16.573 22.8717 16.6104 22.8821 16.6446 22.8987C16.6788 22.9154 16.7089 22.9379 16.7332 22.9649C16.7575 22.9919 16.7755 23.0229 16.7861 23.056C16.7966 23.0892 16.7996 23.1239 16.7949 23.1581V23.1181ZM16.5342 21.3972H9.25614C9.21445 21.3986 9.1729 21.3925 9.1338 21.3796C9.09471 21.3668 9.05861 21.3473 9.02807 21.3222C8.99754 21.2971 8.97316 21.2671 8.95584 21.2336C8.93852 21.2001 8.92879 21.1639 8.92733 21.1271C8.92879 21.0903 8.93852 21.0541 8.95584 21.0206C8.97316 20.9871 8.99754 20.957 9.02807 20.9319C9.05861 20.9068 9.09471 20.8871 9.1338 20.8743C9.1729 20.8614 9.21445 20.8556 9.25614 20.8569H16.5342C16.573 20.8606 16.6104 20.871 16.6446 20.8877C16.6788 20.9043 16.7089 20.9269 16.7332 20.9539C16.7575 20.9809 16.7755 21.0118 16.7861 21.045C16.7966 21.0782 16.7996 21.1129 16.7949 21.1471C16.7996 21.1813 16.7966 21.216 16.7861 21.2492C16.7755 21.2824 16.7575 21.3133 16.7332 21.3403C16.7089 21.3673 16.6788 21.3896 16.6446 21.4063C16.6104 21.4229 16.573 21.4336 16.5342 21.4373V21.3972ZM16.7949 19.096C16.7996 19.1302 16.7966 19.1649 16.7861 19.1981C16.7755 19.2313 16.7575 19.2622 16.7332 19.2892C16.7089 19.3162 16.6788 19.3385 16.6446 19.3552C16.6104 19.3718 16.573 19.3825 16.5342 19.3862H9.25614C9.21445 19.3875 9.1729 19.3815 9.1338 19.3686C9.09471 19.3557 9.05861 19.3363 9.02807 19.3112C8.99754 19.2861 8.97316 19.256 8.95584 19.2225C8.93852 19.189 8.92879 19.1528 8.92733 19.116C8.92879 19.0792 8.93852 19.043 8.95584 19.0095C8.97316 18.976 8.99754 18.9459 9.02807 18.9209C9.05861 18.8958 9.09471 18.8761 9.1338 18.8632C9.1729 18.8504 9.21445 18.8445 9.25614 18.8459H16.5342C16.573 18.8496 16.6104 18.86 16.6446 18.8766C16.6788 18.8933 16.7089 18.9159 16.7332 18.9428C16.7575 18.9698 16.7755 19.0008 16.7861 19.034C16.7966 19.0671 16.7996 19.1019 16.7949 19.1361V19.096ZM17.6338 22.8279H24.9232C25.0055 22.8278 25.0846 22.8559 25.1438 22.9063C25.203 22.9567 25.2377 23.0255 25.2407 23.098C25.2379 23.1716 25.2036 23.2415 25.1446 23.2935C25.0857 23.3455 25.0065 23.3757 24.9232 23.3782H17.6338C17.4864 23.3782 17.3731 23.2381 17.3731 23.078C17.3684 23.0438 17.3714 23.0091 17.382 22.9759C17.3925 22.9427 17.4106 22.9118 17.4348 22.8848C17.4591 22.8578 17.4892 22.8355 17.5234 22.8188C17.5576 22.8022 17.595 22.7915 17.6338 22.7878V22.8279ZM17.6338 20.8269H24.9232C25.0055 20.8268 25.0846 20.8549 25.1438 20.9053C25.203 20.9557 25.2377 21.0245 25.2407 21.097C25.2377 21.1696 25.203 21.2384 25.1438 21.2888C25.0846 21.3392 25.0055 21.3672 24.9232 21.3672H17.6338C17.595 21.3635 17.5576 21.353 17.5234 21.3364C17.4892 21.3198 17.4591 21.2972 17.4348 21.2702C17.4106 21.2432 17.3925 21.2123 17.382 21.1791C17.3714 21.1459 17.3684 21.1112 17.3731 21.077C17.3684 21.0428 17.3714 21.0081 17.382 20.9749C17.3925 20.9417 17.4106 20.9108 17.4348 20.8838C17.4591 20.8568 17.4892 20.8345 17.5234 20.8178C17.5576 20.8012 17.595 20.7905 17.6338 20.7868V20.8269ZM17.6338 18.8258H24.9232C25.0055 18.8258 25.0846 18.8539 25.1438 18.9043C25.203 18.9546 25.2377 19.0234 25.2407 19.096C25.2377 19.1686 25.203 19.2374 25.1438 19.2877C25.0846 19.3381 25.0055 19.3662 24.9232 19.3662H17.6338C17.595 19.3624 17.5576 19.352 17.5234 19.3354C17.4892 19.3187 17.4591 19.2962 17.4348 19.2692C17.4106 19.2422 17.3925 19.2112 17.382 19.1781C17.3714 19.1449 17.3684 19.1102 17.3731 19.076C17.3684 19.0418 17.3714 19.007 17.382 18.9739C17.3925 18.9407 17.4106 18.9097 17.4348 18.8828C17.4591 18.8558 17.4892 18.8335 17.5234 18.8168C17.5576 18.8002 17.595 18.7895 17.6338 18.7858V18.8258ZM18.212 4.65869C18.212 4.56864 18.2802 4.48843 18.3595 4.48843H26.159C26.5185 4.53045 26.8474 4.68895 27.0821 4.933C27.3167 5.17704 27.4404 5.48929 27.4289 5.80918L28.0635 15.1941C28.0668 15.235 28.0521 15.2753 28.0225 15.307C27.993 15.3386 27.951 15.3591 27.9049 15.3641H25.7848C25.7848 14.4536 22.4973 13.6932 18.246 13.5832V4.65869H18.212ZM33.7999 6.02926C33.8188 5.83435 33.7496 5.64087 33.6073 5.4909C33.465 5.34093 33.2612 5.2466 33.0405 5.2288H31.3967C31.178 5.24906 30.977 5.34438 30.8371 5.49408C30.6971 5.64377 30.6293 5.83592 30.6483 6.02926V11.502C30.6293 11.6954 30.6971 11.8878 30.8371 12.0375C30.977 12.1872 31.178 12.2822 31.3967 12.3025H32.4169L30.4103 14.5637L28.9591 3.26784C28.9591 1.95717 27.066 0.426544 23.1209 0.426544H11.0358C6.68251 0.426544 5.20887 1.8873 5.20887 3.18797L3.75774 14.5336L1.78517 12.3025H2.79401C3.01475 12.2847 3.21853 12.1906 3.36085 12.0406C3.50316 11.8907 3.57265 11.6969 3.55376 11.502V6.07934C3.57265 5.88442 3.50316 5.69095 3.36085 5.54097C3.21853 5.391 3.01475 5.29667 2.79401 5.27888H1.21834C0.997597 5.29667 0.793822 5.391 0.651502 5.54097C0.509183 5.69095 0.439976 5.88442 0.458867 6.07934V11.5521C0.457687 11.721 0.508502 11.887 0.606111 12.0323L0.696893 12.1325L3.81448 15.6443V27.8505C3.81448 29.1611 4.72146 30.2216 5.84379 30.2216H28.4263C29.56 30.2216 30.4557 29.1611 30.4557 27.8505V15.6743L33.5959 12.1325L33.6864 12.0323C33.7841 11.887 33.8351 11.721 33.834 11.5521L33.7999 6.02926Z" fill="#8E8A88"/>
</svg>
