<svg width="34" height="31" viewBox="0 0 34 31" fill="none" xmlns="http://www.w3.org/2000/svg">
<path fill-rule="evenodd" clip-rule="evenodd" d="M29.6451 15.906L28.7154 16.056C28.7712 16.173 28.7983 16.2993 28.7949 16.4263C28.8139 16.6026 28.753 16.7784 28.6255 16.9153C28.498 17.0521 28.3143 17.1389 28.1146 17.1566C27.9222 17.1271 27.7497 17.0341 27.6319 16.8967C27.514 16.7593 27.4598 16.5877 27.4799 16.4163C27.4799 16.3562 27.4799 16.306 27.4799 16.256L26.2668 16.4661C26.2668 17.6767 27.2192 18.6372 28.3188 18.5171C28.7674 18.4231 29.1694 18.2039 29.4655 17.8921C29.7616 17.5803 29.936 17.1925 29.9626 16.7863C30.008 16.5143 30.008 16.2378 29.9626 15.9658C29.8697 15.9101 29.7558 15.8887 29.6451 15.906Z" fill="#8E8A88"/>
<path fill-rule="evenodd" clip-rule="evenodd" d="M6.60829 16.4263C6.6284 16.5977 6.57418 16.7693 6.45634 16.9067C6.33851 17.0441 6.16605 17.1371 5.97365 17.1666C5.77627 17.1441 5.59603 17.0559 5.46965 16.9202C5.34328 16.7845 5.28017 16.6115 5.29335 16.4363C5.29572 16.3098 5.32263 16.1845 5.37278 16.066L4.4431 15.916H4.37502C4.2863 15.9194 4.20023 15.9434 4.12564 15.9859C4.08019 16.2579 4.08019 16.5343 4.12564 16.8063C4.15465 17.2134 4.33133 17.6014 4.62937 17.9131C4.92741 18.2247 5.33097 18.4435 5.78074 18.5372C6.9144 18.6572 7.81006 17.6967 7.83273 16.4861L6.60829 16.2761C6.61355 16.326 6.61355 16.3764 6.60829 16.4263Z" fill="#8E8A88"/>
<path fill-rule="evenodd" clip-rule="evenodd" d="M5.28176 27.3017L1.59733 24.9904C1.36377 24.8463 1.15717 24.6707 0.985107 24.4702V28.9227C0.985107 29.8531 2.34542 30.1232 3.16166 30.1232H4.76031C5.00604 30.0909 5.2282 29.9761 5.38029 29.8028C5.53238 29.6294 5.60262 29.4109 5.57652 29.1928V28.1923H7.11816C7.3043 28.1812 7.48471 28.1296 7.64292 28.0423C7.80113 27.9551 7.93229 27.8348 8.02515 27.692H6.6421C6.1538 27.6894 5.67851 27.5529 5.28176 27.3017Z" fill="#8E8A88"/>
<path fill-rule="evenodd" clip-rule="evenodd" d="M28.7486 27.3017C28.3593 27.5594 27.8864 27.6999 27.3996 27.702H26.0166C26.1084 27.8435 26.238 27.9629 26.3941 28.0501C26.5502 28.1373 26.7281 28.1896 26.9122 28.2023H28.5106V29.2028C28.4845 29.4209 28.5548 29.6394 28.7069 29.8128C28.8589 29.9861 29.0811 30.1009 29.3268 30.1332H30.9141C31.7304 30.1332 33.0907 29.8631 33.0907 28.9327V24.4802C32.9226 24.6804 32.7198 24.856 32.4898 25.0005L28.7486 27.3017Z" fill="#8E8A88"/>
<path fill-rule="evenodd" clip-rule="evenodd" d="M30.7785 18.7874L25.4957 19.1677C24.8722 19.2177 24.4298 18.4873 24.6906 17.8469L25.0988 16.8464C25.1435 16.7171 25.2255 16.6001 25.3368 16.5071C25.4481 16.4142 25.5849 16.3484 25.7337 16.3161L30.2684 15.5757C30.4827 15.5588 30.696 15.6162 30.8632 15.7357C31.0304 15.8553 31.1383 16.0274 31.164 16.216L31.5379 17.5668C31.5847 17.6882 31.6025 17.8169 31.5902 17.9446C31.578 18.0724 31.536 18.1964 31.4668 18.3091C31.3976 18.4218 31.3026 18.5207 31.1881 18.5995C31.0736 18.6784 30.9419 18.7355 30.8012 18.7673L30.7785 18.7874ZM27.6382 25.8611H21.5843V25.2707C21.6004 25.1357 21.5562 25.0006 21.4609 24.894C21.3656 24.7875 21.2268 24.7181 21.0742 24.7005H17.8661V24.2003C17.8661 24.0862 17.9173 23.9766 18.0087 23.8959C18.1001 23.8153 18.2243 23.7699 18.3535 23.7699L27.9103 23.5398C28.0253 23.538 28.1374 23.5722 28.2266 23.6363C28.3158 23.7004 28.3763 23.7903 28.3977 23.8901L28.6019 24.8105C28.6323 24.9372 28.6301 25.0683 28.5958 25.1942C28.5615 25.3201 28.4958 25.4377 28.4035 25.5384C28.3112 25.639 28.1946 25.7202 28.0622 25.7761C27.9298 25.8319 27.7849 25.8609 27.6382 25.8611ZM20.8362 27.0616V25.7208C20.8461 25.6219 20.813 25.5236 20.7435 25.4456C20.674 25.3675 20.5732 25.3156 20.462 25.3007H13.4901C13.3788 25.3156 13.2781 25.3675 13.2086 25.4456C13.1391 25.5236 13.1059 25.6219 13.1159 25.7208V27.0616C13.1059 27.1605 13.1391 27.2591 13.2086 27.3372C13.2781 27.4152 13.3788 27.4669 13.4901 27.4818H20.462C20.5732 27.4669 20.674 27.4152 20.7435 27.3372C20.813 27.2591 20.8461 27.1605 20.8362 27.0616ZM12.4131 25.2707V25.8611H6.35926C6.21224 25.8605 6.06717 25.8313 5.93442 25.7756C5.80166 25.7198 5.68465 25.6388 5.59149 25.5384C5.49833 25.438 5.43133 25.3208 5.39554 25.1949C5.35974 25.0691 5.35606 24.9378 5.38447 24.8105L5.5998 23.8901C5.62083 23.792 5.67983 23.7033 5.76669 23.6395C5.85355 23.5756 5.96278 23.5404 6.07585 23.5398L15.6326 23.7699C15.7619 23.7699 15.886 23.8153 15.9774 23.8959C16.0689 23.9766 16.1202 24.0862 16.1202 24.2003V24.7005H12.9005C12.7501 24.7204 12.614 24.7909 12.5211 24.8972C12.4281 25.0035 12.3855 25.1372 12.4018 25.2707H12.4131ZM2.48221 17.5868L2.84507 16.236C2.87344 16.0466 2.98354 15.8744 3.15256 15.755C3.32158 15.6357 3.5362 15.5786 3.75178 15.5958L8.28644 16.3361C8.43365 16.369 8.56873 16.4351 8.67808 16.5281C8.78742 16.6211 8.86732 16.7378 8.91001 16.8665L9.31825 17.867C9.579 18.5073 9.14826 19.2377 8.52474 19.1977L3.23033 18.8074C3.09062 18.7745 2.96 18.7167 2.84673 18.6374C2.73345 18.558 2.63994 18.4588 2.57189 18.3462C2.50384 18.2336 2.46276 18.11 2.45122 17.9827C2.43967 17.8555 2.45804 17.7276 2.50491 17.6068L2.48221 17.5868ZM23.3189 17.4766L22.5707 19.8379C22.5464 19.937 22.491 20.028 22.4108 20.1005C22.3306 20.1731 22.229 20.2241 22.1174 20.2481L20.8249 20.4484C18.278 20.8385 15.674 20.8385 13.1272 20.4484L11.8236 20.2481C11.7123 20.2259 11.6108 20.1752 11.5322 20.1022C11.4535 20.0292 11.4009 19.9372 11.3813 19.8379L10.6219 17.4766C10.4972 17.0664 10.7692 16.6364 11.1433 16.6364H22.8428C23.2283 16.6364 23.5003 17.0664 23.3643 17.4766H23.3189ZM5.62249 10.2129L7.94656 6.21084C8.12194 5.74252 8.45206 5.33139 8.89451 5.03006C9.33697 4.72872 9.87145 4.55103 10.4292 4.52003H23.5231C24.0805 4.55235 24.6143 4.73037 25.0564 5.03152C25.4986 5.33267 25.8291 5.74323 26.0058 6.21084L28.3299 10.2129C28.4546 10.473 28.3298 10.7933 28.0124 10.7933H5.9286C5.66786 10.7933 5.49779 10.473 5.62249 10.2129ZM30.4383 12.1541L30.5518 11.9638C30.6031 11.8434 30.7041 11.7448 30.8344 11.6873C30.9647 11.6298 31.1146 11.6178 31.2545 11.6538H31.4134H32.6262C32.8173 11.6494 32.9997 11.5813 33.1366 11.4635L33.3179 11.3236C33.4364 11.2145 33.5294 11.086 33.5916 10.9452C33.6538 10.8044 33.6843 10.6542 33.6807 10.5031C33.6833 10.2287 33.5747 9.96262 33.3746 9.75269C33.2356 9.60412 33.0631 9.48295 32.8678 9.3968C32.6726 9.31064 32.459 9.26141 32.2409 9.25244H31.7195C31.4293 9.26762 31.1504 9.35709 30.9169 9.50989C30.6833 9.6627 30.5051 9.87233 30.4043 10.113C30.3642 10.2082 30.2957 10.2919 30.2058 10.3553C30.116 10.4187 30.0082 10.4594 29.8942 10.473H29.6448L27.6042 6.66126C27.3156 5.77691 26.7257 4.99218 25.9144 4.41402C25.1032 3.83585 24.1098 3.4923 23.0695 3.42963H10.9507C9.91038 3.4972 8.91848 3.84386 8.10792 4.4233C7.29736 5.00274 6.70692 5.78722 6.416 6.67128L4.3867 10.483H4.12597C4.01397 10.4678 3.90869 10.4265 3.82097 10.3631C3.73325 10.2998 3.66637 10.2169 3.62723 10.123C3.524 9.88373 3.34519 9.67556 3.11215 9.52308C2.87911 9.37061 2.60141 9.28009 2.312 9.26245H1.79056C1.57307 9.27379 1.36047 9.324 1.1656 9.40999C0.970736 9.49598 0.797664 9.61596 0.656891 9.76271C0.459954 9.9736 0.355346 10.2399 0.362126 10.5131C0.35859 10.6642 0.389003 10.8144 0.451248 10.9552C0.513493 11.096 0.606428 11.2246 0.724977 11.3336L0.894916 11.4735C1.03761 11.5896 1.22273 11.6572 1.41664 11.6638H2.62946H2.77698C2.91686 11.6279 3.0668 11.6398 3.19712 11.6973C3.32744 11.7548 3.42839 11.8535 3.47971 11.9738L3.59318 12.1641L1.01974 15.4956C0.739317 15.8653 0.592882 16.3015 0.600152 16.7463V22.4594C0.582843 22.9137 0.685717 23.3652 0.900175 23.7784C1.11463 24.1917 1.4349 24.5553 1.83595 24.8405L5.52036 27.1518C5.85088 27.3632 6.24597 27.4816 6.65403 27.4918H12.4699C12.4536 27.6253 12.4962 27.7592 12.5892 27.8655C12.6821 27.9718 12.8182 28.0423 12.9686 28.0621H21.0856C21.2381 28.0446 21.3769 27.9752 21.4722 27.8687C21.5675 27.7621 21.6117 27.6268 21.5957 27.4918H27.3775C27.7853 27.4804 28.18 27.3621 28.5111 27.1518L32.1956 24.8305C32.5977 24.5484 32.9192 24.1869 33.1338 23.775C33.3485 23.3631 33.4504 22.9125 33.4313 22.4594V16.7463C33.4386 16.3015 33.2922 15.8653 33.0118 15.4956L30.4383 12.1541Z" fill="#8E8A88"/>
<path fill-rule="evenodd" clip-rule="evenodd" d="M9.1591 1.67872C9.14962 1.53595 9.20358 1.39549 9.30939 1.28717C9.4152 1.17885 9.56453 1.11111 9.72593 1.09835H14.9069C14.8011 1.3305 14.7473 1.57849 14.7483 1.8287V2.57909H9.74863C9.58723 2.56633 9.43789 2.49859 9.33208 2.39027C9.22628 2.28195 9.17231 2.14148 9.1818 1.99871V1.67872H9.1591ZM24.305 1.09835C24.3855 1.10341 24.464 1.12234 24.5361 1.15429C24.6082 1.18623 24.6725 1.23055 24.7251 1.28448C24.7778 1.33841 24.8179 1.40101 24.843 1.46866C24.8682 1.5363 24.878 1.60773 24.8718 1.67872V1.99871C24.8812 2.14308 24.8256 2.28509 24.7174 2.39369C24.6092 2.50228 24.4571 2.5688 24.2936 2.57909H19.3054V1.8287C19.308 1.57735 19.2502 1.3284 19.1354 1.09835H24.305ZM9.38578 3.00924H14.7256V3.13943C14.7224 3.16179 14.7242 3.18441 14.7311 3.20611C14.738 3.22782 14.7496 3.24803 14.7654 3.26571C14.7813 3.2834 14.8009 3.29827 14.8233 3.30919C14.8456 3.32012 14.8701 3.32699 14.8955 3.32947H19.1468C19.1968 3.32211 19.2421 3.29866 19.2735 3.26352C19.305 3.22837 19.3202 3.1841 19.3167 3.13943V3.00924H24.6565C24.8664 2.98429 25.0565 2.88728 25.186 2.73932C25.3154 2.59136 25.3736 2.40434 25.3479 2.21879V1.4584C25.3676 1.2723 25.3056 1.08686 25.1749 0.939821C25.0441 0.792787 24.8547 0.695553 24.6452 0.668198H18.8406C18.7301 0.54953 18.5919 0.453157 18.4355 0.385828C18.279 0.318499 18.1077 0.281654 17.9337 0.277863H16.0859C15.9119 0.281654 15.7406 0.318499 15.5841 0.385828C15.4276 0.453157 15.2895 0.54953 15.1789 0.668198H9.37471C9.1652 0.695553 8.97544 0.792787 8.84469 0.939821C8.71393 1.08686 8.65202 1.2723 8.6717 1.4584V2.21879C8.64933 2.40691 8.71161 2.59535 8.84524 2.74323C8.97887 2.89112 9.17299 2.98663 9.38578 3.00924Z" fill="#8E8A88"/>
</svg>
