<svg width="22" height="39" viewBox="0 0 22 39" fill="none" xmlns="http://www.w3.org/2000/svg">
<path fill-rule="evenodd" clip-rule="evenodd" d="M11.4849 15.8538H10.4194C8.95693 15.8538 7.77783 16.484 7.77783 17.2444V36.7244C7.77783 37.4948 8.91159 38.1252 10.4194 38.1252H11.4849C12.9474 38.1252 14.1378 37.4948 14.1378 36.7244V17.2444C14.1378 16.484 12.9474 15.8538 11.4849 15.8538Z" fill="#8E8A88"/>
<path fill-rule="evenodd" clip-rule="evenodd" d="M10.9068 11.1615C12.5846 11.1615 13.9452 9.63054 13.9452 7.72957C13.9452 5.8286 12.5846 4.28787 10.9068 4.28787C9.22897 4.28787 7.86865 5.8286 7.86865 7.72957C7.86865 9.63054 9.22897 11.1615 10.9068 11.1615Z" fill="#8E8A88"/>
<path fill-rule="evenodd" clip-rule="evenodd" d="M6.33882 8.69028H5.20515C5.09176 8.70519 4.98959 8.75828 4.91979 8.83855C4.85 8.91881 4.81821 9.0199 4.83122 9.12043V19.946C4.82546 20.0343 4.85044 20.1219 4.90319 20.1971C4.95593 20.2723 5.03388 20.3313 5.12599 20.3662V28.7804C5.10378 28.9142 5.11253 29.0507 5.15173 29.1814C5.19094 29.3122 5.25975 29.4346 5.35405 29.5413C5.44836 29.6479 5.56609 29.7363 5.7003 29.8016C5.83451 29.8669 5.98234 29.9076 6.13484 29.9211C6.2353 29.9086 6.32626 29.8616 6.38781 29.7904C6.44935 29.7192 6.47656 29.6296 6.46364 29.5408V20.3662C6.55576 20.3313 6.63343 20.2723 6.68617 20.1971C6.73891 20.1219 6.76417 20.0343 6.75841 19.946V9.08037C6.75856 8.98026 6.71498 8.88382 6.63691 8.81119C6.55883 8.73856 6.45211 8.69541 6.33882 8.69028Z" fill="#8E8A88"/>
<path fill-rule="evenodd" clip-rule="evenodd" d="M16.655 8.69028H15.5213C15.408 8.70519 15.3055 8.75828 15.2357 8.83855C15.1659 8.91881 15.1341 9.0199 15.1471 9.12043V19.946C15.1414 20.0343 15.1666 20.1219 15.2194 20.1971C15.2721 20.2723 15.3498 20.3313 15.4419 20.3662V29.5408C15.429 29.6296 15.4562 29.7192 15.5177 29.7904C15.5793 29.8616 15.6703 29.9086 15.7707 29.9211C15.9232 29.9076 16.071 29.8669 16.2053 29.8016C16.3395 29.7363 16.4572 29.6479 16.5515 29.5413C16.6458 29.4346 16.7146 29.3122 16.7538 29.1814C16.793 29.0507 16.802 28.9142 16.7798 28.7804V20.3662C16.8719 20.3313 16.9496 20.2723 17.0024 20.1971C17.0551 20.1219 17.0801 20.0343 17.0743 19.946V9.08037C17.0745 8.98026 17.0312 8.88382 16.9531 8.81119C16.875 8.73856 16.7683 8.69541 16.655 8.69028Z" fill="#8E8A88"/>
<path fill-rule="evenodd" clip-rule="evenodd" d="M2.24583 3.99774L5.2613 4.12793C5.40166 4.11524 5.53099 4.05483 5.62194 3.95963C5.71289 3.86443 5.75826 3.74189 5.7487 3.61766C5.82261 2.95619 5.64589 2.29165 5.2458 1.72851C4.84571 1.16537 4.24495 0.735391 3.53809 0.505962L2.59733 0.305908C1.61104 0.105806 0.703864 0.93624 0.658518 2.06682C0.59478 2.50652 0.723676 2.95106 1.0186 3.30988C1.31353 3.6687 1.75244 3.9147 2.24583 3.99774Z" fill="#8E8A88"/>
<path fill-rule="evenodd" clip-rule="evenodd" d="M10.9075 12.0219L9.58119 12.7323H7.27954V14.5332H9.58119L10.8842 13.8428L12.1995 14.5332H14.5465V12.7323H12.2449L10.9075 12.0219Z" fill="#8E8A88"/>
<path fill-rule="evenodd" clip-rule="evenodd" d="M7.52886 5.78868C7.46084 5.40848 7.13219 5.15831 6.79209 5.23835L1.38449 6.52904C1.20278 6.59393 1.05423 6.71506 0.966563 6.86979C0.878899 7.02453 0.858237 7.20233 0.908441 7.36956C0.918435 7.5119 0.985304 7.64648 1.09748 7.74915C1.20965 7.85181 1.35957 7.91591 1.52039 7.9299H1.64521L7.05281 6.64922C7.23478 6.57879 7.38243 6.45359 7.46963 6.29601C7.55683 6.13844 7.57781 5.95863 7.52886 5.78868Z" fill="#8E8A88"/>
<path fill-rule="evenodd" clip-rule="evenodd" d="M16.0649 3.61766C16.0554 3.74189 16.1008 3.86443 16.1917 3.95963C16.2826 4.05483 16.412 4.11524 16.5523 4.12793L19.5681 3.99774C20.0615 3.9147 20.5004 3.6687 20.7953 3.30988C21.0902 2.95106 21.2188 2.50651 21.1551 2.06681C21.1551 0.936228 20.2029 0.0657705 19.2166 0.305894L18.2755 0.505948C17.5581 0.726583 16.945 1.15282 16.5341 1.71678C16.1231 2.28073 15.938 2.95002 16.0082 3.61766H16.0649Z" fill="#8E8A88"/>
<path fill-rule="evenodd" clip-rule="evenodd" d="M20.4297 6.52905L15.0221 5.23835C14.682 5.15831 14.3531 5.40848 14.285 5.78868C14.242 5.95575 14.266 6.13079 14.3528 6.28405C14.4397 6.43731 14.5841 6.55937 14.7614 6.6292L20.1689 7.90988H20.2935C20.4543 7.89589 20.6042 7.83179 20.7164 7.72913C20.8286 7.62646 20.8957 7.49188 20.9057 7.34954C20.9498 7.18515 20.9263 7.01234 20.839 6.86198C20.7517 6.71162 20.6066 6.5935 20.4297 6.52905Z" fill="#8E8A88"/>
</svg>
