<svg width="33" height="24" viewBox="0 0 33 24" fill="none" xmlns="http://www.w3.org/2000/svg">
<path fill-rule="evenodd" clip-rule="evenodd" d="M16.7263 14.7073C16.607 14.6654 16.4804 14.6417 16.3521 14.6372C16.2273 14.6403 16.1044 14.6641 15.9895 14.7073L13.1667 10.4551H19.5491L16.7263 14.7073ZM31.1805 0.910217H1.53528C1.26765 0.94269 1.02428 1.06455 0.855525 1.25072C0.686767 1.43689 0.605442 1.67317 0.628293 1.91073V9.41457C0.605442 9.65213 0.686767 9.88841 0.855525 10.0746C1.02428 10.2607 1.26765 10.3826 1.53528 10.4151H7.33951C7.33405 10.455 7.33405 10.4951 7.33951 10.535V10.8853C7.33475 10.9169 7.33727 10.9488 7.3467 10.9796C7.35614 11.0103 7.37243 11.0392 7.39459 11.0643C7.41674 11.0895 7.44424 11.1105 7.47568 11.1261C7.50712 11.1418 7.54169 11.1517 7.57753 11.1555H11.5908C11.6266 11.1517 11.6614 11.1418 11.6929 11.1261C11.7243 11.1105 11.7518 11.0895 11.774 11.0643C11.7961 11.0392 11.8124 11.0103 11.8219 10.9796C11.8313 10.9488 11.8335 10.9169 11.8288 10.8853V10.535C11.8342 10.4951 11.8342 10.455 11.8288 10.4151H12.237L15.434 15.1375C15.2581 15.3936 15.1678 15.6885 15.1733 15.988C15.1694 16.1574 15.196 16.3263 15.2525 16.4883H11.8515V16.288C11.8611 16.2125 11.8369 16.1368 11.7839 16.0769C11.731 16.0171 11.6534 15.978 11.5681 15.968H7.63427C7.4869 15.968 7.3622 16.1079 7.3622 16.288V16.4883H6.85211V11.5556C6.05178 11.1851 5.15963 10.996 4.25597 11.0052C3.35231 10.996 2.46016 11.1851 1.65983 11.5556V22.9115C2.45825 23.2864 3.35171 23.4758 4.25597 23.4618C5.16023 23.4758 6.05369 23.2864 6.85211 22.9115V17.979H25.3082V22.9115C26.1067 23.2864 27.0001 23.4758 27.9044 23.4618C28.8086 23.4758 29.7021 23.2864 30.5005 22.9115V11.5556C29.7002 11.1851 28.808 10.996 27.9044 11.0052C27.0007 10.996 26.1086 11.1851 25.3082 11.5556V16.0979C25.2866 16.0607 25.2542 16.0291 25.2144 16.0063C25.1746 15.9835 25.1289 15.9703 25.0816 15.968H21.1478C21.0624 15.978 20.9849 16.0171 20.9319 16.0769C20.8789 16.1368 20.8547 16.2125 20.8643 16.288V16.4883H17.4633C17.5237 16.3269 17.5541 16.158 17.5539 15.988C17.5542 15.6891 17.4642 15.3954 17.2931 15.1375L20.4901 10.4151H20.8868C20.8813 10.455 20.8813 10.4951 20.8868 10.535V10.8853C20.8804 10.9501 20.903 11.0146 20.9496 11.0651C20.9962 11.1155 21.0632 11.1479 21.1364 11.1555H25.138C25.2112 11.1479 25.2783 11.1155 25.3248 11.0651C25.3714 11.0146 25.3941 10.9501 25.3877 10.8853V10.535C25.3979 10.4955 25.3979 10.4546 25.3877 10.4151H31.2032C31.47 10.3826 31.7122 10.2603 31.8791 10.0738C32.046 9.88736 32.1248 9.65112 32.0989 9.41457V1.91073C32.1244 1.67112 32.0425 1.43212 31.8708 1.24511C31.6992 1.05809 31.4514 0.937936 31.1805 0.910217Z" fill="#8E8A88"/>
<path fill-rule="evenodd" clip-rule="evenodd" d="M7.61158 12.7862C7.57153 12.8797 7.57153 12.9829 7.61158 13.0764C7.63943 13.1626 7.6993 13.238 7.78152 13.2906C7.86374 13.3432 7.96373 13.37 8.06521 13.3666H8.18976L11.2168 12.6062C11.2836 12.5865 11.345 12.5551 11.3976 12.5139C11.4502 12.4726 11.4929 12.4223 11.523 12.3661C11.5628 12.2691 11.5628 12.1629 11.523 12.0659C11.4839 11.9642 11.4021 11.8797 11.2946 11.8295C11.1871 11.7792 11.062 11.7671 10.9448 11.7957L7.91769 12.5561C7.85006 12.5711 7.78728 12.5998 7.73419 12.6397C7.6811 12.6796 7.63912 12.7297 7.61158 12.7862Z" fill="#8E8A88"/>
<path fill-rule="evenodd" clip-rule="evenodd" d="M7.60069 14.1268C7.63025 14.2121 7.69074 14.2865 7.77257 14.3389C7.85439 14.3912 7.95327 14.4188 8.05432 14.417H8.17887L11.2059 13.6566C11.2744 13.6369 11.3372 13.6043 11.39 13.5611C11.4428 13.5179 11.4845 13.4652 11.512 13.4065C11.5521 13.313 11.5521 13.2098 11.512 13.1163C11.4953 13.0645 11.4667 13.016 11.4282 12.9741C11.3897 12.9322 11.3421 12.8978 11.2881 12.8725C11.2341 12.8473 11.1749 12.8319 11.114 12.8273C11.0532 12.8228 10.9919 12.8292 10.9339 12.8461L7.9068 13.5965C7.83835 13.6163 7.77558 13.6489 7.72275 13.692C7.66991 13.7352 7.62823 13.7879 7.60069 13.8467C7.56344 13.9372 7.56344 14.0364 7.60069 14.1268Z" fill="#8E8A88"/>
<path fill-rule="evenodd" clip-rule="evenodd" d="M11.5228 14.197C11.5059 14.145 11.4772 14.0963 11.4389 14.0541C11.4006 14.0118 11.3534 13.9768 11.2997 13.9508C11.246 13.9247 11.1868 13.9082 11.1259 13.9024C11.0649 13.8966 11.0034 13.9015 10.9446 13.9168L7.91754 14.6772C7.84983 14.6953 7.78744 14.7261 7.73459 14.7676C7.68173 14.8091 7.63965 14.8601 7.61142 14.9173C7.57158 15.0143 7.57158 15.1206 7.61142 15.2175C7.64099 15.3028 7.70147 15.3772 7.7833 15.4296C7.86513 15.4819 7.964 15.5092 8.06506 15.5075H8.1896L11.2167 14.7473C11.2855 14.7313 11.3489 14.7011 11.4021 14.6594C11.4553 14.6177 11.4967 14.5654 11.5228 14.507C11.5688 14.4076 11.5688 14.2964 11.5228 14.197Z" fill="#8E8A88"/>
<path fill-rule="evenodd" clip-rule="evenodd" d="M8.28006 12.206L9.98056 11.7857C10.0295 11.7719 10.0712 11.7433 10.0982 11.7048C10.1252 11.6663 10.1356 11.6204 10.1278 11.5756C10.1251 11.5286 10.1029 11.4843 10.0653 11.451C10.0276 11.4178 9.97706 11.398 9.92382 11.3956H7.9853C7.89289 11.4164 7.81027 11.4623 7.74921 11.527C7.68815 11.5916 7.65171 11.6716 7.64514 11.7556C7.63047 11.8576 7.65878 11.9609 7.72457 12.0458C7.76857 12.1002 7.82623 12.1447 7.89313 12.176C7.96003 12.2073 8.03444 12.2245 8.11012 12.2261L8.28006 12.206Z" fill="#8E8A88"/>
<path fill-rule="evenodd" clip-rule="evenodd" d="M10.945 14.9875L8.93836 15.4878C8.88945 15.5015 8.84775 15.5301 8.82073 15.5686C8.79371 15.6071 8.783 15.6531 8.79083 15.6978C8.79083 15.743 8.81115 15.7861 8.8473 15.818C8.88344 15.8499 8.93236 15.8679 8.98347 15.8679H10.6502C10.83 15.8682 11.0091 15.848 11.183 15.8078C11.2521 15.7898 11.3159 15.7593 11.3707 15.7179C11.4254 15.6765 11.4698 15.6252 11.5005 15.5676C11.5341 15.48 11.5341 15.3851 11.5005 15.2975C11.4734 15.1913 11.3995 15.0992 11.2954 15.041C11.1912 14.9828 11.0652 14.9636 10.945 14.9875Z" fill="#8E8A88"/>
<path fill-rule="evenodd" clip-rule="evenodd" d="M25.0815 12.0559C25.0425 11.9542 24.9607 11.8697 24.8532 11.8194C24.7457 11.7692 24.6206 11.7571 24.5034 11.7857L21.4763 12.5461C21.4075 12.5621 21.344 12.5923 21.2908 12.6341C21.2377 12.6758 21.1963 12.7278 21.1702 12.7862C21.1301 12.8797 21.1301 12.9829 21.1702 13.0764C21.198 13.1626 21.2579 13.238 21.3401 13.2906C21.4223 13.3432 21.5223 13.37 21.6238 13.3666H21.7484L24.7754 12.6062C24.8422 12.5865 24.9036 12.5551 24.9562 12.5139C25.0088 12.4726 25.0515 12.4223 25.0815 12.3661C25.1242 12.2661 25.1242 12.1558 25.0815 12.0559Z" fill="#8E8A88"/>
<path fill-rule="evenodd" clip-rule="evenodd" d="M25.0815 13.1264C25.0648 13.0745 25.0361 13.0261 24.9977 12.9842C24.9592 12.9423 24.9116 12.9078 24.8576 12.8826C24.8036 12.8574 24.7444 12.8419 24.6835 12.8374C24.6226 12.8329 24.5614 12.8393 24.5034 12.8562L21.4763 13.6066C21.4078 13.6263 21.3451 13.6589 21.2922 13.7021C21.2394 13.7453 21.1977 13.798 21.1702 13.8567C21.1301 13.9502 21.1301 14.0534 21.1702 14.1469C21.1997 14.2322 21.2602 14.3066 21.3421 14.359C21.4239 14.4113 21.5228 14.4388 21.6238 14.4371H21.7484L24.7754 13.6767C24.8439 13.657 24.9066 13.6244 24.9595 13.5812C25.0123 13.538 25.054 13.4853 25.0815 13.4266C25.1245 13.3301 25.1245 13.2228 25.0815 13.1264Z" fill="#8E8A88"/>
<path fill-rule="evenodd" clip-rule="evenodd" d="M25.0814 14.197C25.0644 14.145 25.0358 14.0963 24.9975 14.0541C24.9592 14.0118 24.912 13.9768 24.8583 13.9508C24.8045 13.9247 24.7454 13.9082 24.6845 13.9024C24.6235 13.8966 24.562 13.9015 24.5032 13.9168L21.4761 14.6772C21.4084 14.6953 21.346 14.7261 21.2932 14.7676C21.2403 14.8091 21.1982 14.8601 21.17 14.9173C21.1302 15.0143 21.1302 15.1206 21.17 15.2175C21.1996 15.3028 21.2601 15.3772 21.3419 15.4296C21.4237 15.4819 21.5226 15.5092 21.6236 15.5075H21.7482L24.7753 14.7473C24.844 14.7313 24.9075 14.7011 24.9607 14.6594C25.0139 14.6177 25.0553 14.5654 25.0814 14.507C25.1274 14.4076 25.1274 14.2964 25.0814 14.197Z" fill="#8E8A88"/>
<path fill-rule="evenodd" clip-rule="evenodd" d="M21.8389 12.206L23.5281 11.7857C23.5779 11.7721 23.621 11.7438 23.6499 11.7055C23.6788 11.6673 23.6919 11.6214 23.687 11.5756C23.6842 11.5286 23.6618 11.4843 23.6241 11.451C23.5864 11.4178 23.5359 11.398 23.4827 11.3956H21.5896C21.4974 11.4185 21.4149 11.4649 21.3524 11.5289C21.2899 11.593 21.2501 11.6717 21.2381 11.7556C21.2331 11.8583 21.2649 11.9599 21.3288 12.0458C21.3722 12.1008 21.4298 12.1459 21.4968 12.1772C21.5639 12.2085 21.6385 12.2253 21.7144 12.2261L21.8389 12.206Z" fill="#8E8A88"/>
<path fill-rule="evenodd" clip-rule="evenodd" d="M24.5036 14.9876L22.4969 15.4878C22.448 15.5016 22.4063 15.5302 22.3793 15.5687C22.3523 15.6072 22.3416 15.6531 22.3494 15.6979C22.3494 15.743 22.3697 15.7862 22.4059 15.8181C22.442 15.85 22.4912 15.8679 22.5423 15.8679H24.2088C24.3886 15.8683 24.5676 15.848 24.7416 15.8078C24.8107 15.7899 24.8748 15.7593 24.9295 15.7179C24.9842 15.6765 25.0283 15.6253 25.059 15.5677C25.0927 15.4801 25.0927 15.3851 25.059 15.2976C25.0456 15.245 25.0206 15.1953 24.9854 15.1512C24.9502 15.1072 24.9055 15.0699 24.8539 15.0411C24.8024 15.0123 24.745 14.9926 24.6848 14.9834C24.6247 14.9742 24.5631 14.9758 24.5036 14.9876Z" fill="#8E8A88"/>
</svg>
