<svg width="31" height="41" viewBox="0 0 31 41" fill="none" xmlns="http://www.w3.org/2000/svg">
<path fill-rule="evenodd" clip-rule="evenodd" d="M10.9206 17.8251H20.5905C20.6925 17.8251 20.7834 17.695 20.7834 17.5449V16.4645C20.7834 16.3144 20.6925 16.1843 20.5905 16.1843H10.9206C10.8185 16.1843 10.739 16.3144 10.739 16.4645V17.5449C10.739 17.695 10.8185 17.8251 10.9206 17.8251Z" fill="#8E8A88"/>
<path fill-rule="evenodd" clip-rule="evenodd" d="M15.1036 15.8541H16.4185C16.4927 15.8441 16.5598 15.8096 16.6062 15.7576C16.6525 15.7055 16.6745 15.6398 16.6679 15.5739V10.8014C16.6745 10.7355 16.6525 10.67 16.6062 10.618C16.5598 10.5659 16.4927 10.5314 16.4185 10.5215H15.1036C15.0294 10.5314 14.9622 10.5659 14.9159 10.618C14.8696 10.67 14.8476 10.7355 14.8542 10.8014V15.5739C14.8476 15.6398 14.8696 15.7055 14.9159 15.7576C14.9622 15.8096 15.0294 15.8441 15.1036 15.8541Z" fill="#8E8A88"/>
<path fill-rule="evenodd" clip-rule="evenodd" d="M9.00363 20.0264C9.00036 19.9881 9.01386 19.9501 9.04127 19.9203C9.06868 19.8906 9.10805 19.8711 9.15115 19.8661H11.271C11.312 19.8734 11.3485 19.8937 11.3736 19.9233C11.3987 19.9528 11.4107 19.9896 11.4071 20.0264V20.9367C11.4107 20.9735 11.3987 21.01 11.3736 21.0396C11.3485 21.0691 11.312 21.0895 11.271 21.0967H9.15115C9.10805 21.0917 9.06868 21.0725 9.04127 21.0427C9.01386 21.013 9.00036 20.975 9.00363 20.9367V20.0264ZM14.672 20.0264C14.672 19.9363 14.7288 19.8661 14.8081 19.8661H16.928C17.0073 19.8661 17.0641 19.9363 17.0641 20.0264V20.9367C17.0641 21.0268 17.0073 21.0967 16.928 21.0967H14.8081C14.7288 21.0967 14.672 21.0268 14.672 20.9367V20.0264ZM20.3403 20.0264C20.337 19.9881 20.3505 19.9501 20.3779 19.9203C20.4054 19.8906 20.4447 19.8711 20.4878 19.8661H22.6076C22.687 19.8661 22.7438 19.9363 22.7438 20.0264V20.9367C22.7438 21.0268 22.687 21.0967 22.6076 21.0967H20.4878C20.4447 21.0917 20.4054 21.0725 20.3779 21.0427C20.3505 21.013 20.337 20.975 20.3403 20.9367V20.0264ZM8.15338 20.0264H8.25551V23.618C8.25551 23.7981 8.4029 23.9282 8.56162 23.8782L15.8056 21.8271H15.9191L23.1631 23.8782C23.3218 23.8782 23.4692 23.7981 23.4692 23.618V20.0264C23.5494 20.0213 23.6246 19.9894 23.6793 19.9374C23.734 19.8854 23.7642 19.8171 23.764 19.7462V18.6655C23.7655 18.6301 23.7592 18.5948 23.7452 18.5615C23.7312 18.5282 23.71 18.4976 23.6826 18.4716C23.6553 18.4456 23.6223 18.4246 23.5858 18.4098C23.5492 18.395 23.5094 18.3867 23.4692 18.3854H8.15338C8.11317 18.3867 8.07371 18.395 8.03713 18.4098C8.00055 18.4246 7.96764 18.4456 7.94026 18.4716C7.91288 18.4976 7.89171 18.5282 7.87771 18.5615C7.86371 18.5948 7.85709 18.6301 7.85861 18.6655V19.7462C7.86234 19.798 7.88242 19.8479 7.91646 19.8903C7.95049 19.9327 7.99732 19.966 8.05152 19.9863L8.15338 20.0264Z" fill="#8E8A88"/>
<path fill-rule="evenodd" clip-rule="evenodd" d="M30.7258 37.6553C29.6409 37.7983 28.6423 38.2601 27.8916 38.966C26.894 39.7764 26.0778 40.1166 25.3749 39.9665C24.6882 39.7785 24.0701 39.4333 23.5836 38.966C22.9487 38.346 22.1268 37.8983 21.2142 37.6753C20.5534 37.6253 19.8887 37.7154 19.2754 37.9381C18.6621 38.1609 18.1181 38.51 17.6886 38.956C16.691 39.7664 15.8635 40.1066 15.1719 39.9565C14.4816 39.7692 13.8596 39.424 13.3693 38.956C12.738 38.3321 11.9147 37.8836 10.9998 37.6653C10.3391 37.6161 9.67472 37.7066 9.06158 37.9293C8.44843 38.1521 7.90436 38.5006 7.47428 38.946C6.47665 39.7564 5.66045 40.0966 4.95757 39.9465C4.27198 39.7563 3.65445 39.4114 3.16629 38.946C2.53133 38.326 1.70942 37.8783 0.79683 37.6553C0.740147 37.6553 0.68363 37.6554 0.68363 37.7755V38.4958C0.67919 38.5208 0.684673 38.5462 0.699129 38.5681C0.713585 38.59 0.735929 38.6068 0.762787 38.6157C1.36944 38.8462 1.91432 39.1872 2.36143 39.6162C2.99867 40.2387 3.82478 40.6867 4.74197 40.9069C4.90399 40.9224 5.06762 40.9224 5.22964 40.9069C6.4052 40.8173 7.49869 40.3382 8.29048 39.5662C9.27677 38.7658 10.093 38.4356 10.7845 38.5657C11.4678 38.7539 12.0822 39.0992 12.5644 39.5662C13.2037 40.1865 14.029 40.634 14.945 40.8568C15.107 40.8716 15.2706 40.8716 15.4326 40.8568C16.6088 40.7692 17.7031 40.29 18.4935 39.5163C19.4798 38.7159 20.296 38.3858 20.9875 38.5158C21.6731 38.706 22.2906 39.0509 22.7788 39.5163C23.416 40.1388 24.2421 40.5865 25.1593 40.8068C25.3213 40.8222 25.485 40.8222 25.647 40.8068C26.8225 40.7171 27.916 40.2383 28.7078 39.4663C29.2585 38.9592 29.9697 38.6105 30.7485 38.4657C30.7763 38.4571 30.8002 38.4407 30.8166 38.4191C30.8329 38.3974 30.8407 38.3716 30.839 38.3456V37.6453C30.839 37.7053 30.7938 37.6453 30.7258 37.6553Z" fill="#8E8A88"/>
<path fill-rule="evenodd" clip-rule="evenodd" d="M9.00379 26.4796C8.98462 26.3323 9.03253 26.1845 9.13664 26.0682C9.24075 25.952 9.39256 25.8767 9.55927 25.8591C9.86536 25.8591 10.1034 26.1294 10.1034 26.4796C10.1228 26.6252 10.0767 26.7717 9.97499 26.8877C9.87324 27.0037 9.72393 27.0798 9.55927 27.0997C9.39379 27.0798 9.24353 27.0041 9.13996 26.8885C9.0364 26.7728 8.98759 26.6263 9.00379 26.4796ZM11.4073 24.9988C11.8267 24.9988 12.1554 25.3789 12.1554 25.8591C12.1812 26.059 12.1175 26.2601 11.9777 26.419C11.8379 26.5779 11.6331 26.6822 11.4073 26.7097C11.1806 26.6822 10.9749 26.5781 10.8333 26.4195C10.6916 26.2609 10.6252 26.0601 10.6478 25.8591C10.622 25.6566 10.6869 25.4532 10.8288 25.2924C10.9708 25.1316 11.1784 25.0263 11.4073 24.9988ZM13.6746 23.9983C13.9592 24.0379 14.216 24.1716 14.3928 24.3723C14.5697 24.573 14.6536 24.8255 14.627 25.0787C14.6536 25.3319 14.5697 25.5846 14.3928 25.7854C14.216 25.9861 13.9592 26.1197 13.6746 26.1593C13.39 26.1197 13.1333 25.9861 12.9564 25.7854C12.7795 25.5846 12.6957 25.3319 12.7222 25.0787C12.6957 24.8255 12.7795 24.573 12.9564 24.3723C13.1333 24.1716 13.39 24.0379 13.6746 23.9983ZM11.0898 37.005C12.1057 37.2413 13.0228 37.7311 13.7314 38.4156C14.1348 38.8101 14.6351 39.1179 15.1938 39.316H15.6926H15.7607V35.8843L17.1097 38.5956L17.325 38.4356C18.7421 37.275 20.0345 36.8149 21.3042 37.025L21.6103 37.0949L26.6891 25.8491C26.7204 25.7785 26.7203 25.7 26.6888 25.6295C26.6572 25.559 26.5966 25.5017 26.5191 25.469L15.8171 22.4675C15.7802 22.4575 15.7409 22.4575 15.7039 22.4675L4.71851 25.589L9.87673 37.0748C10.2712 36.9781 10.6835 36.9511 11.0898 36.995V37.005Z" fill="#8E8A88"/>
<path fill-rule="evenodd" clip-rule="evenodd" d="M17.2802 8.02023L17.4729 7.96014V7.73004C17.4593 7.52732 17.5205 7.32603 17.6472 7.15651C17.7739 6.98699 17.9594 6.85816 18.1759 6.78938L18.3912 6.73955V6.49944C18.3899 6.23087 18.4744 5.96729 18.6348 5.73904C18.7951 5.5108 19.025 5.32706 19.2982 5.20874L19.5589 5.10859L19.4681 4.80839C19.4187 4.64171 19.3923 4.47039 19.389 4.29812C19.3573 3.95719 19.4594 3.61711 19.6782 3.33474C19.897 3.05238 20.2189 2.84511 20.5905 2.74753H20.738L20.8061 2.58729C20.8981 2.31268 21.0833 2.06954 21.3366 1.89065C21.59 1.71176 21.8994 1.60572 22.2231 1.58679C22.6907 1.64183 23.1154 1.85543 23.4075 2.1823C23.6995 2.50917 23.8358 2.9236 23.7875 3.33768C23.7857 3.55488 23.7477 3.7708 23.6743 3.97814V4.12812L23.7421 4.25831C23.9715 4.66882 24.0881 5.12111 24.0822 5.5788C24.1507 6.15632 23.9638 6.73498 23.5602 7.19364C23.1567 7.65229 22.568 7.95542 21.917 8.04001C21.5465 8.03532 21.1863 7.93077 20.8852 7.74006L20.7153 7.63991L20.568 7.78012C20.4652 7.88924 20.3371 7.97767 20.1924 8.03977C20.0478 8.10187 19.8899 8.13609 19.7291 8.14016C19.6388 8.15053 19.5471 8.15053 19.4568 8.14016L19.2528 8.09009L19.1509 8.30016C19.0984 8.44705 18.9966 8.5765 18.8589 8.67119C18.7213 8.76589 18.5541 8.82138 18.3798 8.83046C18.3009 8.84018 18.2208 8.84018 18.1418 8.83046L17.9265 8.7606L17.8357 8.99069C17.8092 9.07085 17.7562 9.14217 17.6835 9.19563C17.6108 9.24909 17.5219 9.28207 17.4277 9.29065C17.1783 9.29065 16.9628 9.03068 16.9628 8.71052C16.9511 8.59681 16.9784 8.48261 17.0411 8.38272C17.1037 8.28283 17.1989 8.20179 17.3143 8.15018L17.2802 8.02023ZM17.3937 9.77112C17.5552 9.76597 17.7122 9.72234 17.8479 9.64483C17.9836 9.56733 18.093 9.45866 18.1645 9.33071H18.3458C18.5858 9.31503 18.8169 9.24397 19.0159 9.12455C19.2149 9.00513 19.3747 8.84163 19.4795 8.65043C19.7055 8.67591 19.9352 8.65593 20.1512 8.59181C20.3672 8.52769 20.564 8.42123 20.7266 8.28037C21.07 8.46022 21.461 8.55664 21.8603 8.5603C23.3567 8.5603 24.5696 7.17977 24.5696 5.48891C24.5716 4.96611 24.4522 4.4485 24.2184 3.96812C24.2778 3.73156 24.308 3.49008 24.3089 3.24779C24.3739 2.69002 24.192 2.13162 23.801 1.68962C23.4101 1.24763 22.8407 0.956207 22.2118 0.876465C21.7946 0.899312 21.3949 1.03298 21.0651 1.25972C20.7354 1.48645 20.4909 1.79569 20.3638 2.14713C19.8837 2.31092 19.476 2.60645 19.2005 2.99009C18.925 3.37372 18.7964 3.82532 18.8335 4.27834C18.8223 4.42158 18.8223 4.56525 18.8335 4.70849C18.5493 4.8798 18.3108 5.10368 18.1346 5.36458C17.9584 5.62549 17.8485 5.91716 17.813 6.21927C17.5507 6.34634 17.3285 6.52896 17.1662 6.75079C17.0039 6.97261 16.9069 7.22669 16.8836 7.48993C16.7007 7.61614 16.5546 7.77923 16.4579 7.96551C16.3613 8.15179 16.3169 8.35565 16.3281 8.5603C16.3961 9.23064 16.8382 9.77112 17.3937 9.77112Z" fill="#8E8A88"/>
</svg>
