<svg width="34" height="30" viewBox="0 0 34 30" fill="none" xmlns="http://www.w3.org/2000/svg">
<path fill-rule="evenodd" clip-rule="evenodd" d="M12.9631 2.76141H20.5132C20.6567 2.74394 20.7868 2.67768 20.8758 2.57675C20.9647 2.47582 21.0054 2.34817 20.9892 2.2211C21.0597 1.69597 20.8919 1.16755 20.5223 0.751359C20.1527 0.335166 19.6113 0.0650742 19.0167 0H14.482C13.8895 0.0674866 13.3511 0.338617 12.9838 0.754534C12.6166 1.17045 12.4502 1.6975 12.5208 2.2211C12.5009 2.34414 12.536 2.46916 12.6185 2.56991C12.7009 2.67066 12.8245 2.73935 12.9631 2.76141Z" fill="#8E8A88"/>
<path fill-rule="evenodd" clip-rule="evenodd" d="M8.93922 24.6225H4.29109C4.1807 24.6374 4.08116 24.6897 4.01349 24.768C3.94581 24.8464 3.91548 24.945 3.92852 25.0428V28.0444C3.88027 28.4245 4.0027 28.806 4.26978 29.1072C4.53686 29.4084 4.92731 29.605 5.35694 29.6551H7.87365C8.30328 29.605 8.69345 29.4084 8.96054 29.1072C9.22762 28.806 9.35032 28.4245 9.30207 28.0444V25.0428C9.31511 24.945 9.28451 24.8464 9.21683 24.768C9.14915 24.6897 9.04961 24.6374 8.93922 24.6225Z" fill="#8E8A88"/>
<path fill-rule="evenodd" clip-rule="evenodd" d="M29.1746 24.6225H24.5267C24.4175 24.6396 24.3196 24.6924 24.2524 24.7702C24.1852 24.8481 24.1536 24.9454 24.1639 25.0428V28.0444C24.1156 28.4245 24.2383 28.806 24.5054 29.1072C24.7725 29.4084 25.1626 29.605 25.5923 29.6551H28.109C28.5386 29.605 28.9291 29.4084 29.1961 29.1072C29.4632 28.806 29.5857 28.4245 29.5374 28.0444V25.0428C29.5504 24.945 29.5198 24.8464 29.4522 24.768C29.3845 24.6897 29.285 24.6374 29.1746 24.6225Z" fill="#8E8A88"/>
<path fill-rule="evenodd" clip-rule="evenodd" d="M31.1927 18.6995C31.2675 19.3418 31.0579 19.9848 30.6078 20.4939C30.1578 21.0029 29.5022 21.3387 28.7781 21.4309C27.4517 21.4309 26.3746 20.2002 26.3746 18.6995C26.3746 17.1987 27.5084 15.9681 28.7781 15.9681C29.5022 16.0603 30.1578 16.396 30.6078 16.9051C31.0579 17.4142 31.2675 18.0572 31.1927 18.6995ZM23.4726 22.4414C23.4726 22.7015 23.3025 22.9116 23.0757 22.9116H10.3901C10.1747 22.9116 9.99316 22.7015 9.99316 22.4414V21.0708C9.99316 20.8107 10.1747 20.6004 10.3901 20.6004H23.0757C23.3025 20.6004 23.4726 20.8107 23.4726 21.0708V22.4414ZM7.05714 18.6995C7.13195 19.3418 6.92238 19.9848 6.47232 20.4939C6.02226 21.0029 5.36643 21.3387 4.64229 21.4309C3.32723 21.4309 2.23906 20.2002 2.23906 18.6995C2.23906 17.1987 3.37258 15.9681 4.64229 15.9681C5.36643 16.0603 6.02226 16.396 6.47232 16.9051C6.92238 17.4142 7.13195 18.0572 7.05714 18.6995ZM7.1363 6.34306C7.19631 6.04488 7.3651 5.77216 7.61678 5.56629C7.86846 5.36043 8.18924 5.23277 8.53069 5.20258H24.9462C25.2862 5.23323 25.6056 5.36129 25.8554 5.56727C26.1051 5.77325 26.2718 6.04569 26.3295 6.34306L28.0978 11.916H5.42445L7.18169 6.34306H7.1363ZM32.5871 13.6769L29.7642 11.8061L27.2362 4.71234C27.1656 4.42865 26.9948 4.17196 26.7482 3.97954C26.5017 3.78713 26.1922 3.66888 25.8645 3.64172H7.60128C7.27443 3.66786 6.96553 3.78605 6.72058 3.97881C6.47563 4.17157 6.30739 4.42875 6.24066 4.71234L3.70126 11.8061L0.674454 13.8071C0.444114 13.9829 0.263628 14.2037 0.147477 14.4522C0.0313255 14.7006 -0.0173602 14.9697 0.00549144 15.2377L0.266213 22.4714C0.266213 23.3119 0.867233 23.9722 1.58144 23.9722H31.3061C32.1451 23.9722 32.8478 23.2018 32.9159 22.2113L33.4035 15.5179C33.4405 15.1791 33.3855 14.8371 33.2436 14.5206C33.1017 14.204 32.8767 13.9218 32.5871 13.6969V13.6769Z" fill="#8E8A88"/>
</svg>
