<svg width="31" height="38" viewBox="0 0 31 38" fill="none" xmlns="http://www.w3.org/2000/svg">
<path fill-rule="evenodd" clip-rule="evenodd" d="M30.0279 9.74213H1.8789C1.64083 9.74213 1.53894 10.0923 1.743 10.2424L4.16893 12.1632C4.20714 12.1922 4.2549 12.2098 4.3051 12.2133H27.602C27.6522 12.2098 27.6997 12.1922 27.7379 12.1632L30.1641 10.2424C30.3682 10.0923 30.266 9.74213 30.0279 9.74213Z" fill="#8E8A88"/>
<path fill-rule="evenodd" clip-rule="evenodd" d="M28.9281 30.7328H2.9786C2.61441 30.7778 2.28413 30.9458 2.05778 31.2016C1.83143 31.4574 1.72666 31.7807 1.7655 32.1034V32.6538C1.72666 32.9765 1.83143 33.2998 2.05778 33.5556C2.28413 33.8114 2.61441 33.9797 2.9786 34.0246H28.9281C29.2923 33.9797 29.6223 33.8114 29.8486 33.5556C30.075 33.2998 30.18 32.9765 30.1412 32.6538V32.1034C30.18 31.7807 30.075 31.4574 29.8486 31.2016C29.6223 30.9458 29.2923 30.7778 28.9281 30.7328Z" fill="#8E8A88"/>
<path fill-rule="evenodd" clip-rule="evenodd" d="M23.9515 7.05055H7.95535C7.8911 7.05123 7.82742 7.0396 7.76881 7.01635C7.71019 6.9931 7.65811 6.95882 7.61603 6.91596C7.57394 6.8731 7.54299 6.82269 7.52524 6.76818C7.5075 6.71367 7.50345 6.65641 7.51334 6.60037L7.80811 3.23878C7.82447 3.14601 7.87802 3.06151 7.95923 3.00087C8.04044 2.94022 8.14374 2.90742 8.25011 2.90853H23.6567C23.7631 2.90742 23.8661 2.94022 23.9473 3.00087C24.0285 3.06151 24.0824 3.14601 24.0987 3.23878L24.3935 6.60037C24.4034 6.65641 24.3993 6.71367 24.3816 6.76818C24.3638 6.82269 24.3329 6.8731 24.2908 6.91596C24.2487 6.95882 24.1964 6.9931 24.1378 7.01635C24.0791 7.0396 24.0157 7.05123 23.9515 7.05055ZM30.9802 8.28141L29.9937 0.747511C29.9897 0.563974 29.9105 0.387733 29.7709 0.251651C29.6313 0.11557 29.4408 0.0288457 29.2343 0.00714111H2.67257C2.46412 0.0290781 2.27189 0.117389 2.13203 0.25556C1.99217 0.393731 1.91411 0.572255 1.91283 0.757526L0.926683 8.28141C0.858663 8.81168 1.22135 9.28192 1.68615 9.28192H30.2204C30.6852 9.28192 31.0482 8.81168 30.9802 8.28141Z" fill="#8E8A88"/>
<path fill-rule="evenodd" clip-rule="evenodd" d="M6.58347 20.0374L8.04594 15.7853C8.13931 15.4034 8.36915 15.058 8.70189 14.8004C9.03464 14.5428 9.45252 14.3864 9.89368 14.3544H22.0125C22.4537 14.3864 22.8715 14.5428 23.2043 14.8004C23.537 15.058 23.7672 15.4034 23.8605 15.7853L25.323 20.0374C25.323 20.2175 25.2661 20.3975 25.1074 20.3975H6.7988C6.64008 20.3975 6.52678 20.2175 6.58347 20.0374ZM15.9476 21.3779H26.5926C26.6538 21.3717 26.7132 21.3549 26.7669 21.3283C26.8207 21.3018 26.8679 21.2661 26.9059 21.2233C26.9438 21.1805 26.9718 21.1314 26.9881 21.079C27.0044 21.0265 27.0087 20.9717 27.0008 20.9177V13.254C27.0137 13.1455 26.9784 13.0367 26.9023 12.9508C26.8261 12.8649 26.715 12.8085 26.5926 12.7935H5.31363C5.19037 12.8085 5.07831 12.8645 5.00032 12.9501C4.92234 13.0357 4.88447 13.1445 4.89432 13.254V20.9177C4.88157 21.0277 4.91848 21.1376 4.997 21.2238C5.07552 21.3099 5.18917 21.3653 5.31363 21.3779H15.9476Z" fill="#8E8A88"/>
<path fill-rule="evenodd" clip-rule="evenodd" d="M7.21854 34.4948H4.35034L4.54298 36.2957C4.52832 36.675 4.675 37.0453 4.95398 37.3341C5.23296 37.6229 5.62417 37.8091 6.05083 37.8563H8.73747C9.16308 37.8069 9.55277 37.6202 9.83127 37.3319C10.1098 37.0436 10.2574 36.6744 10.2453 36.2957L10.438 34.4948H7.21854Z" fill="#8E8A88"/>
<path fill-rule="evenodd" clip-rule="evenodd" d="M24.3365 34.4948H21.4683L21.6612 36.2957C21.6465 36.675 21.7929 37.0453 22.0719 37.3341C22.3509 37.6229 22.7421 37.8091 23.1688 37.8563H25.8557C26.2813 37.8069 26.671 37.6202 26.9495 37.3319C27.228 37.0436 27.3756 36.6744 27.3635 36.2957L27.5562 34.4948H24.3365Z" fill="#8E8A88"/>
<path fill-rule="evenodd" clip-rule="evenodd" d="M8.79366 26.3805V28.2416C8.80678 28.3564 8.76949 28.4713 8.68932 28.5625C8.60914 28.6538 8.49234 28.7144 8.363 28.7318H4.2136C4.08426 28.7144 3.96746 28.6538 3.88729 28.5625C3.80711 28.4713 3.76982 28.3564 3.78294 28.2416V26.3805C3.76982 26.2656 3.80711 26.1508 3.88729 26.0595C3.96746 25.9683 4.08426 25.9076 4.2136 25.8903H8.363C8.49234 25.9076 8.60914 25.9683 8.68932 26.0595C8.76949 26.1508 8.80678 26.2656 8.79366 26.3805ZM9.92733 28.2716H21.8876C21.9608 28.2792 22.0278 28.3115 22.0744 28.362C22.1209 28.4124 22.1433 28.477 22.1369 28.5418C22.1436 28.6077 22.1216 28.6732 22.0752 28.7252C22.0289 28.7773 21.9617 28.8118 21.8876 28.8217H9.92733C9.85411 28.8141 9.78707 28.7817 9.7405 28.7313C9.69394 28.6809 9.67156 28.6163 9.67795 28.5515C9.67156 28.4867 9.69394 28.4224 9.7405 28.372C9.78707 28.3216 9.85411 28.2892 9.92733 28.2816V28.2716ZM9.92733 27.041H21.8876C21.9608 27.0486 22.0278 27.0809 22.0744 27.1314C22.1209 27.1818 22.1433 27.2461 22.1369 27.3109C22.1436 27.3768 22.1216 27.4425 22.0752 27.4946C22.0289 27.5466 21.9617 27.5812 21.8876 27.5911H9.92733C9.85317 27.5812 9.78601 27.5466 9.73967 27.4946C9.69334 27.4425 9.67134 27.3768 9.67795 27.3109C9.67156 27.2461 9.69394 27.1818 9.7405 27.1314C9.78707 27.0809 9.85411 27.0486 9.92733 27.041ZM9.92733 25.8101H21.8876C21.9608 25.8177 22.0278 25.8503 22.0744 25.9008C22.1209 25.9512 22.1433 26.0155 22.1369 26.0803C22.1436 26.1462 22.1216 26.2119 22.0752 26.264C22.0289 26.316 21.9617 26.3505 21.8876 26.3605H9.92733C9.85317 26.3505 9.78601 26.316 9.73967 26.264C9.69334 26.2119 9.67134 26.1462 9.67795 26.0803C9.67156 26.0155 9.69394 25.9512 9.7405 25.9008C9.78707 25.8503 9.85411 25.8177 9.92733 25.8101ZM23.0553 26.3805C23.0424 26.2641 23.0812 26.1479 23.1638 26.0564C23.2463 25.9649 23.3659 25.9053 23.4973 25.8903H27.6467C27.776 25.9076 27.8928 25.9683 27.973 26.0595C28.0532 26.1508 28.0905 26.2656 28.0773 26.3805V28.2416C28.0905 28.3564 28.0532 28.4713 27.973 28.5625C27.8928 28.6538 27.776 28.7144 27.6467 28.7318H23.4973C23.3659 28.7168 23.2463 28.6572 23.1638 28.5657C23.0812 28.4742 23.0424 28.358 23.0553 28.2416V26.3805ZM4.04366 22.0983L2.91 24.0993C2.76973 24.46 2.69705 24.8386 2.69467 25.22V29.6221C2.68168 29.7253 2.71464 29.829 2.78656 29.9111C2.85847 29.9933 2.96354 30.0474 3.07994 30.0623H28.6101C28.7274 30.0474 28.8336 29.9937 28.9074 29.9118C28.9811 29.83 29.0169 29.7263 29.007 29.6221V25.22C29.0053 24.8377 28.9286 24.4585 28.7803 24.0993L27.7145 22.0983C27.6948 22.0285 27.6498 21.9663 27.5863 21.9212C27.5229 21.876 27.4447 21.8504 27.3633 21.8481H4.33843C4.27604 21.8675 4.22019 21.9006 4.17652 21.9444C4.13284 21.9882 4.10283 22.0412 4.08905 22.0983H4.04366Z" fill="#8E8A88"/>
</svg>
