<svg width="38" height="24" viewBox="0 0 38 24" fill="none" xmlns="http://www.w3.org/2000/svg">
<path fill-rule="evenodd" clip-rule="evenodd" d="M34.6928 4.71307C34.4557 4.7192 34.2234 4.77283 34.0133 4.86989C33.8031 4.96696 33.6205 5.10498 33.4797 5.27342L29.5005 9.61548V11.7567L34.4207 6.37383C34.4518 6.33527 34.4926 6.30356 34.5397 6.28101C34.5869 6.25847 34.6392 6.24581 34.6928 6.24389H37.595V4.71307H34.6928Z" fill="#8E8A88"/>
<path fill-rule="evenodd" clip-rule="evenodd" d="M27.6083 9.69564H22.3028C22.1464 9.69564 21.9965 9.64078 21.886 9.54321C21.7754 9.44564 21.7132 9.31333 21.7132 9.17535V2.53201C21.7132 2.39403 21.7754 2.26147 21.886 2.1639C21.9965 2.06633 22.1464 2.01173 22.3028 2.01173H27.6083C27.7646 2.01173 27.9145 2.06633 28.0251 2.1639C28.1356 2.26147 28.1978 2.39403 28.1978 2.53201V9.17535C28.1978 9.24452 28.1822 9.31308 28.1518 9.37687C28.1215 9.44065 28.0772 9.49843 28.0212 9.54688C27.9653 9.59532 27.8989 9.63345 27.8261 9.659C27.7532 9.68455 27.6753 9.69697 27.5969 9.69564H27.6083ZM29.1388 12.6271V1.3312C29.1358 1.16311 29.0581 1.00285 28.9224 0.884922C28.7866 0.766992 28.6036 0.700968 28.4131 0.700989H21.4979C21.3074 0.700968 21.1244 0.766992 20.9887 0.884922C20.8529 1.00285 20.7752 1.16311 20.7722 1.3312V13.7878H28.1184C28.4265 13.7504 28.7059 13.6078 28.8966 13.3909C29.0873 13.174 29.1743 12.8998 29.1388 12.6271Z" fill="#8E8A88"/>
<path fill-rule="evenodd" clip-rule="evenodd" d="M6.75973 12.8872H7.76857C7.7876 12.8897 7.80505 12.898 7.81756 12.9109C7.83007 12.9238 7.83686 12.9404 7.83666 12.9573V13.7177V13.7878H20.307V7.05417C20.3072 7.0372 20.3004 7.02088 20.2879 7.008C20.2754 6.99512 20.2579 6.98673 20.2389 6.98431H19.2301C19.2301 6.98431 19.162 6.98423 19.162 6.90419V6.15381C19.162 6.15381 19.1619 6.0837 19.1052 6.0837H16.1238V4.28297C16.1271 4.24737 16.1148 4.21195 16.0895 4.18405C16.0642 4.15615 16.0277 4.13774 15.9877 4.13275H13.9924C13.9523 4.13774 13.9158 4.15615 13.8905 4.18405C13.8652 4.21195 13.8532 4.24737 13.8565 4.28297V6.0837H13.0627V4.28297C13.066 4.24737 13.054 4.21195 13.0287 4.18405C13.0034 4.15615 12.9669 4.13774 12.9268 4.13275H10.9315C10.8915 4.13774 10.855 4.15615 10.8297 4.18405C10.8044 4.21195 10.7921 4.24737 10.7954 4.28297V6.0837H7.81396C7.81396 6.0837 7.81396 6.08377 7.81396 6.15381V6.90419C7.81396 6.95422 7.8139 6.98431 7.74588 6.98431H6.73704C6.71801 6.98673 6.70056 6.99512 6.68805 7.008C6.67554 7.02088 6.66875 7.0372 6.66895 7.05417V12.8071C6.66895 12.8571 6.72572 12.8872 6.75973 12.8872Z" fill="#8E8A88"/>
<path fill-rule="evenodd" clip-rule="evenodd" d="M12.9494 16.0689L12.1899 19.6207L12.9494 23.1625H22.8579L23.6174 19.6207L22.8579 16.0689H12.9494Z" fill="#8E8A88"/>
<path fill-rule="evenodd" clip-rule="evenodd" d="M23.7878 16.0689L24.5473 19.6207L23.7878 23.1625H34.024L35.5552 19.6207L34.024 16.0689H23.7878Z" fill="#8E8A88"/>
<path fill-rule="evenodd" clip-rule="evenodd" d="M1.78334 16.0689L0.264404 19.6207L1.78334 23.1625H12.0195L11.2601 19.6207L12.0195 16.0689H1.78334Z" fill="#8E8A88"/>
<path fill-rule="evenodd" clip-rule="evenodd" d="M19.2532 5.60345C19.5855 5.57559 19.8914 5.43233 20.104 5.2053C20.3166 4.97826 20.4184 4.68608 20.3869 4.39287V2.61191C20.3935 2.54862 20.3724 2.48549 20.3282 2.43531C20.284 2.38513 20.2197 2.35166 20.1486 2.34176H19.752V2.26188C19.752 1.98173 19.9446 1.76162 20.1826 1.76162H20.5909V1.36127H20.1826C19.9438 1.39118 19.7276 1.502 19.5795 1.67002C19.4315 1.83804 19.3632 2.05026 19.3891 2.26188V2.34176H19.3097C19.2738 2.34546 19.2393 2.35543 19.2078 2.37107C19.1764 2.3867 19.1489 2.40773 19.1267 2.43287C19.1046 2.45801 19.0883 2.48689 19.0789 2.51763C19.0694 2.54837 19.0669 2.58034 19.0717 2.61191V5.3333C19.0601 5.39004 19.0721 5.44858 19.1054 5.49818C19.1387 5.54777 19.1913 5.58514 19.2532 5.60345Z" fill="#8E8A88"/>
<path fill-rule="evenodd" clip-rule="evenodd" d="M30.1249 2.26188V2.34176H29.7283C29.6925 2.34546 29.6576 2.35543 29.6262 2.37107C29.5947 2.3867 29.5672 2.40773 29.5451 2.43287C29.5229 2.45801 29.5066 2.48689 29.4972 2.51763C29.4878 2.54837 29.4852 2.58034 29.49 2.61191V4.39287C29.4546 4.67885 29.5478 4.96583 29.7491 5.19211C29.9503 5.41838 30.244 5.56592 30.5672 5.60345C30.6383 5.59355 30.7023 5.56008 30.7466 5.5099C30.7908 5.45972 30.8119 5.39659 30.8052 5.3333V2.61191C30.8119 2.54862 30.7908 2.48549 30.7466 2.43531C30.7023 2.38513 30.6383 2.35166 30.5672 2.34176H30.4764V2.26188C30.5053 2.04978 30.4382 1.83596 30.2896 1.66733C30.141 1.4987 29.923 1.38875 29.6829 1.36127H29.2747V1.76162H29.6829C29.8165 1.77662 29.938 1.83743 30.0208 1.93114C30.1037 2.02486 30.141 2.14388 30.1249 2.26188Z" fill="#8E8A88"/>
<path fill-rule="evenodd" clip-rule="evenodd" d="M24.9556 15.1684C24.9589 15.1987 24.9492 15.229 24.9282 15.2532C24.9071 15.2773 24.8764 15.2934 24.8424 15.2984H23.1986C23.1812 15.2984 23.1639 15.2955 23.148 15.2893C23.132 15.2832 23.1179 15.274 23.1062 15.2627C23.0944 15.2514 23.0854 15.2382 23.0799 15.2236C23.0743 15.2091 23.0722 15.1937 23.0738 15.1784V14.6481C23.0722 14.6323 23.0742 14.6165 23.0796 14.6014C23.085 14.5863 23.094 14.5722 23.1056 14.5602C23.1172 14.5481 23.1312 14.5381 23.1471 14.5308C23.1631 14.5236 23.1807 14.5194 23.1986 14.5181H24.8083C24.8424 14.5231 24.8731 14.5392 24.8941 14.5633C24.9152 14.5875 24.9251 14.6178 24.9218 14.6481V15.1784L24.9556 15.1684ZM22.4729 15.2886C22.4207 15.2836 22.37 15.2694 22.324 15.2471C22.278 15.2247 22.2374 15.1945 22.2047 15.1582C22.172 15.1219 22.1479 15.0801 22.1336 15.0355C22.1193 14.9909 22.1151 14.9443 22.1214 14.8982C22.1151 14.8522 22.1193 14.8056 22.1336 14.761C22.1479 14.7163 22.172 14.6746 22.2047 14.6383C22.2374 14.602 22.278 14.5718 22.324 14.5494C22.37 14.527 22.4207 14.5131 22.4729 14.5081C22.6656 14.5081 22.8131 14.6781 22.8131 14.8982C22.8131 15.1184 22.6656 15.2986 22.4729 15.2886ZM13.2904 15.2886C13.0977 15.2886 12.9502 15.1184 12.9502 14.8982C12.9502 14.6781 13.0977 14.5081 13.2904 14.5081C13.3426 14.5131 13.3933 14.527 13.4393 14.5494C13.4853 14.5718 13.5256 14.602 13.5583 14.6383C13.591 14.6746 13.6154 14.7163 13.6297 14.761C13.644 14.8056 13.6479 14.8522 13.6416 14.8982C13.6416 15.1184 13.4831 15.2986 13.2904 15.2886ZM12.6895 15.1684C12.6928 15.1987 12.6829 15.229 12.6618 15.2532C12.6408 15.2773 12.6101 15.2934 12.576 15.2984H10.9209C10.9045 15.2971 10.8885 15.2931 10.8739 15.2864C10.8593 15.2797 10.8465 15.2704 10.836 15.2593C10.8254 15.2481 10.8173 15.2353 10.8124 15.2214C10.8076 15.2075 10.8059 15.1929 10.8075 15.1784V14.6481C10.8041 14.6178 10.8141 14.5875 10.8351 14.5633C10.8562 14.5392 10.8869 14.5231 10.9209 14.5181H12.576C12.6101 14.5231 12.6408 14.5392 12.6618 14.5633C12.6829 14.5875 12.6928 14.6178 12.6895 14.6481V15.1784V15.1684ZM10.048 14.1678C9.91195 14.1678 9.80996 14.2879 9.80996 14.448V15.2984C9.80521 15.3299 9.80773 15.3622 9.81716 15.3929C9.82659 15.4236 9.84261 15.4525 9.86476 15.4777C9.88692 15.5028 9.91469 15.5236 9.94613 15.5392C9.97757 15.5549 10.0121 15.5648 10.048 15.5685H25.7153C25.7885 15.561 25.8556 15.5286 25.9021 15.4782C25.9487 15.4277 25.9711 15.3632 25.9647 15.2984V14.448C25.9694 14.4151 25.9667 14.3818 25.9567 14.3498C25.9467 14.3179 25.9295 14.288 25.9063 14.2619C25.8831 14.2358 25.8544 14.214 25.8216 14.1979C25.7888 14.1818 25.7526 14.1716 25.7153 14.1678H10.048Z" fill="#8E8A88"/>
<path fill-rule="evenodd" clip-rule="evenodd" d="M25.1362 8.23507V8.07483H25.0794C25.0043 8.06482 24.9279 8.06482 24.8527 8.07483H24.8074V8.23507C24.4779 8.23199 24.1501 8.19152 23.8323 8.11489C24.2043 8.04084 24.5846 8.00406 24.9659 8.00497C25.3473 8.00406 25.7276 8.04084 26.0996 8.11489C25.778 8.19204 25.4467 8.23251 25.1135 8.23507H25.1362ZM26.0772 7.69475C25.7044 7.62589 25.3244 7.59225 24.9435 7.5946C24.5627 7.59225 24.1826 7.62589 23.8099 7.69475C23.5151 7.75478 23.209 7.85475 23.209 8.11489C23.209 8.37502 23.5151 8.48501 23.8099 8.54504C24.1156 8.60359 24.4266 8.63718 24.7393 8.64519V9.48572H25.0794V8.64519C25.392 8.64442 25.7037 8.61414 26.0091 8.55506C26.3039 8.49503 26.61 8.39504 26.61 8.1249C26.61 7.85476 26.3719 7.75478 26.0772 7.69475Z" fill="#8E8A88"/>
<path fill-rule="evenodd" clip-rule="evenodd" d="M27.0755 8.04462C26.9984 8.05457 26.9283 8.09036 26.8799 8.14428C26.8314 8.19821 26.8082 8.26624 26.8148 8.33482C26.813 8.38452 26.8244 8.43403 26.848 8.47918C26.8716 8.52434 26.9067 8.56391 26.9507 8.59497V9.4856H27.2117V8.59497C27.2536 8.56291 27.2867 8.52282 27.3083 8.47772C27.3299 8.43262 27.3394 8.38371 27.3362 8.33482C27.341 8.30062 27.338 8.26612 27.3274 8.23295C27.3168 8.19979 27.2988 8.16859 27.2745 8.14159C27.2503 8.1146 27.2204 8.09229 27.1862 8.07564C27.1521 8.05899 27.1143 8.04834 27.0755 8.04462Z" fill="#8E8A88"/>
<path fill-rule="evenodd" clip-rule="evenodd" d="M27.6417 7.82458C27.4943 7.82458 27.3809 7.9547 27.3809 8.12479C27.3778 8.17222 27.3875 8.21956 27.4092 8.26304C27.4309 8.30653 27.4638 8.34491 27.5055 8.37492V9.4856H27.7665V8.37492C27.8103 8.34596 27.8455 8.30805 27.8692 8.26451C27.8929 8.22096 27.9042 8.17306 27.9024 8.12479C27.9121 8.05459 27.8903 7.98379 27.8415 7.92767C27.7928 7.87155 27.721 7.83454 27.6417 7.82458Z" fill="#8E8A88"/>
</svg>
